<?xml version="1.0" encoding="UTF-8"?>
<svg width="67px" height="67px" viewBox="0 0 67 67" version="1.1" xmlns="http://www.w3.org/2000/svg" xmlns:xlink="http://www.w3.org/1999/xlink">
    <title>action_levels</title>
    <g id="All-Icons" stroke="none" stroke-width="1" fill="none" fill-rule="evenodd">
        <g id="action_levels" transform="translate(0.000000, 0.931034)">
            <path d="M56.712234,1 C59.1975153,1 61.4475153,2.00735931 63.076195,3.63603897 C64.7048747,5.26471863 65.712234,7.51471863 65.712234,10 L65.712234,10 L65.712234,65 L10.712234,65 C8.22695259,65 5.97695259,63.9926407 4.34827294,62.363961 C2.71959328,60.7352814 1.71223397,58.4852814 1.71223397,56 L1.71223397,56 L1.71223397,10 C1.71223397,7.51471863 2.71959328,5.26471863 4.34827294,3.63603897 C5.97695259,2.00735931 8.22695259,1 10.712234,1 L10.712234,1 Z" id="rectangle" stroke="#000000" stroke-width="2" fill="#FFFFFF"></path>
            <path d="M44.7107127,11.0751608 C44.2275565,11.0888674 43.8506256,11.4966379 43.8609057,11.979794 C43.8711859,12.4595238 44.2618225,12.829601 44.7381258,12.829601 L44.765539,12.829601 C44.8786179,12.8158945 47.9591685,12.8158945 51.1253849,16.0643503 C54.3121616,19.329939 54.3875472,22.4516093 54.3875472,22.4790224 C54.3875472,22.9621786 54.7781847,23.3562425 55.2647673,23.3562425 C55.7513508,23.3562425 56.1419875,22.9621786 56.1419875,22.4790224 C56.1419875,22.3248238 56.1008678,18.6685975 52.3863888,14.8581726 C48.6479231,11.0271878 44.8820452,11.0648808 44.7107127,11.0751608 Z M44.7381258,16.3384815 C44.2583961,16.3384815 43.8677594,16.7359719 43.8609057,17.2157017 C43.8540529,17.6954314 44.2583961,18.0826417 44.7381258,18.0929218 C44.7963785,18.0929218 46.167035,18.1511745 47.6165044,19.6006439 C49.0659738,21.0501133 49.1242265,22.4310499 49.1242265,22.4790224 C49.1242265,22.9621786 49.514864,23.3562425 50.0014466,23.3562425 C50.4880301,23.3562425 50.8786667,22.9621786 50.8786667,22.4790224 C50.8786667,22.3933566 50.8649602,20.3270918 48.8775083,18.33964 C46.8900565,16.3521881 44.8237916,16.3384815 44.7381258,16.3384815 Z M37.4736467,16.3658682 C36.5313201,16.3624683 35.5615814,16.6914258 34.8145732,17.3801804 L13.3226801,38.9543129 C11.9246105,40.3523825 11.9143304,42.6413788 13.3226801,44.1628074 L23.1639934,53.9767076 C23.8390414,54.6517556 24.7368219,55.0184065 25.7134144,55.0184065 C26.6763003,55.0184065 27.6049203,54.6586094 28.3450747,53.9767076 L49.8643809,32.4299882 C51.2041978,30.8640135 51.2041978,28.5887238 49.8369678,27.2214937 L39.9956545,17.3801804 C39.3240329,16.7085588 38.4159732,16.3693211 37.4736467,16.3658682 Z M36.8431447,24.2334627 C40.2355198,24.2334627 42.9836856,26.9816293 42.9836856,30.3740036 C42.9836856,33.7663787 40.2355198,36.5145444 36.8431447,36.5145444 C33.4507704,36.5145444 30.7026038,33.7663787 30.7026038,30.3740036 C30.7026038,26.9816293 33.4507704,24.2334627 36.8431447,24.2334627 Z M36.8431447,28.6195633 C35.873405,28.6195633 35.0887045,29.4042639 35.0887045,30.3740036 C35.0887045,31.3437432 35.873405,32.1284438 36.8431447,32.1284438 C37.8128844,32.1284438 38.597585,31.3437432 38.597585,30.3740036 C38.597585,29.4042639 37.8128844,28.6195633 36.8431447,28.6195633 Z M25.4392831,34.7601042 C26.4090227,34.7601042 27.1937233,35.5448048 27.1937233,36.5145444 C27.1937233,37.4842841 26.4090227,38.2689847 25.4392831,38.2689847 C24.4695434,38.2689847 23.6848428,37.4842841 23.6848428,36.5145444 C23.6848428,35.5448048 24.4695434,34.7601042 25.4392831,34.7601042 Z M21.0531824,39.1462048 C22.0229221,39.1462048 22.8076227,39.9309054 22.8076227,40.9006451 C22.8076227,41.8703847 22.0229221,42.6550853 21.0531824,42.6550853 C20.0834428,42.6550853 19.2987422,41.8703847 19.2987422,40.9006451 C19.2987422,39.9309054 20.0834428,39.1462048 21.0531824,39.1462048 Z M30.7026038,40.0234249 C31.6723435,40.0234249 32.4570441,40.8081255 32.4570441,41.7778652 C32.4570441,42.7476048 31.6723435,43.5323054 30.7026038,43.5323054 C29.7328642,43.5323054 28.9481636,42.7476048 28.9481636,41.7778652 C28.9481636,40.8081255 29.7328642,40.0234249 30.7026038,40.0234249 Z M26.3165032,44.4095256 C27.2862428,44.4095256 28.0709434,45.1942262 28.0709434,46.1639658 C28.0709434,47.1337055 27.2862428,47.9184061 26.3165032,47.9184061 C25.3467635,47.9184061 24.5620629,47.1337055 24.5620629,46.1639658 C24.5620629,45.1942262 25.3467635,44.4095256 26.3165032,44.4095256 Z" id="controller" fill="#000000" fill-rule="nonzero"></path>
        </g>
    </g>
</svg>