<?xml version="1.0" encoding="UTF-8"?>
<svg width="67px" height="67px" viewBox="0 0 67 67" version="1.1" xmlns="http://www.w3.org/2000/svg" xmlns:xlink="http://www.w3.org/1999/xlink">
    <title>affix_datetime</title>
    <g id="All-Icons" stroke="none" stroke-width="1" fill="none" fill-rule="evenodd">
        <g id="affix_datetime" transform="translate(0.712234, 0.871594)">
            <path d="M56,1 C58.4852814,1 60.7352814,2.00735931 62.363961,3.63603897 C63.9926407,5.26471863 65,7.51471863 65,10 L65,10 L65,65 L10,65 C7.51471863,65 5.26471863,63.9926407 3.63603897,62.363961 C2.00735931,60.7352814 1,58.4852814 1,56 L1,56 L1,10 C1,7.51471863 2.00735931,5.26471863 3.63603897,3.63603897 C5.26471863,2.00735931 7.51471863,1 10,1 L10,1 Z" id="rectangle" stroke="#000000" stroke-width="2" fill="#FFFFFF"></path>
            <g id="file-solid" transform="translate(8.500000, 9.625834)" fill="#000000" fill-rule="nonzero">
                <path d="M0,0 L0,32.9 L25.3076923,32.9 L25.3076923,8.34362981 L24.9518029,7.94819712 L17.3594952,0.355889423 L16.9640625,0 L0,0 Z M2.53076923,2.53076923 L15.1846154,2.53076923 L15.1846154,10.1230769 L22.7769231,10.1230769 L22.7769231,30.3692308 L2.53076923,30.3692308 L2.53076923,2.53076923 Z M17.7153846,4.34975962 L20.9579327,7.59230769 L17.7153846,7.59230769 L17.7153846,4.34975962 Z" id="Shape"></path>
            </g>
            <g id="clock" transform="translate(38.586633, 39.912467)" fill="#000000" fill-rule="nonzero">
                <path d="M9.91336699,0 C4.44681672,0 0,4.44681672 0,9.91336699 C0,15.3799181 4.44681672,19.826734 9.91336699,19.826734 C15.3799181,19.826734 19.826734,15.3799181 19.826734,9.91336699 C19.826734,4.44681672 15.3799181,0 9.91336699,0 Z M9.91336699,1.65222783 C14.4860364,1.65222783 18.1745061,5.34069759 18.1745061,9.91336699 C18.1745061,14.4860364 14.4860364,18.1745061 9.91336699,18.1745061 C5.34069759,18.1745061 1.65222783,14.4860364 1.65222783,9.91336699 C1.65222783,5.34069759 5.34069759,1.65222783 9.91336699,1.65222783 Z M9.08725307,3.30445566 L9.08725307,10.7394809 L14.8700505,10.7394809 L14.8700505,9.08725307 L10.7394809,9.08725307 L10.7394809,3.30445566 L9.08725307,3.30445566 Z" id="Shape"></path>
            </g>
            <g id="calendar" transform="translate(38.456522, 18.000000)" fill="#000000" fill-rule="nonzero">
                <path d="M3.65217391,0 L3.65217391,0.913043478 L0,0.913043478 L0,21 L20.0869565,21 L20.0869565,0.913043478 L16.4347826,0.913043478 L16.4347826,0 L14.6086957,0 L14.6086957,0.913043478 L5.47826087,0.913043478 L5.47826087,0 L3.65217391,0 Z M1.82608696,2.73913043 L3.65217391,2.73913043 L3.65217391,3.65217391 L5.47826087,3.65217391 L5.47826087,2.73913043 L14.6086957,2.73913043 L14.6086957,3.65217391 L16.4347826,3.65217391 L16.4347826,2.73913043 L18.2608696,2.73913043 L18.2608696,4.56521739 L1.82608696,4.56521739 L1.82608696,2.73913043 Z M1.82608696,6.39130435 L18.2608696,6.39130435 L18.2608696,19.173913 L1.82608696,19.173913 L1.82608696,6.39130435 Z M7.30434783,8.2173913 L7.30434783,10.0434783 L9.13043478,10.0434783 L9.13043478,8.2173913 L7.30434783,8.2173913 Z M10.9565217,8.2173913 L10.9565217,10.0434783 L12.7826087,10.0434783 L12.7826087,8.2173913 L10.9565217,8.2173913 Z M14.6086957,8.2173913 L14.6086957,10.0434783 L16.4347826,10.0434783 L16.4347826,8.2173913 L14.6086957,8.2173913 Z M3.65217391,11.8695652 L3.65217391,13.6956522 L5.47826087,13.6956522 L5.47826087,11.8695652 L3.65217391,11.8695652 Z M7.30434783,11.8695652 L7.30434783,13.6956522 L9.13043478,13.6956522 L9.13043478,11.8695652 L7.30434783,11.8695652 Z M10.9565217,11.8695652 L10.9565217,13.6956522 L12.7826087,13.6956522 L12.7826087,11.8695652 L10.9565217,11.8695652 Z M14.6086957,11.8695652 L14.6086957,13.6956522 L16.4347826,13.6956522 L16.4347826,11.8695652 L14.6086957,11.8695652 Z M3.65217391,15.5217391 L3.65217391,17.3478261 L5.47826087,17.3478261 L5.47826087,15.5217391 L3.65217391,15.5217391 Z M7.30434783,15.5217391 L7.30434783,17.3478261 L9.13043478,17.3478261 L9.13043478,15.5217391 L7.30434783,15.5217391 Z M10.9565217,15.5217391 L10.9565217,17.3478261 L12.7826087,17.3478261 L12.7826087,15.5217391 L10.9565217,15.5217391 Z" id="Shape"></path>
            </g>
        </g>
    </g>
</svg>