<?xml version="1.0" encoding="UTF-8"?>
<svg width="67px" height="67px" viewBox="0 0 67 67" version="1.1" xmlns="http://www.w3.org/2000/svg" xmlns:xlink="http://www.w3.org/1999/xlink">
    <title>col_is_numeric</title>
    <g id="All-Icons" stroke="none" stroke-width="1" fill="none" fill-rule="evenodd">
        <g id="col_is_numeric" transform="translate(0.000000, 0.931034)">
            <path d="M56.712234,1.01466935 C59.1975153,1.01466935 61.4475153,2.02202867 63.076195,3.65070832 C64.7048747,5.27938798 65.712234,7.52938798 65.712234,10.0146694 L65.712234,10.0146694 L65.712234,65.0146694 L10.712234,65.0146694 C8.22695259,65.0146694 5.97695259,64.00731 4.34827294,62.3786304 C2.71959328,60.7499507 1.71223397,58.4999507 1.71223397,56.0146694 L1.71223397,56.0146694 L1.71223397,10.0146694 C1.71223397,7.52938798 2.71959328,5.27938798 4.34827294,3.65070832 C5.97695259,2.02202867 8.22695259,1.01466935 10.712234,1.01466935 L10.712234,1.01466935 Z" id="rectangle" stroke="#000000" stroke-width="2" fill="#FFFFFF"></path>
            <rect id="column" fill="#000000" x="12.2117153" y="12.0146694" width="20" height="42" rx="1"></rect>
            <path d="M49.7957388,43.0146694 L49.7957388,40.4248256 C48.7801087,42.3629863 47.248223,43.3320522 45.2000357,43.3320522 C43.5411732,43.3320522 42.2356849,42.726915 41.2835317,41.5166225 C40.3313785,40.30633 39.8553091,38.6517241 39.8553091,36.5527553 C39.8553091,34.259124 40.3948545,32.4140904 41.4739614,31.017599 C42.5530684,29.6211077 43.9728133,28.9228725 45.7332388,28.9228725 C47.3667105,28.9228725 48.7208636,29.5491683 49.7957388,30.8017787 L49.7957388,22.9687709 L52.3094107,22.9687709 L52.3094107,43.0146694 L49.7957388,43.0146694 Z M49.7957388,32.5156459 C48.5008104,31.3730621 47.2736092,30.8017787 46.1140982,30.8017787 C43.7189039,30.8017787 42.5213247,32.6341172 42.5213247,36.298849 C42.5213247,39.5234745 43.5877203,41.1357631 45.7205435,41.1357631 C47.1085712,41.1357631 48.4669561,40.3782837 49.7957388,38.8633022 L49.7957388,32.5156459 Z" id="d" fill="#000000"></path>
        </g>
    </g>
</svg>