<?xml version="1.0" encoding="UTF-8"?>
<svg width="67px" height="67px" viewBox="0 0 67 67" version="1.1" xmlns="http://www.w3.org/2000/svg" xmlns:xlink="http://www.w3.org/1999/xlink">
    <title>col_vals_increasing</title>
    <g id="All-Icons" stroke="none" stroke-width="1" fill="none" fill-rule="evenodd">
        <g id="col_vals_increasing" transform="translate(0.000000, 0.103448)">
            <path d="M56.712234,1 C59.1975153,1 61.4475153,2.00735931 63.076195,3.63603897 C64.7048747,5.26471863 65.712234,7.51471863 65.712234,10 L65.712234,10 L65.712234,65 L10.712234,65 C8.22695259,65 5.97695259,63.9926407 4.34827294,62.363961 C2.71959328,60.7352814 1.71223397,58.4852814 1.71223397,56 L1.71223397,56 L1.71223397,10 C1.71223397,7.51471863 2.71959328,5.26471863 4.34827294,3.63603897 C5.97695259,2.00735931 8.22695259,1 10.712234,1 L10.712234,1 Z" id="rectangle" stroke="#000000" stroke-width="2" fill="#FFFFFF"></path>
            <g id="increasing" transform="translate(13.712234, 13.000000)" fill="#000000" fill-rule="nonzero">
                <path d="M31.2,0 L31.2,1.6 L37.25,1.6 L27.2,11.65 L24.575,9.025 L24,8.475 L23.425,9.025 L14.4,18.05 L11.775,15.425 L11.2,14.875 L10.625,15.425 L0.225,25.825 L1.375,26.975 L11.2,17.15 L13.825,19.775 L14.4,20.325 L14.975,19.775 L24,10.75 L26.625,13.375 L27.2,13.925 L27.775,13.375 L38.4,2.75 L38.4,8.8 L40,8.8 L40,0 L31.2,0 Z M33.6,11.2 L33.6,40 L35.2,40 L35.2,11.2 L33.6,11.2 Z M38.4,12 L38.4,40 L40,40 L40,12 L38.4,12 Z M24,16 L24,40 L25.6,40 L25.6,16 L24,16 Z M28.8,16 L28.8,40 L30.4,40 L30.4,16 L28.8,16 Z M19.2,19.2 L19.2,40 L20.8,40 L20.8,19.2 L19.2,19.2 Z M9.6,22.4 L9.6,40 L11.2,40 L11.2,22.4 L9.6,22.4 Z M14.4,24 L14.4,40 L16,40 L16,24 L14.4,24 Z M4.8,27.2 L4.8,40 L6.4,40 L6.4,27.2 L4.8,27.2 Z M0,30.4 L0,40 L1.6,40 L1.6,30.4 L0,30.4 Z" id="Shape"></path>
            </g>
        </g>
    </g>
</svg>