<?xml version="1.0" encoding="UTF-8"?>
<svg width="67px" height="67px" viewBox="0 0 67 67" version="1.1" xmlns="http://www.w3.org/2000/svg" xmlns:xlink="http://www.w3.org/1999/xlink">
    <title>col_is_factor</title>
    <g id="All-Icons" stroke="none" stroke-width="1" fill="none" fill-rule="evenodd">
        <g id="col_is_factor" transform="translate(0.000000, 0.344828)">
            <path d="M56.712234,1.01466935 C59.1975153,1.01466935 61.4475153,2.02202867 63.076195,3.65070832 C64.7048747,5.27938798 65.712234,7.52938798 65.712234,10.0146694 L65.712234,10.0146694 L65.712234,65.0146694 L10.712234,65.0146694 C8.22695259,65.0146694 5.97695259,64.00731 4.34827294,62.3786304 C2.71959328,60.7499507 1.71223397,58.4999507 1.71223397,56.0146694 L1.71223397,56.0146694 L1.71223397,10.0146694 C1.71223397,7.52938798 2.71959328,5.27938798 4.34827294,3.65070832 C5.97695259,2.02202867 8.22695259,1.01466935 10.712234,1.01466935 L10.712234,1.01466935 Z" id="rectangle" stroke="#000000" stroke-width="2" fill="#FFFFFF"></path>
            <rect id="column" fill="#000000" x="12.2117153" y="12.0146694" width="20" height="42" rx="1"></rect>
            <path d="M47.3328482,31.1064662 L47.3328482,43.0146694 L44.8191763,43.0146694 L44.8191763,31.1064662 L42.8640982,31.1064662 L42.8640982,29.22756 L44.8191763,29.22756 L44.8191763,27.5771694 C44.8191763,24.2932988 46.3172082,22.6513881 49.3133169,22.6513881 C50.1512117,22.6513881 51.1033506,22.7910351 52.1697622,23.0703334 L52.1697622,25.0508022 C51.0441055,24.7037952 50.1427474,24.5302944 49.4656607,24.5302944 C48.644693,24.5302944 48.083989,24.7270697 47.7835317,25.1206264 C47.4830745,25.514183 47.3328482,26.2441562 47.3328482,27.3105678 L47.3328482,29.22756 L50.7732778,29.22756 L50.7732778,31.1064662 L47.3328482,31.1064662 Z" id="f" fill="#000000"></path>
        </g>
    </g>
</svg>