<?xml version="1.0" encoding="UTF-8"?>
<svg width="67px" height="67px" viewBox="0 0 67 67" version="1.1" xmlns="http://www.w3.org/2000/svg" xmlns:xlink="http://www.w3.org/1999/xlink">
    <title>col_vals_gt</title>
    <g id="All-Icons" stroke="none" stroke-width="1" fill="none" fill-rule="evenodd">
        <g id="col_vals_gt" transform="translate(0.000000, 0.724138)">
            <path d="M56.712234,1 C59.1975153,1 61.4475153,2.00735931 63.076195,3.63603897 C64.7048747,5.26471863 65.712234,7.51471863 65.712234,10 L65.712234,10 L65.712234,65 L10.712234,65 C8.22695259,65 5.97695259,63.9926407 4.34827294,62.363961 C2.71959328,60.7352814 1.71223397,58.4852814 1.71223397,56 L1.71223397,56 L1.71223397,10 C1.71223397,7.51471863 2.71959328,5.26471863 4.34827294,3.63603897 C5.97695259,2.00735931 8.22695259,1 10.712234,1 L10.712234,1 Z" id="rectangle" stroke="#000000" stroke-width="2" fill="#FFFFFF"></path>
            <path d="M49.7099609,12 L17.7099609,12 C14.9499609,12 12.7099609,14.24 12.7099609,17 L12.7099609,49 C12.7099609,51.76 14.9499609,54 17.7099609,54 L49.7099609,54 C52.4699609,54 54.7099609,51.76 54.7099609,49 L54.7099609,17 C54.7099609,14.24 52.4699609,12 49.7099609,12 Z M27.2799609,44.82 L26.1399609,43.18 L40.9499609,33 L26.1399609,22.82 L27.2799609,21.18 L44.4799609,33 L27.2799609,44.82 Z" id="greater_than" fill="#000000" fill-rule="nonzero"></path>
        </g>
    </g>
</svg>