<?xml version="1.0" encoding="UTF-8"?>
<svg width="67px" height="67px" viewBox="0 0 67 67" version="1.1" xmlns="http://www.w3.org/2000/svg" xmlns:xlink="http://www.w3.org/1999/xlink">
    <title>col_vals_decreasing</title>
    <g id="All-Icons" stroke="none" stroke-width="1" fill="none" fill-rule="evenodd">
        <g id="col_vals_decreasing" transform="translate(0.000000, 0.586207)">
            <path d="M56.712234,1 C59.1975153,1 61.4475153,2.00735931 63.076195,3.63603897 C64.7048747,5.26471863 65.712234,7.51471863 65.712234,10 L65.712234,10 L65.712234,65 L10.712234,65 C8.22695259,65 5.97695259,63.9926407 4.34827294,62.363961 C2.71959328,60.7352814 1.71223397,58.4852814 1.71223397,56 L1.71223397,56 L1.71223397,10 C1.71223397,7.51471863 2.71959328,5.26471863 4.34827294,3.63603897 C5.97695259,2.00735931 8.22695259,1 10.712234,1 L10.712234,1 Z" id="rectangle" stroke="#000000" stroke-width="2" fill="#FFFFFF"></path>
            <g id="decreasing" transform="translate(13.712234, 12.500000)" fill="#000000" fill-rule="nonzero">
                <path d="M1.375,0.225 L0.225,1.375 L12.225,13.375 L12.8,13.925 L13.375,13.375 L16,10.75 L25.025,19.775 L25.6,20.325 L26.175,19.775 L28.8,17.15 L37.25,25.6 L32,25.6 L32,27.2 L40,27.2 L40,18.4 L38.4,18.4 L38.4,24.45 L29.375,15.425 L28.8,14.875 L28.225,15.425 L25.6,18.05 L16.575,9.025 L16,8.475 L15.425,9.025 L12.8,11.65 L1.375,0.225 Z M0,6.4 L0,40 L1.6,40 L1.6,6.4 L0,6.4 Z M4.8,11.2 L4.8,40 L6.4,40 L6.4,11.2 L4.8,11.2 Z M9.6,16 L9.6,40 L11.2,40 L11.2,16 L9.6,16 Z M14.4,16 L14.4,40 L16,40 L16,16 L14.4,16 Z M19.2,19.2 L19.2,40 L20.8,40 L20.8,19.2 L19.2,19.2 Z M28.8,22.4 L28.8,40 L30.4,40 L30.4,22.4 L28.8,22.4 Z M24,24 L24,40 L25.6,40 L25.6,24 L24,24 Z M33.6,30.4 L33.6,40 L35.2,40 L35.2,30.4 L33.6,30.4 Z M38.4,30.4 L38.4,40 L40,40 L40,30.4 L38.4,30.4 Z" id="Shape"></path>
            </g>
        </g>
    </g>
</svg>