<?xml version="1.0" encoding="UTF-8"?>
<svg width="67px" height="67px" viewBox="0 0 67 67" version="1.1" xmlns="http://www.w3.org/2000/svg" xmlns:xlink="http://www.w3.org/1999/xlink">
    <title>db_tbl</title>
    <g id="All-Icons" stroke="none" stroke-width="1" fill="none" fill-rule="evenodd">
        <g id="db_tbl" transform="translate(0.000000, 0.413793)">
            <path d="M56.5,1 C58.9852814,1 61.2352814,2.00735931 62.863961,3.63603897 C64.4926407,5.26471863 65.5,7.51471863 65.5,10 L65.5,10 L65.5,65 L10.5,65 C8.01471863,65 5.76471863,63.9926407 4.13603897,62.363961 C2.50735931,60.7352814 1.5,58.4852814 1.5,56 L1.5,56 L1.5,10 C1.5,7.51471863 2.50735931,5.26471863 4.13603897,3.63603897 C5.76471863,2.00735931 8.01471863,1 10.5,1 L10.5,1 Z" id="rectangle" stroke="#000000" stroke-width="2" fill="#FFFFFF"></path>
            <path d="M31.4921875,7.991211 C18.9301876,7.991211 10.4902345,12.6442579 10.4902345,16.9892579 C10.4902345,21.336258 18.9301876,25.991211 31.4921875,25.991211 C44.0541875,25.991211 52.4902345,21.336258 52.4902345,16.9892579 C52.4902345,12.6442579 44.0541875,7.991211 31.4921875,7.991211 Z M10.4902345,21.600586 L10.4902345,27.141602 C10.4902345,31.415602 18.9358126,35.991211 31.5078125,35.991211 C44.0798125,35.991211 52.4902345,31.415602 52.4902345,27.141602 L52.4902345,21.600586 C48.8152345,25.354586 40.9248125,27.991211 31.5078125,27.991211 C22.0878125,27.991211 14.1662345,25.353586 10.4902345,21.600586 Z M10.4902345,31.901367 L10.4902345,37.186523 C10.4902345,41.459524 18.9358126,45.991211 31.5078125,45.991211 C34.9948125,45.991211 38.1482035,45.675195 40.9082035,45.075195 C40.6272035,45.998195 40.4909535,47.601227 40.5019535,47.407227 C37.7479535,47.946227 34.7188125,47.991211 31.5078125,47.991211 C22.0878125,47.991211 14.1662345,45.699289 10.4902345,41.946289 L10.4902345,47.141602 C10.4902345,51.415602 18.9358126,55.991211 31.5078125,55.991211 C35.8748125,55.991211 39.7279685,55.430273 42.9179685,54.530273 C44.7559685,56.656273 47.4652345,58.008789 50.4902345,58.008789 C56.0142345,58.008789 60.5097655,53.514258 60.5097655,47.989258 C60.5097655,43.107258 56.9962345,39.036274 52.3652345,38.155273 C52.4592345,37.832273 52.4902345,37.509524 52.4902345,37.186523 L52.4902345,31.901367 C48.8152345,35.653367 40.9248125,37.991211 31.5078125,37.991211 C22.0878125,37.991211 14.1662345,35.653367 10.4902345,31.901367 Z M50.4902345,40.010742 C54.8912345,40.010742 58.4707035,43.590211 58.4707035,47.991211 C58.4707035,52.392211 54.8912345,55.97168 50.4902345,55.97168 C46.0892345,55.97168 42.5097655,52.392211 42.5097655,47.991211 C42.5097655,43.590211 46.0892345,40.010742 50.4902345,40.010742 Z M49.4902345,42.991211 L49.4902345,46.991211 L45.4902345,46.991211 L45.4902345,48.991211 L49.4902345,48.991211 L49.4902345,52.991211 L51.4902345,52.991211 L51.4902345,48.991211 L55.4902345,48.991211 L55.4902345,46.991211 L51.4902345,46.991211 L51.4902345,42.991211 L49.4902345,42.991211 Z" id="db" fill="#000000" fill-rule="nonzero"></path>
        </g>
    </g>
</svg>