<?xml version="1.0" encoding="UTF-8"?>
<svg width="67px" height="67px" viewBox="0 0 67 67" version="1.1" xmlns="http://www.w3.org/2000/svg" xmlns:xlink="http://www.w3.org/1999/xlink">
    <title>export_report</title>
    <g id="All-Icons" stroke="none" stroke-width="1" fill="none" fill-rule="evenodd">
        <g id="export_report" transform="translate(0.000000, 0.827586)">
            <path d="M56.5981205,1 C59.0834018,1 61.3334018,2.00735931 62.9620815,3.63603897 C64.5907612,5.26471863 65.5981205,7.51471863 65.5981205,10 L65.5981205,10 L65.5981205,65 L10.5981205,65 C8.1128391,65 5.8628391,63.9926407 4.23415944,62.363961 C2.60547979,60.7352814 1.59812047,58.4852814 1.59812047,56 L1.59812047,56 L1.59812047,10 C1.59812047,7.51471863 2.60547979,5.26471863 4.23415944,3.63603897 C5.8628391,2.00735931 8.1128391,1 10.5981205,1 L10.5981205,1 Z" id="rectangle" stroke="#000000" stroke-width="2" fill="#FFFFFF"></path>
            <g id="html_file" transform="translate(15.738120, 9.500000)" fill="#000000" fill-rule="nonzero">
                <path d="M0,0 L0,47 L35.72,47 L35.72,13.7107817 L22.0092192,0 L0,0 Z M1.88,1.88 L20.68,1.88 L20.68,15.04 L33.84,15.04 L33.84,45.12 L1.88,45.12 L1.88,1.88 Z M22.56,3.20921922 L32.5107817,13.16 L22.56,13.16 L22.56,3.20921922 Z M4.2446875,23.0703909 L4.2446875,33.84 L5.95578172,33.84 L5.95578172,29.0959375 L8.51140672,29.0959375 L8.51140672,33.84 L10.2225,33.84 L10.2225,23.0703909 L8.51140672,23.0703909 L8.51140672,27.5280466 L5.95578172,27.5280466 L5.95578172,23.0703909 L4.2446875,23.0703909 Z M11.2102341,23.0703909 L11.2102341,24.6346091 L13.1453125,24.6346091 L13.1453125,33.84 L14.8527341,33.84 L14.8527341,24.6346091 L16.7878125,24.6346091 L16.7878125,23.0703909 L11.2102341,23.0703909 Z M18.1794534,23.0703909 L17.4597659,33.84 L18.946875,33.84 L19.1378125,29.7348442 C19.2002341,28.4570317 19.2663284,27.0323442 19.2846875,25.820625 L19.32875,25.820625 C19.5233591,27.0176567 19.8097659,28.3578909 20.0961716,29.4447659 L21.15,33.7114841 L22.3176567,33.7114841 L23.4375784,29.3309375 C23.6909375,28.2954692 23.9773442,27.0029692 24.1866409,25.820625 L24.234375,25.820625 C24.2196875,27.0029692 24.2821091,28.4717192 24.3482034,29.6834375 L24.5575,33.84 L26.1033591,33.84 L25.4644534,23.0703909 L23.6285159,23.0703909 L22.61875,27.4325784 C22.2992966,28.8389067 22.060625,29.9588284 21.8696875,31.1705466 L21.8403125,31.1705466 C21.6310159,29.9588284 21.3592966,28.8242192 21.0214841,27.4325784 L19.9860159,23.0703909 L18.1794534,23.0703909 Z M27.5427341,23.0703909 L27.5427341,33.84 L32.1289067,33.84 L32.1289067,32.400625 L29.2538284,32.400625 L29.2538284,23.0703909 L27.5427341,23.0703909 Z" id="Shape"></path>
            </g>
        </g>
    </g>
</svg>