<?xml version="1.0" encoding="UTF-8"?>
<svg width="67px" height="67px" viewBox="0 0 67 67" version="1.1" xmlns="http://www.w3.org/2000/svg" xmlns:xlink="http://www.w3.org/1999/xlink">
    <title>get_tt_param</title>
    <g id="All-Icons" stroke="none" stroke-width="1" fill="none" fill-rule="evenodd">
        <g id="get_tt_param" transform="translate(0.712234, 0.379310)">
            <path d="M56,1 C58.4852814,1 60.7352814,2.00735931 62.363961,3.63603897 C63.9926407,5.26471863 65,7.51471863 65,10 L65,10 L65,65 L10,65 C7.51471863,65 5.26471863,63.9926407 3.63603897,62.363961 C2.00735931,60.7352814 1,58.4852814 1,56 L1,56 L1,10 C1,7.51471863 2.00735931,5.26471863 3.63603897,3.63603897 C5.26471863,2.00735931 7.51471863,1 10,1 L10,1 Z" id="rectangle" stroke="#000000" stroke-width="2" fill="#FFFFFF"></path>
            <g id="transformer" transform="translate(9.845645, 9.902909)" stroke="#000000" stroke-width="2">
                <circle id="Oval" cx="16.8501942" cy="9.35019417" r="9.35019417"></circle>
                <circle id="Oval" cx="29.4585155" cy="9.35019417" r="9.35019417"></circle>
                <line x1="38.8087097" y1="9.35019417" x2="45.8087097" y2="9.35019417" id="Line" stroke-linecap="square"></line>
                <line x1="0.5" y1="9.35019417" x2="7.5" y2="9.35019417" id="Line-2-Copy" stroke-linecap="square"></line>
            </g>
            <g id="table" transform="translate(17.863228, 34.580970)" fill="#000000" fill-rule="nonzero">
                <path d="M9.27809032,0 C9.25668455,0.000539389636 9.23534079,0.00285871746 9.21422772,0.00694611292 L0.447776016,0.00694611292 C0.203753076,0.00697414072 0.00593949622,0.234211426 0.00591509758,0.514531465 L0.00591509758,7.02788243 C-0.00197169919,7.08269731 -0.00197169919,7.13862769 0.00591509758,7.19344256 L0.00591509758,14.1340774 C-0.00197169919,14.1888922 -0.00197169919,14.2448226 0.00591509758,14.2996375 L0.00591509758,20.8179455 C0.00593949622,21.0982656 0.203753076,21.3255029 0.447776016,21.3255309 L9.21077546,21.3255309 C9.25849265,21.3345908 9.30718092,21.3345908 9.35489812,21.3255309 L18.1222128,21.3255309 C18.3662357,21.3255029 18.5640493,21.0982656 18.5640737,20.8179455 L18.5640737,14.3045946 C18.5719605,14.2497797 18.5719605,14.1938493 18.5640737,14.1390344 L18.5640737,7.19839964 C18.5719605,7.14358477 18.5719605,7.08765438 18.5640737,7.03283951 L18.5640737,0.514531465 C18.5640493,0.234211426 18.3662357,0.00697414072 18.1222128,0.00694611292 L9.35317221,0.00694611292 C9.32836246,0.00218236923 9.30324394,0 9.27809032,0 Z M0.889636935,1.02211682 L8.84313348,1.02211682 L8.84313348,6.60555569 L0.889636935,6.60555569 L0.889636935,1.02211682 Z M9.72685531,1.02211682 L17.6803519,1.02211682 L17.6803519,6.60555569 L9.72685531,6.60555569 L9.72685531,1.02211682 Z M0.889636935,7.62072639 L8.84313348,7.62072639 L8.84313348,13.7117506 L0.889636935,13.7117506 L0.889636935,7.62072639 Z M9.72685531,7.62072639 L17.6803519,7.62072639 L17.6803519,13.7117506 L9.72685531,13.7117506 L9.72685531,7.62072639 Z M0.889636935,14.7269213 L8.84313348,14.7269213 L8.84313348,20.3103602 L0.889636935,20.3103602 L0.889636935,14.7269213 Z M9.72685531,14.7269213 L17.6803519,14.7269213 L17.6803519,20.3103602 L9.72685531,20.3103602 L9.72685531,14.7269213 Z" id="Shape"></path>
            </g>
            <rect id="Rectangle" fill="#FFFFFF" x="34.8387919" y="44.5661817" width="2" height="2.30570448"></rect>
            <path d="M36.5425769,43.6341834 C36.7372925,43.6082214 36.9238951,43.7218057 36.9888003,43.9067853 C37.055328,44.0917654 36.9823098,44.2978391 36.8151788,44.4000649 L36.8151788,44.4000649 L35.6079419,45.3087378 L42.2635006,45.308504 L42.2635006,46.139504 L35.6079419,46.1395244 L36.8151788,47.0481973 C37.0017813,47.1877437 37.0391019,47.4522321 36.8995555,47.6388347 C36.7600096,47.8254373 36.4955207,47.8627579 36.3089182,47.7232115 L36.3089182,47.7232115 L34.1151222,46.0616382 C34.0064058,45.9837519 33.9415006,45.857187 33.9415006,45.7241311 C33.9415006,45.5910756 34.0064058,45.4645103 34.1151222,45.386624 L34.1151222,45.386624 L36.3089182,43.7250507 C36.3624648,43.6844851 36.424125,43.658523 36.4906527,43.6471645 C36.5068792,43.6422965 36.5247279,43.6374289 36.5425769,43.6341834 Z" id="arrow" fill="#000000" transform="translate(38.102501, 45.719034) rotate(-180.000000) translate(-38.102501, -45.719034) "></path>
            <polygon id="Star" stroke="#D7E4FA" fill="#D7E4FA" points="45.7031376 46.9193839 44.0622391 47.7820553 44.3756228 45.954888 43.048108 44.6608809 44.8826883 44.3943007 45.7031376 42.731889 46.5235868 44.3943007 48.3581672 44.6608809 47.0306524 45.954888 47.3440361 47.7820553"></polygon>
            <g id="1" transform="translate(21.667834, 36.272850)" fill="#000000" fill-rule="nonzero">
                <polygon points="0.181640625 3.86425781 1.1015625 3.86425781 1.1015625 0.559570312 0 1.08984375 0 0.521484375 1.09570312 0 1.6875 0 1.6875 3.86425781 2.59570312 3.86425781 2.59570312 4.359375 0.181640625 4.359375"></polygon>
            </g>
            <g id="2" transform="translate(21.503772, 43.162221)" fill="#000000" fill-rule="nonzero">
                <path d="M0.647460938,3.95507812 L2.65722656,3.95507812 L2.65722656,4.453125 L0,4.453125 L0,3.95507812 C0.365234375,3.5703125 0.684570313,3.23046875 0.958007812,2.93554688 C1.23144531,2.640625 1.41992188,2.43261719 1.5234375,2.31152344 C1.71875,2.07324219 1.85058594,1.88037109 1.91894531,1.73291016 C1.98730469,1.58544922 2.02148438,1.43457031 2.02148438,1.28027344 C2.02148438,1.03613281 1.94970703,0.844726562 1.80615234,0.706054688 C1.66259766,0.567382812 1.46582031,0.498046875 1.21582031,0.498046875 C1.03808594,0.498046875 0.8515625,0.530273438 0.65625,0.594726562 C0.4609375,0.659179688 0.25390625,0.756835938 0.03515625,0.887695312 L0.03515625,0.290039062 C0.236328125,0.194335938 0.434082031,0.122070312 0.628417969,0.0732421875 C0.822753906,0.0244140625 1.01464844,0 1.20410156,0 C1.63183594,0 1.97607422,0.113769531 2.23681641,0.341308594 C2.49755859,0.568847656 2.62792969,0.8671875 2.62792969,1.23632812 C2.62792969,1.42382812 2.58447266,1.61132812 2.49755859,1.79882812 C2.41064453,1.98632812 2.26953125,2.19335938 2.07421875,2.41992188 C1.96484375,2.546875 1.80615234,2.72265625 1.59814453,2.94726562 C1.39013672,3.171875 1.07324219,3.5078125 0.647460938,3.95507812 Z"></path>
            </g>
            <g id="3" transform="translate(21.459826, 49.864529)" fill="#000000" fill-rule="nonzero">
                <path d="M1.87207031,2.11230469 C2.15917969,2.18847656 2.37890625,2.32373047 2.53125,2.51806641 C2.68359375,2.71240234 2.75976562,2.95507812 2.75976562,3.24609375 C2.75976562,3.6484375 2.62451172,3.96435547 2.35400391,4.19384766 C2.08349609,4.42333984 1.70898438,4.53808594 1.23046875,4.53808594 C1.02929688,4.53808594 0.82421875,4.51953125 0.615234375,4.48242188 C0.40625,4.4453125 0.201171875,4.39160156 0,4.32128906 L0,3.73242188 C0.19921875,3.8359375 0.395507812,3.91308594 0.588867188,3.96386719 C0.782226562,4.01464844 0.974609375,4.04003906 1.16601562,4.04003906 C1.49023437,4.04003906 1.73925781,3.96679688 1.91308594,3.8203125 C2.08691406,3.67382812 2.17382812,3.46289062 2.17382812,3.1875 C2.17382812,2.93359375 2.08691406,2.73193359 1.91308594,2.58251953 C1.73925781,2.43310547 1.50390625,2.35839844 1.20703125,2.35839844 L0.755859375,2.35839844 L0.755859375,1.87207031 L1.20703125,1.87207031 C1.47851562,1.87207031 1.69042969,1.8125 1.84277344,1.69335938 C1.99511719,1.57421875 2.07128906,1.40820312 2.07128906,1.1953125 C2.07128906,0.970703125 2.00048828,0.798339844 1.85888672,0.678222656 C1.71728516,0.558105469 1.515625,0.498046875 1.25390625,0.498046875 C1.08007812,0.498046875 0.900390625,0.517578125 0.71484375,0.556640625 C0.529296875,0.595703125 0.334960938,0.654296875 0.131835938,0.732421875 L0.131835938,0.1875 C0.368164062,0.125 0.578613281,0.078125 0.763183594,0.046875 C0.947753906,0.015625 1.11132812,0 1.25390625,0 C1.6796875,0 2.02001953,0.106933594 2.27490234,0.320800781 C2.52978516,0.534667969 2.65722656,0.818359375 2.65722656,1.171875 C2.65722656,1.41210938 2.59033203,1.61230469 2.45654297,1.77246094 C2.32275391,1.93261719 2.12792969,2.04589844 1.87207031,2.11230469 Z"></path>
            </g>
            <g id="a" transform="translate(30.222871, 37.166200)" fill="#000000" fill-rule="nonzero">
                <path d="M1.66699219,1.7109375 L1.48828125,1.7109375 C1.17382812,1.7109375 0.937011719,1.76611328 0.777832031,1.87646484 C0.618652344,1.98681641 0.5390625,2.15136719 0.5390625,2.37011719 C0.5390625,2.56738281 0.598632812,2.72070312 0.717773438,2.83007812 C0.836914062,2.93945312 1.00195312,2.99414062 1.21289062,2.99414062 C1.50976562,2.99414062 1.74316406,2.89111328 1.91308594,2.68505859 C2.08300781,2.47900391 2.16894531,2.19433594 2.17089844,1.83105469 L2.17089844,1.7109375 L1.66699219,1.7109375 Z M2.71289062,1.48828125 L2.71289062,3.36035156 L2.17089844,3.36035156 L2.17089844,2.87402344 C2.05566406,3.06933594 1.91064453,3.21337891 1.73583984,3.30615234 C1.56103516,3.39892578 1.34863281,3.4453125 1.09863281,3.4453125 C0.764648438,3.4453125 0.498046875,3.35107422 0.298828125,3.16259766 C0.099609375,2.97412109 0,2.72167969 0,2.40527344 C0,2.04003906 0.122558594,1.76269531 0.367675781,1.57324219 C0.612792969,1.38378906 0.97265625,1.2890625 1.44726562,1.2890625 L2.17089844,1.2890625 L2.17089844,1.20410156 C2.16894531,0.942382812 2.10253906,0.752441406 1.97167969,0.634277344 C1.84082031,0.516113281 1.63183594,0.45703125 1.34472656,0.45703125 C1.16113281,0.45703125 0.975585938,0.483398437 0.788085938,0.536132812 C0.600585938,0.588867188 0.41796875,0.666015625 0.240234375,0.767578125 L0.240234375,0.228515625 C0.439453125,0.15234375 0.630371094,0.0952148438 0.812988281,0.0571289063 C0.995605469,0.0190429688 1.17285156,0 1.34472656,0 C1.61621094,0 1.84814453,0.0400390625 2.04052734,0.120117187 C2.23291016,0.200195312 2.38867188,0.3203125 2.5078125,0.48046875 C2.58203125,0.578125 2.63476562,0.698730469 2.66601562,0.842285156 C2.69726562,0.985839844 2.71289062,1.20117188 2.71289062,1.48828125 Z"></path>
            </g>
            <g id="b" transform="translate(30.398653, 43.056752)" fill="#000000" fill-rule="nonzero">
                <path d="M2.12402344,2.92089844 C2.12402344,2.50292969 2.05761719,2.1875 1.92480469,1.97460938 C1.79199219,1.76171875 1.59570312,1.65527344 1.3359375,1.65527344 C1.07421875,1.65527344 0.875976562,1.76220703 0.741210938,1.97607422 C0.606445312,2.18994141 0.5390625,2.50488281 0.5390625,2.92089844 C0.5390625,3.33496094 0.606445312,3.64941406 0.741210938,3.86425781 C0.875976562,4.07910156 1.07421875,4.18652344 1.3359375,4.18652344 C1.59570312,4.18652344 1.79199219,4.08007812 1.92480469,3.8671875 C2.05761719,3.65429688 2.12402344,3.33886719 2.12402344,2.92089844 Z M0.5390625,1.69628906 C0.625,1.53613281 0.743652344,1.41308594 0.895019531,1.32714844 C1.04638672,1.24121094 1.22167969,1.19824219 1.42089844,1.19824219 C1.81542969,1.19824219 2.12597656,1.35009766 2.35253906,1.65380859 C2.57910156,1.95751953 2.69238281,2.37597656 2.69238281,2.90917969 C2.69238281,3.45019531 2.57861328,3.87451172 2.35107422,4.18212891 C2.12353516,4.48974609 1.81152344,4.64355469 1.41503906,4.64355469 C1.21972656,4.64355469 1.04736328,4.60107422 0.897949219,4.51611328 C0.748535156,4.43115234 0.62890625,4.30761719 0.5390625,4.14550781 L0.5390625,4.55859375 L0,4.55859375 L0,0 L0.5390625,0 L0.5390625,1.69628906 Z"></path>
            </g>
            <g id="b2" transform="translate(44.501590, 43.056752)" fill="#000000" fill-rule="nonzero">
                <path d="M2.12402344,2.92089844 C2.12402344,2.50292969 2.05761719,2.1875 1.92480469,1.97460938 C1.79199219,1.76171875 1.59570312,1.65527344 1.3359375,1.65527344 C1.07421875,1.65527344 0.875976562,1.76220703 0.741210938,1.97607422 C0.606445312,2.18994141 0.5390625,2.50488281 0.5390625,2.92089844 C0.5390625,3.33496094 0.606445312,3.64941406 0.741210938,3.86425781 C0.875976562,4.07910156 1.07421875,4.18652344 1.3359375,4.18652344 C1.59570312,4.18652344 1.79199219,4.08007812 1.92480469,3.8671875 C2.05761719,3.65429688 2.12402344,3.33886719 2.12402344,2.92089844 Z M0.5390625,1.69628906 C0.625,1.53613281 0.743652344,1.41308594 0.895019531,1.32714844 C1.04638672,1.24121094 1.22167969,1.19824219 1.42089844,1.19824219 C1.81542969,1.19824219 2.12597656,1.35009766 2.35253906,1.65380859 C2.57910156,1.95751953 2.69238281,2.37597656 2.69238281,2.90917969 C2.69238281,3.45019531 2.57861328,3.87451172 2.35107422,4.18212891 C2.12353516,4.48974609 1.81152344,4.64355469 1.41503906,4.64355469 C1.21972656,4.64355469 1.04736328,4.60107422 0.897949219,4.51611328 C0.748535156,4.43115234 0.62890625,4.30761719 0.5390625,4.14550781 L0.5390625,4.55859375 L0,4.55859375 L0,0 L0.5390625,0 L0.5390625,1.69628906 Z" id="b"></path>
            </g>
            <g id="c" transform="translate(30.404512, 50.779946)" fill="#000000" fill-rule="nonzero">
                <path d="M2.53710938,3.19335938 C2.39257812,3.27734375 2.24365234,3.34033203 2.09033203,3.38232422 C1.93701172,3.42431641 1.78027344,3.4453125 1.62011719,3.4453125 C1.11230469,3.4453125 0.715332031,3.29296875 0.429199219,2.98828125 C0.143066406,2.68359375 0,2.26171875 0,1.72265625 C0,1.18359375 0.143066406,0.76171875 0.429199219,0.45703125 C0.715332031,0.15234375 1.11230469,0 1.62011719,0 C1.77832031,0 1.93261719,0.0205078125 2.08300781,0.0615234375 C2.23339844,0.102539062 2.38476562,0.166015625 2.53710938,0.251953125 L2.53710938,0.817382812 C2.39453125,0.690429688 2.25146484,0.598632812 2.10791016,0.541992188 C1.96435547,0.485351562 1.80175781,0.45703125 1.62011719,0.45703125 C1.28222656,0.45703125 1.02246094,0.56640625 0.840820312,0.78515625 C0.659179688,1.00390625 0.568359375,1.31640625 0.568359375,1.72265625 C0.568359375,2.12695312 0.659667969,2.43896484 0.842285156,2.65869141 C1.02490234,2.87841797 1.28417969,2.98828125 1.62011719,2.98828125 C1.80761719,2.98828125 1.97558594,2.95947266 2.12402344,2.90185547 C2.27246094,2.84423828 2.41015625,2.75488281 2.53710938,2.63378906 L2.53710938,3.19335938 Z"></path>
            </g>
        </g>
    </g>
</svg>