<?xml version="1.0" encoding="UTF-8"?>
<svg width="67px" height="67px" viewBox="0 0 67 67" version="1.1" xmlns="http://www.w3.org/2000/svg" xmlns:xlink="http://www.w3.org/1999/xlink">
    <title>get_tt_param</title>
    <g id="All-Icons" stroke="none" stroke-width="1" fill="none" fill-rule="evenodd">
        <g id="get_tt_param" transform="translate(0.712234, 0.379310)">
            <path d="M56,1 C58.4852814,1 60.7352814,2.00735931 62.363961,3.63603897 C63.9926407,5.26471863 65,7.51471863 65,10 L65,10 L65,65 L10,65 C7.51471863,65 5.26471863,63.9926407 3.63603897,62.363961 C2.00735931,60.7352814 1,58.4852814 1,56 L1,56 L1,10 C1,7.51471863 2.00735931,5.26471863 3.63603897,3.63603897 C5.26471863,2.00735931 7.51471863,1 10,1 L10,1 Z" id="rectangle" stroke="#000000" stroke-width="2" fill="#FFFFFF"></path>
            <g id="transformer" transform="translate(9.845645, 9.902909)" stroke="#000000" stroke-width="2">
                <circle id="Oval" cx="16.8501942" cy="9.35019417" r="9.35019417"></circle>
                <circle id="Oval" cx="29.4585155" cy="9.35019417" r="9.35019417"></circle>
                <line x1="38.8087097" y1="9.35019417" x2="45.8087097" y2="9.35019417" id="Line" stroke-linecap="square"></line>
                <line x1="0.5" y1="9.35019417" x2="7.5" y2="9.35019417" id="Line-2-Copy" stroke-linecap="square"></line>
            </g>
            <g id="table" transform="translate(17.863228, 34.580970)" fill="#000000" fill-rule="nonzero">
                <path d="M9.27809032,0 C9.25668455,0.000539389636 9.23534079,0.00285871746 9.21422772,0.00694611292 L0.447776016,0.00694611292 C0.203753076,0.00697414072 0.00593949622,0.234211426 0.00591509758,0.514531465 L0.00591509758,7.02788243 C-0.00197169919,7.08269731 -0.00197169919,7.13862769 0.00591509758,7.19344256 L0.00591509758,14.1340774 C-0.00197169919,14.1888922 -0.00197169919,14.2448226 0.00591509758,14.2996375 L0.00591509758,20.8179455 C0.00593949622,21.0982656 0.203753076,21.3255029 0.447776016,21.3255309 L9.21077546,21.3255309 C9.25849265,21.3345908 9.30718092,21.3345908 9.35489812,21.3255309 L18.1222128,21.3255309 C18.3662357,21.3255029 18.5640493,21.0982656 18.5640737,20.8179455 L18.5640737,14.3045946 C18.5719605,14.2497797 18.5719605,14.1938493 18.5640737,14.1390344 L18.5640737,7.19839964 C18.5719605,7.14358477 18.5719605,7.08765438 18.5640737,7.03283951 L18.5640737,0.514531465 C18.5640493,0.234211426 18.3662357,0.00697414072 18.1222128,0.00694611292 L9.35317221,0.00694611292 C9.32836246,0.00218236923 9.30324394,0 9.27809032,0 Z M0.889636935,1.02211682 L8.84313348,1.02211682 L8.84313348,6.60555569 L0.889636935,6.60555569 L0.889636935,1.02211682 Z M9.72685531,1.02211682 L17.6803519,1.02211682 L17.6803519,6.60555569 L9.72685531,6.60555569 L9.72685531,1.02211682 Z M0.889636935,7.62072639 L8.84313348,7.62072639 L8.84313348,13.7117506 L0.889636935,13.7117506 L0.889636935,7.62072639 Z M9.72685531,7.62072639 L17.6803519,7.62072639 L17.6803519,13.7117506 L9.72685531,13.7117506 L9.72685531,7.62072639 Z M0.889636935,14.7269213 L8.84313348,14.7269213 L8.84313348,20.3103602 L0.889636935,20.3103602 L0.889636935,14.7269213 Z M9.72685531,14.7269213 L17.6803519,14.7269213 L17.6803519,20.3103602 L9.72685531,20.3103602 L9.72685531,14.7269213 Z" id="Shape"></path>
            </g>
            <rect id="Rectangle" fill="#FFFFFF" x="34.8387919" y="44.5661817" width="2" height="2.30570448"></rect>
            <path d="M36.5425769,43.6341834 C36.7372925,43.6082214 36.9238951,43.7218057 36.9888003,43.9067853 C37.055328,44.0917654 36.9823098,44.2978391 36.8151788,44.4000649 L36.8151788,44.4000649 L35.6079419,45.3087378 L42.2635006,45.308504 L42.2635006,46.139504 L35.6079419,46.1395244 L36.8151788,47.0481973 C37.0017813,47.1877437 37.0391019,47.4522321 36.8995555,47.6388347 C36.7600096,47.8254373 36.4955207,47.8627579 36.3089182,47.7232115 L36.3089182,47.7232115 L34.1151222,46.0616382 C34.0064058,45.9837519 33.9415006,45.857187 33.9415006,45.7241311 C33.9415006,45.5910756 34.0064058,45.4645103 34.1151222,45.386624 L34.1151222,45.386624 L36.3089182,43.7250507 C36.3624648,43.6844851 36.424125,43.658523 36.4906527,43.6471645 C36.5068792,43.6422965 36.5247279,43.6374289 36.5425769,43.6341834 Z" id="arrow" fill="#000000" transform="translate(38.102501, 45.719034) rotate(-180.000000) translate(-38.102501, -45.719034) "></path>
            <polygon id="Star" stroke="#D7E4FA" fill="#D7E4FA" points="45.7031376 46.9193839 44.0622391 47.7820553 44.3756228 45.954888 43.048108 44.6608809 44.8826883 44.3943007 45.7031376 42.731889 46.5235868 44.3943007 48.3581672 44.6608809 47.0306524 45.954888 47.3440361 47.7820553"></polygon>
            <text id="1" font-family="Menlo-Regular, Menlo" font-size="6" font-weight="normal" fill="#000000">
                <tspan x="21.058459" y="40.6322255">1</tspan>
            </text>
            <text id="2" font-family="Menlo-Regular, Menlo" font-size="6" font-weight="normal" fill="#000000">
                <tspan x="21.058459" y="47.6153455">2</tspan>
            </text>
            <text id="3" font-family="Menlo-Regular, Menlo" font-size="6" font-weight="normal" fill="#000000">
                <tspan x="21.058459" y="54.3176545">3</tspan>
            </text>
            <text id="a" font-family="Menlo-Regular, Menlo" font-size="6" font-weight="normal" fill="#000000">
                <tspan x="29.8332229" y="40.5265515">a</tspan>
            </text>
            <text id="b" font-family="Menlo-Regular, Menlo" font-size="6" font-weight="normal" fill="#000000">
                <tspan x="29.8332229" y="47.6153455">b</tspan>
            </text>
            <text id="b2" font-family="Menlo-Regular, Menlo" font-size="6" font-weight="normal" fill="#000000">
                <tspan x="43.9361607" y="47.6153455">b</tspan>
            </text>
            <text id="c" font-family="Menlo-Regular, Menlo" font-size="6" font-weight="normal" fill="#000000">
                <tspan x="29.8332229" y="54.1402972">c</tspan>
            </text>
        </g>
    </g>
</svg>