<?xml version="1.0" encoding="UTF-8"?>
<svg width="67px" height="67px" viewBox="0 0 67 67" version="1.1" xmlns="http://www.w3.org/2000/svg" xmlns:xlink="http://www.w3.org/1999/xlink">
    <title>has_columns</title>
    <g id="All-Icons" stroke="none" stroke-width="1" fill="none" fill-rule="evenodd">
        <g id="has_columns" transform="translate(0.712234, 0.876738)">
            <path d="M56,1 C58.4852814,1 60.7352814,2.00735931 62.363961,3.63603897 C63.9926407,5.26471863 65,7.51471863 65,10 L65,10 L65,65 L10,65 C7.51471863,65 5.26471863,63.9926407 3.63603897,62.363961 C2.00735931,60.7352814 1,58.4852814 1,56 L1,56 L1,10 C1,7.51471863 2.00735931,5.26471863 3.63603897,3.63603897 C5.26471863,2.00735931 7.51471863,1 10,1 L10,1 Z" id="rectangle" stroke="#000000" stroke-width="2" fill="#FFFFFF"></path>
            <path d="M47.4284909,13.8642957 L47.4284909,30.7148491 L58.6621932,30.7148491 C59.1770712,30.7148491 59.5983351,30.2935853 59.5983351,29.7787073 L59.5983351,14.8004376 C59.5983351,14.2855595 59.1770712,13.8642957 58.6621932,13.8642957 L47.4284909,13.8642957 Z M20.0772736,13.8642957 C20.0772736,13.8642957 20.0772736,19.4811468 20.0772736,30.7148491 L32.2471177,30.7148491 L32.2471177,13.8642957 C24.1338883,13.8642957 20.0772736,13.8642957 20.0772736,13.8642957 Z M33.7528823,13.8642957 C33.7528823,13.8642957 33.7528823,19.4811468 33.7528823,30.7148491 L45.9227264,30.7148491 L45.9227264,13.8642957 C37.809497,13.8642957 33.7528823,13.8642957 33.7528823,13.8642957 Z M18.5715091,13.8642957 L18.5715091,30.7148491 L7.3378068,30.7148491 C6.82292878,30.7148491 6.40166494,30.2935853 6.40166494,29.7787073 L6.40166494,29.7787073 L6.40166494,14.8004376 C6.40166494,14.2855595 6.82292878,13.8642957 7.3378068,13.8642957 L7.3378068,13.8642957 L18.5715091,13.8642957 Z M44.3378043,15.2895724 L44.3378043,29.2895724 L35.3378043,29.2895724 L35.3378043,15.2895724 L44.3378043,15.2895724 Z M30.6621957,15.2895724 L30.6621957,29.2895724 L21.6621957,29.2895724 L21.6621957,15.2895724 L30.6621957,15.2895724 Z" id="columns_real" fill="#000000" fill-rule="nonzero"></path>
            <path d="M31.9720618,53.0076707 L31.9720618,50.5066941 L34.4730384,50.5066941 L34.4730384,53.0076707 L31.9720618,53.0076707 Z M31.9720618,47.9930223 L31.9720618,47.3074754 C31.9720618,45.6909308 32.5941259,44.1717403 33.8382728,42.7498582 L34.6380775,41.8231004 C35.9668601,40.2996553 36.6312415,39.0512954 36.6312415,38.0779832 C36.6312415,37.3247242 36.3392522,36.7280505 35.755265,36.2879441 C35.1712777,35.8478378 34.3841762,35.6277879 33.3939368,35.6277879 C32.0990085,35.6277879 30.7236967,35.9409358 29.2679603,36.567241 L29.2679603,34.4471238 C30.8337233,33.9731631 32.2979014,33.7361863 33.6605384,33.7361863 C35.3871095,33.7361863 36.7581896,34.1233895 37.7738196,34.8978074 C38.7894497,35.6722253 39.2972571,36.7195782 39.2972571,38.0398973 C39.2972571,38.7846926 39.1512625,39.4257995 38.8592689,39.9632371 C38.5672752,40.5006747 38.0065712,41.1629402 37.17714,41.9500535 L36.3900306,42.6863816 C35.6029173,43.431177 35.0866464,44.055357 34.8412025,44.5589402 C34.5957585,45.0625235 34.4730384,45.7417159 34.4730384,46.5965379 L34.4730384,47.9930223 L31.9720618,47.9930223 Z" id="?" fill="#000000"></path>
        </g>
    </g>
</svg>