<?xml version="1.0" encoding="UTF-8"?>
<svg width="67px" height="67px" viewBox="0 0 67 67" version="1.1" xmlns="http://www.w3.org/2000/svg" xmlns:xlink="http://www.w3.org/1999/xlink">
    <title>info_columns</title>
    <g id="All-Icons" stroke="none" stroke-width="1" fill="none" fill-rule="evenodd">
        <g id="info_columns" transform="translate(0.000000, 0.172414)">
            <path d="M56.2198144,1 C58.7050957,1 60.9550957,2.00735931 62.5837754,3.63603897 C64.212455,5.26471863 65.2198144,7.51471863 65.2198144,10 L65.2198144,10 L65.2198144,65 L10.2198144,65 C7.73453298,65 5.48453298,63.9926407 3.85585333,62.363961 C2.22717367,60.7352814 1.21981436,58.4852814 1.21981436,56 L1.21981436,56 L1.21981436,10 C1.21981436,7.51471863 2.22717367,5.26471863 3.85585333,3.63603897 C5.48453298,2.00735931 7.73453298,1 10.2198144,1 L10.2198144,1 Z" id="rectangle" stroke="#000000" stroke-width="2" fill="#FFFFFF"></path>
            <path d="M9.87030603,12 C9.38966919,12 9,12.4477381 9,13 L9,53 C9,53.5522619 9.38966919,54 9.87030603,54 L44.6825473,54 C45.1631842,54 45.5528534,53.5522619 45.5528534,53 L45.5528534,13 C45.5528534,12.4477381 45.1631842,12 44.6825473,12 L9.87030603,12 Z M10.7406121,14 L26.4061206,14 L26.4061206,52 L10.7406121,52 L10.7406121,14 Z M28.1467327,14 L43.8122413,14 L43.8122413,52 L28.1467327,52 L28.1467327,14 Z" id="Shape" fill="#000000" fill-rule="nonzero"></path>
            <g id="info_small" transform="translate(35.025853, 21.000000)" fill="#000000" fill-rule="nonzero">
                <path d="M12,0 C5.373,0 0,5.373 0,12 C0,18.627 5.373,24 12,24 C18.627,24 24,18.627 24,12 C24,5.373 18.627,0 12,0 Z M13,18 L11,18 L11,11 L13,11 L13,18 Z M12,8.5 C11.172,8.5 10.5,7.828 10.5,7 C10.5,6.172 11.172,5.5 12,5.5 C12.828,5.5 13.5,6.172 13.5,7 C13.5,7.828 12.828,8.5 12,8.5 Z" id="Shape"></path>
            </g>
        </g>
    </g>
</svg>