<?xml version="1.0" encoding="UTF-8"?>
<svg width="67px" height="67px" viewBox="0 0 67 67" version="1.1" xmlns="http://www.w3.org/2000/svg" xmlns:xlink="http://www.w3.org/1999/xlink">
    <title>info_section</title>
    <g id="All-Icons" stroke="none" stroke-width="1" fill="none" fill-rule="evenodd">
        <g id="info_section" transform="translate(0.000000, 0.137931)">
            <path d="M56.5170885,1 C59.0023699,1 61.2523699,2.00735931 62.8810496,3.63603897 C64.5097292,5.26471863 65.5170885,7.51471863 65.5170885,10 L65.5170885,10 L65.5170885,65 L10.5170885,65 C8.03180718,65 5.78180718,63.9926407 4.15312752,62.363961 C2.52444786,60.7352814 1.51708855,58.4852814 1.51708855,56 L1.51708855,56 L1.51708855,10 C1.51708855,7.51471863 2.52444786,5.26471863 4.15312752,3.63603897 C5.78180718,2.00735931 8.03180718,1 10.5170885,1 L10.5170885,1 Z" id="rectangle" stroke="#000000" stroke-width="2" fill="#FFFFFF"></path>
            <path d="M21.574801,13 C19.1281154,13 16.9775249,13.5579069 15.366141,14.7952752 C13.754757,16.0326435 12.7979001,18.0024593 12.7979001,20.1811007 C12.7979001,22.6527207 14.0882545,24.5664346 15.7152223,25.7165325 C16.0206688,25.9347087 16.3385817,26.1310664 16.6627286,26.3149576 C14.7427815,27.4214208 12.8727032,29.6062954 12.8727032,32.947502 C12.8727032,35.419122 14.1630577,37.3328359 15.7900254,38.4829338 C17.4169939,39.6330318 19.3151232,40.2532747 21.1010478,40.8516997 C22.8869724,41.4501248 24.5638097,42.0267321 25.6141701,42.7716468 C26.6645306,43.5165615 27.1601015,44.1960229 27.1601015,45.7139033 C27.1601015,47.0447759 26.7206333,47.8800776 25.8385795,48.5564224 C24.9565257,49.2327672 23.5165658,49.7034037 21.574801,49.7034037 C19.6330361,49.7034037 17.9156815,49.2140668 16.8123349,48.4816192 C15.7089891,47.7491717 15.1916003,46.9263372 15.1916003,45.7139033 L12,45.7139033 C12,48.0141001 13.2778872,49.9652147 15.0669284,51.1495976 C16.8559704,52.3339806 19.1281154,52.8950041 21.574801,52.8950041 C24.0214866,52.8950041 26.172077,52.3370972 27.783461,51.0997289 C29.3948449,49.8623606 30.3517019,47.8925448 30.3517019,45.7139033 C30.3517019,43.2422834 29.0613482,41.3285695 27.4343797,40.1784715 C27.128934,39.9602961 26.8110203,39.7639377 26.4868734,39.5800465 C28.4068204,38.4735833 30.2768987,36.2887086 30.2768987,32.947502 C30.2768987,30.4758821 28.9865451,28.5621682 27.3595766,27.4120702 C25.7326088,26.2619723 23.8344787,25.6417294 22.0485541,25.0433044 C20.2626296,24.4448793 18.5857923,23.868272 17.5354318,23.1233573 C16.4850714,22.3784426 15.9895004,21.6989812 15.9895004,20.1811007 C15.9895004,18.8502281 16.4289686,18.0149265 17.3110224,17.3385817 C18.1930762,16.6622369 19.6330361,16.1916003 21.574801,16.1916003 C23.5165658,16.1916003 25.2339213,16.6809373 26.3372671,17.4133848 C27.4406137,18.1458324 27.9580016,18.9686668 27.9580016,20.1811007 L31.149602,20.1811007 C31.149602,17.8809048 29.8717155,15.9297894 28.0826735,14.7454064 C26.2936323,13.5610235 24.0214866,13 21.574801,13 Z M21.2506541,28.1850359 C21.278705,28.1819193 21.2755884,28.1881525 21.3005228,28.1850359 C22.9773601,28.749176 24.5201741,29.3008497 25.5144326,30.0052455 C26.5647931,30.7501602 27.0852984,31.4296216 27.0852984,32.947502 C27.0852984,35.3723706 25.9944198,36.2949426 24.6666638,36.9619368 C23.6194199,37.4886753 22.3758177,37.6600994 21.8490791,37.7099681 C20.1722426,37.1458281 18.6294278,36.5941551 17.6351693,35.8897586 C16.5848089,35.1448439 16.0643035,34.4653825 16.0643035,32.947502 C16.0643035,30.5226342 17.155183,29.6000622 18.4829382,28.9330672 C19.4803133,28.4312631 20.6833974,28.2473719 21.2506541,28.1850359 Z" id="paragraph" fill="#000000" fill-rule="nonzero"></path>
            <g id="info_small" transform="translate(35.207339, 21.000000)" fill="#000000" fill-rule="nonzero">
                <path d="M12,0 C5.373,0 0,5.373 0,12 C0,18.627 5.373,24 12,24 C18.627,24 24,18.627 24,12 C24,5.373 18.627,0 12,0 Z M13,18 L11,18 L11,11 L13,11 L13,18 Z M12,8.5 C11.172,8.5 10.5,7.828 10.5,7 C10.5,6.172 11.172,5.5 12,5.5 C12.828,5.5 13.5,6.172 13.5,7 C13.5,7.828 12.828,8.5 12,8.5 Z" id="Shape"></path>
            </g>
        </g>
    </g>
</svg>