<?xml version="1.0" encoding="UTF-8"?>
<svg width="67px" height="67px" viewBox="0 0 67 67" version="1.1" xmlns="http://www.w3.org/2000/svg" xmlns:xlink="http://www.w3.org/1999/xlink">
    <title>interrogate</title>
    <g id="All-Icons" stroke="none" stroke-width="1" fill="none" fill-rule="evenodd">
        <g id="interrogate" transform="translate(0.000000, 0.517241)">
            <path d="M56.712234,1 C59.1975153,1 61.4475153,2.00735931 63.076195,3.63603897 C64.7048747,5.26471863 65.712234,7.51471863 65.712234,10 L65.712234,10 L65.712234,65 L10.712234,65 C8.22695259,65 5.97695259,63.9926407 4.34827294,62.363961 C2.71959328,60.7352814 1.71223397,58.4852814 1.71223397,56 L1.71223397,56 L1.71223397,10 C1.71223397,7.51471863 2.71959328,5.26471863 4.34827294,3.63603897 C5.97695259,2.00735931 8.22695259,1 10.712234,1 L10.712234,1 Z" id="rectangle" stroke="#000000" stroke-width="2" fill="#FFFFFF"></path>
            <path d="M26.712234,10 C25.05989,10 23.712234,11.347656 23.712234,13 L42.712234,13 C42.712234,11.347656 41.364578,10 39.712234,10 L26.712234,10 Z M24.712234,14 C23.05989,14 21.712234,15.347656 21.712234,17 L45.712234,17 C45.712234,15.347656 44.364578,14 42.712234,14 L24.712234,14 Z M22.712234,18 C21.05989,18 19.712234,19.347656 19.712234,21 L19.712234,52 C19.712234,53.652344 21.05989,55 22.712234,55 L32.712234,55 L32.712234,46.40625 L28.430984,50.71875 L26.993484,49.28125 L33.712234,42.59375 L40.430984,49.28125 L38.993484,50.71875 L34.712234,46.40625 L34.712234,55 L44.712234,55 C46.364578,55 47.712234,53.652344 47.712234,52 L47.712234,21 C47.712234,19.347656 46.364578,18 44.712234,18 L22.712234,18 Z M34.712234,55 L32.712234,55 L32.712234,58 L34.712234,58 L34.712234,55 Z M27.712234,24 C28.817703,24 29.712234,24.894531 29.712234,26 C29.712234,27.105469 28.817703,28 27.712234,28 C26.606765,28 25.712234,27.105469 25.712234,26 C25.712234,24.894531 26.606765,24 27.712234,24 Z M39.712234,24 C40.817703,24 41.712234,24.894531 41.712234,26 C41.712234,27.105469 40.817703,28 39.712234,28 C38.606765,28 37.712234,27.105469 37.712234,26 C37.712234,24.894531 38.606765,24 39.712234,24 Z M33.712234,30 C34.817703,30 35.712234,30.894531 35.712234,32 C35.712234,33.105469 34.817703,34 33.712234,34 C32.606765,34 31.712234,33.105469 31.712234,32 C31.712234,30.894531 32.606765,30 33.712234,30 Z M27.712234,36 C28.817703,36 29.712234,36.894531 29.712234,38 C29.712234,39.105469 28.817703,40 27.712234,40 C26.606765,40 25.712234,39.105469 25.712234,38 C25.712234,36.894531 26.606765,36 27.712234,36 Z M39.712234,36 C40.817703,36 41.712234,36.894531 41.712234,38 C41.712234,39.105469 40.817703,40 39.712234,40 C38.606765,40 37.712234,39.105469 37.712234,38 C37.712234,36.894531 38.606765,36 39.712234,36 Z" id="dominoes" fill="#000000" fill-rule="nonzero"></path>
        </g>
    </g>
</svg>