<?xml version="1.0" encoding="UTF-8"?>
<svg width="67px" height="67px" viewBox="0 0 67 67" version="1.1" xmlns="http://www.w3.org/2000/svg" xmlns:xlink="http://www.w3.org/1999/xlink">
    <title>rows_complete</title>
    <g id="All-Icons" stroke="none" stroke-width="1" fill="none" fill-rule="evenodd">
        <g id="rows_complete" transform="translate(0.000000, 0.965517)">
            <path d="M56.712234,1 C59.1975153,1 61.4475153,2.00735931 63.076195,3.63603897 C64.7048747,5.26471863 65.712234,7.51471863 65.712234,10 L65.712234,10 L65.712234,65 L10.712234,65 C8.22695259,65 5.97695259,63.9926407 4.34827294,62.363961 C2.71959328,60.7352814 1.71223397,58.4852814 1.71223397,56 L1.71223397,56 L1.71223397,10 C1.71223397,7.51471863 2.71959328,5.26471863 4.34827294,3.63603897 C5.97695259,2.00735931 8.22695259,1 10.712234,1 L10.712234,1 Z" id="rectangle" stroke="#000000" stroke-width="2" fill="#FFFFFF"></path>
            <g id="complete_me" transform="translate(12.500000, 9.500000)" fill="#000000">
                <path d="M8,0 L8,10 L16,10 L16,18 L26,18 L26,10 L34,10 L34,0 L8,0 Z M10,2 L16,2 L16,8 L10,8 L10,2 Z M18,2 L24,2 L24,8 L18,8 L18,2 Z M26,2 L32,2 L32,8 L26,8 L26,2 Z M18,10 L24,10 L24,16 L18,16 L18,10 Z M0,21 L0,47 L42,47 L42,21 L32,21 L32,29 L24,29 L24,37 L18,37 L18,29 L10,29 L10,21 L0,21 Z M2,23 L8,23 L8,29 L2,29 L2,23 Z M34,23 L40,23 L40,29 L34,29 L34,23 Z M2,31 L8,31 L8,37 L2,37 L2,31 Z M10,31 L16,31 L16,37 L10,37 L10,31 Z M26,31 L32,31 L32,37 L26,37 L26,31 Z M34,31 L40,31 L40,37 L34,37 L34,31 Z M2,39 L8,39 L8,45 L2,45 L2,39 Z M10,39 L16,39 L16,45 L10,45 L10,39 Z M18,39 L24,39 L24,45 L18,45 L18,39 Z M26,39 L32,39 L32,45 L26,45 L26,39 Z M34,39 L40,39 L40,45 L34,45 L34,39 Z" id="Shape" fill-rule="nonzero"></path>
                <path d="M22.4566476,18.35817 C22.9253976,18.29567 23.3746166,18.569108 23.5308666,19.01442 C23.6910226,19.459733 23.5152416,19.955826 23.1128976,20.20192 L23.1128976,20.20192 L20.2066476,22.38942 L25.7989286,22.3893123 L25.7989286,24.3893123 L20.2066476,24.38942 L23.1128976,26.57692 C23.5621166,26.912858 23.6519606,27.549576 23.3160226,27.998795 C22.9800856,28.448014 22.3433666,28.537858 21.8941476,28.20192 L21.8941476,28.20192 L16.6128976,24.20192 C16.3511786,24.01442 16.1949286,23.709733 16.1949286,23.38942 C16.1949286,23.069108 16.3511786,22.76442 16.6128976,22.57692 L16.6128976,22.57692 L21.8941476,18.57692 C22.0230536,18.479264 22.1714916,18.416764 22.3316476,18.38942 C22.3707106,18.377701 22.4136786,18.365983 22.4566476,18.35817 Z" id="arrow_right" transform="translate(20.997393, 23.377149) rotate(-90.000000) translate(-20.997393, -23.377149) "></path>
            </g>
        </g>
    </g>
</svg>