<?xml version="1.0" encoding="UTF-8"?>
<svg width="67px" height="66px" viewBox="0 0 67 66" version="1.1" xmlns="http://www.w3.org/2000/svg" xmlns:xlink="http://www.w3.org/1999/xlink">
    <title>scan_data</title>
    <g id="All-Icons" stroke="none" stroke-width="1" fill="none" fill-rule="evenodd">
        <g id="scan_data">
            <path d="M56.712234,1 C59.1975153,1 61.4475153,2.00735931 63.076195,3.63603897 C64.7048747,5.26471863 65.712234,7.51471863 65.712234,10 L65.712234,10 L65.712234,65 L10.712234,65 C8.22695259,65 5.97695259,63.9926407 4.34827294,62.363961 C2.71959328,60.7352814 1.71223397,58.4852814 1.71223397,56 L1.71223397,56 L1.71223397,10 C1.71223397,7.51471863 2.71959328,5.26471863 4.34827294,3.63603897 C5.97695259,2.00735931 8.22695259,1 10.712234,1 L10.712234,1 Z" id="rectangle" stroke="#000000" stroke-width="2" fill="#FFFFFF"></path>
            <path d="M13.5520779,33.0391624 C13.191442,33.0340621 12.8559965,33.2235377 12.6741901,33.5350353 C12.4923838,33.8465328 12.4923838,34.231792 12.6741901,34.5432896 C12.8559965,34.8547871 13.191442,35.0442627 13.5520779,35.0391624 L19.5188751,35.0391624 C19.6063802,35.0507991 19.6950409,35.0507991 19.7825461,35.0391624 L53.8723901,35.0391624 C54.233026,35.0442627 54.5684714,34.8547871 54.7502778,34.5432896 C54.9320841,34.231792 54.9320841,33.8465328 54.7502778,33.5350353 C54.5684714,33.2235377 54.233026,33.0340621 53.8723901,33.0391624 L13.5520779,33.0391624 Z" id="Path" fill="#000000"></path>
            <path d="M12.7122341,12.0001004 L12.7122341,18.0001004 C12.7071338,18.3607363 12.8966094,18.6961818 13.2081069,18.8779882 C13.5196045,19.0597945 13.9048637,19.0597945 14.2163612,18.8779882 C14.5278588,18.6961818 14.7173344,18.3607363 14.7122341,18.0001004 L14.7122341,14.0001004 L18.7122341,14.0001004 C19.07287,14.0052007 19.4083154,13.8157251 19.5901218,13.5042276 C19.7719281,13.19273 19.7719281,12.8074708 19.5901218,12.4959733 C19.4083154,12.1844757 19.07287,11.9950001 18.7122341,12.0001004 L12.7122341,12.0001004 Z M48.7122341,12.0001004 C48.3515982,11.9950001 48.0161527,12.1844757 47.8343463,12.4959733 C47.65254,12.8074708 47.65254,13.19273 47.8343463,13.5042276 C48.0161527,13.8157251 48.3515982,14.0052007 48.7122341,14.0001004 L52.7122341,14.0001004 L52.7122341,18.0001004 C52.7071338,18.3607363 52.8966094,18.6961818 53.2081069,18.8779882 C53.5196045,19.0597945 53.9048637,19.0597945 54.2163612,18.8779882 C54.5278588,18.6961818 54.7173344,18.3607363 54.7122341,18.0001004 L54.7122341,12.0001004 L48.7122341,12.0001004 Z M13.6966091,46.9864284 C13.1450929,46.9950495 12.7046813,47.4485686 12.7122341,48.0001004 L12.7122341,54.0001004 L18.7122341,54.0001004 C19.07287,54.0052007 19.4083154,53.8157251 19.5901218,53.5042276 C19.7719281,53.19273 19.7719281,52.8074708 19.5901218,52.4959733 C19.4083154,52.1844757 19.07287,51.9950001 18.7122341,52.0001004 L14.7122341,52.0001004 L14.7122341,48.0001004 C14.7159355,47.7298001 14.6100574,47.4695138 14.4187244,47.2785487 C14.2273914,47.0875836 13.9669018,46.9822067 13.6966091,46.9864284 Z M53.6966091,46.9864284 C53.1450929,46.9950495 52.7046813,47.4485686 52.7122341,48.0001004 L52.7122341,52.0001004 L48.7122341,52.0001004 C48.3515982,51.9950001 48.0161527,52.1844757 47.8343463,52.4959733 C47.65254,52.8074708 47.65254,53.19273 47.8343463,53.5042276 C48.0161527,53.8157251 48.3515982,54.0052007 48.7122341,54.0001004 L54.7122341,54.0001004 L54.7122341,48.0001004 C54.7159355,47.7298001 54.6100574,47.4695138 54.4187244,47.2785487 C54.2273914,47.0875836 53.9669018,46.9822067 53.6966091,46.9864284 Z" id="reticule" fill="#000000" fill-rule="nonzero"></path>
            <path d="M33.7006011,17.3554336 C33.6645339,17.3562248 33.6285712,17.3596267 33.5929971,17.3656219 L18.8221488,17.3656219 C18.4109875,17.365663 18.0776857,17.6989648 18.0776446,18.1101261 L18.0776446,27.6636279 C18.0643559,27.7440279 18.0643559,27.8260642 18.0776446,27.9064643 L18.0776446,38.0866875 C18.0643559,38.1670876 18.0643559,38.2491238 18.0776446,38.3295239 L18.0776446,47.8902965 C18.0776857,48.3014578 18.4109875,48.6347596 18.8221488,48.6348007 L33.5871803,48.6348007 C33.6675804,48.6480894 33.7496167,48.6480894 33.8300168,48.6348007 L48.6023191,48.6348007 C49.0134804,48.6347596 49.3467823,48.3014578 49.3468234,47.8902965 L49.3468234,38.3367947 C49.3601121,38.2563947 49.3601121,38.1743584 49.3468234,38.0939583 L49.3468234,27.9137351 C49.3601121,27.833335 49.3601121,27.7512988 49.3468234,27.6708987 L49.3468234,18.1101261 C49.3467823,17.6989648 49.0134804,17.365663 48.6023191,17.3656219 L33.8271087,17.3656219 C33.7853061,17.3586346 33.7429831,17.3554336 33.7006011,17.3554336 Z M19.5666531,18.8546304 L32.9677297,18.8546304 L32.9677297,27.0441772 L19.5666531,27.0441772 L19.5666531,18.8546304 Z M34.4567382,18.8546304 L47.8578149,18.8546304 L47.8578149,27.0441772 L34.4567382,27.0441772 L34.4567382,18.8546304 Z M19.5666531,28.5331858 L32.9677297,28.5331858 L32.9677297,37.4672368 L19.5666531,37.4672368 L19.5666531,28.5331858 Z M34.4567382,28.5331858 L47.8578149,28.5331858 L47.8578149,37.4672368 L34.4567382,37.4672368 L34.4567382,28.5331858 Z M19.5666531,38.9562454 L32.9677297,38.9562454 L32.9677297,47.1457922 L19.5666531,47.1457922 L19.5666531,38.9562454 Z M34.4567382,38.9562454 L47.8578149,38.9562454 L47.8578149,47.1457922 L34.4567382,47.1457922 L34.4567382,38.9562454 Z" id="table" fill="#000000" fill-rule="nonzero"></path>
            <path d="M13.5520779,31.8352494 C13.191442,31.8321858 12.8559965,31.9459983 12.6741901,32.1331058 C12.4923838,32.3202133 12.4923838,32.5516273 12.6741901,32.7387348 C12.8559965,32.9258424 13.191442,33.0396548 13.5520779,33.0365912 L19.5188751,33.0365912 C19.6063802,33.0435811 19.6950409,33.0435811 19.7825461,33.0365912 L53.8723901,33.0365912 C54.233026,33.0396548 54.5684714,32.9258424 54.7502778,32.7387348 C54.9320841,32.5516273 54.9320841,32.3202133 54.7502778,32.1331058 C54.5684714,31.9459983 54.233026,31.8321858 53.8723901,31.8352494 L13.5520779,31.8352494 Z" id="path" fill="#FFFFFF"></path>
        </g>
    </g>
</svg>