<?xml version="1.0" encoding="UTF-8"?>
<svg width="67px" height="67px" viewBox="0 0 67 67" version="1.1" xmlns="http://www.w3.org/2000/svg" xmlns:xlink="http://www.w3.org/1999/xlink">
    <title>serially</title>
    <g id="All-Icons" stroke="none" stroke-width="1" fill="none" fill-rule="evenodd">
        <g id="serially" transform="translate(0.000000, 0.724138)">
            <path d="M56.712234,1 C59.1975153,1 61.4475153,2.00735931 63.076195,3.63603897 C64.7048747,5.26471863 65.712234,7.51471863 65.712234,10 L65.712234,10 L65.712234,65 L10.712234,65 C8.22695259,65 5.97695259,63.9926407 4.34827294,62.363961 C2.71959328,60.7352814 1.71223397,58.4852814 1.71223397,56 L1.71223397,56 L1.71223397,10 C1.71223397,7.51471863 2.71959328,5.26471863 4.34827294,3.63603897 C5.97695259,2.00735931 8.22695259,1 10.712234,1 L10.712234,1 Z" id="rectangle" stroke="#000000" stroke-width="2" fill="#FFFFFF"></path>
            <g id="serial_path" transform="translate(16.045567, 15.838449)">
                <circle id="BigOval" fill="#000000" cx="27.6457516" cy="28.6026806" r="5.98051087"></circle>
                <circle id="BigOval" fill="#F8E71C" cx="27.6457516" cy="28.6026806" r="4.80273113"></circle>
                <path d="M2.41370061,3.32291667 C1.67770061,3.32291667 1.08036728,3.91891667 1.08036728,4.65625 C1.08036728,5.39358333 1.67770061,5.98958333 2.41370061,5.98958333 L27.0156253,5.98958333 C27.134292,5.98958333 27.5636253,5.98958333 27.682292,5.98958333 C30.2556253,5.98958333 32.3489587,8.08291667 32.3489587,10.65625 C32.3489587,13.2295827 30.2556253,15.3229167 27.682292,15.3229167 L25.682292,15.3229167 L14.5872803,15.3229167 L14.5872803,17.989584 L25.682292,17.989584 L25.7239587,17.989584 L28.1040464,17.989584 C28.3888864,17.989584 28.6861228,17.948731 28.8678383,17.9072767 C32.3478383,17.3379447 34.9609991,14.226975 34.9609991,10.5896423 C34.9609991,6.54697563 31.7249587,3.32291667 27.682292,3.32291667 C27.5636253,3.32291667 27.134292,3.32291667 27.0156253,3.32291667 L2.41370061,3.32291667 Z M14.5891263,15.3226302 C14.5891263,15.3226302 14.5891263,17.9892968 14.5891263,17.9892968 L8.25579268,17.9892968 C8.13712601,17.9892968 7.70779268,17.9892968 7.58912601,17.9892968 C5.01579268,17.9892968 2.92245934,20.0826302 2.92245934,22.6559635 C2.92245934,25.2292962 5.01579268,27.3226302 7.58912601,27.3226302 L9.58912601,27.3226302 L14.033282,27.3226302 L14.033282,24.6559642 C14.033282,24.1226295 14.3521367,23.6294015 14.8588033,23.4294015 C15.3521367,23.2160676 15.925262,23.3373175 16.3119287,23.7106508 L20.1921367,27.6038802 C20.4588033,27.8038802 20.6466153,28.1090882 20.6999487,28.4424215 L20.6999487,28.8825255 C20.6466153,29.2158588 20.4588033,29.5106508 20.1921367,29.7106508 L16.3119287,33.6038802 C15.925262,33.9772135 15.3521367,34.0958588 14.8588033,33.8825255 C14.3521367,33.6825255 14.033282,33.1892962 14.033282,32.6559642 L14.033282,29.9892975 L9.58912601,29.9892975 L9.54745934,29.9892975 L7.16737165,29.9892975 C6.88253164,29.9892975 6.58529521,29.9484445 6.40357973,29.9069902 C2.92357973,29.3376582 0.310418904,26.2266885 0.310418904,22.5893558 C0.310418904,18.5466891 3.54645934,15.3226302 7.58912601,15.3226302 C7.70779268,15.3226302 8.13712601,15.3226302 8.25579268,15.3226302 L14.5891263,15.3226302 Z" id="Shape" fill="#000000" fill-rule="nonzero"></path>
                <circle id="Oval" fill="#000000" cx="23.3046824" cy="16.6562503" r="3.85655265"></circle>
                <circle id="Oval" fill="#000000" cx="11.6023707" cy="4.70982005" r="3.85655265"></circle>
                <circle id="Oval" fill="#000000" cx="23.3046824" cy="4.70982005" r="3.85655265"></circle>
                <circle id="Oval" fill="#FFFFFF" cx="11.6023707" cy="4.70982005" r="1.69592531"></circle>
                <circle id="Oval" fill="#000000" cx="11.6023707" cy="16.6562503" r="3.85655265"></circle>
                <circle id="Oval" fill="#FFFFFF" cx="11.6023707" cy="16.6562503" r="1.69592531"></circle>
                <circle id="Oval" fill="#FFFFFF" cx="23.3046824" cy="4.70982005" r="1.69592531"></circle>
                <circle id="Oval" fill="#FFFFFF" cx="23.3046824" cy="16.6562503" r="1.69592531"></circle>
            </g>
        </g>
    </g>
</svg>