<?xml version="1.0" encoding="UTF-8"?>
<svg width="67px" height="67px" viewBox="0 0 67 67" version="1.1" xmlns="http://www.w3.org/2000/svg" xmlns:xlink="http://www.w3.org/1999/xlink">
    <title>specially</title>
    <g id="All-Icons" stroke="none" stroke-width="1" fill="none" fill-rule="evenodd">
        <g id="specially" transform="translate(0.000000, 0.206897)">
            <path d="M56.712234,1 C59.1975153,1 61.4475153,2.00735931 63.076195,3.63603897 C64.7048747,5.26471863 65.712234,7.51471863 65.712234,10 L65.712234,10 L65.712234,65 L10.712234,65 C8.22695259,65 5.97695259,63.9926407 4.34827294,62.363961 C2.71959328,60.7352814 1.71223397,58.4852814 1.71223397,56 L1.71223397,56 L1.71223397,10 C1.71223397,7.51471863 2.71959328,5.26471863 4.34827294,3.63603897 C5.97695259,2.00735931 8.22695259,1 10.712234,1 L10.712234,1 Z" id="rectangle" stroke="#000000" stroke-width="2" fill="#FFFFFF"></path>
            <g id="star" transform="translate(8.500000, 8.500000)" fill="#000000" fill-rule="nonzero">
                <path d="M25,0 C24.5874484,0 24.2174517,0.254002847 24.068359,0.6386719 L17.902344,16.535156 L0.94921875,17.400391 C0.536124409,17.4213013 0.17852458,17.6943523 0.0495446395,18.0873515 C-0.0794353012,18.4803507 0.046820452,18.9122002 0.3671875,19.173828 L13.568359,29.966797 L9.2324219,46.34375 C9.12646963,46.7428009 9.27663058,47.1659433 9.61042698,47.4089402 C9.94422338,47.651937 10.3930345,47.664834 10.740234,47.441406 L25,38.289062 L39.259766,47.441406 C39.6069655,47.6648339 40.0557766,47.6519369 40.3895729,47.4089401 C40.7233693,47.1659432 40.8735302,46.7428009 40.767578,46.34375 L36.431641,29.966797 L49.632812,19.173828 C49.953179,18.9122002 50.0794348,18.4803507 49.9504549,18.0873516 C49.821475,17.6943524 49.4638753,17.4213014 49.050781,17.400391 L32.097656,16.535156 L25.931641,0.6386719 C25.7825483,0.254002847 25.4125516,0 25,0 Z M25,3.7636719 L30.466797,17.861328 C30.609689,18.2291416 30.9554962,18.4785515 31.349609,18.498047 L46.359375,19.265625 L34.667969,28.826172 C34.3646054,29.0742114 34.2340493,29.4765679 34.333984,29.855469 L38.175781,44.369141 L25.541016,36.257812 C25.2114789,36.0458536 24.7885211,36.0458536 24.458984,36.257812 L11.824219,44.369141 L15.666016,29.855469 C15.7659507,29.4765679 15.6353946,29.0742114 15.332031,28.826172 L3.640625,19.265625 L18.650391,18.498047 C19.0445038,18.4785515 19.390311,18.2291416 19.533203,17.861328 L25,3.7636719 Z" id="Shape"></path>
            </g>
        </g>
    </g>
</svg>