<?xml version="1.0" encoding="UTF-8"?>
<svg width="66px" height="67px" viewBox="0 0 66 67" version="1.1" xmlns="http://www.w3.org/2000/svg" xmlns:xlink="http://www.w3.org/1999/xlink">
    <title>stock_msg_body</title>
    <g id="All-Icons" stroke="none" stroke-width="1" fill="none" fill-rule="evenodd">
        <g id="stock_msg_body" transform="translate(0.000000, 0.068966)">
            <path d="M56,1 C58.4852814,1 60.7352814,2.00735931 62.363961,3.63603897 C63.9926407,5.26471863 65,7.51471863 65,10 L65,10 L65,65 L10,65 C7.51471863,65 5.26471863,63.9926407 3.63603897,62.363961 C2.00735931,60.7352814 1,58.4852814 1,56 L1,56 L1,10 C1,7.51471863 2.00735931,5.26471863 3.63603897,3.63603897 C5.26471863,2.00735931 7.51471863,1 10,1 L10,1 Z" id="rectangle" stroke="#000000" stroke-width="2" fill="#FFFFFF"></path>
            <path d="M11.0905711,11 L11.0905711,55 L53.0905711,55 L53.0905711,11 L11.0905711,11 Z M45.6788064,49 L18.5023359,49 L18.5023359,47 L45.6788064,47 L45.6788064,49 Z M45.6788064,44 L18.5023359,44 L18.5023359,22 L45.6788064,22 L45.6788064,44 Z M45.6788064,19 L18.5023359,19 L18.5023359,17 L45.6788064,17 L45.6788064,19 Z" id="email_body" fill="#000000" fill-rule="nonzero"></path>
        </g>
    </g>
</svg>