<?xml version="1.0" encoding="UTF-8"?>
<svg width="67px" height="67px" viewBox="0 0 67 67" version="1.1" xmlns="http://www.w3.org/2000/svg" xmlns:xlink="http://www.w3.org/1999/xlink">
    <title>tbl_get</title>
    <g id="All-Icons" stroke="none" stroke-width="1" fill="none" fill-rule="evenodd">
        <g id="tbl_get" transform="translate(0.000000, 0.344828)">
            <path d="M56.5,1.50103578 C58.9852814,1.50103578 61.2352814,2.50839509 62.863961,4.13707474 C64.4926407,5.7657544 65.5,8.0157544 65.5,10.5010358 L65.5,10.5010358 L65.5,65.5010358 L10.5,65.5010358 C8.01471863,65.5010358 5.76471863,64.4936765 4.13603897,62.8649968 C2.50735931,61.2363171 1.5,58.9863171 1.5,56.5010358 L1.5,56.5010358 L1.5,10.5010358 C1.5,8.0157544 2.50735931,5.7657544 4.13603897,4.13707474 C5.76471863,2.50839509 8.01471863,1.50103578 10.5,1.50103578 L10.5,1.50103578 Z" id="rectangle" stroke="#000000" stroke-width="2" fill="#FFFFFF"></path>
            <g id="data_table" transform="translate(15.500000, 15.500000)" fill="#000000" fill-rule="nonzero">
                <path d="M17.9872159,0.80698531 C17.9475794,0.807854758 17.9080578,0.811593305 17.8689633,0.818181818 L1.63636364,0.818181818 C1.18451301,0.818226996 0.818226996,1.18451301 0.818181818,1.63636364 L0.818181818,12.1352981 C0.803578052,12.2236547 0.803578052,12.3138095 0.818181818,12.4021661 L0.818181818,23.5898435 C0.803578052,23.6782002 0.803578052,23.7683549 0.818181818,23.8567115 L0.818181818,34.3636364 C0.818226996,34.815487 1.18451301,35.181773 1.63636364,35.1818182 L17.8625708,35.1818182 C17.9509274,35.1964219 18.0410822,35.1964219 18.1294388,35.1818182 L34.3636364,35.1818182 C34.815487,35.181773 35.181773,34.815487 35.1818182,34.3636364 L35.1818182,23.8647019 C35.1964219,23.7763453 35.1964219,23.6861905 35.1818182,23.5978339 L35.1818182,12.4101565 C35.1964219,12.3217998 35.1964219,12.2316451 35.1818182,12.1432885 L35.1818182,1.63636364 C35.181773,1.18451301 34.815487,0.818226996 34.3636364,0.818181818 L18.126243,0.818181818 C18.0803035,0.810503093 18.0337922,0.80698531 17.9872159,0.80698531 Z M2.45454545,2.45454545 L17.1818182,2.45454545 L17.1818182,11.4545455 L2.45454545,11.4545455 L2.45454545,2.45454545 Z M18.8181818,2.45454545 L33.5454545,2.45454545 L33.5454545,11.4545455 L18.8181818,11.4545455 L18.8181818,2.45454545 Z M2.45454545,13.0909091 L17.1818182,13.0909091 L17.1818182,22.9090909 L2.45454545,22.9090909 L2.45454545,13.0909091 Z M18.8181818,13.0909091 L33.5454545,13.0909091 L33.5454545,22.9090909 L18.8181818,22.9090909 L18.8181818,13.0909091 Z M2.45454545,24.5454545 L17.1818182,24.5454545 L17.1818182,33.5454545 L2.45454545,33.5454545 L2.45454545,24.5454545 Z M18.8181818,24.5454545 L33.5454545,24.5454545 L33.5454545,33.5454545 L18.8181818,33.5454545 L18.8181818,24.5454545 Z" id="Shape"></path>
            </g>
            <g id="sudden_stars" transform="translate(9.500000, 7.501036)" fill="#000000" fill-rule="nonzero">
                <path d="M5,0 L4,6 L0,7 L4,8 L5,14 L6,8 L10,7 L6,6 L5,0 Z M46.4050375,26.0068714 L45.8195248,29.5199473 L43.4774743,30.1054599 L45.8195248,30.6909725 L46.4050375,34.2040484 L46.9905501,30.6909725 L49.3326007,30.1054599 L46.9905501,29.5199473 L46.4050375,26.0068714 Z M36.4050375,11.976036 L35.9579769,14.6583993 L34.1697347,15.1054599 L35.9579769,15.5525205 L36.4050375,18.2348838 L36.852098,15.5525205 L38.6403403,15.1054599 L36.852098,14.6583993 L36.4050375,11.976036 Z M16.2110553,29.225477 L17.4532663,36.425477 L22.4221106,37.625477 L17.4532663,38.825477 L16.2110553,46.025477 L14.9688442,38.825477 L10,37.625477 L14.9688442,36.425477 L16.2110553,29.225477 Z M16.2110553,33.3583067 L15.5800164,37.0158813 L13.0558611,37.625477 L15.5800164,38.2350728 L16.2110553,41.8926474 L16.8420941,38.2350728 L19.3662494,37.625477 L16.8420941,37.0158813 L16.2110553,33.3583067 Z" id="Shape"></path>
            </g>
        </g>
    </g>
</svg>