<?xml version="1.0" encoding="UTF-8"?>
<svg width="67px" height="67px" viewBox="0 0 67 67" version="1.1" xmlns="http://www.w3.org/2000/svg" xmlns:xlink="http://www.w3.org/1999/xlink">
    <title>tbl_store</title>
    <g id="All-Icons" stroke="none" stroke-width="1" fill="none" fill-rule="evenodd">
        <g id="tbl_store" transform="translate(0.000000, 0.379310)">
            <path d="M56.5,1.50103578 C58.9852814,1.50103578 61.2352814,2.50839509 62.863961,4.13707474 C64.4926407,5.7657544 65.5,8.0157544 65.5,10.5010358 L65.5,10.5010358 L65.5,65.5010358 L10.5,65.5010358 C8.01471863,65.5010358 5.76471863,64.4936765 4.13603897,62.8649968 C2.50735931,61.2363171 1.5,58.9863171 1.5,56.5010358 L1.5,56.5010358 L1.5,10.5010358 C1.5,8.0157544 2.50735931,5.7657544 4.13603897,4.13707474 C5.76471863,2.50839509 8.01471863,1.50103578 10.5,1.50103578 L10.5,1.50103578 Z" id="rectangle" stroke="#000000" stroke-width="2" fill="#FFFFFF"></path>
            <g id="tbl_store_shape" transform="translate(8.000000, 11.501036)" fill="#000000" fill-rule="nonzero">
                <path d="M43.8438499,24.9771102 C44.2439562,24.9771102 44.5702844,25.3034384 44.5702844,25.7035448 L44.5702844,25.7035448 L44.5702844,35.8736285 C44.5702844,37.8429475 42.9726957,39.4632365 41.0090523,39.5029638 C40.9863513,39.5029638 40.9636502,39.5058012 40.9381117,39.5058012 L40.9381117,39.5058012 L32.9473316,39.5058012 C31.3412306,39.5058012 30.0415934,38.2061648 30.0415934,36.600063 C30.0415934,34.993962 31.3412306,33.6943248 32.9473316,33.6943248 L32.9473316,33.6943248 L32.9473316,25.7035448 C32.9473316,25.3034384 33.2736598,24.9771102 33.6737661,24.9771102 L33.6737661,24.9771102 Z M43.1174153,26.4299793 L34.4002007,26.4299793 L34.4002007,33.6943248 L40.9381117,33.6943248 C41.014728,33.6943248 41.0885061,33.7085128 41.162285,33.7312139 C41.1849861,33.739727 41.2076872,33.7482401 41.2303882,33.7595906 L41.2303882,33.7595906 L41.2928158,33.7936422 C41.3552442,33.8305313 41.4119969,33.8759335 41.4630739,33.9298487 C41.4971256,33.9639003 41.5255023,34.0036269 41.5510408,34.0461916 C41.5623913,34.0660552 41.5737419,34.0859188 41.5850924,34.1086199 C41.6163066,34.173885 41.6361702,34.2448264 41.6475208,34.3186045 C41.6503582,34.3413056 41.6531957,34.3640067 41.6531957,34.3895452 C41.6588713,34.4860252 41.6418451,34.5825044 41.6077935,34.6733087 C41.5936055,34.721549 41.5709044,34.764113 41.5453659,34.8066777 C41.5311772,34.8265414 41.5169892,34.846405 41.5028012,34.8634304 C41.4886132,34.8832941 41.471587,34.9031577 41.457399,34.9201831 C41.338218,35.0450391 41.1793104,35.1244928 41.0090523,35.1443565 C40.9863513,35.1443565 40.9636502,35.1471939 40.9381117,35.1471939 C40.0726332,35.1471939 39.4852426,35.7345845 39.4852426,36.600063 C39.4852426,37.4655415 40.0726332,38.0529321 40.9381117,38.0529321 C42.1412689,38.0529321 43.1174153,37.0767857 43.1174153,35.8736285 L43.1174153,35.8736285 L43.1174153,26.4299793 Z M38.477882,35.1471939 L32.9473316,35.1471939 C32.0818531,35.1471939 31.4944625,35.7345845 31.4944625,36.600063 C31.4944625,37.4655415 32.0818531,38.0529321 32.9473316,38.0529321 L32.9473316,38.0529321 L38.477882,38.0529321 C38.2196577,37.6187742 38.0323734,37.1420515 38.0323734,36.600063 C38.0323734,36.0580746 38.2196577,35.5813519 38.477882,35.1471939 L38.477882,35.1471939 Z M10.992495,35.3415415 L10.992495,37.2153323 L7.02121531,37.2153323 L7.02121531,35.3415415 L10.992495,35.3415415 Z M28.3652597,35.3415415 L28.3652597,37.2153323 L13.8031811,37.2153323 L13.8031811,35.3415415 L28.3652597,35.3415415 Z M10.992495,30.6570648 L10.992495,32.5308555 L7.02121531,32.5308555 L7.02121531,30.6570648 L10.992495,30.6570648 Z M28.4456609,30.6570648 L28.4456609,32.5308555 L13.8031811,32.5308555 L13.8031811,30.6570648 L28.4456609,30.6570648 Z M10.992495,25.972588 L10.992495,27.8463787 L7.02121531,27.8463787 L7.02121531,25.972588 L10.992495,25.972588 Z M30.7476987,25.972588 L30.7476987,27.8463787 L13.8031811,27.8463787 L13.8031811,25.972588 L30.7476987,25.972588 Z M10.992495,21.2881112 L10.992495,23.1619019 L7.02121531,23.1619019 L7.02121531,21.2881112 L10.992495,21.2881112 Z M42.2578877,21.2881112 L42.2578877,23.1619019 L13.8031811,23.1619019 L13.8031811,21.2881112 L42.2578877,21.2881112 Z M4.03156023,0 C2.13816889,0 0,8.97711181 0,12.0856985 C0,13.6725507 0.30624055,15.1917679 1.14652279,16.4042673 C1.14805514,16.4064784 1.14948241,16.4088035 1.1510189,16.4110111 L1.1510189,40.2856616 C1.1510189,42.1790532 2.71068428,43.7387183 4.60407561,43.7387183 L7.86379706,43.7387183 C7.98809717,43.7592629 8.11492686,43.7592629 8.23922697,43.7387183 L18.222967,43.7387183 C18.3472671,43.7592629 18.4740969,43.7592629 18.5983971,43.7387183 L46.0407561,43.7387183 C47.9341477,43.7387183 49.4938129,42.1790532 49.4938129,40.2856616 L49.4938129,16.4110111 C49.4953495,16.4088035 49.4967767,16.4064784 49.4983087,16.4042673 C50.3385917,15.1917679 50.6448318,13.6725507 50.6448318,12.0856985 C50.6448318,8.97711181 48.5722608,0 46.6861999,0 C45.4239389,0 31.2057256,0 4.03156023,0 Z M3.91935014,2.45305671 L8.05713232,2.45305671 L8.05713232,14.8328572 C7.32222034,15.6113569 6.32672319,16.1142646 5.17958507,16.1142646 C4.06055114,16.1142646 3.49833975,15.753609 3.03940929,15.0913864 C2.58047883,14.4291649 2.30203781,13.3591283 2.30203781,12.0856985 C2.30203781,8.51923032 3.72244211,3.50214023 3.91935014,2.45305671 Z M10.3591701,2.45305671 L16.1142646,2.45305671 L16.1142646,14.8328572 C15.3793529,15.6113569 14.3838551,16.1142646 13.2367174,16.1142646 C12.0912901,16.1142646 11.0947034,15.6151184 10.3591701,14.839601 L10.3591701,2.45305671 Z M18.4163025,2.45305671 L24.171397,2.45305671 L24.171397,14.8328572 C23.4364852,15.6113569 22.4409874,16.1142646 21.2938497,16.1142646 C20.1484225,16.1142646 19.1518358,15.6151184 18.4163025,14.839601 L18.4163025,2.45305671 Z M26.4734348,2.45305671 L32.2285293,2.45305671 L32.2285293,14.8328572 C31.4946339,15.6105385 30.4978803,16.1142646 29.350982,16.1142646 C28.2055548,16.1142646 27.2089681,15.6151184 26.4734348,14.839601 L26.4734348,2.45305671 Z M34.5305671,2.45305671 L40.2856616,2.45305671 L40.2856616,14.839601 C39.5512011,15.6145717 38.5534288,16.1142646 37.4081144,16.1142646 C36.2626871,16.1142646 35.2651623,15.6145843 34.5305671,14.839601 L34.5305671,2.45305671 Z M42.5876994,2.45305671 L46.7501095,2.45305671 C46.9470178,3.50214023 48.3427939,7.69252639 48.3427939,12.0856985 C48.3427939,13.3591283 48.0643533,14.4291649 47.6054225,15.0913864 C47.1464917,15.753609 46.5842811,16.1142646 45.4652467,16.1142646 C44.3198194,16.1142646 43.3222947,15.6145843 42.5876994,14.839601 L42.5876994,2.45305671 Z M9.20815123,16.9348157 C10.2990892,17.8486913 11.699519,18.4163025 13.2367174,18.4163025 C14.7739158,18.4163025 16.1743455,17.8486913 17.2652836,16.9348157 C18.3562216,17.8486913 19.7566513,18.4163025 21.2938497,18.4163025 C22.8310481,18.4163025 24.2314779,17.8486913 25.3224159,16.9348157 C26.4133539,17.8486913 27.8137836,18.4163025 29.350982,18.4163025 C30.8872021,18.4163025 32.2890211,17.8500817 33.3795482,16.9370636 C34.4700753,17.8500817 35.8718943,18.4163025 37.4081144,18.4163025 C38.9443344,18.4163025 40.3461534,17.8500817 41.4366805,16.9370636 C42.5272076,17.8500817 43.9290266,18.4163025 45.4652467,18.4163025 C46.0831827,18.4163025 46.661183,18.310411 47.191775,18.1262998 L47.191775,40.2856616 C47.191775,40.9360218 46.6911164,41.4366805 46.0407561,41.4366805 L4.60407561,41.4366805 C3.95371517,41.4366805 3.45305671,40.9360218 3.45305671,40.2856616 L3.45305671,18.1262998 C3.98364857,18.310411 4.56164837,18.4163025 5.17958507,18.4163025 C6.71678313,18.4163025 8.11721321,17.8486913 9.20815123,16.9348157 Z" id="Shape"></path>
            </g>
        </g>
    </g>
</svg>