<?xml version="1.0" encoding="UTF-8"?>
<svg width="67px" height="67px" viewBox="0 0 67 67" version="1.1" xmlns="http://www.w3.org/2000/svg" xmlns:xlink="http://www.w3.org/1999/xlink">
    <title>tbl_source</title>
    <g id="All-Icons" stroke="none" stroke-width="1" fill="none" fill-rule="evenodd">
        <g id="tbl_source" transform="translate(0.000000, -0.137931)">
            <path d="M56.5,1.50103578 C58.9852814,1.50103578 61.2352814,2.50839509 62.863961,4.13707474 C64.4926407,5.7657544 65.5,8.0157544 65.5,10.5010358 L65.5,10.5010358 L65.5,65.5010358 L10.5,65.5010358 C8.01471863,65.5010358 5.76471863,64.4936765 4.13603897,62.8649968 C2.50735931,61.2363171 1.5,58.9863171 1.5,56.5010358 L1.5,56.5010358 L1.5,10.5010358 C1.5,8.0157544 2.50735931,5.7657544 4.13603897,4.13707474 C5.76471863,2.50839509 8.01471863,1.50103578 10.5,1.50103578 L10.5,1.50103578 Z" id="rectangle" stroke="#000000" stroke-width="2" fill="#FFFFFF"></path>
            <g id="formula" transform="translate(11.000000, 10.501036)" fill="#000000" fill-rule="nonzero">
                <path d="M5,0 L4,6 L0,7 L4,8 L5,14 L6,8 L10,7 L6,6 L5,0 Z M33.546875,3.90625 C33.214844,3.914063 32.957031,4.003906 32.78125,4.179688 C31.800781,5.15625 33.480469,8.417969 36.527344,11.464844 C39.570313,14.511719 42.832031,16.1875 43.808594,15.214844 C44.785156,14.238281 43.109375,10.976563 40.0625,7.929688 C37.644531,5.511719 35,3.878906 33.546875,3.90625 Z M25.78125,4.92961837 C25.167969,4.925781 24.613281,5.085938 24.199219,5.5 C24.109375,5.589844 24.046875,5.699219 23.980469,5.800781 L21.097656,8.609375 C16.46875,8.601563 11.8125,10.378906 8.296875,13.886719 C8.296875,13.886719 8.296875,13.890625 8.296875,13.890625 C8.296875,13.890625 8.292969,13.890625 8.292969,13.890625 C1.113281,20.972656 1.117188,32.53125 8.292969,39.707031 C15.472656,46.886719 26.929688,46.78125 34.101563,39.714844 L34.105469,39.707031 L34.109375,39.707031 C37.714844,36.097656 39.410156,31.449219 39.390625,26.722656 L42.40625,23.707031 L42.402344,23.699219 C43.402344,22.699219 43,20.699219 42,19 L40.402344,20.199219 C41,21.199219 41.101563,22.097656 41,22.199219 C40.625,22.386719 39.085938,21.949219 36.75,20.363281 L41.097656,17.097656 C38.5,16.199219 35.898438,13.699219 35,12.902344 C33.300781,11.101563 31.601563,8.902344 30.902344,6.800781 L27.535156,11.175781 C26.058594,9.015625 25.550781,7.535156 25.601563,7.007813 L25.699219,6.914063 L25.6875,6.90625 C26.03125,6.921875 26.777344,7.035156 27.800781,7.5 L29,5.898438 C28,5.398438 26.804688,4.9375 25.78125,4.92961837 Z M23.871094,8.695313 C24.828125,11.5625 27.964844,15.265625 30.300781,17.597656 C32.601563,19.898438 35,21.800781 37.097656,23 C37.902344,23.484375 38.617188,23.8125 39.265625,24.019531 L37.191406,26.09375 C37.207031,26.078125 37.082031,26.179688 36.550781,26.0625 C36.023438,25.949219 35.234375,25.621094 34.328125,25.097656 C32.511719,24.050781 30.203125,22.238281 27.902344,19.984375 C25.605469,17.738281 23.804688,15.441406 22.769531,13.621094 C22.253906,12.707031 21.933594,11.914063 21.824219,11.375 C21.714844,10.835938 21.820313,10.695313 21.808594,10.707031 L23.871094,8.695313 Z M19.800781,10.648438 C19.765625,11.019531 19.789063,11.402344 19.863281,11.773438 C20.039063,12.644531 20.449219,13.578125 21.03125,14.605469 C22.199219,16.660156 24.09375,19.058594 26.5,21.414063 C28.898438,23.757813 31.289063,25.652344 33.324219,26.828125 C34.34375,27.417969 35.265625,27.832031 36.128906,28.019531 C36.53125,28.105469 36.953125,28.140625 37.355469,28.089844 C37.078125,31.839844 35.574219,35.40625 32.699219,38.285156 C26.269531,44.617188 16.128906,44.714844 9.707031,38.292969 C3.285156,31.871094 3.289063,21.632813 9.703125,15.3125 L9.707031,15.308594 C12.507813,12.503906 16.125,10.941406 19.800781,10.648438 Z M10.089844,18.863281 C9.769531,18.867188 9.449219,19 9.300781,19.300781 C5.101563,25.699219 6.800781,34.398438 13.300781,38.699219 C15.601563,40.199219 18.300781,41 21,41 C21.898438,41 22.902344,40.898438 23.800781,40.699219 C27.5,39.898438 30.597656,37.800781 32.699219,34.597656 C33.398438,33.5 33.402344,32 32.902344,30.597656 C32.199219,28.699219 30.5,27.199219 28.402344,26.5 C27,26 25.699219,25.800781 24.5,25.902344 C23,26 21.699219,26.199219 20.402344,26.597656 C19.800781,26.800781 19.300781,27 18.800781,27.199219 C17.5,27.699219 16.699219,28.101563 15.199219,27.800781 C11.199219,27.101563 11,23.199219 11.097656,20.300781 L11.097656,19.902344 C11.097656,19.5 10.800781,19.101563 10.402344,18.902344 C10.300781,18.875 10.195313,18.863281 10.089844,18.863281 Z M41.902344,35.300781 L41.300781,39 L38.800781,39.699219 L41.300781,40.300781 L41.902344,44 L42.5,40.300781 L45,39.699219 L42.5,39 L41.902344,35.300781 Z" id="Shape"></path>
            </g>
        </g>
    </g>
</svg>