<?xml version="1.0" encoding="UTF-8"?>
<svg width="67px" height="67px" viewBox="0 0 67 67" version="1.1" xmlns="http://www.w3.org/2000/svg" xmlns:xlink="http://www.w3.org/1999/xlink">
    <title>tt_summary_stats</title>
    <g id="All-Icons" stroke="none" stroke-width="1" fill="none" fill-rule="evenodd">
        <g id="tt_summary_stats" transform="translate(0.712234, 0.482759)">
            <path d="M56,1 C58.4852814,1 60.7352814,2.00735931 62.363961,3.63603897 C63.9926407,5.26471863 65,7.51471863 65,10 L65,10 L65,65 L10,65 C7.51471863,65 5.26471863,63.9926407 3.63603897,62.363961 C2.00735931,60.7352814 1,58.4852814 1,56 L1,56 L1,10 C1,7.51471863 2.00735931,5.26471863 3.63603897,3.63603897 C5.26471863,2.00735931 7.51471863,1 10,1 L10,1 Z" id="rectangle" stroke="#000000" stroke-width="2" fill="#FFFFFF"></path>
            <g id="#,#,#,#,#" transform="translate(14.042236, 50.569769)" fill="#000000" fill-rule="nonzero">
                <path d="M2.33105469,0 L2.0234375,1.20996094 L2.86083984,1.20996094 L3.171875,0 L3.71875,0 L3.40771484,1.20996094 L4.24169922,1.20996094 L4.24169922,1.73291016 L3.28125,1.73291016 L2.94628906,3.07617188 L3.80078125,3.07617188 L3.80078125,3.59912109 L2.81298828,3.59912109 L2.45751953,5.00732422 L1.91064453,5.00732422 L2.26953125,3.59912109 L1.42871094,3.59912109 L1.06982422,5.00732422 L0.526367188,5.00732422 L0.881835938,3.59912109 L0,3.59912109 L0,3.07617188 L1.01513672,3.07617188 L1.35009766,1.73291016 L0.440917969,1.73291016 L0.440917969,1.20996094 L1.4765625,1.20996094 L1.78417969,0 L2.33105469,0 Z M2.734375,1.73291016 L1.89697266,1.73291016 L1.56201172,3.07617188 L2.40283203,3.07617188 L2.734375,1.73291016 Z" id="#"></path>
                <polygon id="," points="5.71826172 3.7734375 6.78466797 3.7734375 6.78466797 4.67919922 6.02587891 6.15234375 5.34228516 6.15576172 5.71826172 4.67919922"></polygon>
                <path d="M10.7597656,0 L10.4521484,1.20996094 L11.2895508,1.20996094 L11.6005859,0 L12.1474609,0 L11.8364258,1.20996094 L12.6704102,1.20996094 L12.6704102,1.73291016 L11.7099609,1.73291016 L11.375,3.07617188 L12.2294922,3.07617188 L12.2294922,3.59912109 L11.2416992,3.59912109 L10.8862305,5.00732422 L10.3393555,5.00732422 L10.6982422,3.59912109 L9.85742188,3.59912109 L9.49853516,5.00732422 L8.95507812,5.00732422 L9.31054688,3.59912109 L8.42871094,3.59912109 L8.42871094,3.07617188 L9.44384766,3.07617188 L9.77880859,1.73291016 L8.86962891,1.73291016 L8.86962891,1.20996094 L9.90527344,1.20996094 L10.2128906,0 L10.7597656,0 Z M11.1630859,1.73291016 L10.3256836,1.73291016 L9.99072266,3.07617188 L10.831543,3.07617188 L11.1630859,1.73291016 Z" id="#"></path>
                <polygon id="," points="14.1469727 3.7734375 15.2133789 3.7734375 15.2133789 4.67919922 14.4545898 6.15234375 13.7709961 6.15576172 14.1469727 4.67919922"></polygon>
                <path d="M19.1884766,0 L18.8808594,1.20996094 L19.7182617,1.20996094 L20.0292969,0 L20.5761719,0 L20.2651367,1.20996094 L21.0991211,1.20996094 L21.0991211,1.73291016 L20.1386719,1.73291016 L19.8037109,3.07617188 L20.6582031,3.07617188 L20.6582031,3.59912109 L19.6704102,3.59912109 L19.3149414,5.00732422 L18.7680664,5.00732422 L19.1269531,3.59912109 L18.2861328,3.59912109 L17.9272461,5.00732422 L17.3837891,5.00732422 L17.7392578,3.59912109 L16.8574219,3.59912109 L16.8574219,3.07617188 L17.8725586,3.07617188 L18.2075195,1.73291016 L17.2983398,1.73291016 L17.2983398,1.20996094 L18.3339844,1.20996094 L18.6416016,0 L19.1884766,0 Z M19.5917969,1.73291016 L18.7543945,1.73291016 L18.4194336,3.07617188 L19.2602539,3.07617188 L19.5917969,1.73291016 Z" id="#"></path>
                <polygon id="," points="22.5756836 3.7734375 23.6420898 3.7734375 23.6420898 4.67919922 22.8833008 6.15234375 22.199707 6.15576172 22.5756836 4.67919922"></polygon>
                <path d="M27.6171875,0 L27.3095703,1.20996094 L28.1469727,1.20996094 L28.4580078,0 L29.0048828,0 L28.6938477,1.20996094 L29.527832,1.20996094 L29.527832,1.73291016 L28.5673828,1.73291016 L28.2324219,3.07617188 L29.0869141,3.07617188 L29.0869141,3.59912109 L28.0991211,3.59912109 L27.7436523,5.00732422 L27.1967773,5.00732422 L27.5556641,3.59912109 L26.7148438,3.59912109 L26.355957,5.00732422 L25.8125,5.00732422 L26.1679688,3.59912109 L25.2861328,3.59912109 L25.2861328,3.07617188 L26.3012695,3.07617188 L26.6362305,1.73291016 L25.7270508,1.73291016 L25.7270508,1.20996094 L26.7626953,1.20996094 L27.0703125,0 L27.6171875,0 Z M28.0205078,1.73291016 L27.1831055,1.73291016 L26.8481445,3.07617188 L27.6889648,3.07617188 L28.0205078,1.73291016 Z" id="#"></path>
                <polygon id="," points="31.0043945 3.7734375 32.0708008 3.7734375 32.0708008 4.67919922 31.3120117 6.15234375 30.628418 6.15576172 31.0043945 4.67919922"></polygon>
                <path d="M36.0458984,0 L35.7382812,1.20996094 L36.5756836,1.20996094 L36.8867188,0 L37.4335938,0 L37.1225586,1.20996094 L37.956543,1.20996094 L37.956543,1.73291016 L36.9960938,1.73291016 L36.6611328,3.07617188 L37.515625,3.07617188 L37.515625,3.59912109 L36.527832,3.59912109 L36.1723633,5.00732422 L35.6254883,5.00732422 L35.984375,3.59912109 L35.1435547,3.59912109 L34.784668,5.00732422 L34.2412109,5.00732422 L34.5966797,3.59912109 L33.7148438,3.59912109 L33.7148438,3.07617188 L34.7299805,3.07617188 L35.0649414,1.73291016 L34.1557617,1.73291016 L34.1557617,1.20996094 L35.1914062,1.20996094 L35.4990234,0 L36.0458984,0 Z M36.4492188,1.73291016 L35.6118164,1.73291016 L35.2768555,3.07617188 L36.1176758,3.07617188 L36.4492188,1.73291016 Z" id="#"></path>
            </g>
            <circle id="Oval" fill="#000000" cx="50.2374629" cy="38.9802722" r="1"></circle>
            <circle id="Oval" fill="#000000" cx="13.8647748" cy="37.7522774" r="1"></circle>
            <circle id="Oval" fill="#000000" cx="12.8094778" cy="40.0152101" r="1"></circle>
            <circle id="Oval" fill="#000000" cx="13.5183093" cy="42.2644907" r="1"></circle>
            <circle id="Oval" fill="#000000" cx="12.1025819" cy="44.2594405" r="1"></circle>
            <circle id="Oval" fill="#000000" cx="10.7526994" cy="38.9559976" r="1"></circle>
            <circle id="Oval" fill="#000000" cx="7.78886676" cy="41.0172414" r="1"></circle>
            <circle id="Oval" fill="#000000" cx="10.3186491" cy="41.7991429" r="1"></circle>
            <circle id="Oval" fill="#000000" cx="51.5232399" cy="41.288424" r="1"></circle>
            <circle id="Oval" fill="#000000" cx="50.6312735" cy="43.0723568" r="1"></circle>
            <circle id="Oval" fill="#000000" cx="52.9844588" cy="39.5362102" r="1"></circle>
            <circle id="Oval" fill="#000000" cx="53.5800183" cy="42.3879772" r="1"></circle>
            <circle id="Oval" fill="#000000" cx="55.2623884" cy="40.7399304" r="1"></circle>
            <circle id="Oval" fill="#000000" cx="57.5403181" cy="41.288424" r="1"></circle>
            <rect id="Rectangle" stroke="#000000" x="23" y="36" width="20" height="10"></rect>
            <line x1="32.787766" y1="36.0172414" x2="32.787766" y2="46.0172414" id="Line" stroke="#000000" stroke-linecap="square"></line>
            <line x1="48.8741001" y1="38.3985583" x2="48.8741001" y2="44.1782897" id="Line" stroke="#000000" stroke-linecap="square"></line>
            <line x1="14.8479068" y1="38.3985583" x2="14.8479068" y2="44.1782897" id="Line" stroke="#000000" stroke-linecap="square"></line>
            <line x1="48.6257675" y1="41.0172414" x2="43.0911656" y2="41.0172414" id="Line" stroke="#000000" stroke-linecap="square"></line>
            <line x1="22.5394335" y1="41.0172414" x2="14.8479068" y2="41.0172414" id="Line" stroke="#000000" stroke-linecap="square"></line>
            <g id="transformer" transform="translate(9.845645, 9.902909)" stroke="#000000" stroke-width="2">
                <circle id="Oval" cx="16.8501942" cy="9.35019417" r="9.35019417"></circle>
                <circle id="Oval" cx="29.4585155" cy="9.35019417" r="9.35019417"></circle>
                <line x1="38.8087097" y1="9.35019417" x2="45.8087097" y2="9.35019417" id="Line" stroke-linecap="square"></line>
                <line x1="0.5" y1="9.35019417" x2="7.5" y2="9.35019417" id="Line-2-Copy" stroke-linecap="square"></line>
            </g>
        </g>
    </g>
</svg>