<?xml version="1.0" encoding="UTF-8"?>
<svg width="67px" height="67px" viewBox="0 0 67 67" version="1.1" xmlns="http://www.w3.org/2000/svg" xmlns:xlink="http://www.w3.org/1999/xlink">
    <title>tt_tbl_dims</title>
    <g id="All-Icons" stroke="none" stroke-width="1" fill="none" fill-rule="evenodd">
        <g id="tt_tbl_dims" transform="translate(0.712234, 0.448276)">
            <path d="M56,1 C58.4852814,1 60.7352814,2.00735931 62.363961,3.63603897 C63.9926407,5.26471863 65,7.51471863 65,10 L65,10 L65,65 L10,65 C7.51471863,65 5.26471863,63.9926407 3.63603897,62.363961 C2.00735931,60.7352814 1,58.4852814 1,56 L1,56 L1,10 C1,7.51471863 2.00735931,5.26471863 3.63603897,3.63603897 C5.26471863,2.00735931 7.51471863,1 10,1 L10,1 Z" id="rectangle" stroke="#000000" stroke-width="2" fill="#FFFFFF"></path>
            <g id="transformer" transform="translate(9.845645, 9.902909)" stroke="#000000" stroke-width="2">
                <circle id="Oval" cx="16.8501942" cy="9.35019417" r="9.35019417"></circle>
                <circle id="Oval" cx="29.4585155" cy="9.35019417" r="9.35019417"></circle>
                <line x1="38.8087097" y1="9.35019417" x2="45.8087097" y2="9.35019417" id="Line" stroke-linecap="square"></line>
                <line x1="0.5" y1="9.35019417" x2="7.5" y2="9.35019417" id="Line-2-Copy" stroke-linecap="square"></line>
            </g>
            <g id="table" transform="translate(19.735717, 39.949589)" fill="#000000" fill-rule="nonzero">
                <path d="M7.3364663,0 C7.31954011,0.00042651168 7.30266296,0.00226047425 7.28596822,0.00549250133 L0.354070024,0.00549250133 C0.161113713,0.00551466375 0.00469653909,0.18519805 0.00467724635,0.406855573 L0.00467724635,5.55715895 C-0.00155908212,5.60050273 -0.00155908212,5.64472857 0.00467724635,5.68807235 L0.00467724635,11.176242 C-0.00155908212,11.2195857 -0.00155908212,11.2638116 0.00467724635,11.3071554 L0.00467724635,16.4613784 C0.00469653909,16.683036 0.161113713,16.8627194 0.354070024,16.8627415 L7.28323841,16.8627415 C7.32096984,16.8699055 7.35946912,16.8699055 7.39720055,16.8627415 L14.3297811,16.8627415 C14.5227374,16.8627194 14.6791546,16.683036 14.6791739,16.4613784 L14.6791739,11.3110751 C14.6854102,11.2677313 14.6854102,11.2235054 14.6791739,11.1801617 L14.6791739,5.69199206 C14.6854102,5.64864828 14.6854102,5.60442244 14.6791739,5.56107866 L14.6791739,0.406855573 C14.6791546,0.18519805 14.5227374,0.00551466375 14.3297811,0.00549250133 L7.39583582,0.00549250133 C7.37621801,0.00172566528 7.35635603,0 7.3364663,0 Z M0.703462801,0.808218645 L6.99253279,0.808218645 L6.99253279,5.22321243 L0.703462801,5.22321243 L0.703462801,0.808218645 Z M7.69131834,0.808218645 L13.9803883,0.808218645 L13.9803883,5.22321243 L7.69131834,5.22321243 L7.69131834,0.808218645 Z M0.703462801,6.02593858 L6.99253279,6.02593858 L6.99253279,10.8422954 L0.703462801,10.8422954 L0.703462801,6.02593858 Z M7.69131834,6.02593858 L13.9803883,6.02593858 L13.9803883,10.8422954 L7.69131834,10.8422954 L7.69131834,6.02593858 Z M0.703462801,11.6450216 L6.99253279,11.6450216 L6.99253279,16.0600154 L0.703462801,16.0600154 L0.703462801,11.6450216 Z M7.69131834,11.6450216 L13.9803883,11.6450216 L13.9803883,16.0600154 L7.69131834,16.0600154 L7.69131834,11.6450216 Z" id="Shape"></path>
                <path d="M21.3387254,0 C21.3217993,0.00042651168 21.3049221,0.00226047425 21.2882274,0.00549250133 L14.3563292,0.00549250133 C14.1633729,0.00551466375 14.0069557,0.18519805 14.0069364,0.406855573 L14.0069364,5.55715895 C14.0007001,5.60050273 14.0007001,5.64472857 14.0069364,5.68807235 L14.0069364,11.176242 C14.0007001,11.2195857 14.0007001,11.2638116 14.0069364,11.3071554 L14.0069364,16.4613784 C14.0069557,16.683036 14.1633729,16.8627194 14.3563292,16.8627415 L21.2854976,16.8627415 C21.323229,16.8699055 21.3617283,16.8699055 21.3994597,16.8627415 L28.3320403,16.8627415 C28.5249966,16.8627194 28.6814137,16.683036 28.681433,16.4613784 L28.681433,11.3110751 C28.6876694,11.2677313 28.6876694,11.2235054 28.681433,11.1801617 L28.681433,5.69199206 C28.6876694,5.64864828 28.6876694,5.60442244 28.681433,5.56107866 L28.681433,0.406855573 C28.6814137,0.18519805 28.5249966,0.00551466375 28.3320403,0.00549250133 L21.398095,0.00549250133 C21.3784771,0.00172566528 21.3586152,0 21.3387254,0 Z M14.7057219,0.808218645 L20.9947919,0.808218645 L20.9947919,5.22321243 L14.7057219,5.22321243 L14.7057219,0.808218645 Z M21.6935775,0.808218645 L27.9826475,0.808218645 L27.9826475,5.22321243 L21.6935775,5.22321243 L21.6935775,0.808218645 Z M14.7057219,6.02593858 L20.9947919,6.02593858 L20.9947919,10.8422954 L14.7057219,10.8422954 L14.7057219,6.02593858 Z M21.6935775,6.02593858 L27.9826475,6.02593858 L27.9826475,10.8422954 L21.6935775,10.8422954 L21.6935775,6.02593858 Z M14.7057219,11.6450216 L20.9947919,11.6450216 L20.9947919,16.0600154 L14.7057219,16.0600154 L14.7057219,11.6450216 Z M21.6935775,11.6450216 L27.9826475,11.6450216 L27.9826475,16.0600154 L21.6935775,16.0600154 L21.6935775,11.6450216 Z" id="Shape"></path>
            </g>
            <path d="M21.9947442,34.850863 C21.9792916,34.8536728 21.9638392,34.8578868 21.9497912,34.8621013 C21.8921953,34.8719348 21.8388134,34.8944113 21.7924557,34.9295308 L19.8931912,36.368027 C19.7990708,36.4354565 19.7428795,36.5450296 19.7428795,36.6602215 C19.7428795,36.7754138 19.7990708,36.8849865 19.8931912,36.9524161 L21.7924557,38.3909122 C21.9540057,38.5117236 22.1829851,38.4794136 22.3037962,38.3178636 C22.4246075,38.1563137 22.3922975,37.9273345 22.2307475,37.8065232 L21.1855901,37.0198456 L46.9964626,37.0198456 L45.9513052,37.8065232 C45.7897552,37.9273345 45.7574455,38.1563137 45.8782565,38.3178636 C45.9990679,38.4794136 46.228047,38.5117236 46.389597,38.3909122 L48.2888615,36.9524161 C48.3829819,36.8849865 48.4391732,36.7754138 48.4391732,36.6602215 C48.4391732,36.5450296 48.3829819,36.4354565 48.2888615,36.368027 L46.389597,34.9295308 C46.3123339,34.8719348 46.2154041,34.8480536 46.119879,34.8621013 C46.1086407,34.8621013 46.0974024,34.8621013 46.0861642,34.8621013 C45.9428767,34.8887922 45.8290891,34.99977 45.7995888,35.1430576 C45.7700885,35.2863455 45.8304942,35.4324427 45.9513052,35.5139199 L46.9964626,36.3005975 L21.1855901,36.3005975 L22.2307475,35.5139199 C22.3754401,35.4254185 22.4386552,35.2470116 22.3810592,35.0868663 C22.324868,34.9267214 22.163318,34.8283865 21.9947442,34.850863 Z" id="arrow-copy" fill="#000000"></path>
            <path d="M10.1926857,46.5969896 C10.177233,46.5997994 10.1617807,46.6040135 10.1477327,46.6082279 C10.0901367,46.6180615 10.0367548,46.640538 9.99039715,46.6756574 L8.09113265,48.1141536 C7.9970122,48.1815831 7.94082095,48.2911562 7.94082095,48.4063481 C7.94082095,48.5215404 7.9970122,48.6311132 8.09113265,48.6985427 L9.99039715,50.1370389 C10.1519471,50.2578502 10.3809266,50.2255402 10.5017376,50.0639902 C10.622549,49.9024403 10.5902389,49.6734612 10.428689,49.5526498 L9.38353157,48.7659722 L23.3296457,48.7659722 L22.2844883,49.5526498 C22.1229383,49.6734612 22.0906286,49.9024403 22.2114397,50.0639902 C22.332251,50.2255402 22.5612301,50.2578502 22.7227801,50.1370389 L24.6220446,48.6985427 C24.716165,48.6311132 24.7723563,48.5215404 24.7723563,48.4063481 C24.7723563,48.2911562 24.716165,48.1815831 24.6220446,48.1141536 L22.7227801,46.6756574 C22.645517,46.6180615 22.5485872,46.5941803 22.4530621,46.6082279 C22.4418238,46.6082279 22.4305856,46.6082279 22.4193473,46.6082279 C22.2760598,46.6349188 22.1622722,46.7458967 22.1327719,46.8891842 C22.1032716,47.0324721 22.1636773,47.1785693 22.2844883,47.2600465 L23.3296457,48.0467241 L9.38353157,48.0467241 L10.428689,47.2600465 C10.5733815,47.1715452 10.6365966,46.9931382 10.5790007,46.8329929 C10.5228094,46.672848 10.3612594,46.5745131 10.1926857,46.5969896 Z" id="arrow-copy-2" fill="#000000" transform="translate(16.356589, 48.401935) rotate(-270.000000) translate(-16.356589, -48.401935) "></path>
        </g>
    </g>
</svg>