<?xml version="1.0" encoding="UTF-8"?>
<svg width="67px" height="66px" viewBox="0 0 67 66" version="1.1" xmlns="http://www.w3.org/2000/svg" xmlns:xlink="http://www.w3.org/1999/xlink">
    <title>warn_on_fail</title>
    <g id="All-Icons" stroke="none" stroke-width="1" fill="none" fill-rule="evenodd">
        <g id="warn_on_fail" transform="translate(0.000000, -0.000000)">
            <path d="M56.712234,1 C59.1975153,1 61.4475153,2.00735931 63.076195,3.63603897 C64.7048747,5.26471863 65.712234,7.51471863 65.712234,10 L65.712234,10 L65.712234,65 L10.712234,65 C8.22695259,65 5.97695259,63.9926407 4.34827294,62.363961 C2.71959328,60.7352814 1.71223397,58.4852814 1.71223397,56 L1.71223397,56 L1.71223397,10 C1.71223397,7.51471863 2.71959328,5.26471863 4.34827294,3.63603897 C5.97695259,2.00735931 8.22695259,1 10.712234,1 L10.712234,1 Z" id="rectangle" stroke="#000000" stroke-width="2" fill="#FFFFFF"></path>
            <path d="M52.0341447,19.1267508 C45.6412112,17.8403468 41.8661755,16.0189722 39.1099612,14.6892762 C36.967738,13.659534 35.422639,12.9142857 33.712234,12.9142857 C32.0018289,12.9142857 30.4567299,13.659534 28.3145067,14.6892762 C25.5582924,16.0189722 21.7832567,17.8403468 15.3903232,19.1267508 L14.712234,19.2628127 L14.712234,19.8998304 C14.712234,44.0137195 33.1623403,52.1032213 33.3512607,52.1805298 L33.7291016,52.3413303 L34.1035692,52.1681605 C34.2891163,52.0815757 52.712234,43.21281 52.712234,19.8998304 L52.712234,19.2628127 L52.0341447,19.1267508 Z M35.2640806,42.1552371 C35.2640806,42.3253147 35.1392583,42.4366381 34.9570846,42.4366381 L32.6023265,42.4366381 C32.4134061,42.4366381 32.2919572,42.3222226 32.2919572,42.1552371 L32.2919572,39.7123069 C32.2919572,39.5422293 32.4134061,39.4278137 32.6023265,39.4278137 L34.9570846,39.4278137 C35.1426317,39.4278137 35.2640806,39.5422293 35.2640806,39.7123069 L35.2640806,42.1552371 Z M35.2640806,36.3787886 C35.2640806,36.5488662 35.1392583,36.6632817 34.9570846,36.6632817 L32.6023265,36.6632817 C32.4134061,36.6632817 32.2919572,36.5488662 32.2919572,36.3787886 L32.2919572,22.8560857 C32.2919572,22.686008 32.4134061,22.5715925 32.6023265,22.5715925 L34.9570846,22.5715925 C35.1426317,22.5715925 35.2640806,22.686008 35.2640806,22.8560857 L35.2640806,36.3787886 Z" id="warning-sign" fill="#000000" fill-rule="nonzero"></path>
        </g>
    </g>
</svg>