<?xml version="1.0" encoding="UTF-8"?>
<svg width="67px" height="67px" viewBox="0 0 67 67" version="1.1" xmlns="http://www.w3.org/2000/svg" xmlns:xlink="http://www.w3.org/1999/xlink">
    <title>x_read_disk</title>
    <g id="All-Icons" stroke="none" stroke-width="1" fill="none" fill-rule="evenodd">
        <g id="x_read_disk" transform="translate(0.000000, 0.344828)">
            <path d="M56.5981205,1 C59.0834018,1 61.3334018,2.00735931 62.9620815,3.63603897 C64.5907612,5.26471863 65.5981205,7.51471863 65.5981205,10 L65.5981205,10 L65.5981205,65 L10.5981205,65 C8.1128391,65 5.8628391,63.9926407 4.23415944,62.363961 C2.60547979,60.7352814 1.59812047,58.4852814 1.59812047,56 L1.59812047,56 L1.59812047,10 C1.59812047,7.51471863 2.60547979,5.26471863 4.23415944,3.63603897 C5.8628391,2.00735931 8.1128391,1 10.5981205,1 L10.5981205,1 Z" id="rectangle" stroke="#000000" stroke-width="2" fill="#FFFFFF"></path>
            <path d="M16,8 L16,56.0000599 L42,56.0000599 C42.359375,56.003906 42.695313,55.816406 42.878906,55.503906 C43.058594,55.191406 43.058594,54.808594 42.878906,54.496094 C42.695313,54.183594 42.359375,53.996094 42,54 L18,54 L18,10 L36,10 L36,24 L50,24 L50,36 C49.996094,36.359375 50.183594,36.695313 50.496094,36.878906 C50.808594,37.058594 51.191406,37.058594 51.503906,36.878906 C51.816406,36.695313 52.003906,36.359375 52.0000599,36 L52.0000599,22.585938 L37.414063,8 L16,8 Z M38,11.414063 L48.585938,22 L38,22 L38,11.414063 Z" id="document" fill="#000000" fill-rule="nonzero"></path>
            <path d="M43.0090644,37.4840652 L43.0090644,46.4747322 L38.5698049,46.4747322 L46.2882201,55.356719 L53.663287,46.4747322 L49.2240276,46.4747322 L49.2240276,37.4840652 L43.0090644,37.4840652 Z M44.7847681,39.2597689 L47.4483238,39.2597689 L47.4483238,48.2504359 L50.1118795,48.2504359 L46.2882201,52.6498113 L42.4662956,48.2504359 L44.7847681,48.2504359 L44.7847681,39.2597689 Z" id="arrow_right" fill="#000000" fill-rule="nonzero" transform="translate(46.116546, 46.420392) rotate(-90.000000) translate(-46.116546, -46.420392) "></path>
        </g>
    </g>
</svg>