<?xml version="1.0" encoding="UTF-8"?>
<svg width="67px" height="67px" viewBox="0 0 67 67" version="1.1" xmlns="http://www.w3.org/2000/svg" xmlns:xlink="http://www.w3.org/1999/xlink">
    <title>yaml_read_informant</title>
    <g id="All-Icons" stroke="none" stroke-width="1" fill="none" fill-rule="evenodd">
        <g id="yaml_read_informant" transform="translate(0.000000, -0.344828)">
            <path d="M56.212234,1.51038131 C58.6975153,1.51038131 60.9475153,2.51774062 62.576195,4.14642028 C64.2048747,5.77509994 65.212234,8.02509994 65.212234,10.5103813 L65.212234,10.5103813 L65.212234,65.5103813 L10.212234,65.5103813 C7.72695259,65.5103813 5.47695259,64.503022 3.84827294,62.8743423 C2.21959328,61.2456627 1.21223397,58.9956627 1.21223397,56.5103813 L1.21223397,56.5103813 L1.21223397,10.5103813 C1.21223397,8.02509994 2.21959328,5.77509994 3.84827294,4.14642028 C5.47695259,2.51774062 7.72695259,1.51038131 10.212234,1.51038131 L10.212234,1.51038131 Z" id="rectangle" stroke="#000000" stroke-width="2" fill="#FFFFFF"></path>
            <path d="M44.1523737,46.1952928 C42.8611054,46.1952928 38.3119331,46.7262419 38.3119331,52.0357334 L38.3119331,54.1595299 L38.3119331,54.6904791 C38.3119331,55.4957521 38.6645883,56.0691172 39.024359,56.3839164 C39.2437241,56.5758609 39.3355444,56.5788756 39.4827175,56.6369471 C39.6743684,57.1322282 40.8948989,59.959878 44.0911903,59.9968597 C44.1115079,59.9990732 44.1319364,60 44.1523737,60 C44.1735028,60.0001931 44.1946263,59.9991543 44.2156315,59.9968597 C47.4103318,59.9586441 48.6304216,57.1321183 48.82203,56.6369471 C48.9692033,56.5788756 49.0610235,56.5758609 49.2803884,56.3839164 C49.640159,56.0691172 49.9928143,55.4957521 49.9928143,54.6904791 L49.9928143,53.6285808 L49.9928143,52.0357334 C49.9928143,49.9119368 48.930916,47.257191 46.8071195,47.257191 C46.8071195,47.257191 46.2761703,46.1952928 44.1523737,46.1952928 Z M46.8071195,49.3809876 C46.8071195,49.3809876 48.3999669,50.8464073 48.3999669,54.1595299 L48.930916,54.1595299 L48.930916,54.6904791 C48.930916,55.2125789 48.7526222,55.4356375 48.5814437,55.5854188 C48.4102652,55.7352001 48.2713774,55.7679326 48.2713774,55.7679326 L47.9882737,55.838449 L47.8959799,56.115331 C47.8959799,56.115331 46.9841023,58.9380722 44.1523737,58.9380722 C41.320645,58.9380722 40.4087675,56.115331 40.4087675,56.115331 L40.3164735,55.838449 L40.0333698,55.7679326 C40.0333698,55.7679326 39.8944822,55.7351996 39.7233038,55.5854188 C39.5521254,55.4356375 39.3738314,55.2125789 39.3738314,54.6904791 L39.3738314,54.1595299 L39.9047806,54.1595299 C39.9047806,50.4428859 45.214272,53.0976316 46.8071195,49.3809876 Z M40.9666789,53.0976316 C40.6734559,53.0976316 40.4357297,53.3353578 40.4357297,53.6285808 L40.4357297,54.6904791 C40.4357297,55.5638745 41.1551818,56.2833265 42.0285771,56.2833265 C42.9019726,56.2833265 43.6214246,55.5638745 43.6214246,54.6904791 L43.6214246,54.1595299 L44.6833229,54.1595299 L44.6833229,54.6904791 C44.6833229,55.5638745 45.4027749,56.2833265 46.2761703,56.2833265 C47.1495657,56.2833265 47.8690177,55.5638745 47.8690177,54.6904791 L47.8690177,53.6285808 C47.8690177,53.3353578 47.6312916,53.0976316 47.3380686,53.0976316 L45.214272,53.0976316 L43.0904754,53.0976316 L40.9666789,53.0976316 Z M41.497628,54.1595299 L42.5595263,54.1595299 L42.5595263,54.6904791 C42.5595263,54.9904813 42.3285793,55.2214282 42.0285771,55.2214282 C41.7285749,55.2214282 41.497628,54.9904813 41.497628,54.6904791 L41.497628,54.1595299 Z M45.7452212,54.1595299 L46.8071195,54.1595299 L46.8071195,54.6904791 C46.8071195,54.9904813 46.5761725,55.2214282 46.2761703,55.2214282 C45.9761681,55.2214282 45.7452212,54.9904813 45.7452212,54.6904791 L45.7452212,54.1595299 Z" id="informant-small" fill="#000000" fill-rule="nonzero"></path>
            <g id="down-arrow" transform="translate(24.000540, 52.504410) rotate(-90.000000) translate(-24.000540, -52.504410) translate(16.000540, 43.504410)">
                <polygon id="Path" stroke="#000000" fill="#000000" points="4.43925944 0 4.43925944 8.990667 0 8.990667 7.71841521 17.8726538 15.0934821 8.990667 10.6542227 8.990667 10.6542227 0"></polygon>
                <polygon id="Path" fill="#FFFFFF" points="6.21496322 1.77570378 8.87851889 1.77570378 8.87851889 10.7663708 11.5420746 10.7663708 7.71841521 15.1657461 3.89649072 10.7663708 6.21496322 10.7663708"></polygon>
            </g>
            <path d="M11.6543742,23.3793863 L11.6543742,19.9328814 L15.1008791,19.9328814 L15.1008791,23.3793863 L11.6543742,23.3793863 Z M16.8241315,23.3793863 L16.8241315,19.9328814 L28.8906858,19.9328814 L28.8906858,18.209629 L15.1008791,18.209629 C14.1489825,18.209629 13.335969,17.8725566 12.6618141,17.1984018 C11.9901842,16.5267718 11.6543742,15.7150208 11.6543742,14.7631242 L11.6543742,7.86632715 L15.1008791,9.59336693 L15.1008791,14.7631242 L28.8906858,14.7631242 L28.8906858,9.59336693 L32.3371906,9.59336693 L32.3371906,19.9328814 C32.3371906,20.884778 32.0001182,21.6977915 31.3259634,22.3719464 C30.6518085,23.0435763 29.8400574,23.3793863 28.8906858,23.3793863 L16.8241315,23.3793863 Z M39.2302003,18.209629 L39.2302003,14.7631242 L42.6767051,14.7631242 L42.6767051,18.209629 L39.2302003,18.209629 Z M54.7432594,33.4461464 L51.2967546,31.722894 L51.2967546,18.209629 L44.3999575,18.209629 L44.3999575,14.7631242 L51.2967546,14.7631242 L51.2967546,13.0398718 L37.5069479,13.0398718 L37.5069479,23.3793863 L34.060443,23.3793863 L34.060443,9.59336693 L51.2967546,9.59336693 C52.2461262,9.59336693 53.0578773,9.92917687 53.7320322,10.6008068 C54.406187,11.2749617 54.7432594,12.0879752 54.7432594,13.0398718 L54.7432594,33.4461464 Z M20.3214681,39.4787659 L20.3214681,36.032261 L23.767973,36.032261 L23.767973,39.4787659 L20.3214681,39.4787659 Z M32.3298472,41.2020183 L28.8833423,39.4787659 L28.8833423,29.1392514 L23.767973,29.1392514 L23.767973,34.3090086 L20.3214681,34.3090086 L20.3214681,29.1392514 L15.1107937,29.1392514 L15.1107937,39.4787659 L11.6642889,39.4787659 L11.6642889,25.6927465 L20.3214681,25.6927465 C20.7986789,25.6927465 21.2051856,25.8606515 21.5410006,26.1964665 C21.8768156,26.5322814 22.0447205,26.9387882 22.0447205,27.4159989 C22.0447205,26.9387882 22.2126255,26.5322814 22.5484405,26.1964665 C22.8867804,25.8606515 23.2932871,25.6927465 23.767973,25.6927465 L28.8833423,25.6927465 C29.8352389,25.6927465 30.64699,26.0285565 31.3186199,26.7001864 C31.9927748,27.3743413 32.3298472,28.1873548 32.3298472,29.1392514 L32.3298472,41.2020183 Z M39.2570346,36.078241 L39.2570346,32.6317362 L42.7035394,32.6317362 L42.7035394,36.078241 L39.2570346,36.078241 Z M37.5337822,41.2479982 C36.5818856,41.2479982 35.7688721,40.9121883 35.0947172,40.2405584 C34.4230873,39.5664035 34.0872773,38.75339 34.0872773,37.8014934 L34.0872773,25.0802652 L37.5337822,26.807305 L37.5337822,37.8014934 L54.7700937,37.8014934 L53.0468413,41.2479982 L37.5337822,41.2479982 Z" id="YA-ML" fill="#000000"></path>
        </g>
    </g>
</svg>