<?xml version="1.0" encoding="UTF-8"?>
<svg width="67px" height="67px" viewBox="0 0 67 67" version="1.1" xmlns="http://www.w3.org/2000/svg" xmlns:xlink="http://www.w3.org/1999/xlink">
    <title>affix_date</title>
    <g id="All-Icons" stroke="none" stroke-width="1" fill="none" fill-rule="evenodd">
        <g id="affix_date" transform="translate(0.712234, 0.374166)">
            <path d="M56,1 C58.4852814,1 60.7352814,2.00735931 62.363961,3.63603897 C63.9926407,5.26471863 65,7.51471863 65,10 L65,10 L65,65 L10,65 C7.51471863,65 5.26471863,63.9926407 3.63603897,62.363961 C2.00735931,60.7352814 1,58.4852814 1,56 L1,56 L1,10 C1,7.51471863 2.00735931,5.26471863 3.63603897,3.63603897 C5.26471863,2.00735931 7.51471863,1 10,1 L10,1 Z" id="rectangle" stroke="#000000" stroke-width="2" fill="#FFFFFF"></path>
            <g id="file-solid" transform="translate(8.500000, 9.625834)" fill="#000000" fill-rule="nonzero">
                <path d="M0,0 L0,32.9 L25.3076923,32.9 L25.3076923,8.34362981 L24.9518029,7.94819712 L17.3594952,0.355889423 L16.9640625,0 L0,0 Z M2.53076923,2.53076923 L15.1846154,2.53076923 L15.1846154,10.1230769 L22.7769231,10.1230769 L22.7769231,30.3692308 L2.53076923,30.3692308 L2.53076923,2.53076923 Z M17.7153846,4.34975962 L20.9579327,7.59230769 L17.7153846,7.59230769 L17.7153846,4.34975962 Z" id="Shape"></path>
            </g>
            <g id="calendar" transform="translate(37.500000, 35.700000)" fill="#000000" fill-rule="nonzero">
                <path d="M4,0 L4,1 L0,1 L0,23 L22,23 L22,1 L18,1 L18,0 L16,0 L16,1 L6,1 L6,0 L4,0 Z M2,3 L4,3 L4,4 L6,4 L6,3 L16,3 L16,4 L18,4 L18,3 L20,3 L20,5 L2,5 L2,3 Z M2,7 L20,7 L20,21 L2,21 L2,7 Z M8,9 L8,11 L10,11 L10,9 L8,9 Z M12,9 L12,11 L14,11 L14,9 L12,9 Z M16,9 L16,11 L18,11 L18,9 L16,9 Z M4,13 L4,15 L6,15 L6,13 L4,13 Z M8,13 L8,15 L10,15 L10,13 L8,13 Z M12,13 L12,15 L14,15 L14,13 L12,13 Z M16,13 L16,15 L18,15 L18,13 L16,13 Z M4,17 L4,19 L6,19 L6,17 L4,17 Z M8,17 L8,19 L10,19 L10,17 L8,17 Z M12,17 L12,19 L14,19 L14,17 L12,17 Z" id="Shape"></path>
            </g>
        </g>
    </g>
</svg>