<?xml version="1.0" encoding="UTF-8"?>
<svg width="66px" height="67px" viewBox="0 0 66 67" version="1.1" xmlns="http://www.w3.org/2000/svg" xmlns:xlink="http://www.w3.org/1999/xlink">
    <title>all_passed</title>
    <g id="All-Icons" stroke="none" stroke-width="1" fill="none" fill-rule="evenodd">
        <g id="all_passed" transform="translate(0.000000, 0.896552)">
            <path d="M56,1 C58.4852814,1 60.7352814,2.00735931 62.363961,3.63603897 C63.9926407,5.26471863 65,7.51471863 65,10 L65,10 L65,65 L10,65 C7.51471863,65 5.26471863,63.9926407 3.63603897,62.363961 C2.00735931,60.7352814 1,58.4852814 1,56 L1,56 L1,10 C1,7.51471863 2.00735931,5.26471863 3.63603897,3.63603897 C5.26471863,2.00735931 7.51471863,1 10,1 L10,1 Z" id="rectangle" stroke="#000000" stroke-width="2" fill="#FFFFFF"></path>
            <path d="M51.171,18.925 L32.085,41.446 L22.418,32.431 L23.781,30.968 L31.915,38.553 L49.861,17.378 C45.657,12.844 39.656,10 33,10 C20.317,10 10,20.317 10,33 C10,45.683 20.317,56 33,56 C45.683,56 56,45.683 56,33 C56,27.701 54.194,22.818 51.171,18.925 Z" fill="#000000" fill-rule="nonzero"></path>
        </g>
    </g>
</svg>