<?xml version="1.0" encoding="UTF-8"?>
<svg width="67px" height="67px" viewBox="0 0 67 67" version="1.1" xmlns="http://www.w3.org/2000/svg" xmlns:xlink="http://www.w3.org/1999/xlink">
    <title>col_vals_equal</title>
    <g id="All-Icons" stroke="none" stroke-width="1" fill="none" fill-rule="evenodd">
        <g id="col_vals_equal" transform="translate(0.000000, 0.275862)">
            <path d="M56.712234,1 C59.1975153,1 61.4475153,2.00735931 63.076195,3.63603897 C64.7048747,5.26471863 65.712234,7.51471863 65.712234,10 L65.712234,10 L65.712234,65 L10.712234,65 C8.22695259,65 5.97695259,63.9926407 4.34827294,62.363961 C2.71959328,60.7352814 1.71223397,58.4852814 1.71223397,56 L1.71223397,56 L1.71223397,10 C1.71223397,7.51471863 2.71959328,5.26471863 4.34827294,3.63603897 C5.97695259,2.00735931 8.22695259,1 10.712234,1 L10.712234,1 Z" id="rectangle" stroke="#000000" stroke-width="2" fill="#FFFFFF"></path>
            <path d="M52.712234,11 L14.712234,11 C13.05989,11 11.712234,12.347656 11.712234,14 L11.712234,52 C11.712234,53.652344 13.05989,55 14.712234,55 L52.712234,55 C54.364578,55 55.712234,53.652344 55.712234,52 L55.712234,14 C55.712234,12.347656 54.364578,11 52.712234,11 Z M46.712234,38 L20.712234,38 L20.712234,36 L46.712234,36 L46.712234,38 Z M46.712234,30 L20.712234,30 L20.712234,28 L46.712234,28 L46.712234,30 Z" id="equals" fill="#000000" fill-rule="nonzero"></path>
        </g>
    </g>
</svg>