<?xml version="1.0" encoding="UTF-8"?>
<svg width="67px" height="67px" viewBox="0 0 67 67" version="1.1" xmlns="http://www.w3.org/2000/svg" xmlns:xlink="http://www.w3.org/1999/xlink">
    <title>col_vals_between</title>
    <g id="All-Icons" stroke="none" stroke-width="1" fill="none" fill-rule="evenodd">
        <g id="col_vals_between" transform="translate(0.000000, 0.206897)">
            <path d="M56.712234,1 C59.1975153,1 61.4475153,2.00735931 63.076195,3.63603897 C64.7048747,5.26471863 65.712234,7.51471863 65.712234,10 L65.712234,10 L65.712234,65 L10.712234,65 C8.22695259,65 5.97695259,63.9926407 4.34827294,62.363961 C2.71959328,60.7352814 1.71223397,58.4852814 1.71223397,56 L1.71223397,56 L1.71223397,10 C1.71223397,7.51471863 2.71959328,5.26471863 4.34827294,3.63603897 C5.97695259,2.00735931 8.22695259,1 10.712234,1 L10.712234,1 Z" id="rectangle" stroke="#000000" stroke-width="2" fill="#FFFFFF"></path>
            <path d="M11.993484,21.96875 C10.962234,22.082031 10.188797,22.964844 10.212234,24 L10.212234,42 C10.200515,42.722656 10.579422,43.390625 11.204422,43.753906 C11.825515,44.121094 12.598953,44.121094 13.220047,43.753906 C13.845047,43.390625 14.223953,42.722656 14.212234,42 L14.212234,24 C14.220047,23.457031 14.009109,22.9375 13.626297,22.554688 C13.243484,22.171875 12.723953,21.960938 12.180984,21.96875 C12.118484,21.964844 12.055984,21.964844 11.993484,21.96875 Z M55.993484,21.96875 C54.962234,22.082031 54.188797,22.964844 54.212234,24 L54.212234,42 C54.200515,42.722656 54.579422,43.390625 55.204422,43.753906 C55.825515,44.121094 56.598953,44.121094 57.220047,43.753906 C57.845047,43.390625 58.223953,42.722656 58.212234,42 L58.212234,24 C58.220047,23.457031 58.009109,22.9375 57.626297,22.554688 C57.243484,22.171875 56.723953,21.960938 56.180984,21.96875 C56.118484,21.964844 56.055984,21.964844 55.993484,21.96875 Z M16.212234,22 C15.661453,22 15.212234,22.449219 15.212234,23 C15.212234,23.550781 15.661453,24 16.212234,24 C16.763015,24 17.212234,23.550781 17.212234,23 C17.212234,22.449219 16.763015,22 16.212234,22 Z M20.212234,22 C19.661453,22 19.212234,22.449219 19.212234,23 C19.212234,23.550781 19.661453,24 20.212234,24 C20.763015,24 21.212234,23.550781 21.212234,23 C21.212234,22.449219 20.763015,22 20.212234,22 Z M24.212234,22 C23.661453,22 23.212234,22.449219 23.212234,23 C23.212234,23.550781 23.661453,24 24.212234,24 C24.763015,24 25.212234,23.550781 25.212234,23 C25.212234,22.449219 24.763015,22 24.212234,22 Z M28.212234,22 C27.661453,22 27.212234,22.449219 27.212234,23 C27.212234,23.550781 27.661453,24 28.212234,24 C28.763015,24 29.212234,23.550781 29.212234,23 C29.212234,22.449219 28.763015,22 28.212234,22 Z M32.212234,22 C31.661453,22 31.212234,22.449219 31.212234,23 C31.212234,23.550781 31.661453,24 32.212234,24 C32.763015,24 33.212234,23.550781 33.212234,23 C33.212234,22.449219 32.763015,22 32.212234,22 Z M36.212234,22 C35.661453,22 35.212234,22.449219 35.212234,23 C35.212234,23.550781 35.661453,24 36.212234,24 C36.763015,24 37.212234,23.550781 37.212234,23 C37.212234,22.449219 36.763015,22 36.212234,22 Z M40.212234,22 C39.661453,22 39.212234,22.449219 39.212234,23 C39.212234,23.550781 39.661453,24 40.212234,24 C40.763015,24 41.212234,23.550781 41.212234,23 C41.212234,22.449219 40.763015,22 40.212234,22 Z M44.212234,22 C43.661453,22 43.212234,22.449219 43.212234,23 C43.212234,23.550781 43.661453,24 44.212234,24 C44.763015,24 45.212234,23.550781 45.212234,23 C45.212234,22.449219 44.763015,22 44.212234,22 Z M48.212234,22 C47.661453,22 47.212234,22.449219 47.212234,23 C47.212234,23.550781 47.661453,24 48.212234,24 C48.763015,24 49.212234,23.550781 49.212234,23 C49.212234,22.449219 48.763015,22 48.212234,22 Z M52.212234,22 C51.661453,22 51.212234,22.449219 51.212234,23 C51.212234,23.550781 51.661453,24 52.212234,24 C52.763015,24 53.212234,23.550781 53.212234,23 C53.212234,22.449219 52.763015,22 52.212234,22 Z M21.462234,27.96875 C21.419265,27.976563 21.376297,27.988281 21.337234,28 C21.177078,28.027344 21.02864,28.089844 20.899734,28.1875 L15.618484,32.1875 C15.356765,32.375 15.200515,32.679688 15.200515,33 C15.200515,33.320313 15.356765,33.625 15.618484,33.8125 L20.899734,37.8125 C21.348953,38.148438 21.985672,38.058594 22.321609,37.609375 C22.657547,37.160156 22.567703,36.523438 22.118484,36.1875 L19.212234,34 L49.212234,34 L46.305984,36.1875 C45.856765,36.523438 45.766922,37.160156 46.102859,37.609375 C46.438797,38.058594 47.075515,38.148438 47.524734,37.8125 L52.805984,33.8125 C53.067703,33.625 53.223953,33.320313 53.223953,33 C53.223953,32.679688 53.067703,32.375 52.805984,32.1875 L47.524734,28.1875 C47.30989,28.027344 47.040359,27.960938 46.774734,28 C46.743484,28 46.712234,28 46.680984,28 C46.282547,28.074219 45.96614,28.382813 45.884109,28.78125 C45.802078,29.179688 45.970047,29.585938 46.305984,29.8125 L49.212234,32 L19.212234,32 L22.118484,29.8125 C22.520828,29.566406 22.696609,29.070313 22.536453,28.625 C22.380203,28.179688 21.930984,27.90625 21.462234,27.96875 Z M16.212234,42 C15.661453,42 15.212234,42.449219 15.212234,43 C15.212234,43.550781 15.661453,44 16.212234,44 C16.763015,44 17.212234,43.550781 17.212234,43 C17.212234,42.449219 16.763015,42 16.212234,42 Z M20.212234,42 C19.661453,42 19.212234,42.449219 19.212234,43 C19.212234,43.550781 19.661453,44 20.212234,44 C20.763015,44 21.212234,43.550781 21.212234,43 C21.212234,42.449219 20.763015,42 20.212234,42 Z M24.212234,42 C23.661453,42 23.212234,42.449219 23.212234,43 C23.212234,43.550781 23.661453,44 24.212234,44 C24.763015,44 25.212234,43.550781 25.212234,43 C25.212234,42.449219 24.763015,42 24.212234,42 Z M28.212234,42 C27.661453,42 27.212234,42.449219 27.212234,43 C27.212234,43.550781 27.661453,44 28.212234,44 C28.763015,44 29.212234,43.550781 29.212234,43 C29.212234,42.449219 28.763015,42 28.212234,42 Z M32.212234,42 C31.661453,42 31.212234,42.449219 31.212234,43 C31.212234,43.550781 31.661453,44 32.212234,44 C32.763015,44 33.212234,43.550781 33.212234,43 C33.212234,42.449219 32.763015,42 32.212234,42 Z M36.212234,42 C35.661453,42 35.212234,42.449219 35.212234,43 C35.212234,43.550781 35.661453,44 36.212234,44 C36.763015,44 37.212234,43.550781 37.212234,43 C37.212234,42.449219 36.763015,42 36.212234,42 Z M40.212234,42 C39.661453,42 39.212234,42.449219 39.212234,43 C39.212234,43.550781 39.661453,44 40.212234,44 C40.763015,44 41.212234,43.550781 41.212234,43 C41.212234,42.449219 40.763015,42 40.212234,42 Z M44.212234,42 C43.661453,42 43.212234,42.449219 43.212234,43 C43.212234,43.550781 43.661453,44 44.212234,44 C44.763015,44 45.212234,43.550781 45.212234,43 C45.212234,42.449219 44.763015,42 44.212234,42 Z M48.212234,42 C47.661453,42 47.212234,42.449219 47.212234,43 C47.212234,43.550781 47.661453,44 48.212234,44 C48.763015,44 49.212234,43.550781 49.212234,43 C49.212234,42.449219 48.763015,42 48.212234,42 Z M52.212234,42 C51.661453,42 51.212234,42.449219 51.212234,43 C51.212234,43.550781 51.661453,44 52.212234,44 C52.763015,44 53.212234,43.550781 53.212234,43 C53.212234,42.449219 52.763015,42 52.212234,42 Z" id="inside_range" fill="#000000" fill-rule="nonzero"></path>
        </g>
    </g>
</svg>