<?xml version="1.0" encoding="UTF-8"?>
<svg width="67px" height="67px" viewBox="0 0 67 67" version="1.1" xmlns="http://www.w3.org/2000/svg" xmlns:xlink="http://www.w3.org/1999/xlink">
    <title>col_exists</title>
    <g id="All-Icons" stroke="none" stroke-width="1" fill="none" fill-rule="evenodd">
        <g id="col_exists" transform="translate(0.000000, 0.827586)">
            <path d="M56.712234,1.01466935 C59.1975153,1.01466935 61.4475153,2.02202867 63.076195,3.65070832 C64.7048747,5.27938798 65.712234,7.52938798 65.712234,10.0146694 L65.712234,10.0146694 L65.712234,65.0146694 L10.712234,65.0146694 C8.22695259,65.0146694 5.97695259,64.00731 4.34827294,62.3786304 C2.71959328,60.7499507 1.71223397,58.4999507 1.71223397,56.0146694 L1.71223397,56.0146694 L1.71223397,10.0146694 C1.71223397,7.52938798 2.71959328,5.27938798 4.34827294,3.65070832 C5.97695259,2.02202867 8.22695259,1.01466935 10.712234,1.01466935 L10.712234,1.01466935 Z" id="rectangle" stroke="#000000" stroke-width="2" fill="#FFFFFF"></path>
            <rect id="column" fill="#000000" x="12.2117153" y="12.0146694" width="20" height="42" rx="1"></rect>
            <path d="M44.3177114,43.0146694 L44.3177114,40.5136928 L46.818688,40.5136928 L46.818688,43.0146694 L44.3177114,43.0146694 Z M44.3177114,38.0000209 L44.3177114,37.314474 C44.3177114,35.6979295 44.9397755,34.178739 46.1839224,32.7568569 L46.9837271,31.830099 C48.3125097,30.3066539 48.9768911,29.058294 48.9768911,28.0849819 C48.9768911,27.3317229 48.6849019,26.7350492 48.1009146,26.2949428 C47.5169273,25.8548364 46.7298258,25.6347865 45.7395864,25.6347865 C44.4446581,25.6347865 43.0693463,25.9479345 41.6136099,26.5742397 L41.6136099,24.4541225 C43.1793729,23.9801618 44.643551,23.743185 46.006188,23.743185 C47.7327591,23.743185 49.1038392,24.1303881 50.1194692,24.9048061 C51.1350993,25.679224 51.6429067,26.7265768 51.6429067,28.0468959 C51.6429067,28.7916913 51.4969121,29.4327982 51.2049185,29.9702358 C50.9129248,30.5076733 50.3522208,31.1699389 49.5227896,31.9570522 L48.7356802,32.6933803 C47.9485669,33.4381757 47.432296,34.0623556 47.1868521,34.5659389 C46.9414081,35.0695221 46.818688,35.7487146 46.818688,36.6035365 L46.818688,38.0000209 L44.3177114,38.0000209 Z" id="?" fill="#000000"></path>
        </g>
    </g>
</svg>