<?xml version="1.0" encoding="UTF-8"?>
<svg width="67px" height="66px" viewBox="0 0 67 66" version="1.1" xmlns="http://www.w3.org/2000/svg" xmlns:xlink="http://www.w3.org/1999/xlink">
    <title>col_vals_expr</title>
    <g id="All-Icons" stroke="none" stroke-width="1" fill="none" fill-rule="evenodd">
        <g id="col_vals_expr" transform="translate(0.000000, 0.000000)">
            <path d="M56.712234,1 C59.1975153,1 61.4475153,2.00735931 63.076195,3.63603897 C64.7048747,5.26471863 65.712234,7.51471863 65.712234,10 L65.712234,10 L65.712234,65 L10.712234,65 C8.22695259,65 5.97695259,63.9926407 4.34827294,62.363961 C2.71959328,60.7352814 1.71223397,58.4852814 1.71223397,56 L1.71223397,56 L1.71223397,10 C1.71223397,7.51471863 2.71959328,5.26471863 4.34827294,3.63603897 C5.97695259,2.00735931 8.22695259,1 10.712234,1 L10.712234,1 Z" id="rectangle" stroke="#000000" stroke-width="2" fill="#FFFFFF"></path>
            <path d="M22.1682701,14.6021863 L22.1682701,17.9472433 L25.5133271,17.9472433 C26.8395904,17.9472433 28.0482531,18.7508414 28.544785,19.9856375 L31.2103774,26.623485 L20.4957415,51.3978137 L24.1543977,51.3978137 L32.9351724,31.0138724 L39.4684869,47.2687589 C40.4680837,49.7644859 42.8984767,51.3978137 45.5836693,51.3978137 L48.9287264,51.3978137 L48.9287264,48.0527567 L45.5836693,48.0527567 C44.2508732,48.0527567 43.0487433,47.2491586 42.5522114,46.0143625 L31.6285095,18.7312411 C30.6289128,16.2355157 28.1985198,14.6021863 25.5133271,14.6021863 L22.1682701,14.6021863 Z" id="lambda" fill="#000000" fill-rule="nonzero"></path>
        </g>
    </g>
</svg>