<?xml version="1.0" encoding="UTF-8"?>
<svg width="67px" height="67px" viewBox="0 0 67 67" version="1.1" xmlns="http://www.w3.org/2000/svg" xmlns:xlink="http://www.w3.org/1999/xlink">
    <title>col_vals_lte</title>
    <g id="All-Icons" stroke="none" stroke-width="1" fill="none" fill-rule="evenodd">
        <g id="col_vals_lte" transform="translate(0.000000, 0.793103)">
            <path d="M56.712234,1 C59.1975153,1 61.4475153,2.00735931 63.076195,3.63603897 C64.7048747,5.26471863 65.712234,7.51471863 65.712234,10 L65.712234,10 L65.712234,65 L10.712234,65 C8.22695259,65 5.97695259,63.9926407 4.34827294,62.363961 C2.71959328,60.7352814 1.71223397,58.4852814 1.71223397,56 L1.71223397,56 L1.71223397,10 C1.71223397,7.51471863 2.71959328,5.26471863 4.34827294,3.63603897 C5.97695259,2.00735931 8.22695259,1 10.712234,1 L10.712234,1 Z" id="rectangle" stroke="#000000" stroke-width="2" fill="#FFFFFF"></path>
            <path d="M53.712234,12 L13.712234,12 C13.157547,12 12.712234,12.449219 12.712234,13 L12.712234,53 C12.712234,53.550781 13.157547,54 13.712234,54 L53.712234,54 C54.266922,54 54.712234,53.550781 54.712234,53 L54.712234,13 C54.712234,12.449219 54.266922,12 53.712234,12 Z M42.227859,19.125 L43.196609,20.875 L26.770828,30 L43.196609,39.125 L42.227859,40.875 L22.65364,30 L42.227859,19.125 Z M44.712234,47 L22.712234,47 L22.712234,45 L44.712234,45 L44.712234,47 Z" id="less_than_equal" fill="#000000" fill-rule="nonzero"></path>
        </g>
    </g>
</svg>