<?xml version="1.0" encoding="UTF-8"?>
<svg width="67px" height="67px" viewBox="0 0 67 67" version="1.1" xmlns="http://www.w3.org/2000/svg" xmlns:xlink="http://www.w3.org/1999/xlink">
    <title>col_is_date</title>
    <g id="All-Icons" stroke="none" stroke-width="1" fill="none" fill-rule="evenodd">
        <g id="col_is_date" transform="translate(0.000000, 0.379310)">
            <path d="M56.712234,1.01466935 C59.1975153,1.01466935 61.4475153,2.02202867 63.076195,3.65070832 C64.7048747,5.27938798 65.712234,7.52938798 65.712234,10.0146694 L65.712234,10.0146694 L65.712234,65.0146694 L10.712234,65.0146694 C8.22695259,65.0146694 5.97695259,64.00731 4.34827294,62.3786304 C2.71959328,60.7499507 1.71223397,58.4999507 1.71223397,56.0146694 L1.71223397,56.0146694 L1.71223397,10.0146694 C1.71223397,7.52938798 2.71959328,5.27938798 4.34827294,3.65070832 C5.97695259,2.02202867 8.22695259,1.01466935 10.712234,1.01466935 L10.712234,1.01466935 Z" id="rectangle" stroke="#000000" stroke-width="2" fill="#FFFFFF"></path>
            <rect id="column" fill="#000000" x="12.2117153" y="12.0146694" width="20" height="42" rx="1"></rect>
            <path d="M40.7190873,43.0146694 L40.7190873,24.2256069 L46.9651811,24.2256069 C48.8271696,24.2256069 50.3315491,24.4329616 51.4783647,24.8476772 C52.6251803,25.2623928 53.6175206,25.9648597 54.4554155,26.955099 C55.7841981,28.5293257 56.4485795,30.6028726 56.4485795,33.1758022 C56.4485795,36.2988647 55.6233925,38.7194134 53.9729936,40.4375209 C52.3225947,42.1556285 49.9993758,43.0146694 47.003267,43.0146694 L40.7190873,43.0146694 Z M43.385103,41.0215053 L46.800142,41.0215053 C49.2376542,41.0215053 50.9641994,40.3655874 51.9798295,39.0537319 C53.0716319,37.6572405 53.6175248,35.7825848 53.6175248,33.4297084 C53.6175248,31.220713 53.0800953,29.4857043 52.0052202,28.2246303 C51.3535242,27.4544441 50.5748861,26.9275939 49.6692827,26.6440639 C48.7636792,26.3605338 47.4010626,26.2187709 45.581392,26.2187709 L43.385103,26.2187709 L43.385103,41.0215053 Z" id="D" fill="#000000"></path>
        </g>
    </g>
</svg>