<?xml version="1.0" encoding="UTF-8"?>
<svg width="67px" height="67px" viewBox="0 0 67 67" version="1.1" xmlns="http://www.w3.org/2000/svg" xmlns:xlink="http://www.w3.org/1999/xlink">
    <title>col_is_character</title>
    <g id="All-Icons" stroke="none" stroke-width="1" fill="none" fill-rule="evenodd">
        <g id="col_is_character" transform="translate(0.000000, 0.448276)">
            <path d="M56.712234,1.01466935 C59.1975153,1.01466935 61.4475153,2.02202867 63.076195,3.65070832 C64.7048747,5.27938798 65.712234,7.52938798 65.712234,10.0146694 L65.712234,10.0146694 L65.712234,65.0146694 L10.712234,65.0146694 C8.22695259,65.0146694 5.97695259,64.00731 4.34827294,62.3786304 C2.71959328,60.7499507 1.71223397,58.4999507 1.71223397,56.0146694 L1.71223397,56.0146694 L1.71223397,10.0146694 C1.71223397,7.52938798 2.71959328,5.27938798 4.34827294,3.65070832 C5.97695259,2.02202867 8.22695259,1.01466935 10.712234,1.01466935 L10.712234,1.01466935 Z" id="rectangle" stroke="#000000" stroke-width="2" fill="#FFFFFF"></path>
            <rect id="column" fill="#000000" x="12.2117153" y="12.0146694" width="20" height="42" rx="1"></rect>
            <path d="M47.853356,43.3320522 C45.9913675,43.3320522 44.4467866,42.6422804 43.2195669,41.2627162 C41.9923472,39.883152 41.3787466,38.1439116 41.3787466,36.0449428 C41.3787466,33.802093 41.9859996,32.0543892 43.2005239,30.8017787 C44.4150482,29.5491683 46.1098555,28.9228725 48.2849966,28.9228725 C49.3598718,28.9228725 50.5616827,29.070983 51.8904653,29.3672084 L51.8904653,31.461935 C50.4770468,31.0472194 49.3260167,30.8398647 48.4373403,30.8398647 C47.1593392,30.8398647 46.133145,31.3201659 45.3587271,32.2807826 C44.5843091,33.2413994 44.197106,34.5214973 44.197106,36.1211147 C44.197106,37.6699505 44.5948884,38.9225422 45.3904653,39.8789272 C46.1860422,40.8353122 47.2270474,41.3134975 48.5135122,41.3134975 C49.6560961,41.3134975 50.8325166,41.0215082 52.0428091,40.4375209 L52.0428091,42.595724 C50.4262645,43.0866119 49.0297941,43.3320522 47.853356,43.3320522 Z" id="c" fill="#000000"></path>
        </g>
    </g>
</svg>