<?xml version="1.0" encoding="UTF-8"?>
<svg width="67px" height="67px" viewBox="0 0 67 67" version="1.1" xmlns="http://www.w3.org/2000/svg" xmlns:xlink="http://www.w3.org/1999/xlink">
    <title>col_count_match</title>
    <g id="All-Icons" stroke="none" stroke-width="1" fill="none" fill-rule="evenodd">
        <g id="col_count_match" transform="translate(0.000000, 0.275862)">
            <path d="M56.712234,1.01466935 C59.1975153,1.01466935 61.4475153,2.02202867 63.076195,3.65070832 C64.7048747,5.27938798 65.712234,7.52938798 65.712234,10.0146694 L65.712234,10.0146694 L65.712234,65.0146694 L10.712234,65.0146694 C8.22695259,65.0146694 5.97695259,64.00731 4.34827294,62.3786304 C2.71959328,60.7499507 1.71223397,58.4999507 1.71223397,56.0146694 L1.71223397,56.0146694 L1.71223397,10.0146694 C1.71223397,7.52938798 2.71959328,5.27938798 4.34827294,3.65070832 C5.97695259,2.02202867 8.22695259,1.01466935 10.712234,1.01466935 L10.712234,1.01466935 Z" id="rectangle" stroke="#000000" stroke-width="2" fill="#FFFFFF"></path>
            <path d="M44.6352762,13.0146694 L44.6352762,54.0145886 L42.5357154,54.0142493 C42.4170822,54.0112174 42.1008219,53.9958922 41.8818489,53.7791481 C41.7566015,53.6551756 41.6828953,53.460322 41.6828953,53.181336 L41.6828953,53.181336 L41.6828953,13.8480027 C41.6828953,13.5651731 41.7589094,13.3688282 41.8870321,13.2451235 C42.126812,13.013612 42.4766654,13.0146694 42.5638476,13.0146694 L44.6352762,13.0146694 Z M50.6306006,13.0146694 L50.6306006,54.0146694 L47.7351899,54.0146694 L47.7351899,13.0146694 L50.6306006,13.0146694 Z M53.7305143,13.0147502 L55.8300088,13.0150894 C55.9440566,13.0180667 56.2374813,13.0341534 56.4560165,13.2242838 C56.5714828,13.3247421 56.6526612,13.4807072 56.6758389,13.7041707 L56.6758389,13.7041707 L56.6828953,53.181336 C56.6828953,53.460322 56.609189,53.6551756 56.4839416,53.7791481 C56.2649687,53.9958922 55.9487083,54.0112174 55.8300752,54.0142493 L55.8300752,54.0142493 L53.7305143,54.0145886 L53.7305143,13.0147502 Z" id="rows_two" stroke="#000000" fill-rule="nonzero" transform="translate(49.182895, 33.514669) rotate(-180.000000) translate(-49.182895, -33.514669) "></path>
            <g id="vertical_equal" transform="translate(34.135195, 33.726903) rotate(-90.000000) translate(-34.135195, -33.726903) translate(30.635195, 29.226903)" stroke="#000000" stroke-linecap="square">
                <line x1="2.21223397" y1="0.514669353" x2="2.21223397" y2="7.58573716" id="Line"></line>
                <line x1="5.21223397" y1="0.514669353" x2="5.21223397" y2="7.58573716" id="Line"></line>
            </g>
            <path d="M11.5931863,12.5146694 C11.3836625,12.5146694 10.212234,12.5646694 10.212234,13.8480027 L10.212234,53.181336 C10.212234,54.4646694 11.3836625,54.5146694 11.5931863,54.5146694 L14.1646149,54.5146694 L14.1646149,12.5146694 L11.5931863,12.5146694 Z M20.1721771,12.5146694 L20.1721771,54.5146694 L16.2522908,54.5146694 L16.2522908,54.5146694 L16.2522908,12.5146694 L16.2522908,12.5146694 L20.1721771,12.5146694 Z M24.8656149,12.5150904 C25.1448786,12.521763 26.212234,12.6230027 26.212234,13.8480027 L26.212234,13.8480027 L26.212234,53.181336 C26.212234,54.4646694 25.0408054,54.5146694 24.8312816,54.5146694 L24.8312816,54.5146694 L22.259853,54.5146694 L22.259853,12.5146694 Z" id="rows_one" fill="#000000" fill-rule="nonzero" transform="translate(18.212234, 33.514669) rotate(-180.000000) translate(-18.212234, -33.514669) "></path>
        </g>
    </g>
</svg>