<?xml version="1.0" encoding="UTF-8"?>
<svg width="67px" height="67px" viewBox="0 0 67 67" version="1.1" xmlns="http://www.w3.org/2000/svg" xmlns:xlink="http://www.w3.org/1999/xlink">
    <title>col_schema_match</title>
    <g id="All-Icons" stroke="none" stroke-width="1" fill="none" fill-rule="evenodd">
        <g id="col_schema_match" transform="translate(0.000000, 0.310345)">
            <path d="M56.712234,1.01466935 C59.1975153,1.01466935 61.4475153,2.02202867 63.076195,3.65070832 C64.7048747,5.27938798 65.712234,7.52938798 65.712234,10.0146694 L65.712234,10.0146694 L65.712234,65.0146694 L10.712234,65.0146694 C8.22695259,65.0146694 5.97695259,64.00731 4.34827294,62.3786304 C2.71959328,60.7499507 1.71223397,58.4999507 1.71223397,56.0146694 L1.71223397,56.0146694 L1.71223397,10.0146694 C1.71223397,7.52938798 2.71959328,5.27938798 4.34827294,3.65070832 C5.97695259,2.02202867 8.22695259,1.01466935 10.712234,1.01466935 L10.712234,1.01466935 Z" id="rectangle" stroke="#000000" stroke-width="2" fill="#FFFFFF"></path>
            <path d="M53.712234,39.7885268 L54.212234,56.2885268 L42.212234,56.7885268 L42.212234,39.7885268 L53.712234,39.7885268 Z M39.712234,39.7885268 L39.712234,56.7885268 L27.712234,56.7885268 L27.712234,39.7885268 L39.712234,39.7885268 Z M25.212234,39.7885268 L25.212234,56.7885268 L13.712234,56.7885268 L13.212234,40.2885268 L25.212234,39.7885268 Z" id="columns_schema" stroke="#000000" fill-rule="nonzero"></path>
            <g id="vertical_equal" transform="translate(30.000000, 29.000000)" stroke="#000000" stroke-linecap="square">
                <line x1="2.21223397" y1="0.514669353" x2="2.21223397" y2="7.58573716" id="Line"></line>
                <line x1="5.21223397" y1="0.514669353" x2="5.21223397" y2="7.58573716" id="Line-Copy"></line>
            </g>
            <path d="M41.712234,9.01466935 L41.712234,27.0146694 L53.712234,27.0146694 C54.262234,27.0146694 54.712234,26.5646694 54.712234,26.0146694 L54.712234,10.0146694 C54.712234,9.46466935 54.262234,9.01466935 53.712234,9.01466935 L41.712234,9.01466935 Z M27.212234,9.01466935 C27.212234,9.01466935 27.212234,15.0146694 27.212234,27.0146694 L40.212234,27.0146694 L40.212234,9.01466935 C31.5455673,9.01466935 27.212234,9.01466935 27.212234,9.01466935 Z M13.712234,9.01466935 C13.162234,9.01466935 12.712234,9.46466935 12.712234,10.0146694 L12.712234,26.0146694 C12.712234,26.5646694 13.162234,27.0146694 13.712234,27.0146694 L25.712234,27.0146694 L25.712234,9.01466935 L13.712234,9.01466935 Z" id="columns_real" fill="#000000" fill-rule="nonzero"></path>
        </g>
    </g>
</svg>