<?xml version="1.0" encoding="UTF-8"?>
<svg width="67px" height="67px" viewBox="0 0 67 67" version="1.1" xmlns="http://www.w3.org/2000/svg" xmlns:xlink="http://www.w3.org/1999/xlink">
    <title>col_is_logical</title>
    <g id="All-Icons" stroke="none" stroke-width="1" fill="none" fill-rule="evenodd">
        <g id="col_is_logical" transform="translate(0.000000, 0.896552)">
            <path d="M56.712234,1.01466935 C59.1975153,1.01466935 61.4475153,2.02202867 63.076195,3.65070832 C64.7048747,5.27938798 65.712234,7.52938798 65.712234,10.0146694 L65.712234,10.0146694 L65.712234,65.0146694 L10.712234,65.0146694 C8.22695259,65.0146694 5.97695259,64.00731 4.34827294,62.3786304 C2.71959328,60.7499507 1.71223397,58.4999507 1.71223397,56.0146694 L1.71223397,56.0146694 L1.71223397,10.0146694 C1.71223397,7.52938798 2.71959328,5.27938798 4.34827294,3.65070832 C5.97695259,2.02202867 8.22695259,1.01466935 10.712234,1.01466935 L10.712234,1.01466935 Z" id="rectangle" stroke="#000000" stroke-width="2" fill="#FFFFFF"></path>
            <rect id="column" fill="#000000" x="12.2117153" y="12.0146694" width="20" height="42" rx="1"></rect>
            <polygon id="L" fill="#000000" points="42.1214224 43.0146694 42.1214224 24.2256069 44.787438 24.2256069 44.787438 41.0215053 53.2425161 41.0215053 53.2425161 43.0146694"></polygon>
        </g>
    </g>
</svg>