<?xml version="1.0" encoding="UTF-8"?>
<svg width="67px" height="67px" viewBox="0 0 67 67" version="1.1" xmlns="http://www.w3.org/2000/svg" xmlns:xlink="http://www.w3.org/1999/xlink">
    <title>col_schema</title>
    <g id="All-Icons" stroke="none" stroke-width="1" fill="none" fill-rule="evenodd">
        <g id="col_schema" transform="translate(0.000000, 0.551724)">
            <path d="M56.712234,1.01466935 C59.1975153,1.01466935 61.4475153,2.02202867 63.076195,3.65070832 C64.7048747,5.27938798 65.712234,7.52938798 65.712234,10.0146694 L65.712234,10.0146694 L65.712234,65.0146694 L10.712234,65.0146694 C8.22695259,65.0146694 5.97695259,64.00731 4.34827294,62.3786304 C2.71959328,60.7499507 1.71223397,58.4999507 1.71223397,56.0146694 L1.71223397,56.0146694 L1.71223397,10.0146694 C1.71223397,7.52938798 2.71959328,5.27938798 4.34827294,3.65070832 C5.97695259,2.02202867 8.22695259,1.01466935 10.712234,1.01466935 L10.712234,1.01466935 Z" id="rectangle" stroke="#000000" stroke-width="2" fill="#FFFFFF"></path>
            <path d="M41.712234,24.0146694 L41.712234,42.0146694 L53.712234,42.0146694 C54.262234,42.0146694 54.712234,41.5646694 54.712234,41.0146694 L54.712234,25.0146694 C54.712234,24.4646694 54.262234,24.0146694 53.712234,24.0146694 L41.712234,24.0146694 Z M27.212234,24.0146694 C27.212234,24.0146694 27.212234,30.0146694 27.212234,42.0146694 L40.212234,42.0146694 L40.212234,24.0146694 C31.5455673,24.0146694 27.212234,24.0146694 27.212234,24.0146694 Z M13.712234,24.0146694 C13.162234,24.0146694 12.712234,24.4646694 12.712234,25.0146694 L12.712234,41.0146694 C12.712234,41.5646694 13.162234,42.0146694 13.712234,42.0146694 L25.712234,42.0146694 L25.712234,24.0146694 L13.712234,24.0146694 Z" id="columns_real" fill="#000000" fill-rule="nonzero"></path>
        </g>
    </g>
</svg>