<?xml version="1.0" encoding="UTF-8"?>
<svg width="67px" height="67px" viewBox="0 0 67 67" version="1.1" xmlns="http://www.w3.org/2000/svg" xmlns:xlink="http://www.w3.org/1999/xlink">
    <title>col_vals_regex</title>
    <g id="All-Icons" stroke="none" stroke-width="1" fill="none" fill-rule="evenodd">
        <g id="col_vals_regex" transform="translate(0.000000, 0.034483)">
            <path d="M56.712234,1 C59.1975153,1 61.4475153,2.00735931 63.076195,3.63603897 C64.7048747,5.26471863 65.712234,7.51471863 65.712234,10 L65.712234,10 L65.712234,65 L10.712234,65 C8.22695259,65 5.97695259,63.9926407 4.34827294,62.363961 C2.71959328,60.7352814 1.71223397,58.4852814 1.71223397,56 L1.71223397,56 L1.71223397,10 C1.71223397,7.51471863 2.71959328,5.26471863 4.34827294,3.63603897 C5.97695259,2.00735931 8.22695259,1 10.712234,1 L10.712234,1 Z" id="rectangle" stroke="#000000" stroke-width="2" fill="#FFFFFF"></path>
            <g id="regex_symbols" transform="translate(18.000000, 12.000000)" fill="#000000" fill-rule="nonzero">
                <path d="M4.17434508,33.013582 C1.94895328,33.013582 0.138006923,34.8245284 0.138006923,37.0499202 C0.138006923,39.275312 1.94895328,41.0862583 4.17434508,41.0862583 C6.39973688,41.0862583 8.21068324,39.275312 8.21068324,37.0499202 C8.21068324,34.8245284 6.39973688,33.013582 4.17434508,33.013582 Z" id="full_stop"></path>
                <path d="M23.9479718,23.3175402 L21.5628264,23.3175402 C21.2344032,23.3175402 20.9665401,23.0520067 20.9665401,22.7212538 L20.9665401,15.1022979 L14.3445004,18.8873192 C14.0626621,19.050366 13.7016292,18.952538 13.5362533,18.6706991 L12.3436806,16.6442575 C12.262157,16.506832 12.2388642,16.3437852 12.2807909,16.1900549 C12.3203879,16.0363251 12.4205455,15.9058874 12.557971,15.8266929 L19.1800101,11.9880994 L12.557971,8.15183511 C12.4205455,8.07264112 12.3203879,7.93987439 12.2807909,7.78614401 C12.2388642,7.63241423 12.262157,7.46936689 12.3413509,7.33194137 L13.5339237,5.30549975 C13.6993001,5.02366143 14.0626621,4.92816199 14.3445004,5.09120934 L20.9665401,8.87390091 L20.9665401,1.25494501 C20.9665401,0.926521818 21.2344032,0.658658658 21.5628264,0.658658658 L23.9479718,0.658658658 C24.2787247,0.658658658 24.5442582,0.926521818 24.5442582,1.25494501 L24.5442582,8.87390091 L31.1662979,5.09120934 C31.4481362,4.92816199 31.8091691,5.02366143 31.9745455,5.30549975 L33.1671182,7.33194137 C33.2486413,7.46936689 33.2719341,7.63241423 33.2300074,7.78614401 C33.1904104,7.93987439 33.0902528,8.07264112 32.9528278,8.15183511 L26.3307882,11.9880994 L32.9528278,15.8243638 C33.0879237,15.9058874 33.1880813,16.0363251 33.2300074,16.1900549 C33.269605,16.3437852 33.2486413,16.506832 33.1671182,16.6442575 L31.9745455,18.6706991 C31.8091691,18.952538 31.4481362,19.050366 31.1662979,18.8849895 L24.5442582,15.1022979 L24.5442582,22.7212538 C24.5442582,23.0520067 24.2787247,23.3175402 23.9479718,23.3175402 Z" id="asterisk"></path>
            </g>
        </g>
    </g>
</svg>