<?xml version="1.0" encoding="UTF-8"?>
<svg width="67px" height="67px" viewBox="0 0 67 67" version="1.1" xmlns="http://www.w3.org/2000/svg" xmlns:xlink="http://www.w3.org/1999/xlink">
    <title>create_informant</title>
    <g id="All-Icons" stroke="none" stroke-width="1" fill="none" fill-rule="evenodd">
        <g id="create_informant" transform="translate(0.000000, 0.965517)">
            <path d="M56.5,1 C58.9852814,1 61.2352814,2.00735931 62.863961,3.63603897 C64.4926407,5.26471863 65.5,7.51471863 65.5,10 L65.5,10 L65.5,65 L10.5,65 C8.01471863,65 5.76471863,63.9926407 4.13603897,62.363961 C2.50735931,60.7352814 1.5,58.4852814 1.5,56 L1.5,56 L1.5,10 C1.5,7.51471863 2.50735931,5.26471863 4.13603897,3.63603897 C5.76471863,2.00735931 8.01471863,1 10.5,1 L10.5,1 Z" id="rectangle" stroke="#000000" stroke-width="2" fill="#FFFFFF"></path>
            <path d="M27.1463467,36.8316346 C27.1589492,38.2052841 27.2177594,39.2806793 27.0581309,40.6669303 C26.7430735,41.5028822 25.9449292,42.1876068 24.6342914,42.8513267 C23.2858459,43.5318507 21.5173253,44.1367604 19.7235995,44.9139012 C17.9298748,45.6868414 16.0983425,46.6404147 14.6364772,48.1232836 C13.1746119,49.6061524 12.1412239,51.6561243 11.9899965,54.3362112 L11.9311863,55.4704165 L55.0688137,55.4704165 L55.005802,54.3362112 C54.8545745,51.6561243 53.8295885,49.6103529 52.3761253,48.127484 C50.9226611,46.6404147 49.0953292,45.6868414 47.297403,44.9139012 C45.5036783,44.1367604 43.7267556,43.5318507 42.3573065,42.8471262 C41.0340672,42.1876068 40.1981153,41.4944802 39.8326487,40.6543277 C39.7528339,39.2428716 39.744433,38.1464729 39.744433,36.8190321 C39.8108596,36.7443021 36.6465474,40.9568458 33.5,40.9590858 C30.2790316,40.9613787 27.0740993,36.7551371 27.1463467,36.8316346 Z M28.9652765,41.7087193 L31.6369613,43.1915881 L29.1837161,46.2413421 L27.1841533,43.8133009 C27.944492,43.2545998 28.5746058,42.5740769 28.9652765,41.7087193 Z M37.9549077,41.7465259 C38.3791855,42.6034814 39.0429054,43.2588003 39.8158457,43.8091004 L37.8120823,46.2413421 L35.3588372,43.1915881 L37.9549077,41.7465259 Z M25.2980113,44.9097007 L28.3687688,48.627375 C28.5704054,48.8752203 28.8812612,49.0222461 29.2047207,49.0180456 C29.5281792,49.0180456 29.830634,48.8668182 30.0364711,48.6147725 L32.1452543,45.9934968 L32.9602016,46.6530162 C32.9602016,46.6530162 31.0740597,49.8918042 30.5321616,53.3196262 L14.3928325,53.3196262 C14.6910869,51.7863482 15.25819,50.5597257 16.1697552,49.6313575 C17.3123625,48.4677455 18.8876486,47.6149916 20.5763545,46.8840584 C22.1600416,46.2035355 23.8151425,45.6238297 25.2980113,44.9097007 Z M42.3082517,44.6035378 C43.8127025,45.3696625 45.4946453,45.9915766 47.0878415,46.7216483 C48.7824614,47.5058007 50.3587537,48.4206435 51.5039961,49.6644704 C52.4168089,50.6604341 52.9830915,51.9808733 53.27891,53.6257891 L37.0511257,53.6257891 C36.5101996,49.8852956 34.6000541,46.473784 34.6000541,46.473784 L35.4198958,45.766245 L37.54134,48.5783755 C37.748413,48.8487726 38.052684,49.0110109 38.3780857,49.0110109 C38.7034863,49.0155172 39.0162087,48.8577864 39.219056,48.5918956 L42.3082517,44.6035378 Z M33.3741052,11.5295835 C29.107909,11.5295835 25.665251,13.1040596 23.6896599,15.9505031 C21.7028184,18.8136204 21.3585527,22.7557654 22.6636127,27.3839157 C22.3485982,27.7959948 22.1415887,28.3271722 22.1415887,29.0227048 C22.1415887,30.2970541 22.9651268,31.4261033 24.0856781,31.7857795 C24.6347033,36.4186934 28.9459016,42.8716727 33.3741052,42.8716727 C37.8405605,42.8716727 42.1135071,36.3877281 42.6085299,31.7286125 C43.756083,31.3832283 44.5526193,30.2970541 44.5526193,28.9845934 C44.5683702,28.3652836 44.3973623,27.8460164 44.0845978,27.4029714 C44.4761161,26.0571636 45.844179,20.6977511 43.8325862,17.3034569 C42.9505456,15.8147314 41.5509815,14.9095863 39.674395,14.6166049 C38.733852,13.3756034 36.7650113,11.5295835 33.3741052,11.5295835 Z M35.7142128,18.8279119 C36.2159861,19.4710417 36.8572654,19.9164679 37.478294,20.3523669 C39.1456205,21.5266735 40.8624496,22.7438557 40.8624496,27.9936977 C40.8624496,28.3319364 41.1189617,28.6034797 41.4384761,28.6034797 C41.7579911,28.6034797 42.0145026,28.3319364 42.0145026,27.9936977 C42.0145026,27.8055226 42.0010022,27.6387856 41.9965017,27.4601384 C42.3475179,27.5339794 42.7862882,27.676897 43.0765514,27.9936977 C43.2993118,28.2342756 43.4118167,28.5486944 43.4005663,28.9655377 C43.4005663,29.8468636 42.8290403,30.5328684 42.0145026,30.6233826 L41.5284802,30.6805496 L41.4924786,31.1950532 C41.3298097,34.421085 37.3095361,41.7991198 33.3741052,41.7991198 C29.4746761,41.7991198 25.4016372,34.3660934 25.2017294,31.2522203 L25.1657278,30.7377167 L24.6797054,30.6805496 C23.9146702,30.5900354 23.2936417,29.8420994 23.2936417,29.0227048 C23.2936417,27.9770238 24.148681,27.6006743 24.7517087,27.4601384 C24.7337079,27.7245362 24.7337079,28.0056073 24.7337079,28.2985887 C24.7337079,28.6368274 24.9924699,28.9083707 25.3097344,28.9083707 C25.6269988,28.9083707 25.8857609,28.6368274 25.8857609,28.2985887 C25.8857609,24.7327933 27.0490642,23.9110169 31.3760133,22.7343279 C34.3709012,21.9292254 35.2574417,19.973635 35.7142128,18.8279119 Z M33.3741052,26.1643517 C32.1702997,26.1643517 31.1397526,26.8479746 30.997996,26.9456349 C30.6199786,26.8384468 30.1722078,26.7741337 29.629933,26.7741337 C26.8735564,26.7741337 26.4617874,28.4248325 26.4617874,29.4038186 C26.4617874,31.321297 27.8838528,32.8719537 29.629933,32.8719537 C31.3760133,32.8719537 32.7980787,31.321297 32.7980787,29.4038186 C32.7980787,28.8178565 32.6653225,28.1723449 32.2220523,27.669751 C32.5708184,27.5196873 33.0005883,27.3839157 33.3741052,27.3839157 C33.7476227,27.3839157 34.177392,27.5196873 34.5261582,27.669751 C34.082888,28.1723449 33.9501317,28.8178565 33.9501317,29.4038186 C33.9501317,31.321297 35.3721971,32.8719537 37.1182774,32.8719537 C38.8643577,32.8719537 40.2864231,31.321297 40.2864231,29.4038186 C40.2864231,28.4248325 39.874654,26.7741337 37.1182774,26.7741337 C36.5760026,26.7741337 36.1282319,26.8384468 35.7502145,26.9456349 C35.6084578,26.8479746 34.5779107,26.1643517 33.3741052,26.1643517 Z" id="informant" fill="#000000" fill-rule="nonzero"></path>
        </g>
    </g>
</svg>