<?xml version="1.0" encoding="UTF-8"?>
<svg width="67px" height="67px" viewBox="0 0 67 67" version="1.1" xmlns="http://www.w3.org/2000/svg" xmlns:xlink="http://www.w3.org/1999/xlink">
    <title>deactivate_steps</title>
    <g id="All-Icons" stroke="none" stroke-width="1" fill="none" fill-rule="evenodd">
        <g id="deactivate_steps" transform="translate(0.000000, 0.275862)">
            <path d="M56.876942,1 C59.3622234,1 61.6122234,2.00735931 63.240903,3.63603897 C64.8695827,5.26471863 65.876942,7.51471863 65.876942,10 L65.876942,10 L65.876942,65 L10.876942,65 C8.39166064,65 6.14166064,63.9926407 4.51298099,62.363961 C2.88430133,60.7352814 1.87694202,58.4852814 1.87694202,56 L1.87694202,56 L1.87694202,10 C1.87694202,7.51471863 2.88430133,5.26471863 4.51298099,3.63603897 C6.14166064,2.00735931 8.39166064,1 10.876942,1 L10.876942,1 Z" id="rectangle" stroke="#000000" stroke-width="2" fill="#FFFFFF"></path>
            <g id="pause" transform="translate(54.077087, 19.803506)" fill="#4A4A4A">
                <polygon id="bar" points="5.66213743e-14 -9.09522457e-13 0 3 0 5 5.66213743e-14 8 2 8 2 5 2 3 2 -9.09522457e-13"></polygon>
                <polygon id="bar" points="3.99705684 -9.09522457e-13 3.99705684 3 3.99705684 5 3.99705684 8 5.99705684 8 5.99705684 5 5.99705684 3 5.99705684 -9.09522457e-13"></polygon>
            </g>
            <g id="pause" transform="translate(54.077087, 38.196494)" fill="#4A4A4A">
                <polygon id="bar" points="5.66213743e-14 -9.09522457e-13 0 3 0 5 5.66213743e-14 8 2 8 2 5 2 3 2 -9.09522457e-13"></polygon>
                <polygon id="bar" points="3.99705684 -9.09522457e-13 3.99705684 3 3.99705684 5 3.99705684 8 5.99705684 8 5.99705684 5 5.99705684 3 5.99705684 -9.09522457e-13"></polygon>
            </g>
            <line x1="11.8768338" y1="14.6070111" x2="49.8768338" y2="14.6070111" id="line" stroke="#000000" stroke-width="2" stroke-linecap="square"></line>
            <line x1="11.8768338" y1="23.8035055" x2="49.8768338" y2="23.8035055" id="line" stroke="#C6C6C6" stroke-width="2" stroke-linecap="square"></line>
            <line x1="11.8768338" y1="33" x2="49.8768338" y2="33" id="line" stroke="#000000" stroke-width="2" stroke-linecap="square"></line>
            <line x1="11.8768338" y1="42.1964945" x2="49.8768338" y2="42.1964945" id="line" stroke="#C6C6C6" stroke-width="2" stroke-linecap="square"></line>
            <line x1="11.8768338" y1="51.3929889" x2="49.8768338" y2="51.3929889" id="line" stroke="#000000" stroke-width="2" stroke-linecap="square"></line>
        </g>
    </g>
</svg>