<?xml version="1.0" encoding="UTF-8"?>
<svg width="67px" height="67px" viewBox="0 0 67 67" version="1.1" xmlns="http://www.w3.org/2000/svg" xmlns:xlink="http://www.w3.org/1999/xlink">
    <title>email_blast</title>
    <g id="All-Icons" stroke="none" stroke-width="1" fill="none" fill-rule="evenodd">
        <g id="email_blast" transform="translate(0.000000, 0.103448)">
            <path d="M56.712234,1 C59.1975153,1 61.4475153,2.00735931 63.076195,3.63603897 C64.7048747,5.26471863 65.712234,7.51471863 65.712234,10 L65.712234,10 L65.712234,65 L10.712234,65 C8.22695259,65 5.97695259,63.9926407 4.34827294,62.363961 C2.71959328,60.7352814 1.71223397,58.4852814 1.71223397,56 L1.71223397,56 L1.71223397,10 C1.71223397,7.51471863 2.71959328,5.26471863 4.34827294,3.63603897 C5.97695259,2.00735931 8.22695259,1 10.712234,1 L10.712234,1 Z" id="rectangle" stroke="#000000" stroke-width="2" fill="#FFFFFF"></path>
            <path d="M35.1389923,10 C22.3077973,10 11.8548248,20.395253 11.7151637,33.216797 L11.7151637,33.238281 L11.7151637,33.261719 C11.8550914,45.819141 22.0933873,56 34.6604763,56 C42.3789923,56 48.9084523,53.686804 54.2464133,47.28125 C54.7041598,46.7320939 54.8341638,45.9804477 54.5874539,45.3094495 C54.340744,44.6384513 53.7548013,44.1500415 53.0503448,44.0281995 C52.3458884,43.9063574 51.6299418,44.1695938 51.1721953,44.71875 C46.5101563,50.313196 41.6539603,52 34.6604763,52 C24.2529153,52 15.8448104,43.644614 15.7171168,33.238281 C15.8461234,22.568988 24.4681953,14 35.1389923,14 C39.4755073,14 43.6704483,15.4738481 46.7171163,18.0625 C49.7637863,20.651152 51.7093043,24.281511 51.7093043,28.988281 L51.7093043,29.375 C51.7093043,32.760417 50.1157023,35.975336 47.9261013,38.324219 C45.7365003,40.673101 42.9321793,42 41.2757103,42 C40.9084183,42 40.9237733,41.954436 40.8948513,41.921875 C40.8659283,41.889314 40.7093043,41.671 40.7093043,41 L40.7093043,40.949219 L40.7073513,40.898438 C40.7073513,40.898438 40.5711653,38.555382 41.9143823,35.292969 C41.9160313,35.288965 41.9166353,35.285257 41.9182883,35.28125 L46.5628203,23.748047 C46.826455,23.1200762 46.7524399,22.4011131 46.3663952,21.8400248 C45.9803505,21.2789364 45.335334,20.9528386 44.6546163,20.974609 C43.8524493,21.0005452 43.1434642,21.5034481 42.8538353,22.251953 L42.5960233,22.894531 C42.2284323,22.454509 41.8215653,22.060553 41.3714133,21.722656 C39.6736213,20.448246 37.5823203,20 35.4221953,20 C32.5274133,20 29.3603533,21.644879 26.5921163,24.492188 C23.8238813,27.339495 21.6038353,31.560683 21.6038353,36.808594 C21.6038353,41.859144 25.7332623,46 30.7796163,46 C33.5588633,46 35.7291233,44.820923 37.1975853,43.419922 C37.3787303,43.834929 37.5969013,44.231696 37.9046163,44.578125 C38.7639923,45.545562 40.0640023,46 41.2757103,46 C44.6782423,46 48.0892333,44.014399 50.8518823,41.050781 C53.6145313,38.087164 55.7093043,33.989583 55.7093043,29.375 L55.7093043,28.988281 C55.7093043,23.144052 53.1532913,18.28177 49.3069603,15.0136719 C45.4606293,11.7455738 40.3724763,10 35.1389923,10 Z M35.4221953,24 C37.0340693,24 38.1795653,24.327785 38.9710233,24.921875 C39.6918303,25.462934 40.2564993,26.3153 40.6018823,27.841797 L38.2210233,33.755859 L36.8733663,37.099609 C36.871404,37.1028588 36.869451,37.1061141 36.8675073,37.109375 C36.1649053,38.235866 35.4747493,39.497556 34.5413353,40.433594 C33.6079223,41.369631 32.5881503,42 30.7796163,42 C27.8999713,42 25.6038353,39.702044 25.6038353,36.808594 C25.6038353,32.677504 27.3107443,29.493191 29.4612573,27.28125 C31.6117713,25.069309 34.3539763,24 35.4221953,24 Z" id="email" fill="#000000" fill-rule="nonzero"></path>
        </g>
    </g>
</svg>