<?xml version="1.0" encoding="UTF-8"?>
<svg width="66px" height="67px" viewBox="0 0 66 67" version="1.1" xmlns="http://www.w3.org/2000/svg" xmlns:xlink="http://www.w3.org/1999/xlink">
    <title>email_create</title>
    <g id="All-Icons" stroke="none" stroke-width="1" fill="none" fill-rule="evenodd">
        <g id="email_create" transform="translate(0.000000, 0.586207)">
            <path d="M56,1 C58.4852814,1 60.7352814,2.00735931 62.363961,3.63603897 C63.9926407,5.26471863 65,7.51471863 65,10 L65,10 L65,65 L10,65 C7.51471863,65 5.26471863,63.9926407 3.63603897,62.363961 C2.00735931,60.7352814 1,58.4852814 1,56 L1,56 L1,10 C1,7.51471863 2.00735931,5.26471863 3.63603897,3.63603897 C5.26471863,2.00735931 7.51471863,1 10,1 L10,1 Z" id="rectangle" stroke="#000000" stroke-width="2" fill="#FFFFFF"></path>
            <path d="M13,9.5 L13,53.5 L29,53.5 L29,56.5 L55,56.5 L55,37.5 L47,37.5 L47,21.085938 L35.414062,9.5 L13,9.5 Z M15,11.5 L34,11.5 L34,22.5 L45,22.5 L45,37.5 L29,37.5 L29,51.5 L15,51.5 L15,11.5 Z M36,12.9140625 L43.585938,20.5 L36,20.5 L36,12.9140625 Z M21,27.5 L21,29.5 L39,29.5 L39,27.5 L21,27.5 Z M21,33.5 L21,35.5 L34,35.5 L34,33.5 L21,33.5 Z M21,39.5 L21,41.5 L27,41.5 L27,39.5 L21,39.5 Z M31,39.5 L53,39.5 L53,54.5 L31,54.5 L31,39.5 Z M51.839844,40.371094 L42,46.011719 L32.130859,40.414062 L32.130859,42.765625 L42,48.423828 L51.871094,42.763672 L51.839844,40.371094 Z" id="email-document" fill="#000000" fill-rule="nonzero"></path>
        </g>
    </g>
</svg>