<?xml version="1.0" encoding="UTF-8"?>
<svg width="67px" height="67px" viewBox="0 0 67 67" version="1.1" xmlns="http://www.w3.org/2000/svg" xmlns:xlink="http://www.w3.org/1999/xlink">
    <title>file_tbl</title>
    <g id="All-Icons" stroke="none" stroke-width="1" fill="none" fill-rule="evenodd">
        <g id="file_tbl" transform="translate(0.000000, 0.896552)">
            <path d="M56.5,1 C58.9852814,1 61.2352814,2.00735931 62.863961,3.63603897 C64.4926407,5.26471863 65.5,7.51471863 65.5,10 L65.5,10 L65.5,65 L10.5,65 C8.01471863,65 5.76471863,63.9926407 4.13603897,62.363961 C2.50735931,60.7352814 1.5,58.4852814 1.5,56 L1.5,56 L1.5,10 C1.5,7.51471863 2.50735931,5.26471863 4.13603897,3.63603897 C5.76471863,2.00735931 8.01471863,1 10.5,1 L10.5,1 Z" id="rectangle" stroke="#000000" stroke-width="2" fill="#FFFFFF"></path>
            <g id="data_file" transform="translate(12.555435, 8.026116)" fill="#000000" fill-rule="nonzero">
                <path d="M0,0 L0,48 L32,48 C33.671875,49.257813 35.753906,50 38,50 C43.511719,50 48,45.511719 48,40 C48,35.914063 45.519531,32.394531 42,30.84375 L42,14.59375 L41.71875,14.28125 L27.71875,0.28125 L27.40625,0 L0,0 Z M2.00980706,2 L26,2 L26,16 L40,16 L40,30.21875 C39.351563,30.085938 38.6875,30 38,30 C32.488281,30 28,34.488281 28,40 C28,42.253906 28.765625,44.324219 30.03125,46 L2.00980706,46 L2.00980706,2 Z M28,3.4375 L38.5625,14 L28,14 L28,3.4375 Z M38,32 C42.429688,32 46,35.570313 46,40 C46,44.429688 42.429688,48 38,48 C33.570313,48 30,44.429688 30,40 C30,35.570313 33.570313,32 38,32 Z M37,35 L37,39 L33,39 L33,41 L37,41 L37,45 L39,45 L39,41 L43,41 L43,39 L39,39 L39,35 L37,35 Z" id="Shape"></path>
            </g>
        </g>
    </g>
</svg>