<?xml version="1.0" encoding="UTF-8"?>
<svg width="45px" height="45px" viewBox="0 0 45 45" version="1.1" xmlns="http://www.w3.org/2000/svg" xmlns:xlink="http://www.w3.org/1999/xlink">
    <title>from_github</title>
    <g id="All-Icons" stroke="none" stroke-width="1" fill="none" fill-rule="evenodd">
        <g id="from_github" transform="translate(0.000000, 0.034483)">
            <path d="M34.3333333,1 C36.8186147,1 39.0686147,2.00735931 40.6972944,3.63603897 C42.325974,5.26471863 43.3333333,7.51471863 43.3333333,10 L43.3333333,10 L43.3333333,43 L10.3333333,43 C7.84805196,43 5.59805196,41.9926407 3.9693723,40.363961 C2.34069265,38.7352814 1.33333333,36.4852814 1.33333333,34 L1.33333333,34 L1.33333333,10 C1.33333333,7.51471863 2.34069265,5.26471863 3.9693723,3.63603897 C5.59805196,2.00735931 7.84805196,1 10.3333333,1 L10.3333333,1 Z" id="rectangle" stroke="#000000" stroke-width="2" fill="#FFFFFF"></path>
            <g id="github_circle" transform="translate(7.000000, 6.666667)" fill="#000000" fill-rule="nonzero">
                <path d="M15.3333333,0 C6.87422333,0 0,6.87422333 0,15.3333333 C0,23.7924433 6.87422333,30.6666667 15.3333333,30.6666667 C23.7924433,30.6666667 30.6666667,23.7924433 30.6666667,15.3333333 C30.6666667,6.87422333 23.7924433,0 15.3333333,0 Z M15.3333333,1.33333333 C23.0715567,1.33333333 29.3333333,7.59511 29.3333333,15.3333333 C29.3333333,15.380914 29.3298993,15.427792 29.3294273,15.4752607 C28.903018,15.435902 28.4103387,15.3985173 27.783854,15.376302 C26.898042,15.3448907 25.781506,15.3539913 24.5156253,15.4166667 C24.562568,15.0897673 24.59547,14.7582513 24.596354,14.4179687 C24.6609073,13.1695547 24.2416807,12.0016427 23.559896,10.970052 C23.7246087,10.4009013 23.9178313,9.676812 23.966146,8.85546867 C24.0212127,7.91928333 23.9403993,6.88117667 23.188802,6.17968733 L22.996094,6 L22.7330727,6 C20.9443593,6 19.7200153,6.74880667 18.971354,7.342448 C17.8903527,6.92401467 16.6748133,6.66666667 15.3333333,6.66666667 C13.9842447,6.66666667 12.7570167,6.92761067 11.6315107,7.345052 C10.883274,6.75112733 9.65785667,6 7.86718733,6 L7.60546867,6 L7.41276067,6.17838533 C6.68063733,6.858214 6.61318533,7.86783933 6.658854,8.79947933 C6.69912733,9.621004 6.88115467,10.3680947 7.04296867,10.964844 C6.34965933,12.0165733 5.933594,13.2146787 5.933594,14.3997393 C5.933594,14.7408247 5.96531267,15.0733807 6.01171867,15.4010413 C4.8078782,15.3452053 3.73473307,15.3344453 2.88281253,15.3645833 C2.25634287,15.3867453 1.76362813,15.4238087 1.3372396,15.4635413 C1.33684187,15.4199813 1.33333333,15.376988 1.33333333,15.3333333 C1.33333333,7.59511 7.59511,1.33333333 15.3333333,1.33333333 Z M8.26432267,7.42057267 C9.609378,7.54802867 10.62133,8.148648 11.089844,8.565104 L11.402344,8.841146 L11.7877607,8.683594 C12.8420613,8.24947 14.0179893,8 15.3333333,8 C16.6486773,8 17.8249287,8.25071733 18.7994793,8.67708333 L19.190104,8.84895867 L19.5091147,8.565104 C19.9777887,8.14850533 20.991456,7.54770267 22.3372393,7.42057267 C22.5161707,7.71722733 22.6716573,8.139112 22.6341147,8.777344 C22.5891813,9.541158 22.3848693,10.3731053 22.2304687,10.8671873 L22.130208,11.188802 L22.3294273,11.4609373 C22.9890773,12.3604607 23.325414,13.333958 23.2682293,14.3632813 L23.2669273,14.3815107 L23.2669273,14.3997393 C23.2669273,16.063376 22.6678533,17.3948927 21.3919273,18.3815107 C20.116032,19.3681327 18.1017753,20 15.2669273,20 C12.4320787,20 10.4165513,19.368128 9.14062533,18.3815107 C7.864698,17.3948927 7.26692733,16.063376 7.26692733,14.3997393 C7.26692733,13.4232687 7.61953867,12.349066 8.27083333,11.4609373 L8.466146,11.1953127 L8.372396,10.878906 C8.21791067,10.353656 8.02855,9.50273533 7.99088533,8.73437467 C7.95955867,8.09529333 8.110814,7.69135133 8.26432267,7.42057267 Z M4.58984373,16.0143227 C5.06097167,16.02034 5.60097333,16.0457707 6.14192733,16.0729167 C6.19361267,16.2807813 6.252548,16.4852653 6.32421867,16.684896 C4.11931467,16.7313947 2.4698206,16.953116 1.453125,17.1432293 C1.41013787,16.8096627 1.37589887,16.4733473 1.3567708,16.1328127 C2.1081372,16.061508 3.16733147,15.9961553 4.58984373,16.0143227 Z M26.0768227,16.0247393 C27.4983513,16.0066887 28.557152,16.072104 29.308594,16.1432293 C29.2894893,16.4788853 29.2558327,16.8104427 29.2135413,17.1393227 C28.1605133,16.94614 26.4664493,16.7244587 24.2044273,16.688802 C24.27463,16.493118 24.3330847,16.292146 24.3841147,16.0885413 C24.9808607,16.0565553 25.5630427,16.031264 26.0768227,16.0247393 Z M6.60807267,17.346354 C7.00589933,18.1435513 7.574344,18.855346 8.32552067,19.436198 C9.35255,20.230354 10.6877487,20.7852253 12.317708,21.0820313 C12.104466,21.301132 11.91052,21.54173 11.7382813,21.7955727 L11.6979167,21.7604167 C11.7015833,21.7562167 11.3665,21.9239187 10.8658853,21.96875 C10.3652707,22.0135827 9.74774333,22 9.20052067,22 C8.383854,22 8.02414,21.61414 7.44921867,20.9114587 C7.13085533,20.4823733 6.742734,20.1348873 6.36588533,19.871094 C5.980014,19.6009833 5.65083933,19.4103393 5.2434896,19.342448 L5.18880207,19.3333333 L5.13281253,19.3333333 C4.8217014,19.3333333 4.52065567,19.35586 4.23958333,19.6770833 C4.09904713,19.837696 4.00218467,20.1350407 4.06510413,20.3867187 C4.12802347,20.6383967 4.28723753,20.793054 4.42968747,20.8880207 C5.340836,21.4954533 5.50186333,22.697674 6.07291667,23.7669273 C6.60619867,24.8295433 7.757108,25.3333333 8.933594,25.3333333 L10.6666667,25.3333333 L10.6666667,28.535156 C5.97854067,26.8803567 2.44311967,22.8030753 1.55468747,17.8020833 C2.5752892,17.6098507 4.28435913,17.3787387 6.60807267,17.346354 Z M23.9218747,17.3515627 C26.2970253,17.3718933 28.0540333,17.6027073 29.1132813,17.7981773 C28.2260313,22.8010027 24.6893813,26.8799133 20,28.535156 L20,25.066406 C20,24.0100273 19.6530947,22.8451413 19.0494793,21.873698 C18.8662147,21.5787567 18.65063,21.299824 18.410156,21.0494793 C19.9536353,20.74456 21.221576,20.199214 22.2083333,19.436198 C22.9578827,18.8566047 23.5250587,18.1469493 23.9218747,17.3515627 Z M14.466146,21.3997393 L16.3333333,21.3997393 C16.875214,21.3997393 17.4536153,21.8316 17.9166667,22.5768227 C18.379718,23.322046 18.6666667,24.3227847 18.6666667,25.066406 L18.6666667,28.932292 C17.598272,29.1928227 16.4825267,29.3333333 15.3333333,29.3333333 C14.18414,29.3333333 13.0683947,29.1928227 12,28.932292 L12,25.066406 C12,24.339246 12.3118853,23.3408713 12.8059893,22.592448 C13.300094,21.8440247 13.9242653,21.3997393 14.466146,21.3997393 Z M6.872396,22.1875 C7.44957867,22.786172 8.14835,23.3333333 9.20052067,23.3333333 C9.71996533,23.3333333 10.3683227,23.3520487 10.9843747,23.2968747 C10.9865653,23.2966787 10.9886947,23.2957693 10.9908853,23.2955727 C10.90972,23.5289073 10.8491627,23.763686 10.7981773,24 L8.933594,24 C8.11137133,24 7.53051333,23.7029533 7.26302067,23.1679687 L7.25781267,23.158854 L7.253906,23.1510413 C7.14430467,22.9474607 7.00043,22.5403933 6.872396,22.1875 Z" id="Shape"></path>
            </g>
        </g>
    </g>
</svg>