<?xml version="1.0" encoding="UTF-8"?>
<svg width="66px" height="67px" viewBox="0 0 66 67" version="1.1" xmlns="http://www.w3.org/2000/svg" xmlns:xlink="http://www.w3.org/1999/xlink">
    <title>from_github</title>
    <g id="All-Icons" stroke="none" stroke-width="1" fill="none" fill-rule="evenodd">
        <g id="from_github" transform="translate(0.000000, 0.549152)">
            <path d="M56,1 C58.4852814,1 60.7352814,2.00735931 62.363961,3.63603897 C63.9926407,5.26471863 65,7.51471863 65,10 L65,10 L65,65 L10,65 C7.51471863,65 5.26471863,63.9926407 3.63603897,62.363961 C2.00735931,60.7352814 1,58.4852814 1,56 L1,56 L1,10 C1,7.51471863 2.00735931,5.26471863 3.63603897,3.63603897 C5.26471863,2.00735931 7.51471863,1 10,1 L10,1 Z" id="rectangle" stroke="#000000" stroke-width="2" fill="#FFFFFF"></path>
            <g id="github_circle" transform="translate(10.000000, 10.651997)" fill="#000000" fill-rule="nonzero">
                <path d="M22.7526882,0 C10.2004604,0 0,10.2004604 0,22.7526882 C0,35.3049159 10.2004604,45.5053763 22.7526882,45.5053763 C35.3049159,45.5053763 45.5053763,35.3049159 45.5053763,22.7526882 C45.5053763,10.2004604 35.3049159,0 22.7526882,0 Z M22.7526882,1.97849462 C34.2352131,1.97849462 43.5268817,11.2701632 43.5268817,22.7526882 C43.5268817,22.8232917 43.5217861,22.8928526 43.5210857,22.96329 C42.8883493,22.9048868 42.1572767,22.8494128 41.2276543,22.8164481 C39.9132236,22.7698378 38.2564283,22.783342 36.3780247,22.8763441 C36.4476815,22.3912677 36.4965039,21.8993407 36.4978156,21.3944051 C36.5936044,19.5419198 35.9715262,17.8088891 34.9598457,16.2781417 C35.204258,15.4335955 35.4909755,14.3591404 35.5626683,13.1403729 C35.6443801,11.7511946 35.5244635,10.2107783 34.4091901,9.16985862 L34.1232363,8.90322581 L33.7329465,8.90322581 C31.0787268,8.90322581 29.2619582,10.0143583 28.1510414,10.8952454 C26.5469749,10.2743443 24.7432714,9.89247312 22.7526882,9.89247312 C20.7508147,9.89247312 18.9297667,10.2796803 17.259661,10.8991094 C16.1493743,10.0178018 14.3310131,8.90322581 11.6738909,8.90322581 L11.2855342,8.90322581 L10.9995803,9.16792662 C9.91320378,10.1767046 9.81311372,11.6748584 9.88088013,13.0572919 C9.94064056,14.2763285 10.2107456,15.3849147 10.4508567,16.2704137 C9.42207514,17.8310443 8.80468787,19.608878 8.80468787,21.3673551 C8.80468787,21.8734818 8.85175428,22.366952 8.9206148,22.8531581 C7.13427088,22.7703047 5.54186197,22.7543382 4.27772182,22.7990591 C3.34812167,22.8319447 2.61699658,22.8869419 1.98429102,22.9459 C1.98370083,22.8812626 1.97849462,22.8174661 1.97849462,22.7526882 C1.97849462,11.2701632 11.2701632,1.97849462 22.7526882,1.97849462 Z M12.2631885,11.0111723 C14.259077,11.2003006 15.7606832,12.0915422 16.4558975,12.7095092 L16.9196072,13.1191199 L17.4915158,12.885333 C19.055962,12.241149 20.8008874,11.8709677 22.7526882,11.8709677 C24.7044889,11.8709677 26.4498942,12.2429999 27.8960016,12.875672 L28.4756382,13.1307129 L28.9490089,12.7095092 C29.6444606,12.0913305 31.1486121,11.1998169 33.1455809,11.0111723 C33.411092,11.4513696 33.6418141,12.077392 33.5861056,13.0244459 C33.5194304,14.1578474 33.2162577,15.3923498 32.9871471,16.1255038 L32.8383732,16.6027385 L33.1339889,17.0065522 C34.1128244,18.3413287 34.6119046,19.7858732 34.52705,21.3132562 L34.525118,21.3403062 L34.525118,21.3673551 C34.525118,23.8359773 33.6361695,25.8117762 31.7428599,27.27579 C29.8495959,28.7398098 26.8606989,29.6774194 22.6541502,29.6774194 C18.4476006,29.6774194 15.4568181,28.7398028 13.5635086,27.27579 C11.670197,25.8117762 10.7831825,23.8359773 10.7831825,21.3673551 C10.7831825,19.9183987 11.3064122,18.3244205 12.2728495,17.0065522 L12.5626683,16.6123994 L12.4235554,16.1428928 C12.1943191,15.3634895 11.9133323,14.1008331 11.8574428,12.960685 C11.810958,12.0123708 12.0354014,11.4129729 12.2631885,11.0111723 Z M6.81073586,23.7631885 C7.50982892,23.7721174 8.31112172,23.8098532 9.11382766,23.8501344 C9.19052202,24.1585788 9.27797445,24.4620066 9.38432447,24.7582328 C6.11253144,24.8272308 3.66489508,25.1562366 2.15625,25.4383403 C2.09246264,24.9433704 2.04165638,24.4443218 2.0132728,23.9390123 C3.12820359,23.8332054 4.69991121,23.7362305 6.81073586,23.7631885 Z M38.6946401,23.7786455 C40.8040052,23.7518606 42.3751288,23.8489285 43.4901717,23.9544693 C43.4618229,24.4525395 43.4118807,24.9445278 43.3491258,25.4325433 C41.7865682,25.1458852 39.2727958,24.8169387 35.916247,24.7640288 C36.0204187,24.473659 36.1071579,24.1754425 36.1828798,23.8733194 C37.0683739,23.8258563 37.9322569,23.7883272 38.6946401,23.7786455 Z M9.80552718,25.7397511 C10.3958506,26.9226891 11.2393492,27.9789005 12.3539984,28.8408099 C13.8779774,30.019235 15.85924,30.8425924 18.2778893,31.2830142 C17.9614657,31.6081314 17.6736748,31.9651477 17.4180949,32.3418175 L17.3581989,32.2896505 C17.3636398,32.2834183 16.8664194,32.5322664 16.1235718,32.5987903 C15.3807242,32.6653162 14.4643933,32.6451613 13.6523855,32.6451613 C12.4405575,32.6451613 11.9067884,32.0725948 11.0536793,31.0299064 C10.5812692,30.3931991 10.0053472,29.8775748 9.44615243,29.4861395 C8.87356916,29.0853301 8.38511643,28.802439 7.78066199,28.701697 L7.69951274,28.688172 L7.6164315,28.688172 C7.15478272,28.688172 6.7080697,28.7215987 6.29099462,29.1982527 C6.08245704,29.4365812 5.93872563,29.8778023 6.03209,30.25126 C6.12545418,30.6247176 6.36170731,30.8542092 6.57308463,30.9951274 C7.92511148,31.8964791 8.16405527,33.6804195 9.01142473,35.2670535 C9.80274641,36.8438385 11.5105474,37.5913978 13.2563008,37.5913978 L15.827957,37.5913978 L15.827957,42.3424895 C8.87138292,39.8869809 3.62527434,33.8368215 2.3069556,26.4159946 C3.82139688,26.1307462 6.35743613,25.7878058 9.80552718,25.7397511 Z M35.4969753,25.7474801 C39.0213924,25.7776482 41.6285656,26.1201464 43.2003529,26.4101986 C41.8837884,33.8337459 36.6358562,39.886323 29.6774194,42.3424895 L29.6774194,37.1953121 C29.6774194,35.6277825 29.1626566,33.899242 28.2669693,32.4577454 C27.9950282,32.0200905 27.6751284,31.6061905 27.318296,31.2347113 C29.6086202,30.7822503 31.4900805,29.9730272 32.9543011,28.8408099 C34.0665356,27.9807682 34.9081516,26.9277313 35.4969753,25.7474801 Z M21.4658941,31.7544519 L24.2365591,31.7544519 C25.0406401,31.7544519 25.8989131,32.3952774 26.5860215,33.5010917 C27.2731299,34.606907 27.6989247,36.091874 27.6989247,37.1953121 L27.6989247,42.9317881 C26.1135649,43.318382 24.4579428,43.5268817 22.7526882,43.5268817 C21.0474335,43.5268817 19.3918114,43.318382 17.8064516,42.9317881 L17.8064516,37.1953121 C17.8064516,36.1163005 18.2692492,34.6348413 19.0024358,33.5242777 C19.7356234,32.413714 20.6618131,31.7544519 21.4658941,31.7544519 Z M10.1977489,32.9233871 C11.0542135,33.8117391 12.0911,34.6236559 13.6523855,34.6236559 C14.4231744,34.6236559 15.385253,34.6514271 16.2993947,34.569556 C16.3026453,34.5692651 16.305805,34.5679158 16.3090557,34.567624 C16.1886168,34.9138625 16.0987575,35.2622437 16.0231018,35.6129032 L13.2563008,35.6129032 C12.0362284,35.6129032 11.1743101,35.1721243 10.7773855,34.3782761 L10.7696575,34.3647511 L10.7638605,34.3531581 C10.6012263,34.0510707 10.3877348,33.4470353 10.1977489,32.9233871 Z" id="shape"></path>
            </g>
        </g>
    </g>
</svg>