<?xml version="1.0" encoding="UTF-8"?>
<svg width="66px" height="67px" viewBox="0 0 66 67" version="1.1" xmlns="http://www.w3.org/2000/svg" xmlns:xlink="http://www.w3.org/1999/xlink">
    <title>get_data_extracts</title>
    <g id="All-Icons" stroke="none" stroke-width="1" fill="none" fill-rule="evenodd">
        <g id="get_data_extracts" transform="translate(0.000000, 0.931034)">
            <path d="M56,1 C58.4852814,1 60.7352814,2.00735931 62.363961,3.63603897 C63.9926407,5.26471863 65,7.51471863 65,10 L65,10 L65,65 L10,65 C7.51471863,65 5.26471863,63.9926407 3.63603897,62.363961 C2.00735931,60.7352814 1,58.4852814 1,56 L1,56 L1,10 C1,7.51471863 2.00735931,5.26471863 3.63603897,3.63603897 C5.26471863,2.00735931 7.51471863,1 10,1 L10,1 Z" id="rectangle" stroke="#000000" stroke-width="2" fill="#FFFFFF"></path>
            <path d="M54,26.5 L54,16.5 C54,15.948 53.5909565,15.5 53.0869565,15.5 L12.9130435,15.5 C12.4090435,15.5 12,15.948 12,16.5 L12,26.5 L54,26.5 Z M12,28.5 L54,28.5 L54,37.5 L12,37.5 L12,28.5 Z M12,39.5 L12,49.5 C12,50.052 12.4090435,50.5 12.9130435,50.5 L53.0869565,50.5 C53.5909565,50.5 54,50.052 54,49.5 L54,39.5 L12,39.5 Z" id="rows" fill="#000000" fill-rule="nonzero"></path>
        </g>
    </g>
</svg>