<?xml version="1.0" encoding="UTF-8"?>
<svg width="67px" height="67px" viewBox="0 0 67 67" version="1.1" xmlns="http://www.w3.org/2000/svg" xmlns:xlink="http://www.w3.org/1999/xlink">
    <title>get_informant_report</title>
    <g id="All-Icons" stroke="none" stroke-width="1" fill="none" fill-rule="evenodd">
        <g id="get_informant_report" transform="translate(0.000000, 0.965517)">
            <path d="M56.1056064,1 C58.5908878,1 60.8408878,2.00735931 62.4695674,3.63603897 C64.0982471,5.26471863 65.1056064,7.51471863 65.1056064,10 L65.1056064,10 L65.1056064,65 L10.1056064,65 C7.62032501,65 5.37032501,63.9926407 3.74164536,62.363961 C2.1129657,60.7352814 1.10560639,58.4852814 1.10560639,56 L1.10560639,56 L1.10560639,10 C1.10560639,7.51471863 2.1129657,5.26471863 3.74164536,3.63603897 C5.37032501,2.00735931 7.62032501,1 10.1056064,1 L10.1056064,1 Z" id="rectangle" stroke="#000000" stroke-width="2" fill="#FFFFFF"></path>
            <path d="M15.1056064,21.9855505 L15.1056064,59.1180096 L51.1056064,59.1180096 L51.1056064,21.9855505 L15.1056064,21.9855505 Z M33.1056064,51.1610541 L22.1056064,51.1610541 C21.5548254,51.1610541 21.1056064,50.7638968 21.1056064,50.2769479 C21.1056064,49.7899991 21.5548254,49.3928418 22.1056064,49.3928418 L33.1056064,49.3928418 C33.6563874,49.3928418 34.1056064,49.7899991 34.1056064,50.2769479 C34.1056064,50.7638968 33.6563874,51.1610541 33.1056064,51.1610541 Z M33.1056064,44.0882048 L22.1056064,44.0882048 C21.5548254,44.0882048 21.1056064,43.6910475 21.1056064,43.2040986 C21.1056064,42.7171497 21.5548254,42.3199924 22.1056064,42.3199924 L33.1056064,42.3199924 C33.6563874,42.3199924 34.1056064,42.7171497 34.1056064,43.2040986 C34.1056064,43.6910475 33.6563874,44.0882048 33.1056064,44.0882048 Z M33.1056064,37.0153554 L22.1056064,37.0153554 C21.5548254,37.0153554 21.1056064,36.6181981 21.1056064,36.1312492 C21.1056064,35.6443003 21.5548254,35.247143 22.1056064,35.247143 L33.1056064,35.247143 C33.6563874,35.247143 34.1056064,35.6443003 34.1056064,36.1312492 C34.1056064,36.6181981 33.6563874,37.0153554 33.1056064,37.0153554 Z M33.1056064,29.942506 L22.1056064,29.942506 C21.5548254,29.942506 21.1056064,29.5453487 21.1056064,29.0583999 C21.1056064,28.571451 21.5548254,28.1742937 22.1056064,28.1742937 L33.1056064,28.1742937 C33.6563874,28.1742937 34.1056064,28.571451 34.1056064,29.0583999 C34.1056064,29.5453487 33.6563874,29.942506 33.1056064,29.942506 Z M39.1056064,52.9292665 C39.1056064,53.4162153 38.6563874,53.8133726 38.1056064,53.8133726 C37.5548254,53.8133726 37.1056064,53.4162153 37.1056064,52.9292665 L37.1056064,27.2901875 C37.1056064,26.8032386 37.5548254,26.4060813 38.1056064,26.4060813 C38.6563874,26.4060813 39.1056064,26.8032386 39.1056064,27.2901875 L39.1056064,52.9292665 Z M44.1056064,51.1610541 L43.1056064,51.1610541 C42.5548254,51.1610541 42.1056064,50.7638968 42.1056064,50.2769479 C42.1056064,49.7899991 42.5548254,49.3928418 43.1056064,49.3928418 L44.1056064,49.3928418 C44.6563874,49.3928418 45.1056064,49.7899991 45.1056064,50.2769479 C45.1056064,50.7638968 44.6563874,51.1610541 44.1056064,51.1610541 Z M44.1056064,44.0882048 L43.1056064,44.0882048 C42.5548254,44.0882048 42.1056064,43.6910475 42.1056064,43.2040986 C42.1056064,42.7171497 42.5548254,42.3199924 43.1056064,42.3199924 L44.1056064,42.3199924 C44.6563874,42.3199924 45.1056064,42.7171497 45.1056064,43.2040986 C45.1056064,43.6910475 44.6563874,44.0882048 44.1056064,44.0882048 Z M44.1056064,37.0153554 L43.1056064,37.0153554 C42.5548254,37.0153554 42.1056064,36.6181981 42.1056064,36.1312492 C42.1056064,35.6443003 42.5548254,35.247143 43.1056064,35.247143 L44.1056064,35.247143 C44.6563874,35.247143 45.1056064,35.6443003 45.1056064,36.1312492 C45.1056064,36.6181981 44.6563874,37.0153554 44.1056064,37.0153554 Z M44.1056064,29.942506 L43.1056064,29.942506 C42.5548254,29.942506 42.1056064,29.5453487 42.1056064,29.0583999 C42.1056064,28.571451 42.5548254,28.1742937 43.1056064,28.1742937 L44.1056064,28.1742937 C44.6563874,28.1742937 45.1056064,28.571451 45.1056064,29.0583999 C45.1056064,29.5453487 44.6563874,29.942506 44.1056064,29.942506 Z" id="report" fill="#000000" fill-rule="nonzero"></path>
            <path d="M32.946047,6.25150428 C31.6547787,6.25150428 27.1056064,6.78245342 27.1056064,12.0919449 L27.1056064,14.2157415 L27.1056064,14.7466906 C27.1056064,15.5519636 27.4582616,16.1253287 27.8180323,16.4401279 C28.0373973,16.6320724 28.1292176,16.6350872 28.2763907,16.6931587 C28.4680417,17.1884397 29.6885722,20.0160896 32.8848636,20.0530712 C32.9051812,20.0552848 32.9256096,20.0562115 32.946047,20.0562115 C32.967176,20.0564046 32.9882995,20.0553659 33.0093048,20.0530712 C36.2040051,20.0148556 37.4240949,17.1883298 37.6157033,16.6931587 C37.7628766,16.6350872 37.8546968,16.6320724 38.0740616,16.4401279 C38.4338322,16.1253287 38.7864876,15.5519636 38.7864876,14.7466906 L38.7864876,13.6847923 L38.7864876,12.0919449 C38.7864876,9.96814829 37.7245893,7.31340257 35.6007927,7.31340257 C35.6007927,7.31340257 35.0698436,6.25150428 32.946047,6.25150428 Z M35.6007927,9.43719915 C35.6007927,9.43719915 37.1936401,10.9026188 37.1936401,14.2157415 L37.7245893,14.2157415 L37.7245893,14.7466906 C37.7245893,15.2687904 37.5462955,15.4918491 37.375117,15.6416303 C37.2039384,15.7914116 37.0650506,15.8241441 37.0650506,15.8241441 L36.781947,15.8946605 L36.6896531,16.1715425 C36.6896531,16.1715425 35.7777756,18.9942838 32.946047,18.9942838 C30.1143182,18.9942838 29.2024407,16.1715425 29.2024407,16.1715425 L29.1101468,15.8946605 L28.8270431,15.8241441 C28.8270431,15.8241441 28.6881555,15.7914111 28.5169771,15.6416303 C28.3457986,15.4918491 28.1675047,15.2687904 28.1675047,14.7466906 L28.1675047,14.2157415 L28.6984538,14.2157415 C28.6984538,10.4990974 34.0079453,13.1538432 35.6007927,9.43719915 Z M29.7603521,13.1538432 C29.4671291,13.1538432 29.229403,13.3915693 29.229403,13.6847923 L29.229403,14.7466906 C29.229403,15.620086 29.9488551,16.339538 30.8222504,16.339538 C31.6956458,16.339538 32.4150978,15.620086 32.4150978,14.7466906 L32.4150978,14.2157415 L33.4769961,14.2157415 L33.4769961,14.7466906 C33.4769961,15.620086 34.1964482,16.339538 35.0698436,16.339538 C35.943239,16.339538 36.662691,15.620086 36.662691,14.7466906 L36.662691,13.6847923 C36.662691,13.3915693 36.4249648,13.1538432 36.1317419,13.1538432 L34.0079453,13.1538432 L31.8841487,13.1538432 L29.7603521,13.1538432 Z M30.2913013,14.2157415 L31.3531995,14.2157415 L31.3531995,14.7466906 C31.3531995,15.0466928 31.1222526,15.2776397 30.8222504,15.2776397 C30.5222482,15.2776397 30.2913013,15.0466928 30.2913013,14.7466906 L30.2913013,14.2157415 Z M34.5388944,14.2157415 L35.6007927,14.2157415 L35.6007927,14.7466906 C35.6007927,15.0466928 35.3698458,15.2776397 35.0698436,15.2776397 C34.7698414,15.2776397 34.5388944,15.0466928 34.5388944,14.7466906 L34.5388944,14.2157415 Z" id="informant-small" fill="#000000" fill-rule="nonzero"></path>
        </g>
    </g>
</svg>