<?xml version="1.0" encoding="UTF-8"?>
<svg width="66px" height="67px" viewBox="0 0 66 67" version="1.1" xmlns="http://www.w3.org/2000/svg" xmlns:xlink="http://www.w3.org/1999/xlink">
    <title>get_sundered_data</title>
    <g id="All-Icons" stroke="none" stroke-width="1" fill="none" fill-rule="evenodd">
        <g id="get_sundered_data" transform="translate(0.000000, 0.413793)">
            <path d="M56,1 C58.4852814,1 60.7352814,2.00735931 62.363961,3.63603897 C63.9926407,5.26471863 65,7.51471863 65,10 L65,10 L65,65 L10,65 C7.51471863,65 5.26471863,63.9926407 3.63603897,62.363961 C2.00735931,60.7352814 1,58.4852814 1,56 L1,56 L1,10 C1,7.51471863 2.00735931,5.26471863 3.63603897,3.63603897 C5.26471863,2.00735931 7.51471863,1 10,1 L10,1 Z" id="rectangle" stroke="#000000" stroke-width="2" fill="#FFFFFF"></path>
            <path d="M53,52 C52.4477153,52 52,52.4477153 52,53 C52,53.5522847 52.4477153,54 53,54 C53.5522847,54 54,53.5522847 54,53 C54,52.4477153 53.5522847,52 53,52 Z M53,28 C52.4477153,28 52,28.4477153 52,29 C52,29.5522847 52.4477153,30 53,30 C53.5522847,30 54,29.5522847 54,29 C54,28.4477153 53.5522847,28 53,28 Z M53,32 C52.4477153,32 52,32.4477153 52,33 C52,33.5522847 52.4477153,34 53,34 C53.5522847,34 54,33.5522847 54,33 C54,32.4477153 53.5522847,32 53,32 Z M53,36 C52.4477153,36 52,36.4477153 52,37 C52,37.5522847 52.4477153,38 53,38 C53.5522847,38 54,37.5522847 54,37 C54,36.4477153 53.5522847,36 53,36 Z M53,40 C52.4477153,40 52,40.4477153 52,41 C52,41.5522847 52.4477153,42 53,42 C53.5522847,42 54,41.5522847 54,41 C54,40.4477153 53.5522847,40 53,40 Z M53,44 C52.4477153,44 52,44.4477153 52,45 C52,45.5522847 52.4477153,46 53,46 C53.5522847,46 54,45.5522847 54,45 C54,44.4477153 53.5522847,44 53,44 Z M53,48 C52.4477153,48 52,48.4477153 52,49 C52,49.5522847 52.4477153,50 53,50 C53.5522847,50 54,49.5522847 54,49 C54,48.4477153 53.5522847,48 53,48 Z M33,52 C32.4477153,52 32,52.4477153 32,53 C32,53.5522847 32.4477153,54 33,54 C33.5522847,54 34,53.5522847 34,53 C34,52.4477153 33.5522847,52 33,52 Z M33,28 C32.4477153,28 32,28.4477153 32,29 C32,29.5522847 32.4477153,30 33,30 C33.5522847,30 34,29.5522847 34,29 C34,28.4477153 33.5522847,28 33,28 Z M33,32 C32.4477153,32 32,32.4477153 32,33 C32,33.5522847 32.4477153,34 33,34 C33.5522847,34 34,33.5522847 34,33 C34,32.4477153 33.5522847,32 33,32 Z M33,36 C32.4477153,36 32,36.4477153 32,37 C32,37.5522847 32.4477153,38 33,38 C33.5522847,38 34,37.5522847 34,37 C34,36.4477153 33.5522847,36 33,36 Z M33,40 C32.4477153,40 32,40.4477153 32,41 C32,41.5522847 32.4477153,42 33,42 C33.5522847,42 34,41.5522847 34,41 C34,40.4477153 33.5522847,40 33,40 Z M33,44 C32.4477153,44 32,44.4477153 32,45 C32,45.5522847 32.4477153,46 33,46 C33.5522847,46 34,45.5522847 34,45 C34,44.4477153 33.5522847,44 33,44 Z M33,48 C32.4477153,48 32,48.4477153 32,49 C32,49.5522847 32.4477153,50 33,50 C33.5522847,50 34,49.5522847 34,49 C34,48.4477153 33.5522847,48 33,48 Z M49,39 C48.4477153,39 48,39.4477153 48,40 C48,40.5522847 48.4477153,41 49,41 C49.5522847,41 50,40.5522847 50,40 C50,39.4477153 49.5522847,39 49,39 Z M45,39 C44.4477153,39 44,39.4477153 44,40 C44,40.5522847 44.4477153,41 45,41 C45.5522847,41 46,40.5522847 46,40 C46,39.4477153 45.5522847,39 45,39 Z M41,39 C40.4477153,39 40,39.4477153 40,40 C40,40.5522847 40.4477153,41 41,41 C41.5522847,41 42,40.5522847 42,40 C42,39.4477153 41.5522847,39 41,39 Z M37,39 C36.4477153,39 36,39.4477153 36,40 C36,40.5522847 36.4477153,41 37,41 C37.5522847,41 38,40.5522847 38,40 C38,39.4477153 37.5522847,39 37,39 Z M29,39 C28.4477153,39 28,39.4477153 28,40 C28,40.5522847 28.4477153,41 29,41 C29.5522847,41 30,40.5522847 30,40 C30,39.4477153 29.5522847,39 29,39 Z M25,39 C24.4477153,39 24,39.4477153 24,40 C24,40.5522847 24.4477153,41 25,41 C25.5522847,41 26,40.5522847 26,40 C26,39.4477153 25.5522847,39 25,39 Z M21,39 C20.4477153,39 20,39.4477153 20,40 C20,40.5522847 20.4477153,41 21,41 C21.5522847,41 22,40.5522847 22,40 C22,39.4477153 21.5522847,39 21,39 Z M17,39 C16.4477153,39 16,39.4477153 16,40 C16,40.5522847 16.4477153,41 17,41 C17.5522847,41 18,40.5522847 18,40 C18,39.4477153 17.5522847,39 17,39 Z M49,52 C48.4477153,52 48,52.4477153 48,53 C48,53.5522847 48.4477153,54 49,54 C49.5522847,54 50,53.5522847 50,53 C50,52.4477153 49.5522847,52 49,52 Z M45,52 C44.4477153,52 44,52.4477153 44,53 C44,53.5522847 44.4477153,54 45,54 C45.5522847,54 46,53.5522847 46,53 C46,52.4477153 45.5522847,52 45,52 Z M41,52 C40.4477153,52 40,52.4477153 40,53 C40,53.5522847 40.4477153,54 41,54 C41.5522847,54 42,53.5522847 42,53 C42,52.4477153 41.5522847,52 41,52 Z M37,52 C36.4477153,52 36,52.4477153 36,53 C36,53.5522847 36.4477153,54 37,54 C37.5522847,54 38,53.5522847 38,53 C38,52.4477153 37.5522847,52 37,52 Z M13,52 C12.4477153,52 12,52.4477153 12,53 C12,53.5522847 12.4477153,54 13,54 C13.5522847,54 14,53.5522847 14,53 C14,52.4477153 13.5522847,52 13,52 Z M13,28 C12.4477153,28 12,28.4477153 12,29 C12,29.5522847 12.4477153,30 13,30 C13.5522847,30 14,29.5522847 14,29 C14,28.4477153 13.5522847,28 13,28 Z M13,32 C12.4477153,32 12,32.4477153 12,33 C12,33.5522847 12.4477153,34 13,34 C13.5522847,34 14,33.5522847 14,33 C14,32.4477153 13.5522847,32 13,32 Z M13,36 C12.4477153,36 12,36.4477153 12,37 C12,37.5522847 12.4477153,38 13,38 C13.5522847,38 14,37.5522847 14,37 C14,36.4477153 13.5522847,36 13,36 Z M13,40 C12.4477153,40 12,40.4477153 12,41 C12,41.5522847 12.4477153,42 13,42 C13.5522847,42 14,41.5522847 14,41 C14,40.4477153 13.5522847,40 13,40 Z M13,44 C12.4477153,44 12,44.4477153 12,45 C12,45.5522847 12.4477153,46 13,46 C13.5522847,46 14,45.5522847 14,45 C14,44.4477153 13.5522847,44 13,44 Z M13,48 C12.4477153,48 12,48.4477153 12,49 C12,49.5522847 12.4477153,50 13,50 C13.5522847,50 14,49.5522847 14,49 C14,48.4477153 13.5522847,48 13,48 Z M17,52 C16.4477153,52 16,52.4477153 16,53 C16,53.5522847 16.4477153,54 17,54 C17.5522847,54 18,53.5522847 18,53 C18,52.4477153 17.5522847,52 17,52 Z M21,52 C20.4477153,52 20,52.4477153 20,53 C20,53.5522847 20.4477153,54 21,54 C21.5522847,54 22,53.5522847 22,53 C22,52.4477153 21.5522847,52 21,52 Z M25,52 C24.4477153,52 24,52.4477153 24,53 C24,53.5522847 24.4477153,54 25,54 C25.5522847,54 26,53.5522847 26,53 C26,52.4477153 25.5522847,52 25,52 Z M29,52 C28.4477153,52 28,52.4477153 28,53 C28,53.5522847 28.4477153,54 29,54 C29.5522847,54 30,53.5522847 30,53 C30,52.4477153 29.5522847,52 29,52 Z M12,12 L32,12 L32,26 L12,26 L12,12 Z M34,12 L54,12 L54,26 L34,26 L34,12 Z" id="sundered-rows" fill="#000000" fill-rule="nonzero"></path>
        </g>
    </g>
</svg>