<?xml version="1.0" encoding="UTF-8"?>
<svg width="67px" height="67px" viewBox="0 0 67 67" version="1.1" xmlns="http://www.w3.org/2000/svg" xmlns:xlink="http://www.w3.org/1999/xlink">
    <title>incorporate</title>
    <g id="All-Icons" stroke="none" stroke-width="1" fill="none" fill-rule="evenodd">
        <g id="incorporate" transform="translate(0.000000, 0.482759)">
            <path d="M56.712234,1 C59.1975153,1 61.4475153,2.00735931 63.076195,3.63603897 C64.7048747,5.26471863 65.712234,7.51471863 65.712234,10 L65.712234,10 L65.712234,65 L10.712234,65 C8.22695259,65 5.97695259,63.9926407 4.34827294,62.363961 C2.71959328,60.7352814 1.71223397,58.4852814 1.71223397,56 L1.71223397,56 L1.71223397,10 C1.71223397,7.51471863 2.71959328,5.26471863 4.34827294,3.63603897 C5.97695259,2.00735931 8.22695259,1 10.712234,1 L10.712234,1 Z" id="rectangle" stroke="#000000" stroke-width="2" fill="#FFFFFF"></path>
            <path d="M53.712234,26 L42.126234,26 L39.570234,28.555 L38.156234,27.141 L40.712234,24.585 L40.712234,13 C40.712234,12.448 40.265234,12 39.712234,12 L13.712234,12 C13.160234,12 12.712234,12.448 12.712234,13 L12.712234,39 C12.712234,39.553 13.160234,40 13.712234,40 L25.298234,40 L27.853234,37.445 L29.268234,38.859 L26.712234,41.415 L26.712234,53 C26.712234,53.553 27.160234,54 27.712234,54 L53.712234,54 C54.265234,54 54.712234,53.553 54.712234,53 L54.712234,27 C54.712234,26.448 54.265234,26 53.712234,26 Z M18.712234,29 L18.712234,27 L26.298234,27 L17.005234,17.707 L18.419234,16.293 L27.712234,25.586 L27.712234,18 L29.712234,18 L29.712234,29 L18.712234,29 Z M30.570234,37.556 L29.156234,36.142 L30.853234,34.446 L32.267234,35.86 L30.570234,37.556 Z M33.570234,34.555 L32.156234,33.141 L33.853234,31.444 L35.267234,32.858 L33.570234,34.555 Z M35.156234,30.141 L36.853234,28.444 L38.267234,29.858 L36.570234,31.555 L35.156234,30.141 Z M49.005234,49.707 L39.712234,40.414 L39.712234,48 L37.712234,48 L37.712234,37 L48.712234,37 L48.712234,39 L41.126234,39 L50.419234,48.293 L49.005234,49.707 Z" id="merging" fill="#000000" fill-rule="nonzero"></path>
        </g>
    </g>
</svg>