<?xml version="1.0" encoding="UTF-8"?>
<svg width="67px" height="67px" viewBox="0 0 67 67" version="1.1" xmlns="http://www.w3.org/2000/svg" xmlns:xlink="http://www.w3.org/1999/xlink">
    <title>info_columns_from_tbl</title>
    <g id="All-Icons" stroke="none" stroke-width="1" fill="none" fill-rule="evenodd">
        <g id="info_columns_from_tbl" transform="translate(0.000000, 0.655172)">
            <path d="M56.2198144,1 C58.7050957,1 60.9550957,2.00735931 62.5837754,3.63603897 C64.212455,5.26471863 65.2198144,7.51471863 65.2198144,10 L65.2198144,10 L65.2198144,65 L10.2198144,65 C7.73453298,65 5.48453298,63.9926407 3.85585333,62.363961 C2.22717367,60.7352814 1.21981436,58.4852814 1.21981436,56 L1.21981436,56 L1.21981436,10 C1.21981436,7.51471863 2.22717367,5.26471863 3.85585333,3.63603897 C5.48453298,2.00735931 7.73453298,1 10.2198144,1 L10.2198144,1 Z" id="rectangle" stroke="#000000" stroke-width="2" fill="#FFFFFF"></path>
            <path d="M11.6567383,13.1767927 C11.2007572,13.1767927 10.8310772,13.6015628 10.8310772,14.1254948 L10.8310772,52.073577 C10.8310772,52.597509 11.2007572,53.022279 11.6567383,53.022279 L44.6831832,53.022279 C45.1391643,53.022279 45.5088443,52.597509 45.5088443,52.073577 L45.5088443,14.1254948 C45.5088443,13.6015628 45.1391643,13.1767927 44.6831832,13.1767927 L11.6567383,13.1767927 Z M12.4823995,15.0741969 L27.3442996,15.0741969 L27.3442996,51.1248749 L12.4823995,51.1248749 L12.4823995,15.0741969 Z M28.9956219,15.0741969 L43.857522,15.0741969 L43.857522,51.1248749 L28.9956219,51.1248749 L28.9956219,15.0741969 Z" id="Shape" fill="#000000" fill-rule="nonzero"></path>
            <rect id="Rectangle" fill="#FFFFFF" x="29.8960036" y="28.7107104" width="29.5997902" height="30.2662119"></rect>
            <path d="M44.6848939,29.5472691 C44.650774,29.5480175 44.616753,29.5512357 44.5830996,29.5569073 L30.60974,29.5569073 C30.2207776,29.5569462 29.9054709,29.8722528 29.9054321,30.2612152 L29.9054321,39.2989165 C29.8928608,39.3749757 29.8928608,39.4525828 29.9054321,39.528642 L29.9054321,49.1592276 C29.8928608,49.2352869 29.8928608,49.3128939 29.9054321,49.3889532 L29.9054321,58.4335327 C29.9054709,58.8224951 30.2207776,59.1378018 30.60974,59.1378407 L44.5775969,59.1378407 C44.6536561,59.1504119 44.7312632,59.1504119 44.8073224,59.1378407 L58.7820575,59.1378407 C59.1710199,59.1378018 59.4863266,58.8224951 59.4863654,58.4335327 L59.4863654,49.3958314 C59.4989367,49.3197722 59.4989367,49.2421651 59.4863654,49.1661059 L59.4863654,39.5355203 C59.4989367,39.4594611 59.4989367,39.381854 59.4863654,39.3057948 L59.4863654,30.2612152 C59.4863266,29.8722528 59.1710199,29.5569462 58.7820575,29.5569073 L44.8045714,29.5569073 C44.7650256,29.5502973 44.7249878,29.5472691 44.6848939,29.5472691 Z M31.3140479,30.9655231 L43.9915908,30.9655231 L43.9915908,38.7129105 L31.3140479,38.7129105 L31.3140479,30.9655231 Z M45.4002067,30.9655231 L58.0777496,30.9655231 L58.0777496,38.7129105 L45.4002067,38.7129105 L45.4002067,30.9655231 Z M31.3140479,40.1215263 L43.9915908,40.1215263 L43.9915908,48.5732216 L31.3140479,48.5732216 L31.3140479,40.1215263 Z M45.4002067,40.1215263 L58.0777496,40.1215263 L58.0777496,48.5732216 L45.4002067,48.5732216 L45.4002067,40.1215263 Z M31.3140479,49.9818375 L43.9915908,49.9818375 L43.9915908,57.7292248 L31.3140479,57.7292248 L31.3140479,49.9818375 Z M45.4002067,49.9818375 L58.0777496,49.9818375 L58.0777496,57.7292248 L45.4002067,57.7292248 L45.4002067,49.9818375 Z" id="table" fill="#9013FE" fill-rule="nonzero"></path>
            <g id="info_small" transform="translate(41.525853, 17.380195)" fill="#000000" fill-rule="nonzero">
                <path d="M7.5,0 C3.358125,0 0,3.358125 0,7.5 C0,11.641875 3.358125,15 7.5,15 C11.641875,15 15,11.641875 15,7.5 C15,3.358125 11.641875,0 7.5,0 Z M8.125,11.25 L6.875,11.25 L6.875,6.875 L8.125,6.875 L8.125,11.25 Z M7.5,5.3125 C6.9825,5.3125 6.5625,4.8925 6.5625,4.375 C6.5625,3.8575 6.9825,3.4375 7.5,3.4375 C8.0175,3.4375 8.4375,3.8575 8.4375,4.375 C8.4375,4.8925 8.0175,5.3125 7.5,5.3125 Z" id="Shape"></path>
            </g>
        </g>
    </g>
</svg>