<?xml version="1.0" encoding="UTF-8"?>
<svg width="67px" height="67px" viewBox="0 0 67 67" version="1.1" xmlns="http://www.w3.org/2000/svg" xmlns:xlink="http://www.w3.org/1999/xlink">
    <title>info_snippet</title>
    <g id="All-Icons" stroke="none" stroke-width="1" fill="none" fill-rule="evenodd">
        <g id="info_snippet" transform="translate(0.000000, 0.620690)">
            <path d="M56.5170885,1 C59.0023699,1 61.2523699,2.00735931 62.8810496,3.63603897 C64.5097292,5.26471863 65.5170885,7.51471863 65.5170885,10 L65.5170885,10 L65.5170885,65 L10.5170885,65 C8.03180718,65 5.78180718,63.9926407 4.15312752,62.363961 C2.52444786,60.7352814 1.51708855,58.4852814 1.51708855,56 L1.51708855,56 L1.51708855,10 C1.51708855,7.51471863 2.52444786,5.26471863 4.15312752,3.63603897 C5.78180718,2.00735931 8.03180718,1 10.5170885,1 L10.5170885,1 Z" id="rectangle" stroke="#000000" stroke-width="2" fill="#FFFFFF"></path>
            <g id="info_small" transform="translate(38.876719, 9.236336)" fill="#000000" fill-rule="nonzero">
                <path d="M9.65775997,0 C4.32426203,0 0,4.32426203 0,9.65775997 C0,14.9912579 4.32426203,19.3155199 9.65775997,19.3155199 C14.9912579,19.3155199 19.3155199,14.9912579 19.3155199,9.65775997 C19.3155199,4.32426203 14.9912579,0 9.65775997,0 Z M10.4625733,14.48664 L8.85294664,14.48664 L8.85294664,8.85294664 L10.4625733,8.85294664 L10.4625733,14.48664 Z M9.65775997,6.84091331 C8.99137453,6.84091331 8.45053997,6.30007875 8.45053997,5.63369332 C8.45053997,4.96730788 8.99137453,4.42647332 9.65775997,4.42647332 C10.3241454,4.42647332 10.86498,4.96730788 10.86498,5.63369332 C10.86498,6.30007875 10.3241454,6.84091331 9.65775997,6.84091331 Z" id="Shape"></path>
            </g>
            <path d="M17.7670885,11.1888634 C17.5952135,11.1810514 17.4194325,11.2005824 17.2358385,11.2513634 L16.2670885,11.5326134 L16.5483385,12.5013634 L20.0170885,24.5951134 L9.07958855,17.3763634 L8.26708855,16.8451134 L7.70458855,17.6263634 C7.38427655,18.0794884 7.37255755,18.6341764 7.45458855,19.0638634 C7.53661955,19.4935514 7.69677655,19.8958944 7.92333855,20.3138634 C8.37646355,21.1498014 9.08349455,22.0677694 9.95458855,23.0951134 C11.6967765,25.1458944 14.1381825,27.5560514 16.6420885,29.9076134 C20.6459945,33.6693324 24.0834945,36.5990194 25.5795885,37.8763634 C25.5874015,37.8841764 25.6030265,37.8998014 25.6108385,37.9076134 C25.6186515,37.9271444 25.6303695,37.9505824 25.6420885,37.9701134 C25.6811515,38.0169884 25.7202135,38.0560514 25.7670885,38.0951134 C26.7436515,39.0716764 27.1264635,39.7044884 27.3295885,40.5326134 C27.5327135,41.3607384 27.5170885,42.4857384 27.5170885,44.2201134 C27.5170885,45.8099574 28.2006825,47.7396444 28.6108385,48.6263634 C29.5131825,50.5794884 30.9233385,52.6498014 32.3608385,54.4076134 C33.7983385,56.1654264 35.1928695,57.6029264 36.3295885,58.3138634 C37.2827135,58.9115194 38.3920885,59.2201134 39.5170885,59.2201134 C41.5874015,59.2201134 43.5131825,58.1615194 44.6108385,56.4076134 C46.3452135,53.6419884 45.4975575,49.9740194 42.7983385,48.2201134 C42.7905265,48.2162074 42.8061515,48.1927694 42.7983385,48.1888634 C42.7983385,48.1888634 42.7397445,48.1615194 42.7358385,48.1576134 C42.6499015,48.0873014 42.0600575,47.5599574 41.4858385,46.9076134 C40.8881825,46.2279264 40.2670885,45.3646444 39.9545885,44.6888634 C39.1616195,42.9740194 37.6928695,41.4583944 35.6420885,41.2201134 L35.5170885,41.2201134 C34.4389635,41.2201134 33.7475575,40.6224574 33.2358385,39.9076134 C33.1772445,39.8255824 33.1303695,39.7396444 33.0795885,39.6576134 C33.1030265,39.6615194 33.1186515,39.6537074 33.1420885,39.6576134 C36.1655265,40.0443324 39.6069325,40.8919884 40.8608385,41.9701134 C42.5483385,43.4193324 43.7280265,44.2279264 44.7670885,44.6888634 C45.8061515,45.1498014 46.6889635,45.2201134 47.5170885,45.2201134 C50.8178695,45.2201134 53.5170885,42.5208944 53.5170885,39.2201134 C53.5170885,35.9193324 50.8178695,33.2201134 47.5170885,33.2201134 C44.7670885,33.2201134 42.8530265,34.7005824 42.2983385,35.1576134 C42.1889635,35.1380824 42.1108385,35.1341764 41.8295885,35.0638634 C41.4155265,34.9583944 40.8569325,34.8138634 40.2358385,34.6263634 C38.9897445,34.2552694 37.4350575,33.7513634 35.9233385,33.2513634 C32.9311515,32.2630824 30.1733385,31.3060514 30.1108385,31.2826134 C30.1108385,31.2826134 30.0483385,31.2513634 30.0483385,31.2513634 L29.4545885,30.8763634 C29.4545885,30.8646444 29.4545885,30.8568324 29.4545885,30.8451134 L29.4233385,30.8138634 C27.7045885,26.8216764 25.4780265,21.9115194 23.3920885,18.0326134 C22.3491195,16.0951134 21.3452135,14.4310514 20.4233385,13.2201134 C19.9624015,12.6146444 19.5522445,12.1185514 19.0795885,11.7513634 C18.7241195,11.4740194 18.2788075,11.2162074 17.7670885,11.1888634 Z M19.5170885,15.5638634 C20.1811515,16.5560514 20.8764635,17.5755824 21.6420885,19.0013634 C23.2202135,21.9349574 24.9155265,25.5013634 26.3920885,28.8138634 L22.5170885,26.2826134 C22.5249015,26.1654264 22.5170885,26.0521444 22.4858385,25.9388634 L19.5170885,15.5638634 Z M10.9233385,21.0013634 L29.1733385,33.0326134 L29.2670885,33.0951134 L29.3920885,33.1576134 C29.3920885,33.1576134 32.2514635,34.1498014 35.2983385,35.1576134 C36.8217765,35.6615194 38.3959945,36.1810514 39.6733385,36.5638634 C40.3139635,36.7552694 40.8959945,36.9154264 41.3608385,37.0326134 C41.8256825,37.1498014 42.0991195,37.2201134 42.5170885,37.2201134 L42.8920885,37.2201134 L43.1733385,36.9701134 C43.1733385,36.9701134 45.3295885,35.2201134 47.5170885,35.2201134 C49.7358385,35.2201134 51.5170885,37.0013634 51.5170885,39.2201134 C51.5170885,41.4388634 49.7358385,43.2201134 47.5170885,43.2201134 C46.7553695,43.2201134 46.3178695,43.2044884 45.5795885,42.8763634 C44.8530265,42.5521444 43.8061515,41.8451134 42.2358385,40.5013634 L42.1733385,40.4701134 C40.1225575,38.7083944 36.5444325,38.0599574 33.3920885,37.6576134 C30.4741195,37.2865194 28.3178695,37.2591764 27.9545885,37.2513634 C27.7397445,37.0716764 22.8647445,33.0208944 18.0170885,28.4701134 C15.5405265,26.1458944 13.1342765,23.7240194 11.4858385,21.7826134 C11.2241195,21.4740194 11.1420885,21.2826134 10.9233385,21.0013634 Z M27.5170885,33.2201134 C26.9663075,33.2201134 26.5170885,33.6693324 26.5170885,34.2201134 C26.5170885,34.7708944 26.9663075,35.2201134 27.5170885,35.2201134 C28.0678695,35.2201134 28.5170885,34.7708944 28.5170885,34.2201134 C28.5170885,33.6693324 28.0678695,33.2201134 27.5170885,33.2201134 Z M47.5170885,36.2201134 C45.8725575,36.2201134 44.5170885,37.5755824 44.5170885,39.2201134 C44.5170885,40.8646444 45.8725575,42.2201134 47.5170885,42.2201134 C49.1616195,42.2201134 50.5170885,40.8646444 50.5170885,39.2201134 C50.5170885,37.5755824 49.1616195,36.2201134 47.5170885,36.2201134 Z M47.5170885,38.2201134 C48.0795885,38.2201134 48.5170885,38.6576134 48.5170885,39.2201134 C48.5170885,39.7826134 48.0795885,40.2201134 47.5170885,40.2201134 C46.9545885,40.2201134 46.5170885,39.7826134 46.5170885,39.2201134 C46.5170885,38.6576134 46.9545885,38.2201134 47.5170885,38.2201134 Z M29.0170885,39.2826134 C29.5249015,39.3099574 30.0327135,39.3490194 30.7358385,39.4076134 C30.8608385,39.7708944 31.0991195,40.3529264 31.6108385,41.0638634 C32.3217765,42.0521444 33.6069325,43.1341764 35.3920885,43.1888634 L35.3920885,43.2201134 C36.5639635,43.3568324 37.5600575,44.2708944 38.1420885,45.5326134 C38.5991195,46.5208944 39.3139635,47.4544884 39.9858385,48.2201134 C40.6577135,48.9857384 41.2163075,49.5052694 41.6420885,49.8138634 L41.6420885,49.8451134 L41.6733385,49.8451134 C43.5014635,50.9935514 44.0678695,53.4701134 42.8920885,55.3451134 C42.1499015,56.5287074 40.9116195,57.2201134 39.5170885,57.2201134 C38.7670885,57.2201134 38.0327135,56.9935514 37.3920885,56.5951134 C36.7045885,56.1615194 35.2749015,54.8099574 33.9233385,53.1576134 C32.5678695,51.4974574 31.2163075,49.5248014 30.4233385,47.8138634 C30.2124015,47.3568324 29.5170885,45.0482384 29.5170885,44.2201134 C29.5170885,42.4974574 29.5600575,41.2591764 29.2670885,40.0638634 C29.2006825,39.7982384 29.1225575,39.5365194 29.0170885,39.2826134 Z M34.5170885,44.2201134 C34.0795885,44.2201134 33.6616195,44.3177694 33.2670885,44.5013634 C32.5483385,44.8333944 31.9780265,45.4427694 31.7045885,46.1888634 C31.4311515,46.9349574 31.4663075,47.7513634 31.7983385,48.4701134 C32.5795885,50.1615194 33.7475575,51.7552694 34.8920885,53.0326134 C36.0366195,54.3099574 37.1108385,55.2435514 37.9233385,55.7513634 C38.3999015,56.0521444 38.9545885,56.2201134 39.5170885,56.2201134 C40.5483385,56.2201134 41.5014635,55.6888634 42.0483385,54.8138634 C42.9233385,53.4193324 42.5014635,51.5638634 41.1108385,50.6888634 C40.9975575,50.6185514 40.1264635,49.8958944 39.3295885,49.0013634 C38.5327135,48.1068324 37.7045885,46.9779264 37.2358385,45.9701134 C36.7475575,44.9076134 35.6850575,44.2201134 34.5170885,44.2201134 Z M34.5170885,46.2201134 C34.9038075,46.2201134 35.2631825,46.4623014 35.4233385,46.8138634 C36.0249015,48.1185514 36.9467765,49.3255824 37.8295885,50.3138634 C38.7124015,51.3021444 39.4545885,52.0052694 40.0483385,52.3763634 C40.5249015,52.6771444 40.6577135,53.2748014 40.3608385,53.7513634 C40.1733385,54.0521444 39.8725575,54.2201134 39.5170885,54.2201134 C39.3256825,54.2201134 39.1420885,54.1615194 38.9858385,54.0638634 C38.4936515,53.7552694 37.4077135,52.8568324 36.3608385,51.6888634 C35.3139635,50.5208944 34.2709945,49.0560514 33.6108385,47.6263634 C33.4936515,47.3763634 33.4858385,47.1341764 33.5795885,46.8763634 C33.6733385,46.6185514 33.8334945,46.4271444 34.0795885,46.3138634 L34.1108385,46.3138634 C34.2475575,46.2513634 34.3686515,46.2201134 34.5170885,46.2201134 Z" id="scissors" fill="#000000" fill-rule="nonzero"></path>
        </g>
    </g>
</svg>