<?xml version="1.0" encoding="UTF-8"?>
<svg width="67px" height="67px" viewBox="0 0 67 67" version="1.1" xmlns="http://www.w3.org/2000/svg" xmlns:xlink="http://www.w3.org/1999/xlink">
    <title>info_tabular</title>
    <g id="All-Icons" stroke="none" stroke-width="1" fill="none" fill-rule="evenodd">
        <g id="info_tabular" transform="translate(0.000000, 0.689655)">
            <path d="M56.9632807,1 C59.4485621,1 61.6985621,2.00735931 63.3272417,3.63603897 C64.9559214,5.26471863 65.9632807,7.51471863 65.9632807,10 L65.9632807,10 L65.9632807,65 L10.9632807,65 C8.47799933,65 6.22799933,63.9926407 4.59931968,62.363961 C2.97064002,60.7352814 1.96328071,58.4852814 1.96328071,56 L1.96328071,56 L1.96328071,10 C1.96328071,7.51471863 2.97064002,5.26471863 4.59931968,3.63603897 C6.22799933,2.00735931 8.47799933,1 10.9632807,1 L10.9632807,1 Z" id="rectangle" stroke="#000000" stroke-width="2" fill="#FFFFFF"></path>
            <path d="M28.2654904,11.9863154 C28.2233187,11.987378 28.1812691,11.9919474 28.1396739,12 L10.8687821,12 C10.3880296,12.0000552 9.99831469,12.4477381 9.99826662,13 L9.99826662,25.832031 C9.98272875,25.9400224 9.98272875,26.0502116 9.99826662,26.158203 L9.99826662,39.832031 C9.98272875,39.9400224 9.98272875,40.0502116 9.99826662,40.158203 L9.99826662,53 C9.99831469,53.5522619 10.3880296,53.9999448 10.8687821,54 L28.1328726,54 C28.2268808,54.017849 28.3228022,54.017849 28.4168104,54 L45.6894023,54 C46.1701549,53.9999448 46.5598698,53.5522619 46.5599178,53 L46.5599178,40.167969 C46.5754557,40.0599776 46.5754557,39.9497884 46.5599178,39.841797 L46.5599178,26.167969 C46.5754557,26.0599776 46.5754557,25.9497884 46.5599178,25.841797 L46.5599178,13 C46.5598698,12.4477381 46.1701549,12.0000552 45.6894023,12 L28.4134102,12 C28.3645322,11.9906149 28.3150459,11.9863154 28.2654904,11.9863154 Z M11.7392976,14 L27.4085767,14 L27.4085767,25 L11.7392976,25 L11.7392976,14 Z M29.1496077,14 L44.8188868,14 L44.8188868,25 L29.1496077,25 L29.1496077,14 Z M11.7392976,27 L27.4085767,27 L27.4085767,39 L11.7392976,39 L11.7392976,27 Z M29.1496077,27 L44.8188868,27 L44.8188868,39 L29.1496077,39 L29.1496077,27 Z M11.7392976,41 L27.4085767,41 L27.4085767,52 L11.7392976,52 L11.7392976,41 Z M29.1496077,41 L44.8188868,41 L44.8188868,52 L29.1496077,52 L29.1496077,41 Z" id="Shape" fill="#000000" fill-rule="nonzero"></path>
            <g id="info_small" transform="translate(36.000000, 21.000000)" fill="#000000" fill-rule="nonzero">
                <path d="M12,0 C5.373,0 0,5.373 0,12 C0,18.627 5.373,24 12,24 C18.627,24 24,18.627 24,12 C24,5.373 18.627,0 12,0 Z M13,18 L11,18 L11,11 L13,11 L13,18 Z M12,8.5 C11.172,8.5 10.5,7.828 10.5,7 C10.5,6.172 11.172,5.5 12,5.5 C12.828,5.5 13.5,6.172 13.5,7 C13.5,7.828 12.828,8.5 12,8.5 Z" id="Shape"></path>
            </g>
        </g>
    </g>
</svg>