<?xml version="1.0" encoding="UTF-8"?>
<svg width="64px" height="65px" viewBox="0 0 64 65" version="1.1" xmlns="http://www.w3.org/2000/svg" xmlns:xlink="http://www.w3.org/1999/xlink">
    <title>log4r_step</title>
    <g id="All-Icons" stroke="none" stroke-width="1" fill="none" fill-rule="evenodd">
        <g id="log4r_step" transform="translate(0.000000, 0.034483)">
            <path d="M54,1 C56.4852814,1 58.7352814,2.00735931 60.363961,3.63603897 C61.9926407,5.26471863 63,7.51471863 63,10 L63,10 L63,63 L10,63 C7.51471863,63 5.26471863,61.9926407 3.63603897,60.363961 C2.00735931,58.7352814 1,56.4852814 1,54 L1,54 L1,10 C1,7.51471863 2.00735931,5.26471863 3.63603897,3.63603897 C5.26471863,2.00735931 7.51471863,1 10,1 L10,1 Z" id="rectangle" stroke="#000000" stroke-width="2" fill="#FFFFFF"></path>
            <path d="M43.0071212,6 C41.9071212,6 41.3067302,7.2 41.1067302,7.5 L32.2063402,23.599609 C32.1063402,23.699609 32.1067302,23.899609 32.1067302,24.099609 C32.1067302,25.099609 33.0071212,26 34.0071212,26 L52.1067302,26 C53.1067302,26 54.0071213,25.199609 54.0071213,24.099609 C54.0071213,23.899609 54.0075122,23.799609 53.9075122,23.599609 L44.9075122,7.5996094 C44.7075122,7.1996094 44.1071212,6 43.0071212,6 Z M43.0071212,8.1992188 C43.0071212,8.2992188 43.1067302,8.4003906 43.1067302,8.4003906 L51.8079022,24 L34.3079022,24 L42.9075122,8.4003906 C42.9075122,8.4003906 43.0071212,8.2992187 43.0071212,8.1992188 Z M15.0071212,10 C13.3531212,10 12.0071212,11.346 12.0071212,13 L12.0071212,18 L11.0071212,18 C10.6464853,17.9948997 10.3110399,18.1843753 10.1292335,18.4958728 C9.94742715,18.8073704 9.94742715,19.1926296 10.1292335,19.5041272 C10.3110399,19.8156247 10.6464853,20.0051003 11.0071212,20 L15.0071212,20 C15.3677571,20.0051003 15.7032026,19.8156247 15.885009,19.5041272 C16.0668153,19.1926296 16.0668153,18.8073704 15.885009,18.4958728 C15.7032026,18.1843753 15.3677571,17.9948997 15.0071212,18 L14.0071212,18 L14.0071212,13 C14.0071212,12.448 14.4561212,12 15.0071212,12 L36.3391522,12 L37.4465742,10 L15.0071212,10 Z M42.2063402,13 C42.1063402,13 42.0071212,13.0992187 42.0071212,13.1992188 L42.0071212,18.800781 C42.0071212,18.900781 42.1063402,19 42.2063402,19 L43.8079022,19 C43.9079022,19 44.0071212,18.900781 44.0071212,18.800781 L44.0071212,13.1992188 C44.0071212,13.0992187 43.9079022,13 43.8079022,13 L42.2063402,13 Z M12.0071212,21 L12.0071212,24 L11.0071212,24 C10.6464853,23.9948997 10.3110399,24.1843753 10.1292335,24.4958728 C9.94742715,24.8073704 9.94742715,25.1926296 10.1292335,25.5041272 C10.3110399,25.8156247 10.6464853,26.0051003 11.0071212,26 L15.0071212,26 C15.3677571,26.0051003 15.7032026,25.8156247 15.885009,25.5041272 C16.0668153,25.1926296 16.0668153,24.8073704 15.885009,24.4958728 C15.7032026,24.1843753 15.3677571,23.9948997 15.0071212,24 L14.0071212,24 L14.0071212,21 L12.0071212,21 Z M42.2063402,21 C42.1063402,21 42.0071212,21.099219 42.0071212,21.199219 L42.0071212,22.800781 C42.0071212,22.900781 42.1063402,23 42.2063402,23 L43.8079022,23 C43.9079022,23 44.0071212,22.900781 44.0071212,22.800781 L44.0071212,21.199219 C44.0071212,21.099219 43.9079022,21 43.8079022,21 L42.2063402,21 Z M12.0071212,27 L12.0071212,30 L11.0071212,30 C10.6464853,29.9948997 10.3110399,30.1843753 10.1292335,30.4958728 C9.94742715,30.8073704 9.94742715,31.1926296 10.1292335,31.5041272 C10.3110399,31.8156247 10.6464853,32.0051003 11.0071212,32 L15.0071212,32 C15.3677571,32.0051003 15.7032026,31.8156247 15.885009,31.5041272 C16.0668153,31.1926296 16.0668153,30.8073704 15.885009,30.4958728 C15.7032026,30.1843753 15.3677571,29.9948997 15.0071212,30 L14.0071212,30 L14.0071212,27 L12.0071212,27 Z M44.0071212,28 L44.0071212,34.050781 C44.6931212,34.107781 45.3591212,34.225578 46.0071212,34.392578 L46.0071212,28 L44.0071212,28 Z M12.0071212,33 L12.0071212,36 L11.0071212,36 C10.6464853,35.9948997 10.3110399,36.1843753 10.1292335,36.4958728 C9.94742715,36.8073704 9.94742715,37.1926296 10.1292335,37.5041272 C10.3110399,37.8156247 10.6464853,38.0051003 11.0071212,38 L15.0071212,38 C15.3677571,38.0051003 15.7032026,37.8156247 15.885009,37.5041272 C16.0668153,37.1926296 16.0668153,36.8073704 15.885009,36.4958728 C15.7032026,36.1843753 15.3677571,35.9948997 15.0071212,36 L14.0071212,36 L14.0071212,33 L12.0071212,33 Z M43.0071212,36 C37.5071212,36 33.0071212,40.5 33.0071212,46 C33.0071212,51.5 37.5071212,56 43.0071212,56 C48.5071212,56 53.0071212,51.5 53.0071212,46 C53.0071212,40.5 48.5071212,36 43.0071212,36 Z M43.0071212,38 C47.4071212,38 51.0071212,41.6 51.0071212,46 C51.0071212,50.4 47.4071212,54 43.0071212,54 C38.6071212,54 35.0071212,50.4 35.0071212,46 C35.0071212,41.6 38.6071212,38 43.0071212,38 Z M12.0071212,39 L12.0071212,42 L11.0071212,42 C10.6464853,41.9948997 10.3110399,42.1843753 10.1292335,42.4958728 C9.94742715,42.8073704 9.94742715,43.1926296 10.1292335,43.5041272 C10.3110399,43.8156247 10.6464853,44.0051003 11.0071212,44 L15.0071212,44 C15.3677571,44.0051003 15.7032026,43.8156247 15.885009,43.5041272 C16.0668153,43.1926296 16.0668153,42.8073704 15.885009,42.4958728 C15.7032026,42.1843753 15.3677571,41.9948997 15.0071212,42 L14.0071212,42 L14.0071212,39 L12.0071212,39 Z M39.5071212,41.5 C39.2571212,41.5 39.0079022,41.600781 38.8079022,41.800781 C38.4079022,42.200781 38.4079022,42.799219 38.8079022,43.199219 L41.6067302,46 L38.8079022,48.800781 C38.4079022,49.200781 38.4079022,49.799219 38.8079022,50.199219 C39.0079022,50.399219 39.3071212,50.5 39.5071212,50.5 C39.7071212,50.5 40.0063402,50.399219 40.2063402,50.199219 L43.0071212,47.400391 L45.8079022,50.199219 C46.0079022,50.399219 46.3071212,50.5 46.5071212,50.5 C46.7071212,50.5 47.0063402,50.399219 47.2063402,50.199219 C47.6063402,49.799219 47.6063402,49.200781 47.2063402,48.800781 L44.4075122,46 L47.2063402,43.199219 C47.6063402,42.799219 47.6063402,42.200781 47.2063402,41.800781 C46.8063402,41.400781 46.2079022,41.400781 45.8079022,41.800781 L43.0071212,44.599609 L40.2063402,41.800781 C40.0063402,41.600781 39.7571212,41.5 39.5071212,41.5 Z M12.0071212,45 L12.0071212,49 C12.0071212,50.654 13.3531212,52 15.0071212,52 L32.6243092,52 C32.2583092,51.367 31.9523872,50.699 31.7043872,50 L15.0071212,50 C14.4561212,50 14.0071212,49.552 14.0071212,49 L14.0071212,45 L12.0071212,45 Z" id="log_entry" fill="#000000" fill-rule="nonzero"></path>
        </g>
    </g>
</svg>