<?xml version="1.0" encoding="UTF-8"?>
<svg width="67px" height="67px" viewBox="0 0 67 67" version="1.1" xmlns="http://www.w3.org/2000/svg" xmlns:xlink="http://www.w3.org/1999/xlink">
    <title>row_count_match</title>
    <g id="All-Icons" stroke="none" stroke-width="1" fill="none" fill-rule="evenodd">
        <g id="row_count_match" transform="translate(0.000000, 0.793103)">
            <path d="M56.712234,1.01466935 C59.1975153,1.01466935 61.4475153,2.02202867 63.076195,3.65070832 C64.7048747,5.27938798 65.712234,7.52938798 65.712234,10.0146694 L65.712234,10.0146694 L65.712234,65.0146694 L10.712234,65.0146694 C8.22695259,65.0146694 5.97695259,64.00731 4.34827294,62.3786304 C2.71959328,60.7499507 1.71223397,58.4999507 1.71223397,56.0146694 L1.71223397,56.0146694 L1.71223397,10.0146694 C1.71223397,7.52938798 2.71959328,5.27938798 4.34827294,3.65070832 C5.97695259,2.02202867 8.22695259,1.01466935 10.712234,1.01466935 L10.712234,1.01466935 Z" id="rectangle" stroke="#000000" stroke-width="2" fill="#FFFFFF"></path>
            <path d="M29.1646149,28.4853306 L29.1646149,69.4853306 L27.0549084,69.4850493 C26.9296179,69.4826944 26.6295085,69.4606645 26.4163708,69.2548765 C26.2882481,69.1311718 26.212234,68.9348269 26.212234,68.6519973 L26.212234,68.6519973 L26.212234,29.318664 C26.212234,29.0358344 26.2882481,28.8394895 26.4163708,28.7157848 C26.6561507,28.4842733 27.0060041,28.4853306 27.0931863,28.4853306 L29.1646149,28.4853306 Z M35.1599393,28.4853306 L35.1599393,69.4853306 L32.2645286,69.4853306 L32.2645286,28.4853306 L35.1599393,28.4853306 Z M40.3593475,28.4857507 C40.4733953,28.488728 40.76682,28.5048146 40.9853552,28.6949451 C41.1008215,28.7954034 41.1819999,28.9513684 41.2051776,29.174832 L41.2051776,29.174832 L41.212234,68.6519973 C41.212234,68.9309833 41.1385277,69.1258369 41.0132803,69.2498094 C40.7943074,69.4665535 40.478047,69.4818787 40.3594139,69.4849106 L40.3594139,69.4849106 L38.259853,69.4852498 L38.259853,28.4854114 Z" id="rows_two" stroke="#000000" fill-rule="nonzero" transform="translate(33.712234, 48.985331) rotate(-90.000000) translate(-33.712234, -48.985331) "></path>
            <g id="vertical_equal" transform="translate(30.000000, 29.380570)" stroke="#000000" stroke-linecap="square">
                <line x1="2.21223397" y1="0.514669353" x2="2.21223397" y2="7.58573716" id="Line"></line>
                <line x1="5.21223397" y1="0.514669353" x2="5.21223397" y2="7.58573716" id="Line"></line>
            </g>
            <path d="M27.0931863,-2.98533065 C26.8836625,-2.98533065 25.712234,-2.93533065 25.712234,-1.65199731 L25.712234,37.681336 C25.712234,38.9646694 26.8836625,39.0146694 27.0931863,39.0146694 L29.6646149,39.0146694 L29.6646149,-2.98533065 L27.0931863,-2.98533065 Z M35.6721771,-2.98533065 L35.6721771,39.0146694 L31.7522908,39.0146694 L31.7522908,39.0146694 L31.7522908,-2.98533065 L31.7522908,-2.98533065 L35.6721771,-2.98533065 Z M40.3656149,-2.9849096 C40.6448786,-2.97823698 41.712234,-2.87699731 41.712234,-1.65199731 L41.712234,-1.65199731 L41.712234,37.681336 C41.712234,38.9646694 40.5408054,39.0146694 40.3312816,39.0146694 L40.3312816,39.0146694 L37.759853,39.0146694 L37.759853,-2.98533065 Z" id="rows_one" fill="#000000" fill-rule="nonzero" transform="translate(33.712234, 18.014669) rotate(-90.000000) translate(-33.712234, -18.014669) "></path>
        </g>
    </g>
</svg>