<?xml version="1.0" encoding="UTF-8"?>
<svg width="67px" height="67px" viewBox="0 0 67 67" version="1.1" xmlns="http://www.w3.org/2000/svg" xmlns:xlink="http://www.w3.org/1999/xlink">
    <title>set_tbl</title>
    <g id="All-Icons" stroke="none" stroke-width="1" fill="none" fill-rule="evenodd">
        <g id="set_tbl" transform="translate(0.000000, 0.310345)">
            <path d="M56.876942,1 C59.3622234,1 61.6122234,2.00735931 63.240903,3.63603897 C64.8695827,5.26471863 65.876942,7.51471863 65.876942,10 L65.876942,10 L65.876942,65 L10.876942,65 C8.39166064,65 6.14166064,63.9926407 4.51298099,62.363961 C2.88430133,60.7352814 1.87694202,58.4852814 1.87694202,56 L1.87694202,56 L1.87694202,10 C1.87694202,7.51471863 2.88430133,5.26471863 4.51298099,3.63603897 C6.14166064,2.00735931 8.39166064,1 10.876942,1 L10.876942,1 Z" id="rectangle" stroke="#000000" stroke-width="2" fill="#FFFFFF"></path>
            <path d="M33.984375,11.9863154 C33.9359304,11.987378 33.8876262,11.9919474 33.839844,12 L15,12 C14.4477381,12.0000552 14.0000552,12.4477381 14,13 L14,25.832031 C13.982151,25.9400224 13.982151,26.0502116 14,26.158203 L14,38.832031 C13.982151,38.9400224 13.982151,39.0502116 14,39.158203 L14,51 C14.0000552,51.5522619 14.4477381,51.9999448 15,52 L33.832031,52 C33.9400224,52.017849 34.0502116,52.017849 34.158203,52 L36,52 L38.111328,52 C37.815328,51.361 37.577484,50.693 37.396484,50 L36,50 L35,50 L35,40 L38,40 L39.283203,40 C39.814203,39.267 40.423563,38.597 41.101562,38 L38,38 L35,38 L35,27 L52,27 L52,34 L52,35.396484 C52.693,35.577484 53.361,35.815328 54,36.111328 L54,34 L54,26.167969 C54.017849,26.0599776 54.017849,25.9497884 54,25.841797 L54,13 C53.9999448,12.4477381 53.5522619,12.0000552 53,12 L34.154297,12 C34.0981487,11.9906149 34.0413016,11.9863154 33.984375,11.9863154 Z M16,14 L33,14 L33,25 L16,25 L16,14 Z M35,14 L52,14 L52,25 L35,25 L35,14 Z M16,27 L33,27 L33,38 L16,38 L16,27 Z M49,37 C43.5,37 39,41.5 39,47 C39,52.5 43.5,57 49,57 C54.5,57 59,52.5 59,47 C59,41.5 54.5,37 49,37 Z M49,39 C53.4,39 57,42.6 57,47 C57,51.4 53.4,55 49,55 C44.6,55 41,51.4 41,47 C41,42.6 44.6,39 49,39 Z M16,40 L33,40 L33,50 L16,50 L16,40 Z" id="table-circle" fill="#000000" fill-rule="nonzero"></path>
            <polygon id="plus-small" fill="#000000" points="48 42 48 46 44 46 44 48 48 48 48 52 50 52 50 48 54 48 54 46 50 46 50 42"></polygon>
        </g>
    </g>
</svg>