<?xml version="1.0" encoding="UTF-8"?>
<svg width="66px" height="67px" viewBox="0 0 66 67" version="1.1" xmlns="http://www.w3.org/2000/svg" xmlns:xlink="http://www.w3.org/1999/xlink">
    <title>stock_msg_footer</title>
    <g id="All-Icons" stroke="none" stroke-width="1" fill="none" fill-rule="evenodd">
        <g id="stock_msg_footer" transform="translate(0.000000, 0.551724)">
            <path d="M56,1 C58.4852814,1 60.7352814,2.00735931 62.363961,3.63603897 C63.9926407,5.26471863 65,7.51471863 65,10 L65,10 L65,65 L10,65 C7.51471863,65 5.26471863,63.9926407 3.63603897,62.363961 C2.00735931,60.7352814 1,58.4852814 1,56 L1,56 L1,10 C1,7.51471863 2.00735931,5.26471863 3.63603897,3.63603897 C5.26471863,2.00735931 7.51471863,1 10,1 L10,1 Z" id="rectangle" stroke="#000000" stroke-width="2" fill="#FFFFFF"></path>
            <path d="M11.0905711,15 L11.0905711,51 L53.0905711,51 L53.0905711,15 L51.2644842,15 L51.2644842,49 L12.9166581,49 L12.9166581,15 L11.0905711,15 Z M14.7427451,15 L14.7427451,17 L17.4818755,17 L17.4818755,15 L14.7427451,15 Z M19.3079625,15 L19.3079625,17 L22.0470929,17 L22.0470929,15 L19.3079625,15 Z M23.8731798,15 L23.8731798,17 L26.6123103,17 L26.6123103,15 L23.8731798,15 Z M28.4383972,15 L28.4383972,17 L31.1775277,17 L31.1775277,15 L28.4383972,15 Z M33.0036146,15 L33.0036146,17 L35.7427451,17 L35.7427451,15 L33.0036146,15 Z M37.568832,15 L37.568832,17 L40.3079625,17 L40.3079625,15 L37.568832,15 Z M42.1340494,15 L42.1340494,17 L44.8731798,17 L44.8731798,15 L42.1340494,15 Z M46.6992668,15 L46.6992668,17 L49.4383972,17 L49.4383972,15 L46.6992668,15 Z M16.568832,20 L16.568832,22 L41.2210059,22 L41.2210059,20 L16.568832,20 Z M16.568832,24 L16.568832,26 L44.8731798,26 L44.8731798,24 L16.568832,24 Z M16.568832,28 L16.568832,30 L37.568832,30 L37.568832,28 L16.568832,28 Z M16.568832,36 L16.568832,45 L47.6123103,45 L47.6123103,36 L16.568832,36 Z" id="email_footer" fill="#000000" fill-rule="nonzero"></path>
        </g>
    </g>
</svg>