<?xml version="1.0" encoding="UTF-8"?>
<svg width="67px" height="67px" viewBox="0 0 67 67" version="1.1" xmlns="http://www.w3.org/2000/svg" xmlns:xlink="http://www.w3.org/1999/xlink">
    <title>stop_on_fail</title>
    <g id="All-Icons" stroke="none" stroke-width="1" fill="none" fill-rule="evenodd">
        <g id="stop_on_fail" transform="translate(0.000000, 0.517241)">
            <path d="M56.712234,1 C59.1975153,1 61.4475153,2.00735931 63.076195,3.63603897 C64.7048747,5.26471863 65.712234,7.51471863 65.712234,10 L65.712234,10 L65.712234,65 L10.712234,65 C8.22695259,65 5.97695259,63.9926407 4.34827294,62.363961 C2.71959328,60.7352814 1.71223397,58.4852814 1.71223397,56 L1.71223397,56 L1.71223397,10 C1.71223397,7.51471863 2.71959328,5.26471863 4.34827294,3.63603897 C5.97695259,2.00735931 8.22695259,1 10.712234,1 L10.712234,1 Z" id="rectangle" stroke="#000000" stroke-width="2" fill="#FFFFFF"></path>
            <path d="M25.8433598,14 L14.712234,25.1294391 L14.712234,40.8705609 L25.8433598,52 L41.5827948,52 L52.712234,40.8705609 L52.712234,25.1294391 L41.5811081,14 L25.8433598,14 Z M36.6455611,27.133345 C39.488652,27.133345 40.2957749,30.2765771 40.2957749,32.9797581 C40.2966382,37.4378499 38.7173167,39.2461826 36.4701349,39.2461826 C33.7842258,39.2461826 32.7305221,36.402457 32.7305221,33.1551851 C32.7305221,29.9251842 34.0114701,27.133345 36.6455611,27.133345 Z M22.9808776,27.1687679 C23.7711049,27.1687679 24.5071796,27.3788742 24.8414069,27.5904651 L24.4736861,29.5741299 C24.1403224,29.3642662 23.6303322,29.170987 22.9808776,29.170987 C21.9980595,29.170987 21.525178,29.7667881 21.525178,30.39897 C21.525178,31.10197 21.8759361,31.4705406 23.1394352,32.2426315 C24.7198906,33.1900406 25.2799718,34.3834781 25.2799718,35.6297054 C25.2799718,37.7887963 23.6833508,39.2107597 21.3834872,39.2107597 C20.4360784,39.2107597 19.521447,38.9647719 19.1181289,38.7367719 L19.4521132,36.7531071 C19.9262495,37.0173799 20.7500372,37.211914 21.4003557,37.211914 C22.4712648,37.211914 23.014613,36.6497946 23.014613,35.8759765 C23.014613,35.0157946 22.4890229,34.5949205 21.4880684,33.9446023 C19.8739321,32.9626477 19.2598192,31.7161907 19.2598192,30.6435544 C19.2598192,28.7478725 20.5229683,27.1687679 22.9808776,27.1687679 Z M44.163583,27.2227451 C45.5333102,27.2227451 46.6221001,27.4142021 47.3769182,28.1336112 C48.078191,28.7476566 48.3940521,29.731177 48.3940521,30.7312679 C48.3940521,32.0120406 48.008695,32.9266047 47.3937859,33.5751956 C46.6562405,34.3654229 45.4808443,34.7171518 44.5144352,34.7171518 C44.3572534,34.7171518 44.2162251,34.7175974 44.057316,34.6985974 L44.057316,39.1044919 L41.758221,39.1044919 L41.758221,27.4487752 C42.4068119,27.3088661 43.2861284,27.2227451 44.163583,27.2227451 Z M25.8281788,27.273349 L32.3240059,27.273349 L32.3240059,29.397017 L30.2155189,29.397017 L30.2155189,39.1061785 L27.9164239,39.1061785 L27.9164239,29.397017 L25.8281788,29.397017 L25.8281788,27.273349 Z M44.6207031,29.0815877 C44.4091122,29.0815877 44.1989523,29.1174415 44.057316,29.170987 L44.057316,32.8397549 C44.1799523,32.8570276 44.3036406,32.8583101 44.445277,32.8583101 C45.604277,32.8583101 46.1135124,32.0332532 46.1135124,30.926935 C46.1135124,29.8897078 45.6907486,29.0815877 44.6207031,29.0815877 Z M36.5409807,29.1338783 C35.6272535,29.1338783 35.1190164,30.6437841 35.1190164,33.1889205 C35.1190164,35.8748295 35.6276715,37.2439626 36.5595351,37.2439626 C37.5414896,37.2439626 37.9089669,35.4887029 37.9089669,33.0843393 C37.9089669,31.0124756 37.5937535,29.1338783 36.5409807,29.1338783 Z" id="stop-sign" fill="#000000" fill-rule="nonzero"></path>
        </g>
    </g>
</svg>