<?xml version="1.0" encoding="UTF-8"?>
<svg width="67px" height="67px" viewBox="0 0 67 67" version="1.1" xmlns="http://www.w3.org/2000/svg" xmlns:xlink="http://www.w3.org/1999/xlink">
    <title>tbl_match</title>
    <g id="All-Icons" stroke="none" stroke-width="1" fill="none" fill-rule="evenodd">
        <g id="tbl_match" transform="translate(0.000000, 0.758621)">
            <path d="M56.712234,1.01466935 C59.1975153,1.01466935 61.4475153,2.02202867 63.076195,3.65070832 C64.7048747,5.27938798 65.712234,7.52938798 65.712234,10.0146694 L65.712234,10.0146694 L65.712234,65.0146694 L10.712234,65.0146694 C8.22695259,65.0146694 5.97695259,64.00731 4.34827294,62.3786304 C2.71959328,60.7499507 1.71223397,58.4999507 1.71223397,56.0146694 L1.71223397,56.0146694 L1.71223397,10.0146694 C1.71223397,7.52938798 2.71959328,5.27938798 4.34827294,3.65070832 C5.97695259,2.02202867 8.22695259,1.01466935 10.712234,1.01466935 L10.712234,1.01466935 Z" id="rectangle" stroke="#000000" stroke-width="2" fill="#FFFFFF"></path>
            <g id="equal" transform="translate(46.026611, 20.710122) rotate(-90.000000) translate(-46.026611, -20.710122) translate(42.526611, 16.210122)" stroke="#000000" stroke-linecap="square">
                <line x1="2.21223397" y1="0.514669353" x2="2.21223397" y2="7.58573716" id="Line"></line>
                <line x1="5.21223397" y1="0.514669353" x2="5.21223397" y2="7.58573716" id="Line"></line>
            </g>
            <g id="equal" transform="translate(21.397857, 45.319217) rotate(-90.000000) translate(-21.397857, -45.319217) translate(17.897857, 40.819217)" stroke="#000000" stroke-linecap="square">
                <line x1="2.21223397" y1="0.514669353" x2="2.21223397" y2="7.58573716" id="Line"></line>
                <line x1="5.21223397" y1="0.514669353" x2="5.21223397" y2="7.58573716" id="Line"></line>
            </g>
            <path d="M21.3882419,7.77869783 C21.3584298,7.77935177 21.328704,7.78216367 21.2992996,7.78711914 L9.09014824,7.78711914 C8.75029431,7.78715312 8.47479677,8.06265067 8.47476279,8.4025046 L8.47476279,16.2991498 C8.46377874,16.3656061 8.46377874,16.4334149 8.47476279,16.4998713 L8.47476279,24.9145461 C8.46377874,24.9810025 8.46377874,25.0488112 8.47476279,25.1152676 L8.47476279,33.0179226 C8.47479677,33.3577766 8.75029431,33.6332741 9.09014824,33.6333081 L21.2944916,33.6333081 C21.3609479,33.6442921 21.4287567,33.6442921 21.4952131,33.6333081 L33.7055663,33.6333081 C34.0454202,33.6332741 34.3209178,33.3577766 34.3209517,33.0179226 L34.3209517,25.1212775 C34.3319358,25.0548211 34.3319358,24.9870123 34.3209517,24.920556 L34.3209517,16.5058811 C34.3319358,16.4394248 34.3319358,16.371616 34.3209517,16.3051596 L34.3209517,8.4025046 C34.3209178,8.06265067 34.0454202,7.78715312 33.7055663,7.78711914 L21.4928094,7.78711914 C21.4582565,7.78134369 21.4232736,7.77869783 21.3882419,7.77869783 Z M9.70553369,9.01789005 L20.7824718,9.01789005 L20.7824718,15.78713 L9.70553369,15.78713 L9.70553369,9.01789005 Z M22.0132427,9.01789005 L33.0901808,9.01789005 L33.0901808,15.78713 L22.0132427,15.78713 L22.0132427,9.01789005 Z M9.70553369,17.0179009 L20.7824718,17.0179009 L20.7824718,24.4025263 L9.70553369,24.4025263 L9.70553369,17.0179009 Z M22.0132427,17.0179009 L33.0901808,17.0179009 L33.0901808,24.4025263 L22.0132427,24.4025263 L22.0132427,17.0179009 Z M9.70553369,25.6332972 L20.7824718,25.6332972 L20.7824718,32.4025372 L9.70553369,32.4025372 L9.70553369,25.6332972 Z M22.0132427,25.6332972 L33.0901808,25.6332972 L33.0901808,32.4025372 L22.0132427,32.4025372 L22.0132427,25.6332972 Z" id="table" fill="#000000" fill-rule="nonzero"></path>
            <path d="M46.0169953,32.3877926 C45.9871832,32.3884465 45.9574575,32.3912584 45.928053,32.3962139 L33.7189016,32.3962139 C33.3790477,32.3962479 33.1035502,32.6717454 33.1035162,33.0115993 L33.1035162,40.9082445 C33.0925322,40.9747009 33.0925322,41.0425097 33.1035162,41.108966 L33.1035162,49.5236408 C33.0925322,49.5900972 33.0925322,49.657906 33.1035162,49.7243624 L33.1035162,57.6270174 C33.1035502,57.9668713 33.3790477,58.2423689 33.7189016,58.2424028 L45.923245,58.2424028 C45.9897014,58.2533869 46.0575101,58.2533869 46.1239665,58.2424028 L58.3343197,58.2424028 C58.6741736,58.2423689 58.9496712,57.9668713 58.9497051,57.6270174 L58.9497051,49.7303722 C58.9606892,49.6639158 58.9606892,49.5961071 58.9497051,49.5296507 L58.9497051,41.1149759 C58.9606892,41.0485195 58.9606892,40.9807107 58.9497051,40.9142544 L58.9497051,33.0115993 C58.9496712,32.6717454 58.6741736,32.3962479 58.3343197,32.3962139 L46.1215628,32.3962139 C46.0870099,32.3904384 46.052027,32.3877926 46.0169953,32.3877926 Z M34.3342871,33.6269848 L45.4112252,33.6269848 L45.4112252,40.3962248 L34.3342871,40.3962248 L34.3342871,33.6269848 Z M46.6419961,33.6269848 L57.7189342,33.6269848 L57.7189342,40.3962248 L46.6419961,40.3962248 L46.6419961,33.6269848 Z M34.3342871,41.6269957 L45.4112252,41.6269957 L45.4112252,49.0116211 L34.3342871,49.0116211 L34.3342871,41.6269957 Z M46.6419961,41.6269957 L57.7189342,41.6269957 L57.7189342,49.0116211 L46.6419961,49.0116211 L46.6419961,41.6269957 Z M34.3342871,50.242392 L45.4112252,50.242392 L45.4112252,57.0116319 L34.3342871,57.0116319 L34.3342871,50.242392 Z M46.6419961,50.242392 L57.7189342,50.242392 L57.7189342,57.0116319 L46.6419961,57.0116319 L46.6419961,50.242392 Z" id="table" fill="#000000" fill-rule="nonzero"></path>
        </g>
    </g>
</svg>