<?xml version="1.0" encoding="UTF-8"?>
<svg width="67px" height="67px" viewBox="0 0 67 67" version="1.1" xmlns="http://www.w3.org/2000/svg" xmlns:xlink="http://www.w3.org/1999/xlink">
    <title>tt_string_info</title>
    <g id="All-Icons" stroke="none" stroke-width="1" fill="none" fill-rule="evenodd">
        <g id="tt_string_info" transform="translate(0.712234, 0.965517)">
            <path d="M56,1 C58.4852814,1 60.7352814,2.00735931 62.363961,3.63603897 C63.9926407,5.26471863 65,7.51471863 65,10 L65,10 L65,65 L10,65 C7.51471863,65 5.26471863,63.9926407 3.63603897,62.363961 C2.00735931,60.7352814 1,58.4852814 1,56 L1,56 L1,10 C1,7.51471863 2.00735931,5.26471863 3.63603897,3.63603897 C5.26471863,2.00735931 7.51471863,1 10,1 L10,1 Z" id="rectangle" stroke="#000000" stroke-width="2" fill="#FFFFFF"></path>
            <g id="string_info" transform="translate(12.551762, 35.539013)" fill="#000000" fill-rule="nonzero">
                <path d="M2.59765625,1.62353516 L2.59765625,2.23876953 C2.41764323,2.13395182 2.23649089,2.05533854 2.05419922,2.00292969 C1.87190755,1.95052083 1.68619792,1.92431641 1.49707031,1.92431641 C1.21223958,1.92431641 0.999755859,1.97045898 0.859619141,2.06274414 C0.719482422,2.1550293 0.649414062,2.29573568 0.649414062,2.48486328 C0.649414062,2.65576172 0.701822917,2.78336589 0.806640625,2.86767578 C0.911458333,2.95198568 1.17236328,3.03401693 1.58935547,3.11376953 L1.84228516,3.16162109 C2.15445964,3.22086589 2.39086914,3.33935547 2.55151367,3.51708984 C2.7121582,3.69482422 2.79248047,3.92610677 2.79248047,4.2109375 C2.79248047,4.58919271 2.65804036,4.88484701 2.38916016,5.09790039 C2.12027995,5.31095378 1.74658203,5.41748047 1.26806641,5.41748047 C1.0789388,5.41748047 0.880696615,5.39754232 0.673339844,5.35766602 C0.465983073,5.31778971 0.241536458,5.25797526 0,5.17822266 L0,4.52880859 C0.234700521,4.64957682 0.459147135,4.74015299 0.673339844,4.80053711 C0.887532552,4.86092122 1.09033203,4.89111328 1.28173828,4.89111328 C1.55973307,4.89111328 1.7750651,4.8347168 1.92773438,4.72192383 C2.08040365,4.60913086 2.15673828,4.45133464 2.15673828,4.24853516 C2.15673828,3.95686849 1.87760417,3.75520833 1.31933594,3.64355469 L1.29199219,3.63671875 L1.05615234,3.58886719 C0.693847656,3.51822917 0.42952474,3.39916992 0.263183594,3.23168945 C0.0968424479,3.06420898 0.013671875,2.83577474 0.013671875,2.54638672 C0.013671875,2.17952474 0.137858073,1.89640299 0.386230469,1.69702148 C0.634602865,1.49763997 0.988932292,1.39794922 1.44921875,1.39794922 C1.65429688,1.39794922 1.85139974,1.41674805 2.04052734,1.4543457 C2.22965495,1.49194336 2.41536458,1.54833984 2.59765625,1.62353516 Z" id="s"></path>
                <path d="M5.18496094,0.403320312 L5.18496094,1.49023438 L6.61367187,1.49023438 L6.61367187,1.97900391 L5.18496094,1.97900391 L5.18496094,4.05712891 C5.18496094,4.33968099 5.23850911,4.53678385 5.34560547,4.6484375 C5.45270182,4.76009115 5.63955078,4.81591797 5.90615234,4.81591797 L6.61367187,4.81591797 L6.61367187,5.31835938 L5.84462891,5.31835938 C5.37294922,5.31835938 5.04026693,5.22379557 4.84658203,5.03466797 C4.65289714,4.84554036 4.55605469,4.51969401 4.55605469,4.05712891 L4.55605469,1.97900391 L3.53408203,1.97900391 L3.53408203,1.49023438 L4.55605469,1.49023438 L4.55605469,0.403320312 L5.18496094,0.403320312 Z" id="t"></path>
                <path d="M10.8484375,2.27978516 C10.7139974,2.17496745 10.5772786,2.09863281 10.4382812,2.05078125 C10.2992839,2.00292969 10.1466146,1.97900391 9.98027344,1.97900391 C9.58834635,1.97900391 9.28870443,2.10205078 9.08134766,2.34814453 C8.87399089,2.59423828 8.7703125,2.94970703 8.7703125,3.41455078 L8.7703125,5.31835938 L8.13798828,5.31835938 L8.13798828,1.49023438 L8.7703125,1.49023438 L8.7703125,2.23876953 C8.87513021,1.96761068 9.0363444,1.75968424 9.25395508,1.61499023 C9.47156576,1.47029622 9.7296224,1.39794922 10.028125,1.39794922 C10.1830729,1.39794922 10.3277669,1.41731771 10.462207,1.45605469 C10.5966471,1.49479167 10.7253906,1.55517578 10.8484375,1.63720703 L10.8484375,2.27978516 Z" id="r"></path>
                <path d="M11.7951172,1.50390625 L13.4049805,1.50390625 L13.4049805,4.82958984 L14.6525391,4.82958984 L14.6525391,5.31835938 L11.5285156,5.31835938 L11.5285156,4.82958984 L12.7760742,4.82958984 L12.7760742,1.99267578 L11.7951172,1.99267578 L11.7951172,1.50390625 Z M12.7760742,0.0170898438 L13.4049805,0.0170898438 L13.4049805,0.810058594 L12.7760742,0.810058594 L12.7760742,0.0170898438 Z" id="i"></path>
                <path d="M18.1216797,2.94628906 L18.1216797,5.31835938 L17.4893555,5.31835938 L17.4893555,2.94628906 C17.4893555,2.60221354 17.4289714,2.34928385 17.3082031,2.1875 C17.1874349,2.02571615 16.9983073,1.94482422 16.7408203,1.94482422 C16.446875,1.94482422 16.2207194,2.04907227 16.0623535,2.25756836 C15.9039876,2.46606445 15.8248047,2.76513672 15.8248047,3.15478516 L15.8248047,5.31835938 L15.1958984,5.31835938 L15.1958984,1.49023438 L15.8248047,1.49023438 L15.8248047,2.06445312 C15.9364583,1.84570312 16.0879883,1.67993164 16.2793945,1.56713867 C16.4708008,1.4543457 16.697526,1.39794922 16.9595703,1.39794922 C17.3492188,1.39794922 17.6403158,1.52612305 17.8328613,1.7824707 C18.0254069,2.03881836 18.1216797,2.42675781 18.1216797,2.94628906 Z" id="n"></path>
                <path d="M21.2763672,3.37353516 C21.2763672,2.90185547 21.1994629,2.54353841 21.0456543,2.29858398 C20.8918457,2.05362956 20.6679687,1.93115234 20.3740234,1.93115234 C20.0664062,1.93115234 19.8317057,2.05362956 19.6699219,2.29858398 C19.508138,2.54353841 19.4272461,2.90185547 19.4272461,3.37353516 C19.4272461,3.84521484 19.5087077,4.20467122 19.6716309,4.4519043 C19.834554,4.69913737 20.0709635,4.82275391 20.3808594,4.82275391 C20.6702474,4.82275391 20.8918457,4.69856771 21.0456543,4.45019531 C21.1994629,4.20182292 21.2763672,3.8429362 21.2763672,3.37353516 Z M21.9052734,5.07226562 C21.9052734,5.64648438 21.769694,6.08170573 21.4985352,6.37792969 C21.2273763,6.67415365 20.8286133,6.82226562 20.3022461,6.82226562 C20.129069,6.82226562 19.9479167,6.8063151 19.7587891,6.77441406 C19.5696615,6.74251302 19.3805339,6.69580078 19.1914062,6.63427734 L19.1914062,6.01220703 C19.4147135,6.11702474 19.617513,6.1944987 19.7998047,6.24462891 C19.9820964,6.29475911 20.1495768,6.31982422 20.3022461,6.31982422 C20.6417643,6.31982422 20.8889974,6.22753906 21.0439453,6.04296875 C21.1988932,5.85839844 21.2763672,5.56559245 21.2763672,5.16455078 L21.2763672,5.13720703 L21.2763672,4.70996094 C21.1761068,4.92415365 21.039388,5.08365885 20.8662109,5.18847656 C20.6930339,5.29329427 20.4822591,5.34570312 20.2338867,5.34570312 C19.7872721,5.34570312 19.4306641,5.16682943 19.1640625,4.80908203 C18.8974609,4.45133464 18.7641602,3.97281901 18.7641602,3.37353516 C18.7641602,2.77197266 18.8974609,2.29231771 19.1640625,1.93457031 C19.4306641,1.57682292 19.7872721,1.39794922 20.2338867,1.39794922 C20.4799805,1.39794922 20.6884766,1.4469401 20.859375,1.54492188 C21.0302734,1.64290365 21.1692708,1.79443359 21.2763672,1.99951172 L21.2763672,1.50390625 L21.9052734,1.50390625 L21.9052734,5.07226562 Z" id="g"></path>
                <polygon id="_" points="26.3416992 5.96777344 26.3416992 6.54882812 22.1581055 6.54882812 22.1581055 5.96777344"></polygon>
                <path d="M27.0525391,1.50390625 L28.6624023,1.50390625 L28.6624023,4.82958984 L29.9099609,4.82958984 L29.9099609,5.31835938 L26.7859375,5.31835938 L26.7859375,4.82958984 L28.0334961,4.82958984 L28.0334961,1.99267578 L27.0525391,1.99267578 L27.0525391,1.50390625 Z M28.0334961,0.0170898438 L28.6624023,0.0170898438 L28.6624023,0.810058594 L28.0334961,0.810058594 L28.0334961,0.0170898438 Z" id="i"></path>
                <path d="M33.3791016,2.94628906 L33.3791016,5.31835938 L32.7467773,5.31835938 L32.7467773,2.94628906 C32.7467773,2.60221354 32.6863932,2.34928385 32.565625,2.1875 C32.4448568,2.02571615 32.2557292,1.94482422 31.9982422,1.94482422 C31.7042969,1.94482422 31.4781413,2.04907227 31.3197754,2.25756836 C31.1614095,2.46606445 31.0822266,2.76513672 31.0822266,3.15478516 L31.0822266,5.31835938 L30.4533203,5.31835938 L30.4533203,1.49023438 L31.0822266,1.49023438 L31.0822266,2.06445312 C31.1938802,1.84570312 31.3454102,1.67993164 31.5368164,1.56713867 C31.7282227,1.4543457 31.9549479,1.39794922 32.2169922,1.39794922 C32.6066406,1.39794922 32.8977376,1.52612305 33.0902832,1.7824707 C33.2828288,2.03881836 33.3791016,2.42675781 33.3791016,2.94628906 Z" id="n"></path>
                <path d="M37.2344727,0 L37.2344727,0.522949219 L36.5201172,0.522949219 C36.2945313,0.522949219 36.1378743,0.569091797 36.0501465,0.661376953 C35.9624186,0.753662109 35.9185547,0.917154948 35.9185547,1.15185547 L35.9185547,1.49023438 L37.2344727,1.49023438 L37.2344727,1.97900391 L35.9185547,1.97900391 L35.9185547,5.31835938 L35.2896484,5.31835938 L35.2896484,1.97900391 L34.2676758,1.97900391 L34.2676758,1.49023438 L35.2896484,1.49023438 L35.2896484,1.22363281 C35.2896484,0.804361979 35.3859212,0.495605469 35.5784668,0.297363281 C35.7710124,0.0991210938 36.071224,0 36.4791016,0 L37.2344727,0 Z" id="f"></path>
                <path d="M39.5209961,1.93115234 C39.2019857,1.93115234 38.9604492,2.05533854 38.7963867,2.30371094 C38.6323242,2.55208333 38.550293,2.92008464 38.550293,3.40771484 C38.550293,3.89306641 38.6323242,4.26049805 38.7963867,4.51000977 C38.9604492,4.75952148 39.2019857,4.88427734 39.5209961,4.88427734 C39.8422852,4.88427734 40.0849609,4.75952148 40.2490234,4.51000977 C40.4130859,4.26049805 40.4951172,3.89306641 40.4951172,3.40771484 C40.4951172,2.92008464 40.4130859,2.55208333 40.2490234,2.30371094 C40.0849609,2.05533854 39.8422852,1.93115234 39.5209961,1.93115234 Z M39.5209961,1.39794922 C40.0519206,1.39794922 40.4580892,1.56998698 40.739502,1.9140625 C41.0209147,2.25813802 41.1616211,2.75602214 41.1616211,3.40771484 C41.1616211,4.0616862 41.0214844,4.56013997 40.7412109,4.90307617 C40.4609375,5.24601237 40.0541992,5.41748047 39.5209961,5.41748047 C38.9900716,5.41748047 38.5844727,5.24601237 38.3041992,4.90307617 C38.0239258,4.56013997 37.8837891,4.0616862 37.8837891,3.40771484 C37.8837891,2.75602214 38.0239258,2.25813802 38.3041992,1.9140625 C38.5844727,1.56998698 38.9900716,1.39794922 39.5209961,1.39794922 Z" id="o"></path>
            </g>
            <g id="ruler" transform="translate(9.509636, 44.034483)">
                <rect id="Rectangle" stroke="#000000" x="0" y="0" width="47.6504732" height="11" rx="1"></rect>
                <rect id="Rectangle" fill="#000000" x="10.0169504" y="0" width="1" height="7.554644" rx="0.5"></rect>
                <rect id="Rectangle" fill="#000000" x="6.32370803" y="0" width="1" height="5.55464442" rx="0.5"></rect>
                <rect id="Rectangle" fill="#000000" x="2.63046567" y="0" width="1" height="2.554644" rx="0.5"></rect>
                <rect id="Rectangle" fill="#000000" x="13.7101928" y="0" width="1" height="5.55464442" rx="0.5"></rect>
                <rect id="Rectangle" fill="#000000" x="17.4034351" y="0" width="1" height="7.554644" rx="0.5"></rect>
                <rect id="Rectangle" fill="#000000" x="21.0966775" y="0" width="1" height="5.55464442" rx="0.5"></rect>
                <rect id="Rectangle" fill="#000000" x="24.7899198" y="0" width="1" height="7.554644" rx="0.5"></rect>
                <rect id="Rectangle" fill="#000000" x="28.4831622" y="0" width="1" height="5.55464442" rx="0.5"></rect>
                <rect id="Rectangle" fill="#000000" x="32.1764046" y="0" width="1" height="7.554644" rx="0.5"></rect>
                <rect id="Rectangle" fill="#000000" x="35.8696469" y="0" width="1" height="5.55464442" rx="0.5"></rect>
                <rect id="Rectangle" fill="#000000" x="39.5628893" y="0" width="1" height="7.554644" rx="0.5"></rect>
                <rect id="Rectangle" fill="#000000" x="43.2561317" y="0" width="1" height="5.55464442" rx="0.5"></rect>
                <circle id="Oval" stroke="#000000" cx="3.34119355" cy="5.5" r="1.09483612"></circle>
            </g>
            <g id="transformer" transform="translate(9.845645, 9.902909)" stroke="#000000" stroke-width="2">
                <circle id="Oval" cx="16.8501942" cy="9.35019417" r="9.35019417"></circle>
                <circle id="Oval" cx="29.4585155" cy="9.35019417" r="9.35019417"></circle>
                <line x1="38.8087097" y1="9.35019417" x2="45.8087097" y2="9.35019417" id="Line" stroke-linecap="square"></line>
                <line x1="0.5" y1="9.35019417" x2="7.5" y2="9.35019417" id="Line-2-Copy" stroke-linecap="square"></line>
            </g>
        </g>
    </g>
</svg>