<?xml version="1.0" encoding="UTF-8"?>
<svg width="67px" height="67px" viewBox="0 0 67 67" version="1.1" xmlns="http://www.w3.org/2000/svg" xmlns:xlink="http://www.w3.org/1999/xlink">
    <title>tt_time_slice</title>
    <g id="All-Icons" stroke="none" stroke-width="1" fill="none" fill-rule="evenodd">
        <g id="tt_time_slice" transform="translate(0.712234, 0.896552)">
            <path d="M56,1 C58.4852814,1 60.7352814,2.00735931 62.363961,3.63603897 C63.9926407,5.26471863 65,7.51471863 65,10 L65,10 L65,65 L10,65 C7.51471863,65 5.26471863,63.9926407 3.63603897,62.363961 C2.00735931,60.7352814 1,58.4852814 1,56 L1,56 L1,10 C1,7.51471863 2.00735931,5.26471863 3.63603897,3.63603897 C5.26471863,2.00735931 7.51471863,1 10,1 L10,1 Z" id="rectangle" stroke="#000000" stroke-width="2" fill="#FFFFFF"></path>
            <g id="transformer" transform="translate(9.845645, 9.902909)" stroke="#000000" stroke-width="2">
                <circle id="Oval" cx="16.8501942" cy="9.35019417" r="9.35019417"></circle>
                <circle id="Oval" cx="29.4585155" cy="9.35019417" r="9.35019417"></circle>
                <line x1="38.8087097" y1="9.35019417" x2="45.8087097" y2="9.35019417" id="Line" stroke-linecap="square"></line>
                <line x1="0.5" y1="9.35019417" x2="7.5" y2="9.35019417" id="Line-2-Copy" stroke-linecap="square"></line>
            </g>
            <path d="M39.5803205,50.6249573 C39.8513619,50.5888184 40.1111101,50.7469263 40.2014573,51.0044154 C40.294063,51.2619051 40.1924226,51.5487568 39.9597785,51.6910538 L39.9597785,51.6910538 L38.2793214,52.955914 L51.549658,52.9558356 L51.549658,54.1118356 L38.2793214,54.1123576 L39.9597785,55.3772178 C40.2195267,55.5714644 40.2714765,55.9396287 40.0772298,56.1993769 C39.8829837,56.4591251 39.5148189,56.5110749 39.2550707,56.3168282 L39.2550707,56.3168282 L36.2013368,54.003941 C36.0500052,53.8955244 35.959658,53.7193477 35.959658,53.5341358 C35.959658,53.3489244 36.0500052,53.1727471 36.2013368,53.0643305 L36.2013368,53.0643305 L39.2550707,50.7514433 C39.329607,50.6949765 39.415437,50.6588376 39.5080427,50.6430267 C39.5306298,50.6362506 39.5554748,50.629475 39.5803205,50.6249573 Z" id="arrow_right" fill="#9A9A9A" transform="translate(43.754658, 53.527041) rotate(-180.000000) translate(-43.754658, -53.527041) "></path>
            <path d="M18.1003647,50.6249573 C18.0755191,50.629475 18.050674,50.6362506 18.028087,50.6430267 C17.9354813,50.6588376 17.8496512,50.6949765 17.7751149,50.7514433 L14.721381,53.0643305 C14.5700494,53.1727471 14.4797022,53.3489244 14.4797022,53.5341358 C14.4797022,53.7193477 14.5700494,53.8955244 14.721381,54.003941 L17.7751149,56.3168282 C18.0348631,56.5110749 18.4030279,56.4591251 18.597274,56.1993769 C18.7915207,55.9396287 18.739571,55.5714644 18.4798227,55.3772178 L16.7993656,54.1123576 L34.1460198,54.1123576 L32.4655626,55.3772178 C32.2058144,55.5714644 32.1538652,55.9396287 32.3481113,56.1993769 C32.542358,56.4591251 32.9105223,56.5110749 33.1702705,56.3168282 L36.2240044,54.003941 C36.375336,53.8955244 36.4656832,53.7193477 36.4656832,53.5341358 C36.4656832,53.3489244 36.375336,53.1727471 36.2240044,53.0643305 L33.1702705,50.7514433 C33.046043,50.6588376 32.8901943,50.6204402 32.7366041,50.6430267 C32.7185347,50.6430267 32.7004653,50.6430267 32.6823958,50.6430267 C32.4520109,50.6859418 32.2690574,50.8643776 32.2216253,51.0947625 C32.1741932,51.3251481 32.2713165,51.5600507 32.4655626,51.6910538 L34.1460198,52.955914 L16.7993656,52.955914 L18.4798227,51.6910538 C18.7124668,51.5487568 18.8141072,51.2619051 18.7215015,51.0044154 C18.6311544,50.7469263 18.3714062,50.5888184 18.1003647,50.6249573 Z" id="arrow_left" fill="#000000" transform="translate(25.472693, 53.527041) rotate(-360.000000) translate(-25.472693, -53.527041) "></path>
            <line x1="13.9941056" y1="52.133052" x2="13.9941056" y2="54.9258723" id="Line" stroke="#000000" stroke-linecap="square"></line>
            <line x1="36.93127" y1="52.133052" x2="36.93127" y2="54.9258723" id="Line" stroke="#000000" stroke-linecap="square"></line>
            <line x1="52.0517019" y1="52.133052" x2="52.0517019" y2="54.9258723" id="Line" stroke="#9A9A9A" stroke-linecap="square"></line>
            <g id="clock" transform="translate(17.695265, 35.315101)">
                <circle id="Oval" stroke="#000000" stroke-width="1.5" cx="7.65236748" cy="7.65236748" r="7.65236748"></circle>
                <g id="clock_hands" transform="translate(4.047634, 4.469794)">
                    <rect id="Rectangle" fill="#000000" x="3.0817171" y="0" width="1.04603349" height="3" rx="0.523016746"></rect>
                    <rect id="Rectangle" fill="#000000" transform="translate(1.731726, 3.831570) rotate(-288.000000) translate(-1.731726, -3.831570) " x="1.20870949" y="2.18066372" width="1.04603349" height="3.30181256" rx="0.523016746"></rect>
                    <circle id="Oval" stroke="#000000" stroke-width="0.4" fill="#FFFFFF" cx="3.60473385" cy="3.18257317" r="1"></circle>
                </g>
            </g>
        </g>
    </g>
</svg>