<?xml version="1.0" encoding="UTF-8"?>
<svg width="67px" height="67px" viewBox="0 0 67 67" version="1.1" xmlns="http://www.w3.org/2000/svg" xmlns:xlink="http://www.w3.org/1999/xlink">
    <title>tt_tbl_colnames</title>
    <g id="All-Icons" stroke="none" stroke-width="1" fill="none" fill-rule="evenodd">
        <g id="tt_tbl_colnames" transform="translate(0.712234, 0.931034)">
            <path d="M56,1 C58.4852814,1 60.7352814,2.00735931 62.363961,3.63603897 C63.9926407,5.26471863 65,7.51471863 65,10 L65,10 L65,65 L10,65 C7.51471863,65 5.26471863,63.9926407 3.63603897,62.363961 C2.00735931,60.7352814 1,58.4852814 1,56 L1,56 L1,10 C1,7.51471863 2.00735931,5.26471863 3.63603897,3.63603897 C5.26471863,2.00735931 7.51471863,1 10,1 L10,1 Z" id="rectangle" stroke="#000000" stroke-width="2" fill="#FFFFFF"></path>
            <g id="transformer" transform="translate(9.845645, 9.902909)" stroke="#000000" stroke-width="2">
                <circle id="Oval" cx="16.8501942" cy="9.35019417" r="9.35019417"></circle>
                <circle id="Oval" cx="29.4585155" cy="9.35019417" r="9.35019417"></circle>
                <line x1="38.8087097" y1="9.35019417" x2="45.8087097" y2="9.35019417" id="Line" stroke-linecap="square"></line>
                <line x1="0.5" y1="9.35019417" x2="7.5" y2="9.35019417" id="Line-2-Copy" stroke-linecap="square"></line>
            </g>
            <g id="tbl_right" transform="translate(41.612454, 39.949589)">
                <path d="M7.3364663,0 C7.31954011,0.00042651168 7.30266296,0.00226047425 7.28596822,0.00549250133 L0.354070024,0.00549250133 C0.161113713,0.00551466375 0.00469653909,0.18519805 0.00467724635,0.406855573 L0.00467724635,5.55715895 C-0.00155908212,5.60050273 -0.00155908212,5.64472857 0.00467724635,5.68807235 L0.00467724635,11.176242 C-0.00155908212,11.2195857 -0.00155908212,11.2638116 0.00467724635,11.3071554 L0.00467724635,16.4613784 C0.00469653909,16.683036 0.161113713,16.8627194 0.354070024,16.8627415 L7.28323841,16.8627415 C7.32096984,16.8699055 7.35946912,16.8699055 7.39720055,16.8627415 L14.3297811,16.8627415 C14.5227374,16.8627194 14.6791546,16.683036 14.6791739,16.4613784 L14.6791739,11.3110751 C14.6854102,11.2677313 14.6854102,11.2235054 14.6791739,11.1801617 L14.6791739,5.69199206 C14.6854102,5.64864828 14.6854102,5.60442244 14.6791739,5.56107866 L14.6791739,0.406855573 C14.6791546,0.18519805 14.5227374,0.00551466375 14.3297811,0.00549250133 L7.39583582,0.00549250133 C7.37621801,0.00172566528 7.35635603,0 7.3364663,0 Z M0.703462801,0.808218645 L6.99253279,0.808218645 L6.99253279,5.22321243 L0.703462801,5.22321243 L0.703462801,0.808218645 Z M7.69131834,0.808218645 L13.9803883,0.808218645 L13.9803883,5.22321243 L7.69131834,5.22321243 L7.69131834,0.808218645 Z M0.703462801,6.02593858 L6.99253279,6.02593858 L6.99253279,10.8422954 L0.703462801,10.8422954 L0.703462801,6.02593858 Z M7.69131834,6.02593858 L13.9803883,6.02593858 L13.9803883,10.8422954 L7.69131834,10.8422954 L7.69131834,6.02593858 Z M0.703462801,11.6450216 L6.99253279,11.6450216 L6.99253279,16.0600154 L0.703462801,16.0600154 L0.703462801,11.6450216 Z M7.69131834,11.6450216 L13.9803883,11.6450216 L13.9803883,16.0600154 L7.69131834,16.0600154 L7.69131834,11.6450216 Z" id="Shape" fill="#000000" fill-rule="nonzero"></path>
                <g id="columns_cells" transform="translate(10.817341, 8.434057) rotate(-270.000000) translate(-10.817341, -8.434057) translate(3.739451, 6.780897)" stroke="#000000" stroke-width="0.5">
                    <circle id="Oval" fill="#F06C6C" cx="1.65316002" cy="1.65316002" r="1.65316002"></circle>
                    <circle id="Oval" fill="#6FD23F" cx="7.07788996" cy="1.65316002" r="1.65316002"></circle>
                    <circle id="Oval" fill="#67A0EE" cx="12.5026199" cy="1.65316002" r="1.65316002"></circle>
                </g>
            </g>
            <g id="tbl_left" transform="translate(9.703695, 34.489009)">
                <g id="left_table" transform="translate(0.000000, 5.460580)" fill="#000000" fill-rule="nonzero">
                    <path d="M7.3364663,0 C7.31954011,0.00042651168 7.30266296,0.00226047425 7.28596822,0.00549250133 L0.354070024,0.00549250133 C0.161113713,0.00551466375 0.00469653909,0.18519805 0.00467724635,0.406855573 L0.00467724635,5.55715895 C-0.00155908212,5.60050273 -0.00155908212,5.64472857 0.00467724635,5.68807235 L0.00467724635,11.176242 C-0.00155908212,11.2195857 -0.00155908212,11.2638116 0.00467724635,11.3071554 L0.00467724635,16.4613784 C0.00469653909,16.683036 0.161113713,16.8627194 0.354070024,16.8627415 L7.28323841,16.8627415 C7.32096984,16.8699055 7.35946912,16.8699055 7.39720055,16.8627415 L14.3297811,16.8627415 C14.5227374,16.8627194 14.6791546,16.683036 14.6791739,16.4613784 L14.6791739,11.3110751 C14.6854102,11.2677313 14.6854102,11.2235054 14.6791739,11.1801617 L14.6791739,5.69199206 C14.6854102,5.64864828 14.6854102,5.60442244 14.6791739,5.56107866 L14.6791739,0.406855573 C14.6791546,0.18519805 14.5227374,0.00551466375 14.3297811,0.00549250133 L7.39583582,0.00549250133 C7.37621801,0.00172566528 7.35635603,0 7.3364663,0 Z M0.703462801,0.808218645 L6.99253279,0.808218645 L6.99253279,5.22321243 L0.703462801,5.22321243 L0.703462801,0.808218645 Z M7.69131834,0.808218645 L13.9803883,0.808218645 L13.9803883,5.22321243 L7.69131834,5.22321243 L7.69131834,0.808218645 Z M0.703462801,6.02593858 L6.99253279,6.02593858 L6.99253279,10.8422954 L0.703462801,10.8422954 L0.703462801,6.02593858 Z M7.69131834,6.02593858 L13.9803883,6.02593858 L13.9803883,10.8422954 L7.69131834,10.8422954 L7.69131834,6.02593858 Z M0.703462801,11.6450216 L6.99253279,11.6450216 L6.99253279,16.0600154 L0.703462801,16.0600154 L0.703462801,11.6450216 Z M7.69131834,11.6450216 L13.9803883,11.6450216 L13.9803883,16.0600154 L7.69131834,16.0600154 L7.69131834,11.6450216 Z" id="Shape"></path>
                    <path d="M14.3404127,0 C14.3234865,0.00042651168 14.3066094,0.00226047425 14.2899146,0.00549250133 L7.35801641,0.00549250133 C7.1650601,0.00551466375 7.00864293,0.18519805 7.00862364,0.406855573 L7.00862364,5.55715895 C7.00238731,5.60050273 7.00238731,5.64472857 7.00862364,5.68807235 L7.00862364,11.176242 C7.00238731,11.2195857 7.00238731,11.2638116 7.00862364,11.3071554 L7.00862364,16.4613784 C7.00864293,16.683036 7.1650601,16.8627194 7.35801641,16.8627415 L14.2871848,16.8627415 C14.3249162,16.8699055 14.3634155,16.8699055 14.4011469,16.8627415 L21.3337275,16.8627415 C21.5266838,16.8627194 21.683101,16.683036 21.6831203,16.4613784 L21.6831203,11.3110751 C21.6893566,11.2677313 21.6893566,11.2235054 21.6831203,11.1801617 L21.6831203,5.69199206 C21.6893566,5.64864828 21.6893566,5.60442244 21.6831203,5.56107866 L21.6831203,0.406855573 C21.683101,0.18519805 21.5266838,0.00551466375 21.3337275,0.00549250133 L14.3997822,0.00549250133 C14.3801644,0.00172566528 14.3603024,0 14.3404127,0 Z M7.70740919,0.808218645 L13.9964792,0.808218645 L13.9964792,5.22321243 L7.70740919,5.22321243 L7.70740919,0.808218645 Z M14.6952647,0.808218645 L20.9843347,0.808218645 L20.9843347,5.22321243 L14.6952647,5.22321243 L14.6952647,0.808218645 Z M7.70740919,6.02593858 L13.9964792,6.02593858 L13.9964792,10.8422954 L7.70740919,10.8422954 L7.70740919,6.02593858 Z M14.6952647,6.02593858 L20.9843347,6.02593858 L20.9843347,10.8422954 L14.6952647,10.8422954 L14.6952647,6.02593858 Z M7.70740919,11.6450216 L13.9964792,11.6450216 L13.9964792,16.0600154 L7.70740919,16.0600154 L7.70740919,11.6450216 Z M14.6952647,11.6450216 L20.9843347,11.6450216 L20.9843347,16.0600154 L14.6952647,16.0600154 L14.6952647,11.6450216 Z" id="Shape"></path>
                </g>
                <g id="columns_above" transform="translate(1.705790, 0.000000)" stroke="#000000">
                    <circle id="Oval" fill="#F06C6C" cx="2.13389961" cy="2.13389961" r="2.13389961"></circle>
                    <circle id="Oval" fill="#6FD23F" cx="9.13614317" cy="2.13389961" r="2.13389961"></circle>
                    <circle id="Oval" fill="#67A0EE" cx="16.1383867" cy="2.13389961" r="2.13389961"></circle>
                </g>
            </g>
            <path d="M35.6010763,46.30213 C35.7957919,46.2761679 35.9823945,46.3897523 36.0472997,46.5747319 C36.1138274,46.7597119 36.0408091,46.9657857 35.8736781,47.0680115 L35.8736781,47.0680115 L34.6664413,47.9766844 L39.795,47.9764506 L39.795,48.8074506 L34.6664413,48.807471 L35.8736781,49.7161439 C36.0602807,49.8556903 36.0976013,50.1201787 35.9580549,50.3067813 C35.8185089,50.4933839 35.5540201,50.5307045 35.3674175,50.391158 L35.3674175,50.391158 L33.1736215,48.7295848 C33.0649052,48.6516985 33,48.5251336 33,48.3920777 C33,48.2590222 33.0649052,48.1324569 33.1736215,48.0545706 L33.1736215,48.0545706 L35.3674175,46.3929973 C35.4209642,46.3524317 35.4826244,46.3264696 35.5491521,46.3151111 C35.5653786,46.3102431 35.5832272,46.3053755 35.6010763,46.30213 Z" id="arrow" fill="#000000" transform="translate(36.397500, 48.386981) rotate(-180.000000) translate(-36.397500, -48.386981) "></path>
        </g>
    </g>
</svg>