<?xml version="1.0" encoding="UTF-8"?>
<svg width="67px" height="67px" viewBox="0 0 67 67" version="1.1" xmlns="http://www.w3.org/2000/svg" xmlns:xlink="http://www.w3.org/1999/xlink">
    <title>tt_time_shift</title>
    <g id="All-Icons" stroke="none" stroke-width="1" fill="none" fill-rule="evenodd">
        <g id="tt_time_shift" transform="translate(0.712234, 0.413793)">
            <path d="M56,1 C58.4852814,1 60.7352814,2.00735931 62.363961,3.63603897 C63.9926407,5.26471863 65,7.51471863 65,10 L65,10 L65,65 L10,65 C7.51471863,65 5.26471863,63.9926407 3.63603897,62.363961 C2.00735931,60.7352814 1,58.4852814 1,56 L1,56 L1,10 C1,7.51471863 2.00735931,5.26471863 3.63603897,3.63603897 C5.26471863,2.00735931 7.51471863,1 10,1 L10,1 Z" id="rectangle" stroke="#000000" stroke-width="2" fill="#FFFFFF"></path>
            <g id="transformer" transform="translate(9.845645, 9.902909)" stroke="#000000" stroke-width="2">
                <circle id="Oval" cx="16.8501942" cy="9.35019417" r="9.35019417"></circle>
                <circle id="Oval" cx="29.4585155" cy="9.35019417" r="9.35019417"></circle>
                <line x1="38.8087097" y1="9.35019417" x2="45.8087097" y2="9.35019417" id="Line" stroke-linecap="square"></line>
                <line x1="0.5" y1="9.35019417" x2="7.5" y2="9.35019417" id="Line-2-Copy" stroke-linecap="square"></line>
            </g>
            <g id="clock" transform="translate(22.798268, 38.338482)">
                <circle id="Oval" stroke="#000000" stroke-width="1.5" cx="7.65236748" cy="7.65236748" r="7.65236748"></circle>
                <g id="clock_hands" transform="translate(4.047634, 4.469794)">
                    <rect id="Rectangle" fill="#000000" x="3.0817171" y="0" width="1.04603349" height="3" rx="0.523016746"></rect>
                    <rect id="Rectangle" fill="#000000" transform="translate(1.731726, 3.831570) rotate(-288.000000) translate(-1.731726, -3.831570) " x="1.20870949" y="2.18066372" width="1.04603349" height="3.30181256" rx="0.523016746"></rect>
                    <circle id="Oval" stroke="#000000" stroke-width="0.4" fill="#FFFFFF" cx="3.60473385" cy="3.18257317" r="1"></circle>
                </g>
            </g>
            <polygon id="Rectangle" fill="#FFFFFF" points="32.1194801 45.817416 39 45.817416 39 55 32.5178531 55 31.9958422 52.4745032"></polygon>
            <path d="M36.3646026,50.1077159 C36.6356441,50.0715771 36.8953923,50.2296849 36.9857394,50.487174 C37.0783451,50.7446637 36.9767047,51.0315155 36.7440606,51.1738124 L36.7440606,51.1738124 L35.0636035,52.4386726 L44.3609401,52.4385942 L44.3609401,53.5945942 L35.0636035,53.5951162 L36.7440606,54.8599764 C37.0038089,55.0542231 37.0557586,55.4223873 36.861512,55.6821355 C36.6672659,55.9418837 36.299101,55.9938335 36.0393528,55.7995868 L36.0393528,55.7995868 L32.9856189,53.4866996 C32.8342873,53.378283 32.7439401,53.2021063 32.7439401,53.0168944 C32.7439401,52.831683 32.8342873,52.6555058 32.9856189,52.5470892 L32.9856189,52.5470892 L36.0393528,50.2342019 C36.1138891,50.1777351 36.1997192,50.1415963 36.2923249,50.1257854 C36.3149119,50.1190092 36.339757,50.1122336 36.3646026,50.1077159 Z" id="arrow_right" fill="#000000" transform="translate(38.552440, 53.009799) rotate(-180.000000) translate(-38.552440, -53.009799) "></path>
            <path d="M36.1340692,45.0368907 C36.4051107,45.0007518 36.6648589,45.1588597 36.755206,45.4163488 C36.8478117,45.6738385 36.7461713,45.9606902 36.5135273,46.1029872 L36.5135273,46.1029872 L34.8330701,47.3678474 L44.1304067,47.367769 L44.1304067,48.523769 L34.8330701,48.524291 L36.5135273,49.7891512 C36.7732755,49.9833978 36.8252252,50.3515621 36.6309786,50.6113103 C36.4367325,50.8710585 36.0685677,50.9230083 35.8088194,50.7287616 L35.8088194,50.7287616 L32.7550855,48.4158744 C32.6037539,48.3074578 32.5134067,48.1312811 32.5134067,47.9460692 C32.5134067,47.7608578 32.6037539,47.5846805 32.7550855,47.4762639 L32.7550855,47.4762639 L35.8088194,45.1633767 C35.8833557,45.1069099 35.9691858,45.070771 36.0617915,45.0549601 C36.0843786,45.048184 36.1092236,45.0414084 36.1340692,45.0368907 Z" id="arrow_left" fill="#000000" transform="translate(38.321907, 47.938974) rotate(-360.000000) translate(-38.321907, -47.938974) "></path>
        </g>
    </g>
</svg>