<?xml version="1.0" encoding="UTF-8"?>
<svg width="66px" height="67px" viewBox="0 0 66 67" version="1.1" xmlns="http://www.w3.org/2000/svg" xmlns:xlink="http://www.w3.org/1999/xlink">
    <title>write_testthat_file</title>
    <g id="All-Icons" stroke="none" stroke-width="1" fill="none" fill-rule="evenodd">
        <g id="write_testthat_file" transform="translate(0.000000, 0.379310)">
            <path d="M56,1 C58.4852814,1 60.7352814,2.00735931 62.363961,3.63603897 C63.9926407,5.26471863 65,7.51471863 65,10 L65,10 L65,65 L10,65 C7.51471863,65 5.26471863,63.9926407 3.63603897,62.363961 C2.00735931,60.7352814 1,58.4852814 1,56 L1,56 L1,10 C1,7.51471863 2.00735931,5.26471863 3.63603897,3.63603897 C5.26471863,2.00735931 7.51471863,1 10,1 L10,1 Z" id="rectangle" stroke="#000000" stroke-width="2" fill="#FFFFFF"></path>
            <path d="M18.3520263,13.9576342 L18.3520263,52.0423658 L19.8168237,52.0423658 L47.6479737,52.0423658 L47.6479737,23.6046981 L38.000909,13.9576342 L18.3520263,13.9576342 Z M21.281621,16.8872289 L35.9295947,16.8872289 L35.9295947,25.6760131 L44.718379,25.6760131 L44.718379,49.1127711 L21.281621,49.1127711 L21.281621,16.8872289 Z M32.3188387,31.5352026 L32.3188387,34.4647974 L29.6370263,34.4646342 L29.6370606,40.4102555 L26.7074659,40.4102555 L26.7070263,34.4646342 L24.0256879,34.4647974 L24.0256879,31.5352026 L32.3188387,31.5352026 Z M38.8591895,18.9585439 L42.6470647,22.7464184 L38.8591895,22.7464184 L38.8591895,18.9585439 Z M37.4215507,31.5352026 C36.6125655,31.5352026 35.9567533,32.1910147 35.9567533,33 C35.9567533,33.8089853 36.6125655,34.4647974 37.4215507,34.4647974 C38.230536,34.4647974 38.8863481,33.8089853 38.8863481,33 C38.8863481,32.1910147 38.230536,31.5352026 37.4215507,31.5352026 Z M37.4215507,34.5352026 C36.6125655,34.5352026 35.9567533,35.1910147 35.9567533,36 C35.9567533,36.8089853 36.6125655,37.4647974 37.4215507,37.4647974 C38.230536,37.4647974 38.8863481,36.8089853 38.8863481,36 C38.8863481,35.1910147 38.230536,34.5352026 37.4215507,34.5352026 Z M37.4215507,37.5352026 C36.6125655,37.5352026 35.9567533,38.1910147 35.9567533,39 C35.9567533,39.8089853 36.6125655,40.4647974 37.4215507,40.4647974 C38.230536,40.4647974 38.8863481,39.8089853 38.8863481,39 C38.8863481,38.1910147 38.230536,37.5352026 37.4215507,37.5352026 Z M34.4215507,31.5352026 C33.6125655,31.5352026 32.9567533,32.1910147 32.9567533,33 C32.9567533,33.8089853 33.6125655,34.4647974 34.4215507,34.4647974 C35.230536,34.4647974 35.8863481,33.8089853 35.8863481,33 C35.8863481,32.1910147 35.230536,31.5352026 34.4215507,31.5352026 Z M40.4215507,31.5352026 C39.6125655,31.5352026 38.9567533,32.1910147 38.9567533,33 C38.9567533,33.8089853 39.6125655,34.4647974 40.4215507,34.4647974 C41.230536,34.4647974 41.8863481,33.8089853 41.8863481,33 C41.8863481,32.1910147 41.230536,31.5352026 40.4215507,31.5352026 Z" id="tt-file" fill="#000000" fill-rule="nonzero"></path>
        </g>
    </g>
</svg>