<?xml version="1.0" encoding="UTF-8"?>
<svg width="67px" height="67px" viewBox="0 0 67 67" version="1.1" xmlns="http://www.w3.org/2000/svg" xmlns:xlink="http://www.w3.org/1999/xlink">
    <title>x_write_disk</title>
    <g id="All-Icons" stroke="none" stroke-width="1" fill="none" fill-rule="evenodd">
        <g id="x_write_disk" transform="translate(0.000000, 0.862069)">
            <path d="M56.5981205,1 C59.0834018,1 61.3334018,2.00735931 62.9620815,3.63603897 C64.5907612,5.26471863 65.5981205,7.51471863 65.5981205,10 L65.5981205,10 L65.5981205,65 L10.5981205,65 C8.1128391,65 5.8628391,63.9926407 4.23415944,62.363961 C2.60547979,60.7352814 1.59812047,58.4852814 1.59812047,56 L1.59812047,56 L1.59812047,10 C1.59812047,7.51471863 2.60547979,5.26471863 4.23415944,3.63603897 C5.8628391,2.00735931 8.1128391,1 10.5981205,1 L10.5981205,1 Z" id="rectangle" stroke="#000000" stroke-width="2" fill="#FFFFFF"></path>
            <path d="M16,8 L16,56.0000599 L39,56.0000599 C39.359375,56.003906 39.695313,55.816406 39.878906,55.503906 C40.058594,55.191406 40.058594,54.808594 39.878906,54.496094 C39.695313,54.183594 39.359375,53.996094 39,54 L18,54 L18,10 L36,10 L36,24 L50,24 L50,34 C49.996094,34.359375 50.183594,34.695313 50.496094,34.878906 C50.808594,35.058594 51.191406,35.058594 51.503906,34.878906 C51.816406,34.695313 52.003906,34.359375 52.0000599,34 L52.0000599,22.585938 L37.414063,8 L16,8 Z M38,11.414063 L48.585938,22 L38,22 L38,11.414063 Z M42.0602357,37.1730481 L42.0602357,46.1637151 L37.6209762,46.1637151 L45.3393914,55.0457019 L52.7144584,46.1637151 L48.2751989,46.1637151 L48.2751989,37.1730481 L42.0602357,37.1730481 Z M43.8359395,38.9487519 L46.4994951,38.9487519 L46.4994951,47.9394189 L49.1630508,47.9394189 L45.3393914,52.3387942 L41.517467,47.9394189 L43.8359395,47.9394189 L43.8359395,38.9487519 Z" id="new_file" fill="#000000" fill-rule="nonzero"></path>
        </g>
    </g>
</svg>