<?xml version="1.0" encoding="UTF-8"?>
<svg width="67px" height="67px" viewBox="0 0 67 67" version="1.1" xmlns="http://www.w3.org/2000/svg" xmlns:xlink="http://www.w3.org/1999/xlink">
    <title>yaml_informant_incorporate</title>
    <g id="All-Icons" stroke="none" stroke-width="1" fill="none" fill-rule="evenodd">
        <g id="yaml_informant_incorporate" transform="translate(0.000000, -0.413793)">
            <path d="M56.212234,1.51038131 C58.6975153,1.51038131 60.9475153,2.51774062 62.576195,4.14642028 C64.2048747,5.77509994 65.212234,8.02509994 65.212234,10.5103813 L65.212234,10.5103813 L65.212234,65.5103813 L10.212234,65.5103813 C7.72695259,65.5103813 5.47695259,64.503022 3.84827294,62.8743423 C2.21959328,61.2456627 1.21223397,58.9956627 1.21223397,56.5103813 L1.21223397,56.5103813 L1.21223397,10.5103813 C1.21223397,8.02509994 2.21959328,5.77509994 3.84827294,4.14642028 C5.47695259,2.51774062 7.72695259,1.51038131 10.212234,1.51038131 L10.212234,1.51038131 Z" id="rectangle" stroke="#000000" stroke-width="2" fill="#FFFFFF"></path>
            <path d="M44.2808894,43.0578642 L37.8688173,43.0578642 L36.4542431,44.4718849 L35.6716892,43.689331 L37.0862634,42.2747568 L37.0862634,35.8632381 C37.0862634,35.5577432 36.8388789,35.3098054 36.5328306,35.3098054 L22.1435785,35.3098054 C21.8380836,35.3098054 21.5901457,35.5577432 21.5901457,35.8632381 L21.5901457,50.2524902 C21.5901457,50.5585385 21.8380836,50.805923 22.1435785,50.805923 L28.5556506,50.805923 L29.9696714,49.3919023 L30.7527787,50.1744562 L29.3382046,51.5890304 L29.3382046,58.000549 C29.3382046,58.3065974 29.5861424,58.5539818 29.8916373,58.5539818 L44.2808894,58.5539818 C44.5869377,58.5539818 44.8343222,58.3065974 44.8343222,58.000549 L44.8343222,43.6112969 C44.8343222,43.3058021 44.5869377,43.0578642 44.2808894,43.0578642 Z M24.9107424,44.7181625 L24.9107424,43.6112969 L29.1090834,43.6112969 L23.9660326,38.4682462 L24.7485866,37.6856923 L29.8916373,42.828743 L29.8916373,38.630402 L30.9985029,38.630402 L30.9985029,44.7181625 L24.9107424,44.7181625 Z M31.4733482,49.4533333 L30.6907943,48.6707794 L31.6299697,47.7321574 L32.4125236,48.5147113 L31.4733482,49.4533333 Z M33.1336465,47.7924815 L32.3510926,47.0099276 L33.290268,46.0707522 L34.0728219,46.8533061 L33.1336465,47.7924815 Z M34.0113909,45.3496293 L34.9505663,44.4104539 L35.7331202,45.1930078 L34.7939448,46.1321832 L34.0113909,45.3496293 Z M41.6758814,56.1780949 L36.5328306,51.0350442 L36.5328306,55.2333852 L35.4259651,55.2333852 L35.4259651,49.1456247 L41.5137256,49.1456247 L41.5137256,50.2524902 L37.3153845,50.2524902 L42.4584353,55.395541 L41.6758814,56.1780949 Z" id="merge-small" fill="#000000" fill-rule="nonzero"></path>
            <path d="M18.64026,18.3523354 L18.64026,16.0226802 L20.9699151,16.0226802 L20.9699151,18.3523354 L18.64026,18.3523354 Z M22.1347427,18.3523354 L22.1347427,16.0226802 L30.2910958,16.0226802 L30.2910958,14.8578526 L20.9699151,14.8578526 C20.3264833,14.8578526 19.7769292,14.6300095 19.3212361,14.1743165 C18.8672497,13.7203301 18.64026,13.1716293 18.64026,12.5281975 L18.64026,7.86632715 L20.9699151,9.03371478 L20.9699151,12.5281975 L30.2910958,12.5281975 L30.2910958,9.03371478 L32.6207509,9.03371478 L32.6207509,16.0226802 C32.6207509,16.666112 32.3929078,17.2156662 31.9372147,17.6713592 C31.4815217,18.1253456 30.9328208,18.3523354 30.2910958,18.3523354 L22.1347427,18.3523354 Z M37.2800612,14.8578526 L37.2800612,12.5281975 L39.6097163,12.5281975 L39.6097163,14.8578526 L37.2800612,14.8578526 Z M47.7660694,25.1569333 L45.4364143,23.9921057 L45.4364143,14.8578526 L40.7745439,14.8578526 L40.7745439,12.5281975 L45.4364143,12.5281975 L45.4364143,11.3633699 L36.1152336,11.3633699 L36.1152336,18.3523354 L33.7855785,18.3523354 L33.7855785,9.03371478 L45.4364143,9.03371478 C46.0781393,9.03371478 46.6268402,9.26070455 47.0825332,9.7146909 C47.5382263,10.170384 47.7660694,10.7199381 47.7660694,11.3633699 L47.7660694,25.1569333 Z M24.4987574,29.2346652 L24.4987574,26.9050101 L26.8284126,26.9050101 L26.8284126,29.2346652 L24.4987574,29.2346652 Z M32.6157871,30.3994928 L30.286132,29.2346652 L30.286132,22.2456998 L26.8284126,22.2456998 L26.8284126,25.7401825 L24.4987574,25.7401825 L24.4987574,22.2456998 L20.9766169,22.2456998 L20.9766169,29.2346652 L18.6469617,29.2346652 L18.6469617,19.9160446 L24.4987574,19.9160446 C24.8213267,19.9160446 25.0961038,20.0295395 25.323097,20.2565327 C25.5500901,20.4835259 25.663585,20.758303 25.663585,21.0808722 C25.663585,20.758303 25.7770799,20.4835259 26.0040731,20.2565327 C26.232773,20.0295395 26.5075501,19.9160446 26.8284126,19.9160446 L30.286132,19.9160446 C30.9295637,19.9160446 31.4782646,20.1430344 31.9322509,20.5970208 C32.387944,21.0527138 32.6157871,21.602268 32.6157871,22.2456998 L32.6157871,30.3994928 Z M37.2981997,26.9360901 L37.2981997,24.606435 L39.6278549,24.606435 L39.6278549,26.9360901 L37.2981997,26.9360901 Z M36.1333722,30.4305728 C35.4899404,30.4305728 34.9403862,30.2035831 34.4846932,29.7495967 C34.0307068,29.2939036 33.803717,28.7443495 33.803717,28.1009177 L33.803717,19.5020397 L36.1333722,20.6694273 L36.1333722,28.1009177 L47.784208,28.1009177 L46.6193804,30.4305728 L36.1333722,30.4305728 Z" id="YA-ML" fill="#000000"></path>
        </g>
    </g>
</svg>