<?xml version="1.0" encoding="UTF-8"?>
<svg width="66px" height="67px" viewBox="0 0 66 67" version="1.1" xmlns="http://www.w3.org/2000/svg" xmlns:xlink="http://www.w3.org/1999/xlink">
    <title>yaml_exec</title>
    <g id="All-Icons" stroke="none" stroke-width="1" fill="none" fill-rule="evenodd">
        <g id="yaml_exec" transform="translate(0.000000, 0.068966)">
            <path d="M56,1 C58.4852814,1 60.7352814,2.00735931 62.363961,3.63603897 C63.9926407,5.26471863 65,7.51471863 65,10 L65,10 L65,65 L10,65 C7.51471863,65 5.26471863,63.9926407 3.63603897,62.363961 C2.00735931,60.7352814 1,58.4852814 1,56 L1,56 L1,10 C1,7.51471863 2.00735931,5.26471863 3.63603897,3.63603897 C5.26471863,2.00735931 7.51471863,1 10,1 L10,1 Z" id="rectangle" stroke="#000000" stroke-width="2" fill="#FFFFFF"></path>
            <g id="gears" transform="translate(20.712234, 33.000000)" fill="#000000" fill-rule="nonzero">
                <path d="M21.3325,-4.09361835e-13 C21.1482423,-0.006210964 20.9701952,0.0828125 20.86875,0.2484375 L20.0240625,1.623125 C19.7383596,1.60035143 19.4630077,1.59828125 19.179375,1.623125 L18.318125,0.265 C18.1794139,0.045546875 17.8937111,-0.033125 17.655625,0.06625 L16.165,0.695625 C15.9289846,0.795 15.7923437,1.05792982 15.8503125,1.3084375 L16.2146875,2.881875 C15.9952346,3.07027357 15.7882034,3.27316393 15.601875,3.4946875 L14.0284375,3.1303125 C13.7717187,3.07234375 13.5294923,3.22140625 13.4321875,3.4615625 L12.819375,4.96875 C12.7220702,5.20683607 12.8007423,5.47804714 13.018125,5.6146875 L14.37625,6.459375 C14.3534764,6.74714857 14.3658986,7.04941393 14.3928125,7.3371875 L13.0346875,8.181875 C12.8152346,8.32058607 12.7344923,8.60628893 12.8359375,8.844375 L13.4653125,10.335 C13.5646875,10.5710159 13.8110548,10.7097264 14.0615625,10.6496875 L15.635,10.301875 C15.8213284,10.5192577 16.0262889,10.7138673 16.2478125,10.898125 L15.9,12.4715625 C15.8441014,12.7241409 15.9745312,12.9870702 16.2146875,13.084375 L17.721875,13.6971875 C17.7860548,13.7241014 17.854375,13.7303125 17.920625,13.7303125 C18.0986721,13.7303125 18.2684375,13.6392187 18.3678125,13.481875 L19.245625,12.1071875 C19.5333986,12.1278909 19.8232423,12.1175389 20.106875,12.090625 L20.9846875,13.4653125 C21.1254687,13.680625 21.3946096,13.7634375 21.630625,13.6640625 L23.1378125,13.0346875 C23.3779687,12.9332423 23.4959764,12.6744534 23.4359375,12.421875 L23.055,10.8484375 C23.2682423,10.6641798 23.4690625,10.4530077 23.65125,10.235625 L25.24125,10.5834375 C25.4979687,10.6393361 25.7567577,10.5068361 25.8540625,10.26875 L26.466875,8.7615625 C26.5641798,8.51933607 26.4730861,8.23363268 26.2515625,8.0990625 L24.8603125,7.254375 C24.8810159,6.9728125 24.8851562,6.69125 24.8603125,6.4096875 L26.2184375,5.5153125 C26.43375,5.37660143 26.533125,5.10539089 26.43375,4.869375 L25.7878125,3.37875 C25.6884375,3.14066393 25.4317187,3.00402357 25.175,3.0640625 L23.6015625,3.445 C23.4152346,3.22761732 23.2247659,3.03300768 23.0053125,2.84875 L23.3365625,1.25875 C23.3903909,1.00617214 23.2599611,0.74324232 23.021875,0.6459375 L21.5146875,0.033125 C21.4546486,0.00828125 21.3946096,0.0020703125 21.3325,-4.09361835e-13 Z M19.61,4.70375 C19.8915625,4.69960964 20.1772659,4.74101589 20.4546875,4.8528125 C21.564375,5.30414089 22.0985159,6.5753125 21.6471875,7.685 C21.1958596,8.7946875 19.9246875,9.32882839 18.815,8.8775 C17.7053125,8.42617214 17.1711721,7.155 17.6225,6.0453125 C17.9620313,5.21304714 18.7653125,4.71617214 19.61,4.70375 Z M7.7015625,9.01 C7.44277357,9.01 7.21296875,9.20046875 7.1715625,9.4571875 L6.8403125,11.5440625 C6.44695339,11.6641409 6.05773464,11.8173437 5.6975,12.0078125 L3.975,10.7821875 C3.76382839,10.6310548 3.48019518,10.6496875 3.2959375,10.831875 L1.8384375,12.289375 C1.65625,12.4715625 1.64175768,12.7572659 1.78875,12.9684375 L2.9978125,14.7075 C2.80320339,15.071875 2.63964857,15.4548827 2.5175,15.8503125 L0.4471875,16.1815625 C0.19046875,16.2250389 0,16.4527736 0,16.7115625 L0,18.7653125 C0,19.0220312 0.17804714,19.2497659 0.430625,19.2953125 L2.5175,19.6596875 C2.63964857,20.0551173 2.80320339,20.438125 2.9978125,20.8025 L1.7721875,22.525 C1.62105482,22.7361721 1.63761732,23.0198048 1.821875,23.2040625 L3.279375,24.6615625 C3.4615625,24.84375 3.74726589,24.8582423 3.9584375,24.71125 L5.6975,23.5021875 C6.05980482,23.6947264 6.43039089,23.8458596 6.82375,23.9659375 L7.1715625,26.0528125 C7.21296875,26.3074611 7.44277357,26.5 7.7015625,26.5 L9.7553125,26.5 C10.0120312,26.5 10.2397659,26.3219534 10.2853125,26.069375 L10.6496875,23.949375 C11.0430471,23.8272264 11.4157034,23.6781639 11.7759375,23.485625 L13.5315625,24.71125 C13.7427346,24.8582423 14.0284375,24.84375 14.210625,24.6615625 L15.668125,23.2040625 C15.8523827,23.0198048 15.8689452,22.7196096 15.7178125,22.5084375 L14.475625,20.7859375 C14.6660937,20.4257034 14.8192971,20.0468361 14.939375,19.6596875 L17.059375,19.2953125 C17.3140236,19.2497659 17.49,19.0220312 17.49,18.7653125 L17.49,16.7115625 C17.49,16.4527736 17.2995312,16.2395312 17.0428125,16.198125 L14.939375,15.8503125 C14.8192971,15.4631639 14.6660937,15.0842971 14.475625,14.7240625 L15.70125,12.9684375 C15.8482423,12.7572659 15.83375,12.4715625 15.6515625,12.289375 L14.1940625,10.831875 C14.0098048,10.6476173 13.7261721,10.6310548 13.515,10.7821875 L11.7759375,12.024375 C11.4136327,11.8318361 11.0409764,11.6807034 10.6496875,11.560625 L10.2853125,9.4571875 C10.2418361,9.20253893 10.0120312,9.01 9.7553125,9.01 L7.7015625,9.01 Z M8.745,15.0221875 C10.2583986,15.0221875 11.4778125,16.2416014 11.4778125,17.755 C11.4778125,19.2683986 10.2563284,20.4878125 8.745,20.4878125 C7.23367214,20.4878125 6.0121875,19.2683986 6.0121875,17.755 C6.0121875,16.2416014 7.23160143,15.0221875 8.745,15.0221875 Z" id="Shape"></path>
            </g>
            <path d="M19.64026,18.3240974 L19.64026,15.9944423 L21.9699151,15.9944423 L21.9699151,18.3240974 L19.64026,18.3240974 Z M23.1347427,18.3240974 L23.1347427,15.9944423 L31.2910958,15.9944423 L31.2910958,14.8296147 L21.9699151,14.8296147 C21.3264833,14.8296147 20.7769292,14.6017716 20.3212361,14.1460785 C19.8672497,13.6920922 19.64026,13.1433913 19.64026,12.4999595 L19.64026,7.83808919 L21.9699151,9.00547682 L21.9699151,12.4999595 L31.2910958,12.4999595 L31.2910958,9.00547682 L33.6207509,9.00547682 L33.6207509,15.9944423 C33.6207509,16.637874 33.3929078,17.1874282 32.9372147,17.6431213 C32.4815217,18.0971076 31.9328208,18.3240974 31.2910958,18.3240974 L23.1347427,18.3240974 Z M38.2800612,14.8296147 L38.2800612,12.4999595 L40.6097163,12.4999595 L40.6097163,14.8296147 L38.2800612,14.8296147 Z M48.7660694,25.1286953 L46.4364143,23.9638678 L46.4364143,14.8296147 L41.7745439,14.8296147 L41.7745439,12.4999595 L46.4364143,12.4999595 L46.4364143,11.335132 L37.1152336,11.335132 L37.1152336,18.3240974 L34.7855785,18.3240974 L34.7855785,9.00547682 L46.4364143,9.00547682 C47.0781393,9.00547682 47.6268402,9.23246659 48.0825332,9.68645294 C48.5382263,10.142146 48.7660694,10.6917002 48.7660694,11.335132 L48.7660694,25.1286953 Z M25.4987574,29.2064273 L25.4987574,26.8767721 L27.8284126,26.8767721 L27.8284126,29.2064273 L25.4987574,29.2064273 Z M33.6157871,30.3712548 L31.286132,29.2064273 L31.286132,22.2174618 L27.8284126,22.2174618 L27.8284126,25.7119445 L25.4987574,25.7119445 L25.4987574,22.2174618 L21.9766169,22.2174618 L21.9766169,29.2064273 L19.6469617,29.2064273 L19.6469617,19.8878067 L25.4987574,19.8878067 C25.8213267,19.8878067 26.0961038,20.0013016 26.323097,20.2282947 C26.5500901,20.4552879 26.663585,20.730065 26.663585,21.0526343 C26.663585,20.730065 26.7770799,20.4552879 27.0040731,20.2282947 C27.232773,20.0013016 27.5075501,19.8878067 27.8284126,19.8878067 L31.286132,19.8878067 C31.9295637,19.8878067 32.4782646,20.1147965 32.9322509,20.5687828 C33.387944,21.0244759 33.6157871,21.5740301 33.6157871,22.2174618 L33.6157871,30.3712548 Z M38.2981997,26.9078522 L38.2981997,24.578197 L40.6278549,24.578197 L40.6278549,26.9078522 L38.2981997,26.9078522 Z M37.1333722,30.4023349 C36.4899404,30.4023349 35.9403862,30.1753451 35.4846932,29.7213587 C35.0307068,29.2656657 34.803717,28.7161115 34.803717,28.0726797 L34.803717,19.4738017 L37.1333722,20.6411893 L37.1333722,28.0726797 L48.784208,28.0726797 L47.6193804,30.4023349 L37.1333722,30.4023349 Z" id="YA-ML" fill="#000000"></path>
        </g>
    </g>
</svg>