<?xml version="1.0" encoding="UTF-8"?>
<svg width="67px" height="67px" viewBox="0 0 67 67" version="1.1" xmlns="http://www.w3.org/2000/svg" xmlns:xlink="http://www.w3.org/1999/xlink">
    <title>yaml_write</title>
    <g id="All-Icons" stroke="none" stroke-width="1" fill="none" fill-rule="evenodd">
        <g id="yaml_write" transform="translate(0.000000, -0.310345)">
            <path d="M56.212234,1.51038131 C58.6975153,1.51038131 60.9475153,2.51774062 62.576195,4.14642028 C64.2048747,5.77509994 65.212234,8.02509994 65.212234,10.5103813 L65.212234,10.5103813 L65.212234,65.5103813 L10.212234,65.5103813 C7.72695259,65.5103813 5.47695259,64.503022 3.84827294,62.8743423 C2.21959328,61.2456627 1.21223397,58.9956627 1.21223397,56.5103813 L1.21223397,56.5103813 L1.21223397,10.5103813 C1.21223397,8.02509994 2.21959328,5.77509994 3.84827294,4.14642028 C5.47695259,2.51774062 7.72695259,1.51038131 10.212234,1.51038131 L10.212234,1.51038131 Z" id="rectangle" stroke="#000000" stroke-width="2" fill="#FFFFFF"></path>
            <g id="down-arrow" transform="translate(25.212234, 43.504410)">
                <polygon id="Path" stroke="#000000" fill="#000000" points="4.43925944 0 4.43925944 8.990667 0 8.990667 7.71841521 17.8726538 15.0934821 8.990667 10.6542227 8.990667 10.6542227 0"></polygon>
                <polygon id="Path" fill="#FFFFFF" points="6.21496322 1.77570378 8.87851889 1.77570378 8.87851889 10.7663708 11.5420746 10.7663708 7.71841521 15.1657461 3.89649072 10.7663708 6.21496322 10.7663708"></polygon>
            </g>
            <path d="M11.6543742,23.3793863 L11.6543742,19.9328814 L15.1008791,19.9328814 L15.1008791,23.3793863 L11.6543742,23.3793863 Z M16.8241315,23.3793863 L16.8241315,19.9328814 L28.8906858,19.9328814 L28.8906858,18.209629 L15.1008791,18.209629 C14.1489825,18.209629 13.335969,17.8725566 12.6618141,17.1984018 C11.9901842,16.5267718 11.6543742,15.7150208 11.6543742,14.7631242 L11.6543742,7.86632715 L15.1008791,9.59336693 L15.1008791,14.7631242 L28.8906858,14.7631242 L28.8906858,9.59336693 L32.3371906,9.59336693 L32.3371906,19.9328814 C32.3371906,20.884778 32.0001182,21.6977915 31.3259634,22.3719464 C30.6518085,23.0435763 29.8400574,23.3793863 28.8906858,23.3793863 L16.8241315,23.3793863 Z M39.2302003,18.209629 L39.2302003,14.7631242 L42.6767051,14.7631242 L42.6767051,18.209629 L39.2302003,18.209629 Z M54.7432594,33.4461464 L51.2967546,31.722894 L51.2967546,18.209629 L44.3999575,18.209629 L44.3999575,14.7631242 L51.2967546,14.7631242 L51.2967546,13.0398718 L37.5069479,13.0398718 L37.5069479,23.3793863 L34.060443,23.3793863 L34.060443,9.59336693 L51.2967546,9.59336693 C52.2461262,9.59336693 53.0578773,9.92917687 53.7320322,10.6008068 C54.406187,11.2749617 54.7432594,12.0879752 54.7432594,13.0398718 L54.7432594,33.4461464 Z M20.3214681,39.4787659 L20.3214681,36.032261 L23.767973,36.032261 L23.767973,39.4787659 L20.3214681,39.4787659 Z M32.3298472,41.2020183 L28.8833423,39.4787659 L28.8833423,29.1392514 L23.767973,29.1392514 L23.767973,34.3090086 L20.3214681,34.3090086 L20.3214681,29.1392514 L15.1107937,29.1392514 L15.1107937,39.4787659 L11.6642889,39.4787659 L11.6642889,25.6927465 L20.3214681,25.6927465 C20.7986789,25.6927465 21.2051856,25.8606515 21.5410006,26.1964665 C21.8768156,26.5322814 22.0447205,26.9387882 22.0447205,27.4159989 C22.0447205,26.9387882 22.2126255,26.5322814 22.5484405,26.1964665 C22.8867804,25.8606515 23.2932871,25.6927465 23.767973,25.6927465 L28.8833423,25.6927465 C29.8352389,25.6927465 30.64699,26.0285565 31.3186199,26.7001864 C31.9927748,27.3743413 32.3298472,28.1873548 32.3298472,29.1392514 L32.3298472,41.2020183 Z M39.2570346,36.078241 L39.2570346,32.6317362 L42.7035394,32.6317362 L42.7035394,36.078241 L39.2570346,36.078241 Z M37.5337822,41.2479982 C36.5818856,41.2479982 35.7688721,40.9121883 35.0947172,40.2405584 C34.4230873,39.5664035 34.0872773,38.75339 34.0872773,37.8014934 L34.0872773,25.0802652 L37.5337822,26.807305 L37.5337822,37.8014934 L54.7700937,37.8014934 L53.0468413,41.2479982 L37.5337822,41.2479982 Z" id="YA-ML" fill="#000000"></path>
        </g>
    </g>
</svg>