<?xml version="1.0" encoding="UTF-8"?>
<svg width="252px" height="114px" viewBox="0 0 252 114" version="1.1" xmlns="http://www.w3.org/2000/svg" xmlns:xlink="http://www.w3.org/1999/xlink">
    <!-- Generator: Sketch 43.1 (39012) - http://www.bohemiancoding.com/sketch -->
    <title>col_vals_not_null_</title>
    <desc>Created with Sketch.</desc>
    <defs></defs>
    <g id="Function-Icons" stroke="none" stroke-width="1" fill="none" fill-rule="evenodd">
        <g id="col_vals_not_null_" transform="translate(0.000000, 7.000000)">
            <path d="M70,7 L70,63.508474" id="Line" stroke="#979797" stroke-width="2" stroke-linecap="square"></path>
            <g id="function_right" stroke="#979797" stroke-width="2">
                <path d="M1.5,70 L237.008492,70" id="Line" stroke-linecap="square"></path>
                <path d="M250.812734,50 L223.473391,92.7177238 C221.275802,96.1514574 216.073131,99 212.007468,99 L7.992532,99 C4.13425363,99 1,95.8627721 1,92.0066458 L1,7.99335421 C1,4.13514755 4.13790239,1 7.992532,1 L212.007468,1 C216.082112,1 221.272011,3.84261995 223.473391,7.28227617 L250.812734,50 Z" id="Rectangle"></path>
            </g>
            <path d="M13.0644531,91.2441406 C11.6321543,91.2441406 10.4440151,90.713547 9.5,89.6523438 C8.55598486,88.5911405 8.08398438,87.2532633 8.08398438,85.6386719 C8.08398438,83.9134028 8.5511021,82.5690152 9.48535156,81.6054688 C10.419601,80.6419223 11.7232989,80.1601562 13.3964844,80.1601562 C14.2233114,80.1601562 15.1477813,80.2740874 16.1699219,80.5019531 L16.1699219,82.1132812 C15.0826769,81.7942692 14.197269,81.6347656 13.5136719,81.6347656 C12.530594,81.6347656 11.7412139,82.0042281 11.1455078,82.7431641 C10.5498017,83.4821 10.2519531,84.4667907 10.2519531,85.6972656 C10.2519531,86.8886778 10.5579396,87.8522099 11.1699219,88.5878906 C11.7819041,89.3235714 12.5826773,89.6914062 13.5722656,89.6914062 C14.4511763,89.6914062 15.3561151,89.4667991 16.2871094,89.0175781 L16.2871094,90.6777344 C15.0436136,91.0553404 13.9694056,91.2441406 13.0644531,91.2441406 Z M23.3183594,91.2441406 C21.8014247,91.2441406 20.5904993,90.741216 19.6855469,89.7353516 C18.7805944,88.7294872 18.328125,87.383472 18.328125,85.6972656 C18.328125,83.9915279 18.782222,82.6422576 19.6904297,81.6494141 C20.5986374,80.6565706 21.8307214,80.1601562 23.3867188,80.1601562 C24.9427161,80.1601562 26.1748001,80.6565706 27.0830078,81.6494141 C27.9912155,82.6422576 28.4453125,83.9850176 28.4453125,85.6777344 C28.4453125,87.4095139 27.9895879,88.7701773 27.078125,89.7597656 C26.1666621,90.7493539 24.9134194,91.2441406 23.3183594,91.2441406 Z M23.3476562,89.7988281 C25.3854269,89.7988281 26.4042969,88.4251439 26.4042969,85.6777344 C26.4042969,82.9628771 25.3984476,81.6054688 23.3867188,81.6054688 C21.3815004,81.6054688 20.3789062,82.9693874 20.3789062,85.6972656 C20.3789062,88.4316543 21.3684797,89.7988281 23.3476562,89.7988281 Z M31.453125,91 L31.453125,75.5800781 L33.3769531,75.5800781 L33.3769531,91 L31.453125,91 Z M35.3105469,94.3691406 L35.3105469,92.9238281 L45.3105469,92.9238281 L45.3105469,94.3691406 L35.3105469,94.3691406 Z M49.4316406,91 L45.4863281,80.3945312 L47.4101562,80.3945312 L50.4960938,88.6464844 L53.7480469,80.3945312 L55.5449219,80.3945312 L51.3554688,91 L49.4316406,91 Z M63.0546875,89.6523438 C61.902338,90.713547 60.792323,91.2441406 59.7246094,91.2441406 C58.8456987,91.2441406 58.1165394,90.9690783 57.5371094,90.4189453 C56.9576794,89.8688124 56.6679688,89.1738323 56.6679688,88.3339844 C56.6679688,87.1751244 57.1546175,86.2848338 58.1279297,85.6630859 C59.1012418,85.041338 60.4960847,84.7304688 62.3125,84.7304688 L62.7714844,84.7304688 L62.7714844,83.4511719 C62.7714844,82.220697 62.1399803,81.6054688 60.8769531,81.6054688 C59.861323,81.6054688 58.7643288,81.9179656 57.5859375,82.5429688 L57.5859375,80.9511719 C58.8815169,80.4238255 60.0956975,80.1601562 61.2285156,80.1601562 C62.4134174,80.1601562 63.2874321,80.4270807 63.8505859,80.9609375 C64.4137398,81.4947943 64.6953125,82.3248642 64.6953125,83.4511719 L64.6953125,88.2558594 C64.6953125,89.3561253 65.0338508,89.90625 65.7109375,89.90625 C65.7955733,89.90625 65.91927,89.8932293 66.0820312,89.8671875 L66.21875,90.9316406 C65.7825499,91.139975 65.3007839,91.2441406 64.7734375,91.2441406 C63.8749955,91.2441406 63.3020846,90.713547 63.0546875,89.6523438 Z M62.7714844,88.6074219 L62.7714844,85.8632812 L62.1269531,85.84375 C61.0722604,85.84375 60.2194043,86.0439433 59.5683594,86.4443359 C58.9173145,86.8447286 58.5917969,87.3704395 58.5917969,88.0214844 C58.5917969,88.4837263 58.7545557,88.8743474 59.0800781,89.1933594 C59.4056006,89.5123714 59.802732,89.671875 60.2714844,89.671875 C61.0722696,89.671875 61.9055946,89.3170608 62.7714844,88.6074219 Z M68.6308594,91 L68.6308594,75.5800781 L70.5546875,75.5800781 L70.5546875,91 L68.6308594,91 Z M77.2246094,91.2441406 C76.3456987,91.2441406 75.2780011,91.0390646 74.0214844,90.6289062 L74.0214844,88.8613281 C75.2780011,89.4863313 76.3717401,89.7988281 77.3027344,89.7988281 C77.8561226,89.7988281 78.3151023,89.64909 78.6796875,89.3496094 C79.0442727,89.0501287 79.2265625,88.6757835 79.2265625,88.2265625 C79.2265625,87.5690071 78.7154999,87.0253928 77.6933594,86.5957031 L76.5703125,86.1171875 C74.9101479,85.4270799 74.0800781,84.4342513 74.0800781,83.1386719 C74.0800781,82.2141881 74.4072233,81.4866563 75.0615234,80.9560547 C75.7158236,80.4254531 76.6126245,80.1601562 77.7519531,80.1601562 C78.344404,80.1601562 79.0768186,80.2415356 79.9492188,80.4042969 L80.3496094,80.4824219 L80.3496094,82.0839844 C79.2753853,81.7649724 78.4225292,81.6054688 77.7910156,81.6054688 C76.5540303,81.6054688 75.9355469,82.054683 75.9355469,82.953125 C75.9355469,83.532555 76.4042922,84.0208313 77.3417969,84.4179688 L78.2695312,84.8085938 C79.3177136,85.2513043 80.0598937,85.718422 80.4960938,86.2099609 C80.9322938,86.7014999 81.1503906,87.3151005 81.1503906,88.0507812 C81.1503906,88.9817755 80.7825558,89.7467418 80.046875,90.3457031 C79.3111942,90.9446645 78.3704484,91.2441406 77.2246094,91.2441406 Z M82.6835938,94.3691406 L82.6835938,92.9238281 L92.6835938,92.9238281 L92.6835938,94.3691406 L82.6835938,94.3691406 Z M94.6074219,91 L94.6074219,80.3945312 L96.53125,80.3945312 L96.53125,82.3867188 C97.5468801,80.9023363 98.7903572,80.1601562 100.261719,80.1601562 C101.179692,80.1601562 101.912107,80.4514945 102.458984,81.0341797 C103.005862,81.6168649 103.279297,82.3997347 103.279297,83.3828125 L103.279297,91 L101.355469,91 L101.355469,84.0078125 C101.355469,83.2200481 101.23991,82.6585303 101.008789,82.3232422 C100.777668,81.9879541 100.395185,81.8203125 99.8613281,81.8203125 C98.6829368,81.8203125 97.5729219,82.5917892 96.53125,84.1347656 L96.53125,91 L94.6074219,91 Z M111.169922,91.2441406 C109.652987,91.2441406 108.442062,90.741216 107.537109,89.7353516 C106.632157,88.7294872 106.179688,87.383472 106.179688,85.6972656 C106.179688,83.9915279 106.633785,82.6422576 107.541992,81.6494141 C108.4502,80.6565706 109.682284,80.1601562 111.238281,80.1601562 C112.794279,80.1601562 114.026363,80.6565706 114.93457,81.6494141 C115.842778,82.6422576 116.296875,83.9850176 116.296875,85.6777344 C116.296875,87.4095139 115.84115,88.7701773 114.929688,89.7597656 C114.018225,90.7493539 112.764982,91.2441406 111.169922,91.2441406 Z M111.199219,89.7988281 C113.236989,89.7988281 114.255859,88.4251439 114.255859,85.6777344 C114.255859,82.9628771 113.25001,81.6054688 111.238281,81.6054688 C109.233063,81.6054688 108.230469,82.9693874 108.230469,85.6972656 C108.230469,88.4316543 109.220042,89.7988281 111.199219,89.7988281 Z M122.488281,91.2441406 C121.511714,91.2441406 120.750003,90.9641955 120.203125,90.4042969 C119.656247,89.8443982 119.382812,89.0664112 119.382812,88.0703125 L119.382812,81.8398438 L118.054688,81.8398438 L118.054688,80.3945312 L119.382812,80.3945312 L119.382812,78.4707031 L121.306641,78.2851562 L121.306641,80.3945312 L124.080078,80.3945312 L124.080078,81.8398438 L121.306641,81.8398438 L121.306641,87.71875 C121.306641,89.1054757 121.905593,89.7988281 123.103516,89.7988281 C123.357423,89.7988281 123.666665,89.7565108 124.03125,89.671875 L124.03125,91 C123.438799,91.1627612 122.924481,91.2441406 122.488281,91.2441406 Z M124.861328,94.3691406 L124.861328,92.9238281 L134.861328,92.9238281 L134.861328,94.3691406 L124.861328,94.3691406 Z M136.785156,91 L136.785156,80.3945312 L138.708984,80.3945312 L138.708984,82.3867188 C139.724614,80.9023363 140.968092,80.1601562 142.439453,80.1601562 C143.357426,80.1601562 144.089841,80.4514945 144.636719,81.0341797 C145.183596,81.6168649 145.457031,82.3997347 145.457031,83.3828125 L145.457031,91 L143.533203,91 L143.533203,84.0078125 C143.533203,83.2200481 143.417644,82.6585303 143.186523,82.3232422 C142.955402,81.9879541 142.572919,81.8203125 142.039062,81.8203125 C140.860671,81.8203125 139.750656,82.5917892 138.708984,84.1347656 L138.708984,91 L136.785156,91 Z M155.828125,91 L155.828125,89.0078125 C154.805984,90.4987054 153.565763,91.2441406 152.107422,91.2441406 C151.182938,91.2441406 150.447268,90.9528024 149.900391,90.3701172 C149.353513,89.787432 149.080078,89.001307 149.080078,88.0117188 L149.080078,80.3945312 L151.003906,80.3945312 L151.003906,87.3867188 C151.003906,88.1809936 151.119465,88.7457666 151.350586,89.0810547 C151.581707,89.4163428 151.967445,89.5839844 152.507812,89.5839844 C153.679693,89.5839844 154.786453,88.8125077 155.828125,87.2695312 L155.828125,80.3945312 L157.751953,80.3945312 L157.751953,91 L155.828125,91 Z M161.609375,91 L161.609375,75.5800781 L163.533203,75.5800781 L163.533203,91 L161.609375,91 Z M167.390625,91 L167.390625,75.5800781 L169.314453,75.5800781 L169.314453,91 L167.390625,91 Z" id="col_vals_not_null" fill="#868686"></path>
            <g id="col_vals_not_null_icon" transform="translate(12.000000, 16.000000)" fill-rule="nonzero" fill="#858585">
                <path d="M5,0 C2.2504839,0 0,2.2504839 0,5 L0,35 C0,37.749516 2.2504839,40 5,40 L41,40 C43.749516,40 46,37.749516 46,35 L46,5 C46,2.2504839 43.749516,0 41,0 L5,0 Z M5,2 L41,2 C42.668484,2 44,3.3315161 44,5 L44,35 C44,36.668484 42.668484,38 41,38 L5,38 C3.3315161,38 2,36.668484 2,35 L2,5 C2,3.3315161 3.3315161,2 5,2 Z M8.84375,13 L8.84375,27 L10.96875,27 L10.96875,17.0625 L11.125,17.0625 L18.3125,27 L20.28125,27 L20.28125,13 L18.15625,13 L18.15625,22.9375 L18,22.9375 L10.8125,13 L8.84375,13 Z M29.75,13 L24.6875,27 L26.9375,27 L28.21875,23.28125 L33.5625,23.28125 L34.84375,27 L37.15625,27 L32.09375,13 L29.75,13 Z M30.8125,15.53125 L30.96875,15.53125 L33,21.46875 L28.78125,21.46875 L30.8125,15.53125 Z" id="Shape"></path>
            </g>
            <g id="line" transform="translate(16.000000, 33.000000)" stroke="#FFFFFF" stroke-width="2" stroke-linecap="square">
                <path d="M1.5,4 L38.5,4" id="Line"></path>
                <path d="M0.5,1 L37.5,1" id="Line"></path>
            </g>
            <path d="M20.0205597,35.0000524 C19.2713522,35.0270543 18.9389417,35.2824301 19.0091799,35.5704503 C19.0794181,35.8584705 19.2713522,36.0700676 20.0205597,36.0430657 L47.8978528,36.0430657 C48.3870771,36.0457256 48.5683953,35.9469128 48.8150266,35.7844647 C49.0616578,35.6220167 49.0616578,35.4211014 48.8150266,35.2586534 C48.5683953,35.0962053 48.3870771,34.9973925 47.8978528,35.0000524 L20.0205597,35.0000524 Z" id="Path" stroke="#858585" fill="#858585"></path>
        </g>
    </g>
</svg>