<?xml version="1.0" encoding="UTF-8"?>
<svg width="233px" height="114px" viewBox="0 0 233 114" version="1.1" xmlns="http://www.w3.org/2000/svg" xmlns:xlink="http://www.w3.org/1999/xlink">
    <!-- Generator: Sketch 43.1 (39012) - http://www.bohemiancoding.com/sketch -->
    <title>col_is_character</title>
    <desc>Created with Sketch.</desc>
    <defs></defs>
    <g id="Function-Icons" stroke="none" stroke-width="1" fill="none" fill-rule="evenodd">
        <g id="col_is_character" transform="translate(0.000000, 7.000000)">
            <path d="M70,7 L70,63.508474" id="Line" stroke="#979797" stroke-width="2" stroke-linecap="square"></path>
            <g id="function" stroke="#979797" stroke-width="2">
                <path d="M2,70 L231.008733,70" id="Line" stroke-linecap="square"></path>
                <rect id="Rectangle" x="1" y="1" width="230" height="98" rx="8"></rect>
            </g>
            <path d="M13.0644531,91.2441406 C11.6321543,91.2441406 10.4440151,90.713547 9.5,89.6523438 C8.55598486,88.5911405 8.08398438,87.2532633 8.08398438,85.6386719 C8.08398438,83.9134028 8.5511021,82.5690152 9.48535156,81.6054688 C10.419601,80.6419223 11.7232989,80.1601562 13.3964844,80.1601562 C14.2233114,80.1601562 15.1477813,80.2740874 16.1699219,80.5019531 L16.1699219,82.1132812 C15.0826769,81.7942692 14.197269,81.6347656 13.5136719,81.6347656 C12.530594,81.6347656 11.7412139,82.0042281 11.1455078,82.7431641 C10.5498017,83.4821 10.2519531,84.4667907 10.2519531,85.6972656 C10.2519531,86.8886778 10.5579396,87.8522099 11.1699219,88.5878906 C11.7819041,89.3235714 12.5826773,89.6914062 13.5722656,89.6914062 C14.4511763,89.6914062 15.3561151,89.4667991 16.2871094,89.0175781 L16.2871094,90.6777344 C15.0436136,91.0553404 13.9694056,91.2441406 13.0644531,91.2441406 Z M23.3183594,91.2441406 C21.8014247,91.2441406 20.5904993,90.741216 19.6855469,89.7353516 C18.7805944,88.7294872 18.328125,87.383472 18.328125,85.6972656 C18.328125,83.9915279 18.782222,82.6422576 19.6904297,81.6494141 C20.5986374,80.6565706 21.8307214,80.1601562 23.3867188,80.1601562 C24.9427161,80.1601562 26.1748001,80.6565706 27.0830078,81.6494141 C27.9912155,82.6422576 28.4453125,83.9850176 28.4453125,85.6777344 C28.4453125,87.4095139 27.9895879,88.7701773 27.078125,89.7597656 C26.1666621,90.7493539 24.9134194,91.2441406 23.3183594,91.2441406 Z M23.3476562,89.7988281 C25.3854269,89.7988281 26.4042969,88.4251439 26.4042969,85.6777344 C26.4042969,82.9628771 25.3984476,81.6054688 23.3867188,81.6054688 C21.3815004,81.6054688 20.3789062,82.9693874 20.3789062,85.6972656 C20.3789062,88.4316543 21.3684797,89.7988281 23.3476562,89.7988281 Z M31.453125,91 L31.453125,75.5800781 L33.3769531,75.5800781 L33.3769531,91 L31.453125,91 Z M35.3105469,94.3691406 L35.3105469,92.9238281 L45.3105469,92.9238281 L45.3105469,94.3691406 L35.3105469,94.3691406 Z M47.234375,91 L47.234375,80.3945312 L49.1582031,80.3945312 L49.1582031,91 L47.234375,91 Z M47.234375,78.4707031 L47.234375,76.546875 L49.1582031,76.546875 L49.1582031,78.4707031 L47.234375,78.4707031 Z M55.828125,91.2441406 C54.9492144,91.2441406 53.8815167,91.0390646 52.625,90.6289062 L52.625,88.8613281 C53.8815167,89.4863313 54.9752558,89.7988281 55.90625,89.7988281 C56.4596382,89.7988281 56.918618,89.64909 57.2832031,89.3496094 C57.6477883,89.0501287 57.8300781,88.6757835 57.8300781,88.2265625 C57.8300781,87.5690071 57.3190155,87.0253928 56.296875,86.5957031 L55.1738281,86.1171875 C53.5136636,85.4270799 52.6835938,84.4342513 52.6835938,83.1386719 C52.6835938,82.2141881 53.0107389,81.4866563 53.6650391,80.9560547 C54.3193392,80.4254531 55.2161401,80.1601562 56.3554688,80.1601562 C56.9479196,80.1601562 57.6803342,80.2415356 58.5527344,80.4042969 L58.953125,80.4824219 L58.953125,82.0839844 C57.8789009,81.7649724 57.0260448,81.6054688 56.3945312,81.6054688 C55.1575459,81.6054688 54.5390625,82.054683 54.5390625,82.953125 C54.5390625,83.532555 55.0078078,84.0208313 55.9453125,84.4179688 L56.8730469,84.8085938 C57.9212292,85.2513043 58.6634093,85.718422 59.0996094,86.2099609 C59.5358095,86.7014999 59.7539062,87.3151005 59.7539062,88.0507812 C59.7539062,88.9817755 59.3860714,89.7467418 58.6503906,90.3457031 C57.9147099,90.9446645 56.9739641,91.2441406 55.828125,91.2441406 Z M61.2871094,94.3691406 L61.2871094,92.9238281 L71.2871094,92.9238281 L71.2871094,94.3691406 L61.2871094,94.3691406 Z M77.3515625,91.2441406 C75.9192637,91.2441406 74.7311245,90.713547 73.7871094,89.6523438 C72.8430942,88.5911405 72.3710938,87.2532633 72.3710938,85.6386719 C72.3710938,83.9134028 72.8382115,82.5690152 73.7724609,81.6054688 C74.7067104,80.6419223 76.0104083,80.1601562 77.6835938,80.1601562 C78.5104208,80.1601562 79.4348907,80.2740874 80.4570312,80.5019531 L80.4570312,82.1132812 C79.3697862,81.7942692 78.4843784,81.6347656 77.8007812,81.6347656 C76.8177034,81.6347656 76.0283233,82.0042281 75.4326172,82.7431641 C74.8369111,83.4821 74.5390625,84.4667907 74.5390625,85.6972656 C74.5390625,86.8886778 74.845049,87.8522099 75.4570312,88.5878906 C76.0690135,89.3235714 76.8697867,89.6914062 77.859375,89.6914062 C78.7382856,89.6914062 79.6432245,89.4667991 80.5742188,89.0175781 L80.5742188,90.6777344 C79.3307229,91.0553404 78.2565149,91.2441406 77.3515625,91.2441406 Z M83.4550781,91 L83.4550781,75.5800781 L85.3789062,75.5800781 L85.3789062,82.3867188 C86.3945363,80.9023363 87.6380135,80.1601562 89.109375,80.1601562 C90.0273483,80.1601562 90.7597629,80.4514945 91.3066406,81.0341797 C91.8535184,81.6168649 92.1269531,82.3997347 92.1269531,83.3828125 L92.1269531,91 L90.203125,91 L90.203125,84.0078125 C90.203125,83.2200481 90.0875663,82.6585303 89.8564453,82.3232422 C89.6253244,81.9879541 89.2428412,81.8203125 88.7089844,81.8203125 C87.5305931,81.8203125 86.4205781,82.5917892 85.3789062,84.1347656 L85.3789062,91 L83.4550781,91 Z M101.335938,89.6523438 C100.183588,90.713547 99.073573,91.2441406 98.0058594,91.2441406 C97.1269487,91.2441406 96.3977894,90.9690783 95.8183594,90.4189453 C95.2389294,89.8688124 94.9492188,89.1738323 94.9492188,88.3339844 C94.9492188,87.1751244 95.4358675,86.2848338 96.4091797,85.6630859 C97.3824918,85.041338 98.7773347,84.7304688 100.59375,84.7304688 L101.052734,84.7304688 L101.052734,83.4511719 C101.052734,82.220697 100.42123,81.6054688 99.1582031,81.6054688 C98.142573,81.6054688 97.0455788,81.9179656 95.8671875,82.5429688 L95.8671875,80.9511719 C97.1627669,80.4238255 98.3769475,80.1601562 99.5097656,80.1601562 C100.694667,80.1601562 101.568682,80.4270807 102.131836,80.9609375 C102.69499,81.4947943 102.976562,82.3248642 102.976562,83.4511719 L102.976562,88.2558594 C102.976562,89.3561253 103.315101,89.90625 103.992188,89.90625 C104.076823,89.90625 104.20052,89.8932293 104.363281,89.8671875 L104.5,90.9316406 C104.0638,91.139975 103.582034,91.2441406 103.054688,91.2441406 C102.156246,91.2441406 101.583335,90.713547 101.335938,89.6523438 Z M101.052734,88.6074219 L101.052734,85.8632812 L100.408203,85.84375 C99.3535104,85.84375 98.5006543,86.0439433 97.8496094,86.4443359 C97.1985645,86.8447286 96.8730469,87.3704395 96.8730469,88.0214844 C96.8730469,88.4837263 97.0358057,88.8743474 97.3613281,89.1933594 C97.6868506,89.5123714 98.083982,89.671875 98.5527344,89.671875 C99.3535196,89.671875 100.186845,89.3170608 101.052734,88.6074219 Z M106.912109,91 L106.912109,80.3945312 L108.835938,80.3945312 L108.835938,82.3867188 C109.59766,80.9023363 110.70442,80.1601562 112.15625,80.1601562 C112.351563,80.1601562 112.55664,80.1764321 112.771484,80.2089844 L112.771484,82.0058594 C112.439451,81.8951817 112.146486,81.8398438 111.892578,81.8398438 C110.675124,81.8398438 109.656254,82.5624928 108.835938,84.0078125 L108.835938,91 L106.912109,91 Z M120.564453,89.6523438 C119.412104,90.713547 118.302089,91.2441406 117.234375,91.2441406 C116.355464,91.2441406 115.626305,90.9690783 115.046875,90.4189453 C114.467445,89.8688124 114.177734,89.1738323 114.177734,88.3339844 C114.177734,87.1751244 114.664383,86.2848338 115.637695,85.6630859 C116.611007,85.041338 118.00585,84.7304688 119.822266,84.7304688 L120.28125,84.7304688 L120.28125,83.4511719 C120.28125,82.220697 119.649746,81.6054688 118.386719,81.6054688 C117.371089,81.6054688 116.274094,81.9179656 115.095703,82.5429688 L115.095703,80.9511719 C116.391283,80.4238255 117.605463,80.1601562 118.738281,80.1601562 C119.923183,80.1601562 120.797198,80.4270807 121.360352,80.9609375 C121.923505,81.4947943 122.205078,82.3248642 122.205078,83.4511719 L122.205078,88.2558594 C122.205078,89.3561253 122.543616,89.90625 123.220703,89.90625 C123.305339,89.90625 123.429036,89.8932293 123.591797,89.8671875 L123.728516,90.9316406 C123.292316,91.139975 122.81055,91.2441406 122.283203,91.2441406 C121.384761,91.2441406 120.81185,90.713547 120.564453,89.6523438 Z M120.28125,88.6074219 L120.28125,85.8632812 L119.636719,85.84375 C118.582026,85.84375 117.72917,86.0439433 117.078125,86.4443359 C116.42708,86.8447286 116.101562,87.3704395 116.101562,88.0214844 C116.101562,88.4837263 116.264321,88.8743474 116.589844,89.1933594 C116.915366,89.5123714 117.312498,89.671875 117.78125,89.671875 C118.582035,89.671875 119.41536,89.3170608 120.28125,88.6074219 Z M130.28125,91.2441406 C128.848951,91.2441406 127.660812,90.713547 126.716797,89.6523438 C125.772782,88.5911405 125.300781,87.2532633 125.300781,85.6386719 C125.300781,83.9134028 125.767899,82.5690152 126.702148,81.6054688 C127.636398,80.6419223 128.940096,80.1601562 130.613281,80.1601562 C131.440108,80.1601562 132.364578,80.2740874 133.386719,80.5019531 L133.386719,82.1132812 C132.299474,81.7942692 131.414066,81.6347656 130.730469,81.6347656 C129.747391,81.6347656 128.958011,82.0042281 128.362305,82.7431641 C127.766599,83.4821 127.46875,84.4667907 127.46875,85.6972656 C127.46875,86.8886778 127.774737,87.8522099 128.386719,88.5878906 C128.998701,89.3235714 129.799474,89.6914062 130.789062,89.6914062 C131.667973,89.6914062 132.572912,89.4667991 133.503906,89.0175781 L133.503906,90.6777344 C132.26041,91.0553404 131.186202,91.2441406 130.28125,91.2441406 Z M139.568359,91.2441406 C138.591792,91.2441406 137.830081,90.9641955 137.283203,90.4042969 C136.736325,89.8443982 136.462891,89.0664112 136.462891,88.0703125 L136.462891,81.8398438 L135.134766,81.8398438 L135.134766,80.3945312 L136.462891,80.3945312 L136.462891,78.4707031 L138.386719,78.2851562 L138.386719,80.3945312 L141.160156,80.3945312 L141.160156,81.8398438 L138.386719,81.8398438 L138.386719,87.71875 C138.386719,89.1054757 138.985671,89.7988281 140.183594,89.7988281 C140.437501,89.7988281 140.746743,89.7565108 141.111328,89.671875 L141.111328,91 C140.518877,91.1627612 140.004559,91.2441406 139.568359,91.2441406 Z M151.638672,90.6582031 C150.349603,91.0488301 149.246098,91.2441406 148.328125,91.2441406 C146.765617,91.2441406 145.491216,90.7249401 144.504883,89.6865234 C143.51855,88.6481068 143.025391,87.3020916 143.025391,85.6484375 C143.025391,84.0403565 143.459957,82.7220104 144.329102,81.6933594 C145.198247,80.6647084 146.309889,80.1503906 147.664062,80.1503906 C148.946621,80.1503906 149.937822,80.6061152 150.637695,81.5175781 C151.337569,82.429041 151.6875,83.724601 151.6875,85.4042969 L151.677734,86 L144.988281,86 C145.268231,88.5195438 146.501942,89.7792969 148.689453,89.7792969 C149.490238,89.7792969 150.473301,89.5644553 151.638672,89.1347656 L151.638672,90.6582031 Z M145.076172,84.5546875 L149.753906,84.5546875 C149.753906,82.5820214 149.018237,81.5957031 147.546875,81.5957031 C146.069003,81.5957031 145.245444,82.5820214 145.076172,84.5546875 Z M155.007812,91 L155.007812,80.3945312 L156.931641,80.3945312 L156.931641,82.3867188 C157.693363,80.9023363 158.800123,80.1601562 160.251953,80.1601562 C160.447267,80.1601562 160.652343,80.1764321 160.867188,80.2089844 L160.867188,82.0058594 C160.535155,81.8951817 160.242189,81.8398438 159.988281,81.8398438 C158.770827,81.8398438 157.751957,82.5624928 156.931641,84.0078125 L156.931641,91 L155.007812,91 Z" fill="#868686"></path>
            <g id="col_is_character_icon" transform="translate(10.000000, 11.000000)">
                <path d="M25,0 C11.204726,0 0,11.204726 0,25 C0,38.795274 11.204726,50 25,50 C38.795274,50 50,38.795274 50,25 C50,11.204726 38.795274,0 25,0 Z M25,2 C37.714394,2 48,12.285606 48,25 C48,37.714394 37.714394,48 25,48 C12.285606,48 2,37.714394 2,25 C2,12.285606 12.285606,2 25,2 Z" id="Shape" fill="#8D8C8E" fill-rule="nonzero"></path>
                <text id="C" font-family="LucidaGrande, Lucida Grande" font-size="19.5" font-weight="normal" fill="#868686">
                    <tspan x="18.2540283" y="33">C</tspan>
                </text>
            </g>
        </g>
    </g>
</svg>