<?xml version="1.0" encoding="UTF-8"?>
<svg width="233px" height="114px" viewBox="0 0 233 114" version="1.1" xmlns="http://www.w3.org/2000/svg" xmlns:xlink="http://www.w3.org/1999/xlink">
    <!-- Generator: Sketch 43.1 (39012) - http://www.bohemiancoding.com/sketch -->
    <title>col_vals_not_between</title>
    <desc>Created with Sketch.</desc>
    <defs></defs>
    <g id="Function-Icons" stroke="none" stroke-width="1" fill="none" fill-rule="evenodd">
        <g id="col_vals_not_between" transform="translate(0.000000, 7.000000)">
            <g id="function" stroke="#979797" stroke-width="2">
                <path d="M2,70 L231.008733,70" id="Line" stroke-linecap="square"></path>
                <rect id="Rectangle" x="1" y="1" width="230" height="98" rx="8"></rect>
            </g>
            <path d="M70,7 L70,63.508474" id="Line" stroke="#979797" stroke-width="2" stroke-linecap="square"></path>
            <g id="col_vals_not_between_icon" transform="translate(13.000000, 14.000000)" fill-rule="nonzero" fill="#858585">
                <path d="M3,0 C1.3545455,0 0,1.3545455 0,3 L0,41 C0,42.645455 1.3545455,44 3,44 L41,44 C42.645455,44 44,42.645455 44,41 L44,3 C44,1.3545455 42.645455,0 41,0 L3,0 Z M3,2 L41,2 C41.554545,2 42,2.4454545 42,3 L42,41 C42,41.554545 41.554545,42 41,42 L3,42 C2.4454545,42 2,41.554545 2,41 L2,3 C2,2.4454545 2.4454545,2 3,2 Z M29,9 L27,9 L27,35 L29,35 L29,9 Z M17,9 L15,9 L15,35 L17,35 L17,9 Z M9,19 C7.343146,19 6,20.343146 6,22 C6,23.656854 7.343146,25 9,25 C10.656854,25 12,23.656854 12,22 C12,20.343146 10.656854,19 9,19 Z M35,19 C33.343146,19 32,20.343146 32,22 C32,23.656854 33.343146,25 35,25 C36.656854,25 38,23.656854 38,22 C38,20.343146 36.656854,19 35,19 Z" id="Shape"></path>
            </g>
            <path d="M13.0644531,91.2441406 C11.6321543,91.2441406 10.4440151,90.713547 9.5,89.6523438 C8.55598486,88.5911405 8.08398438,87.2532633 8.08398438,85.6386719 C8.08398438,83.9134028 8.5511021,82.5690152 9.48535156,81.6054688 C10.419601,80.6419223 11.7232989,80.1601562 13.3964844,80.1601562 C14.2233114,80.1601562 15.1477813,80.2740874 16.1699219,80.5019531 L16.1699219,82.1132812 C15.0826769,81.7942692 14.197269,81.6347656 13.5136719,81.6347656 C12.530594,81.6347656 11.7412139,82.0042281 11.1455078,82.7431641 C10.5498017,83.4821 10.2519531,84.4667907 10.2519531,85.6972656 C10.2519531,86.8886778 10.5579396,87.8522099 11.1699219,88.5878906 C11.7819041,89.3235714 12.5826773,89.6914062 13.5722656,89.6914062 C14.4511763,89.6914062 15.3561151,89.4667991 16.2871094,89.0175781 L16.2871094,90.6777344 C15.0436136,91.0553404 13.9694056,91.2441406 13.0644531,91.2441406 Z M23.3183594,91.2441406 C21.8014247,91.2441406 20.5904993,90.741216 19.6855469,89.7353516 C18.7805944,88.7294872 18.328125,87.383472 18.328125,85.6972656 C18.328125,83.9915279 18.782222,82.6422576 19.6904297,81.6494141 C20.5986374,80.6565706 21.8307214,80.1601562 23.3867188,80.1601562 C24.9427161,80.1601562 26.1748001,80.6565706 27.0830078,81.6494141 C27.9912155,82.6422576 28.4453125,83.9850176 28.4453125,85.6777344 C28.4453125,87.4095139 27.9895879,88.7701773 27.078125,89.7597656 C26.1666621,90.7493539 24.9134194,91.2441406 23.3183594,91.2441406 Z M23.3476562,89.7988281 C25.3854269,89.7988281 26.4042969,88.4251439 26.4042969,85.6777344 C26.4042969,82.9628771 25.3984476,81.6054688 23.3867188,81.6054688 C21.3815004,81.6054688 20.3789062,82.9693874 20.3789062,85.6972656 C20.3789062,88.4316543 21.3684797,89.7988281 23.3476562,89.7988281 Z M31.453125,91 L31.453125,75.5800781 L33.3769531,75.5800781 L33.3769531,91 L31.453125,91 Z M35.3105469,94.3691406 L35.3105469,92.9238281 L45.3105469,92.9238281 L45.3105469,94.3691406 L35.3105469,94.3691406 Z M49.4316406,91 L45.4863281,80.3945312 L47.4101562,80.3945312 L50.4960938,88.6464844 L53.7480469,80.3945312 L55.5449219,80.3945312 L51.3554688,91 L49.4316406,91 Z M63.0546875,89.6523438 C61.902338,90.713547 60.792323,91.2441406 59.7246094,91.2441406 C58.8456987,91.2441406 58.1165394,90.9690783 57.5371094,90.4189453 C56.9576794,89.8688124 56.6679688,89.1738323 56.6679688,88.3339844 C56.6679688,87.1751244 57.1546175,86.2848338 58.1279297,85.6630859 C59.1012418,85.041338 60.4960847,84.7304688 62.3125,84.7304688 L62.7714844,84.7304688 L62.7714844,83.4511719 C62.7714844,82.220697 62.1399803,81.6054688 60.8769531,81.6054688 C59.861323,81.6054688 58.7643288,81.9179656 57.5859375,82.5429688 L57.5859375,80.9511719 C58.8815169,80.4238255 60.0956975,80.1601562 61.2285156,80.1601562 C62.4134174,80.1601562 63.2874321,80.4270807 63.8505859,80.9609375 C64.4137398,81.4947943 64.6953125,82.3248642 64.6953125,83.4511719 L64.6953125,88.2558594 C64.6953125,89.3561253 65.0338508,89.90625 65.7109375,89.90625 C65.7955733,89.90625 65.91927,89.8932293 66.0820312,89.8671875 L66.21875,90.9316406 C65.7825499,91.139975 65.3007839,91.2441406 64.7734375,91.2441406 C63.8749955,91.2441406 63.3020846,90.713547 63.0546875,89.6523438 Z M62.7714844,88.6074219 L62.7714844,85.8632812 L62.1269531,85.84375 C61.0722604,85.84375 60.2194043,86.0439433 59.5683594,86.4443359 C58.9173145,86.8447286 58.5917969,87.3704395 58.5917969,88.0214844 C58.5917969,88.4837263 58.7545557,88.8743474 59.0800781,89.1933594 C59.4056006,89.5123714 59.802732,89.671875 60.2714844,89.671875 C61.0722696,89.671875 61.9055946,89.3170608 62.7714844,88.6074219 Z M68.6308594,91 L68.6308594,75.5800781 L70.5546875,75.5800781 L70.5546875,91 L68.6308594,91 Z M77.2246094,91.2441406 C76.3456987,91.2441406 75.2780011,91.0390646 74.0214844,90.6289062 L74.0214844,88.8613281 C75.2780011,89.4863313 76.3717401,89.7988281 77.3027344,89.7988281 C77.8561226,89.7988281 78.3151023,89.64909 78.6796875,89.3496094 C79.0442727,89.0501287 79.2265625,88.6757835 79.2265625,88.2265625 C79.2265625,87.5690071 78.7154999,87.0253928 77.6933594,86.5957031 L76.5703125,86.1171875 C74.9101479,85.4270799 74.0800781,84.4342513 74.0800781,83.1386719 C74.0800781,82.2141881 74.4072233,81.4866563 75.0615234,80.9560547 C75.7158236,80.4254531 76.6126245,80.1601562 77.7519531,80.1601562 C78.344404,80.1601562 79.0768186,80.2415356 79.9492188,80.4042969 L80.3496094,80.4824219 L80.3496094,82.0839844 C79.2753853,81.7649724 78.4225292,81.6054688 77.7910156,81.6054688 C76.5540303,81.6054688 75.9355469,82.054683 75.9355469,82.953125 C75.9355469,83.532555 76.4042922,84.0208313 77.3417969,84.4179688 L78.2695312,84.8085938 C79.3177136,85.2513043 80.0598937,85.718422 80.4960938,86.2099609 C80.9322938,86.7014999 81.1503906,87.3151005 81.1503906,88.0507812 C81.1503906,88.9817755 80.7825558,89.7467418 80.046875,90.3457031 C79.3111942,90.9446645 78.3704484,91.2441406 77.2246094,91.2441406 Z M82.6835938,94.3691406 L82.6835938,92.9238281 L92.6835938,92.9238281 L92.6835938,94.3691406 L82.6835938,94.3691406 Z M94.6074219,91 L94.6074219,80.3945312 L96.53125,80.3945312 L96.53125,82.3867188 C97.5468801,80.9023363 98.7903572,80.1601562 100.261719,80.1601562 C101.179692,80.1601562 101.912107,80.4514945 102.458984,81.0341797 C103.005862,81.6168649 103.279297,82.3997347 103.279297,83.3828125 L103.279297,91 L101.355469,91 L101.355469,84.0078125 C101.355469,83.2200481 101.23991,82.6585303 101.008789,82.3232422 C100.777668,81.9879541 100.395185,81.8203125 99.8613281,81.8203125 C98.6829368,81.8203125 97.5729219,82.5917892 96.53125,84.1347656 L96.53125,91 L94.6074219,91 Z M111.169922,91.2441406 C109.652987,91.2441406 108.442062,90.741216 107.537109,89.7353516 C106.632157,88.7294872 106.179688,87.383472 106.179688,85.6972656 C106.179688,83.9915279 106.633785,82.6422576 107.541992,81.6494141 C108.4502,80.6565706 109.682284,80.1601562 111.238281,80.1601562 C112.794279,80.1601562 114.026363,80.6565706 114.93457,81.6494141 C115.842778,82.6422576 116.296875,83.9850176 116.296875,85.6777344 C116.296875,87.4095139 115.84115,88.7701773 114.929688,89.7597656 C114.018225,90.7493539 112.764982,91.2441406 111.169922,91.2441406 Z M111.199219,89.7988281 C113.236989,89.7988281 114.255859,88.4251439 114.255859,85.6777344 C114.255859,82.9628771 113.25001,81.6054688 111.238281,81.6054688 C109.233063,81.6054688 108.230469,82.9693874 108.230469,85.6972656 C108.230469,88.4316543 109.220042,89.7988281 111.199219,89.7988281 Z M122.488281,91.2441406 C121.511714,91.2441406 120.750003,90.9641955 120.203125,90.4042969 C119.656247,89.8443982 119.382813,89.0664112 119.382813,88.0703125 L119.382813,81.8398438 L118.054688,81.8398438 L118.054688,80.3945312 L119.382813,80.3945312 L119.382813,78.4707031 L121.306641,78.2851562 L121.306641,80.3945312 L124.080078,80.3945312 L124.080078,81.8398438 L121.306641,81.8398438 L121.306641,87.71875 C121.306641,89.1054757 121.905593,89.7988281 123.103516,89.7988281 C123.357423,89.7988281 123.666665,89.7565108 124.03125,89.671875 L124.03125,91 C123.438799,91.1627612 122.924481,91.2441406 122.488281,91.2441406 Z M124.861328,94.3691406 L124.861328,92.9238281 L134.861328,92.9238281 L134.861328,94.3691406 L124.861328,94.3691406 Z M136.785156,91.1171875 L136.785156,75.5800781 L138.708984,75.5800781 L138.708984,82.3867188 C139.496749,80.9023363 140.678378,80.1601562 142.253906,80.1601562 C143.529954,80.1601562 144.534176,80.6256464 145.266602,81.5566406 C145.999027,82.4876349 146.365234,83.7604086 146.365234,85.375 C146.365234,87.1328213 145.950199,88.5504503 145.120117,89.6279297 C144.290035,90.705409 143.197923,91.2441406 141.84375,91.2441406 C140.587233,91.2441406 139.542322,90.7623746 138.708984,89.7988281 L138.474609,91.1171875 L136.785156,91.1171875 Z M138.708984,88.4707031 C139.698573,89.3561242 140.642574,89.7988281 141.541016,89.7988281 C143.389983,89.7988281 144.314453,88.389337 144.314453,85.5703125 C144.314453,83.0833209 143.494149,81.8398438 141.853516,81.8398438 C140.779292,81.8398438 139.731125,82.4225202 138.708984,83.5878906 L138.708984,88.4707031 Z M157.146484,90.6582031 C155.857415,91.0488301 154.753911,91.2441406 153.835938,91.2441406 C152.27343,91.2441406 150.999028,90.7249401 150.012695,89.6865234 C149.026362,88.6481068 148.533203,87.3020916 148.533203,85.6484375 C148.533203,84.0403565 148.967769,82.7220104 149.836914,81.6933594 C150.706059,80.6647084 151.817702,80.1503906 153.171875,80.1503906 C154.454433,80.1503906 155.445635,80.6061152 156.145508,81.5175781 C156.845381,82.429041 157.195312,83.724601 157.195312,85.4042969 L157.185547,86 L150.496094,86 C150.776043,88.5195438 152.009755,89.7792969 154.197266,89.7792969 C154.998051,89.7792969 155.981114,89.5644553 157.146484,89.1347656 L157.146484,90.6582031 Z M150.583984,84.5546875 L155.261719,84.5546875 C155.261719,82.5820214 154.526049,81.5957031 153.054688,81.5957031 C151.576816,81.5957031 150.753256,82.5820214 150.583984,84.5546875 Z M163.699219,91.2441406 C162.722651,91.2441406 161.96094,90.9641955 161.414062,90.4042969 C160.867185,89.8443982 160.59375,89.0664112 160.59375,88.0703125 L160.59375,81.8398438 L159.265625,81.8398438 L159.265625,80.3945312 L160.59375,80.3945312 L160.59375,78.4707031 L162.517578,78.2851562 L162.517578,80.3945312 L165.291016,80.3945312 L165.291016,81.8398438 L162.517578,81.8398438 L162.517578,87.71875 C162.517578,89.1054757 163.11653,89.7988281 164.314453,89.7988281 C164.568361,89.7988281 164.877602,89.7565108 165.242188,89.671875 L165.242188,91 C164.649737,91.1627612 164.135419,91.2441406 163.699219,91.2441406 Z M169.226562,91 L166.189453,80.3945312 L168.074219,80.3945312 L170.398438,88.6074219 L172.908203,80.3945312 L174.832031,80.3945312 L177.029297,88.6074219 L179.695312,80.3945312 L181.345703,80.3945312 L177.888672,91 L175.955078,91 L173.708984,82.7871094 L171.169922,91 L169.226562,91 Z M191.179688,90.6582031 C189.890619,91.0488301 188.787114,91.2441406 187.869141,91.2441406 C186.306633,91.2441406 185.032231,90.7249401 184.045898,89.6865234 C183.059565,88.6481068 182.566406,87.3020916 182.566406,85.6484375 C182.566406,84.0403565 183.000972,82.7220104 183.870117,81.6933594 C184.739262,80.6647084 185.850905,80.1503906 187.205078,80.1503906 C188.487637,80.1503906 189.478838,80.6061152 190.178711,81.5175781 C190.878584,82.429041 191.228516,83.724601 191.228516,85.4042969 L191.21875,86 L184.529297,86 C184.809246,88.5195438 186.042958,89.7792969 188.230469,89.7792969 C189.031254,89.7792969 190.014317,89.5644553 191.179688,89.1347656 L191.179688,90.6582031 Z M184.617188,84.5546875 L189.294922,84.5546875 C189.294922,82.5820214 188.559252,81.5957031 187.087891,81.5957031 C185.610019,81.5957031 184.786459,82.5820214 184.617188,84.5546875 Z M202.322266,90.6582031 C201.033197,91.0488301 199.929692,91.2441406 199.011719,91.2441406 C197.449211,91.2441406 196.17481,90.7249401 195.188477,89.6865234 C194.202144,88.6481068 193.708984,87.3020916 193.708984,85.6484375 C193.708984,84.0403565 194.14355,82.7220104 195.012695,81.6933594 C195.88184,80.6647084 196.993483,80.1503906 198.347656,80.1503906 C199.630215,80.1503906 200.621416,80.6061152 201.321289,81.5175781 C202.021162,82.429041 202.371094,83.724601 202.371094,85.4042969 L202.361328,86 L195.671875,86 C195.951824,88.5195438 197.185536,89.7792969 199.373047,89.7792969 C200.173832,89.7792969 201.156895,89.5644553 202.322266,89.1347656 L202.322266,90.6582031 Z M195.759766,84.5546875 L200.4375,84.5546875 C200.4375,82.5820214 199.70183,81.5957031 198.230469,81.5957031 C196.752597,81.5957031 195.929037,82.5820214 195.759766,84.5546875 Z M205.691406,91 L205.691406,80.3945312 L207.615234,80.3945312 L207.615234,82.3867188 C208.630864,80.9023363 209.874342,80.1601562 211.345703,80.1601562 C212.263676,80.1601562 212.996091,80.4514945 213.542969,81.0341797 C214.089846,81.6168649 214.363281,82.3997347 214.363281,83.3828125 L214.363281,91 L212.439453,91 L212.439453,84.0078125 C212.439453,83.2200481 212.323894,82.6585303 212.092773,82.3232422 C211.861652,81.9879541 211.479169,81.8203125 210.945313,81.8203125 C209.766921,81.8203125 208.656906,82.5917892 207.615234,84.1347656 L207.615234,91 L205.691406,91 Z" fill="#868686"></path>
        </g>
    </g>
</svg>