<?xml version="1.0" encoding="UTF-8"?>
<svg width="252px" height="114px" viewBox="0 0 252 114" version="1.1" xmlns="http://www.w3.org/2000/svg" xmlns:xlink="http://www.w3.org/1999/xlink">
    <!-- Generator: Sketch 43.1 (39012) - http://www.bohemiancoding.com/sketch -->
    <title>col_is_factor_</title>
    <desc>Created with Sketch.</desc>
    <defs></defs>
    <g id="Function-Icons" stroke="none" stroke-width="1" fill="none" fill-rule="evenodd">
        <g id="col_is_factor_" transform="translate(0.000000, 7.000000)">
            <path d="M70,7 L70,63.508474" id="Line" stroke="#979797" stroke-width="2" stroke-linecap="square"></path>
            <g id="function_right" stroke="#979797" stroke-width="2">
                <path d="M1.5,70 L237.008492,70" id="Line" stroke-linecap="square"></path>
                <path d="M250.812734,50 L223.473391,92.7177238 C221.275802,96.1514574 216.073131,99 212.007468,99 L7.992532,99 C4.13425363,99 1,95.8627721 1,92.0066458 L1,7.99335421 C1,4.13514755 4.13790239,1 7.992532,1 L212.007468,1 C216.082112,1 221.272011,3.84261995 223.473391,7.28227617 L250.812734,50 Z" id="Rectangle"></path>
            </g>
            <path d="M13.0644531,91.2441406 C11.6321543,91.2441406 10.4440151,90.713547 9.5,89.6523438 C8.55598486,88.5911405 8.08398438,87.2532633 8.08398438,85.6386719 C8.08398438,83.9134028 8.5511021,82.5690152 9.48535156,81.6054688 C10.419601,80.6419223 11.7232989,80.1601562 13.3964844,80.1601562 C14.2233114,80.1601562 15.1477813,80.2740874 16.1699219,80.5019531 L16.1699219,82.1132812 C15.0826769,81.7942692 14.197269,81.6347656 13.5136719,81.6347656 C12.530594,81.6347656 11.7412139,82.0042281 11.1455078,82.7431641 C10.5498017,83.4821 10.2519531,84.4667907 10.2519531,85.6972656 C10.2519531,86.8886778 10.5579396,87.8522099 11.1699219,88.5878906 C11.7819041,89.3235714 12.5826773,89.6914062 13.5722656,89.6914062 C14.4511763,89.6914062 15.3561151,89.4667991 16.2871094,89.0175781 L16.2871094,90.6777344 C15.0436136,91.0553404 13.9694056,91.2441406 13.0644531,91.2441406 Z M23.3183594,91.2441406 C21.8014247,91.2441406 20.5904993,90.741216 19.6855469,89.7353516 C18.7805944,88.7294872 18.328125,87.383472 18.328125,85.6972656 C18.328125,83.9915279 18.782222,82.6422576 19.6904297,81.6494141 C20.5986374,80.6565706 21.8307214,80.1601562 23.3867188,80.1601562 C24.9427161,80.1601562 26.1748001,80.6565706 27.0830078,81.6494141 C27.9912155,82.6422576 28.4453125,83.9850176 28.4453125,85.6777344 C28.4453125,87.4095139 27.9895879,88.7701773 27.078125,89.7597656 C26.1666621,90.7493539 24.9134194,91.2441406 23.3183594,91.2441406 Z M23.3476562,89.7988281 C25.3854269,89.7988281 26.4042969,88.4251439 26.4042969,85.6777344 C26.4042969,82.9628771 25.3984476,81.6054688 23.3867188,81.6054688 C21.3815004,81.6054688 20.3789062,82.9693874 20.3789062,85.6972656 C20.3789062,88.4316543 21.3684797,89.7988281 23.3476562,89.7988281 Z M31.453125,91 L31.453125,75.5800781 L33.3769531,75.5800781 L33.3769531,91 L31.453125,91 Z M35.3105469,94.3691406 L35.3105469,92.9238281 L45.3105469,92.9238281 L45.3105469,94.3691406 L35.3105469,94.3691406 Z M47.234375,91 L47.234375,80.3945312 L49.1582031,80.3945312 L49.1582031,91 L47.234375,91 Z M47.234375,78.4707031 L47.234375,76.546875 L49.1582031,76.546875 L49.1582031,78.4707031 L47.234375,78.4707031 Z M55.828125,91.2441406 C54.9492144,91.2441406 53.8815167,91.0390646 52.625,90.6289062 L52.625,88.8613281 C53.8815167,89.4863313 54.9752558,89.7988281 55.90625,89.7988281 C56.4596382,89.7988281 56.918618,89.64909 57.2832031,89.3496094 C57.6477883,89.0501287 57.8300781,88.6757835 57.8300781,88.2265625 C57.8300781,87.5690071 57.3190155,87.0253928 56.296875,86.5957031 L55.1738281,86.1171875 C53.5136636,85.4270799 52.6835937,84.4342513 52.6835937,83.1386719 C52.6835937,82.2141881 53.0107389,81.4866563 53.6650391,80.9560547 C54.3193392,80.4254531 55.2161401,80.1601562 56.3554687,80.1601562 C56.9479196,80.1601562 57.6803342,80.2415356 58.5527344,80.4042969 L58.953125,80.4824219 L58.953125,82.0839844 C57.8789009,81.7649724 57.0260448,81.6054688 56.3945312,81.6054688 C55.1575459,81.6054688 54.5390625,82.054683 54.5390625,82.953125 C54.5390625,83.532555 55.0078078,84.0208313 55.9453125,84.4179688 L56.8730469,84.8085938 C57.9212292,85.2513043 58.6634093,85.718422 59.0996094,86.2099609 C59.5358095,86.7014999 59.7539062,87.3151005 59.7539062,88.0507812 C59.7539062,88.9817755 59.3860714,89.7467418 58.6503906,90.3457031 C57.9147099,90.9446645 56.9739641,91.2441406 55.828125,91.2441406 Z M61.2871094,94.3691406 L61.2871094,92.9238281 L71.2871094,92.9238281 L71.2871094,94.3691406 L61.2871094,94.3691406 Z M75.5058594,81.8398438 L75.5058594,91 L73.5722656,91 L73.5722656,81.8398438 L72.0683594,81.8398438 L72.0683594,80.3945312 L73.5722656,80.3945312 L73.5722656,79.125 C73.5722656,76.5989457 74.7245979,75.3359375 77.0292969,75.3359375 C77.6738313,75.3359375 78.4062459,75.4433583 79.2265625,75.6582031 L79.2265625,77.1816406 C78.3606728,76.9147122 77.6673203,76.78125 77.1464844,76.78125 C76.5149708,76.78125 76.08366,76.9326157 75.8525391,77.2353516 C75.6214181,77.5380875 75.5058594,78.0996053 75.5058594,78.9199219 L75.5058594,80.3945312 L78.1523438,80.3945312 L78.1523438,81.8398438 L75.5058594,81.8398438 Z M86.0332031,89.6523438 C84.8808536,90.713547 83.7708387,91.2441406 82.703125,91.2441406 C81.8242144,91.2441406 81.095055,90.9690783 80.515625,90.4189453 C79.936195,89.8688124 79.6464844,89.1738323 79.6464844,88.3339844 C79.6464844,87.1751244 80.1331332,86.2848338 81.1064453,85.6630859 C82.0797575,85.041338 83.4746003,84.7304688 85.2910156,84.7304688 L85.75,84.7304688 L85.75,83.4511719 C85.75,82.220697 85.1184959,81.6054688 83.8554687,81.6054688 C82.8398387,81.6054688 81.7428444,81.9179656 80.5644531,82.5429688 L80.5644531,80.9511719 C81.8600325,80.4238255 83.0742131,80.1601562 84.2070312,80.1601562 C85.391933,80.1601562 86.2659477,80.4270807 86.8291016,80.9609375 C87.3922554,81.4947943 87.6738281,82.3248642 87.6738281,83.4511719 L87.6738281,88.2558594 C87.6738281,89.3561253 88.0123664,89.90625 88.6894531,89.90625 C88.774089,89.90625 88.8977856,89.8932293 89.0605469,89.8671875 L89.1972656,90.9316406 C88.7610655,91.139975 88.2792995,91.2441406 87.7519531,91.2441406 C86.8535111,91.2441406 86.2806002,90.713547 86.0332031,89.6523438 Z M85.75,88.6074219 L85.75,85.8632812 L85.1054687,85.84375 C84.050776,85.84375 83.1979199,86.0439433 82.546875,86.4443359 C81.8958301,86.8447286 81.5703125,87.3704395 81.5703125,88.0214844 C81.5703125,88.4837263 81.7330713,88.8743474 82.0585937,89.1933594 C82.3841162,89.5123714 82.7812477,89.671875 83.25,89.671875 C84.0507853,89.671875 84.8841103,89.3170608 85.75,88.6074219 Z M95.75,91.2441406 C94.3177012,91.2441406 93.129562,90.713547 92.1855469,89.6523438 C91.2415317,88.5911405 90.7695312,87.2532633 90.7695312,85.6386719 C90.7695312,83.9134028 91.236649,82.5690152 92.1708984,81.6054688 C93.1051479,80.6419223 94.4088458,80.1601562 96.0820312,80.1601562 C96.9088583,80.1601562 97.8333282,80.2740874 98.8554687,80.5019531 L98.8554687,82.1132812 C97.7682237,81.7942692 96.8828159,81.6347656 96.1992187,81.6347656 C95.2161409,81.6347656 94.4267608,82.0042281 93.8310547,82.7431641 C93.2353486,83.4821 92.9375,84.4667907 92.9375,85.6972656 C92.9375,86.8886778 93.2434865,87.8522099 93.8554687,88.5878906 C94.467451,89.3235714 95.2682242,89.6914062 96.2578125,89.6914062 C97.1367231,89.6914062 98.041662,89.4667991 98.9726562,89.0175781 L98.9726562,90.6777344 C97.7291604,91.0553404 96.6549524,91.2441406 95.75,91.2441406 Z M105.037109,91.2441406 C104.060542,91.2441406 103.298831,90.9641955 102.751953,90.4042969 C102.205075,89.8443982 101.931641,89.0664112 101.931641,88.0703125 L101.931641,81.8398438 L100.603516,81.8398438 L100.603516,80.3945312 L101.931641,80.3945312 L101.931641,78.4707031 L103.855469,78.2851562 L103.855469,80.3945312 L106.628906,80.3945312 L106.628906,81.8398438 L103.855469,81.8398438 L103.855469,87.71875 C103.855469,89.1054757 104.454421,89.7988281 105.652344,89.7988281 C105.906251,89.7988281 106.215493,89.7565108 106.580078,89.671875 L106.580078,91 C105.987627,91.1627612 105.473309,91.2441406 105.037109,91.2441406 Z M113.484375,91.2441406 C111.96744,91.2441406 110.756515,90.741216 109.851562,89.7353516 C108.94661,88.7294872 108.494141,87.383472 108.494141,85.6972656 C108.494141,83.9915279 108.948238,82.6422576 109.856445,81.6494141 C110.764653,80.6565706 111.996737,80.1601562 113.552734,80.1601562 C115.108732,80.1601562 116.340816,80.6565706 117.249023,81.6494141 C118.157231,82.6422576 118.611328,83.9850176 118.611328,85.6777344 C118.611328,87.4095139 118.155604,88.7701773 117.244141,89.7597656 C116.332678,90.7493539 115.079435,91.2441406 113.484375,91.2441406 Z M113.513672,89.7988281 C115.551442,89.7988281 116.570312,88.4251439 116.570312,85.6777344 C116.570312,82.9628771 115.564463,81.6054688 113.552734,81.6054688 C111.547516,81.6054688 110.544922,82.9693874 110.544922,85.6972656 C110.544922,88.4316543 111.534495,89.7988281 113.513672,89.7988281 Z M121.619141,91 L121.619141,80.3945312 L123.542969,80.3945312 L123.542969,82.3867188 C124.304691,80.9023363 125.411451,80.1601562 126.863281,80.1601562 C127.058595,80.1601562 127.263671,80.1764321 127.478516,80.2089844 L127.478516,82.0058594 C127.146483,81.8951817 126.853517,81.8398438 126.599609,81.8398438 C125.382155,81.8398438 124.363285,82.5624928 123.542969,84.0078125 L123.542969,91 L121.619141,91 Z" id="col_is_factor" fill="#868686"></path>
            <g id="col_is_factor_icon" transform="translate(10.000000, 11.000000)">
                <path d="M25,0 C11.204726,0 0,11.204726 0,25 C0,38.795274 11.204726,50 25,50 C38.795274,50 50,38.795274 50,25 C50,11.204726 38.795274,0 25,0 Z M25,2 C37.714394,2 48,12.285606 48,25 C48,37.714394 37.714394,48 25,48 C12.285606,48 2,37.714394 2,25 C2,12.285606 12.285606,2 25,2 Z" id="Shape" fill="#8D8C8E" fill-rule="nonzero"></path>
                <text id="F" font-family="LucidaGrande, Lucida Grande" font-size="19.5" font-weight="normal" fill="#868686">
                    <tspan x="19.7727051" y="33">F</tspan>
                </text>
            </g>
        </g>
    </g>
</svg>