<?xml version="1.0" encoding="UTF-8"?>
<svg width="245px" height="114px" viewBox="0 0 245 114" version="1.1" xmlns="http://www.w3.org/2000/svg" xmlns:xlink="http://www.w3.org/1999/xlink">
    <!-- Generator: Sketch 43.1 (39012) - http://www.bohemiancoding.com/sketch -->
    <title>col_vals_not_in_set_text</title>
    <desc>Created with Sketch.</desc>
    <defs></defs>
    <g id="Function-Icons" stroke="none" stroke-width="1" fill="none" fill-rule="evenodd">
        <g id="col_vals_not_in_set_text" transform="translate(6.000000, 7.000000)">
            <path d="M70,7 L70,63.508474" id="Line" stroke="#979797" stroke-width="2" stroke-linecap="square"></path>
            <g id="function" stroke="#979797" stroke-width="2">
                <path d="M2,70 L231.008733,70" id="Line" stroke-linecap="square"></path>
                <rect id="Rectangle" x="1" y="1" width="230" height="98" rx="8"></rect>
            </g>
            <path d="M13.0644531,91.2441406 C11.6321543,91.2441406 10.4440151,90.713547 9.5,89.6523438 C8.55598486,88.5911405 8.08398438,87.2532633 8.08398438,85.6386719 C8.08398438,83.9134028 8.5511021,82.5690152 9.48535156,81.6054688 C10.419601,80.6419223 11.7232989,80.1601562 13.3964844,80.1601562 C14.2233114,80.1601562 15.1477813,80.2740874 16.1699219,80.5019531 L16.1699219,82.1132812 C15.0826769,81.7942692 14.197269,81.6347656 13.5136719,81.6347656 C12.530594,81.6347656 11.7412139,82.0042281 11.1455078,82.7431641 C10.5498017,83.4821 10.2519531,84.4667907 10.2519531,85.6972656 C10.2519531,86.8886778 10.5579396,87.8522099 11.1699219,88.5878906 C11.7819041,89.3235714 12.5826773,89.6914062 13.5722656,89.6914062 C14.4511763,89.6914062 15.3561151,89.4667991 16.2871094,89.0175781 L16.2871094,90.6777344 C15.0436136,91.0553404 13.9694056,91.2441406 13.0644531,91.2441406 Z M23.3183594,91.2441406 C21.8014247,91.2441406 20.5904993,90.741216 19.6855469,89.7353516 C18.7805944,88.7294872 18.328125,87.383472 18.328125,85.6972656 C18.328125,83.9915279 18.782222,82.6422576 19.6904297,81.6494141 C20.5986374,80.6565706 21.8307214,80.1601562 23.3867188,80.1601562 C24.9427161,80.1601562 26.1748001,80.6565706 27.0830078,81.6494141 C27.9912155,82.6422576 28.4453125,83.9850176 28.4453125,85.6777344 C28.4453125,87.4095139 27.9895879,88.7701773 27.078125,89.7597656 C26.1666621,90.7493539 24.9134194,91.2441406 23.3183594,91.2441406 Z M23.3476562,89.7988281 C25.3854269,89.7988281 26.4042969,88.4251439 26.4042969,85.6777344 C26.4042969,82.9628771 25.3984476,81.6054688 23.3867188,81.6054688 C21.3815004,81.6054688 20.3789062,82.9693874 20.3789062,85.6972656 C20.3789062,88.4316543 21.3684797,89.7988281 23.3476562,89.7988281 Z M31.453125,91 L31.453125,75.5800781 L33.3769531,75.5800781 L33.3769531,91 L31.453125,91 Z M35.3105469,94.3691406 L35.3105469,92.9238281 L45.3105469,92.9238281 L45.3105469,94.3691406 L35.3105469,94.3691406 Z M49.4316406,91 L45.4863281,80.3945312 L47.4101562,80.3945312 L50.4960938,88.6464844 L53.7480469,80.3945312 L55.5449219,80.3945312 L51.3554688,91 L49.4316406,91 Z M63.0546875,89.6523438 C61.902338,90.713547 60.792323,91.2441406 59.7246094,91.2441406 C58.8456987,91.2441406 58.1165394,90.9690783 57.5371094,90.4189453 C56.9576794,89.8688124 56.6679688,89.1738323 56.6679688,88.3339844 C56.6679688,87.1751244 57.1546175,86.2848338 58.1279297,85.6630859 C59.1012418,85.041338 60.4960847,84.7304688 62.3125,84.7304688 L62.7714844,84.7304688 L62.7714844,83.4511719 C62.7714844,82.220697 62.1399803,81.6054688 60.8769531,81.6054688 C59.861323,81.6054688 58.7643288,81.9179656 57.5859375,82.5429688 L57.5859375,80.9511719 C58.8815169,80.4238255 60.0956975,80.1601562 61.2285156,80.1601562 C62.4134174,80.1601562 63.2874321,80.4270807 63.8505859,80.9609375 C64.4137398,81.4947943 64.6953125,82.3248642 64.6953125,83.4511719 L64.6953125,88.2558594 C64.6953125,89.3561253 65.0338508,89.90625 65.7109375,89.90625 C65.7955733,89.90625 65.91927,89.8932293 66.0820312,89.8671875 L66.21875,90.9316406 C65.7825499,91.139975 65.3007839,91.2441406 64.7734375,91.2441406 C63.8749955,91.2441406 63.3020846,90.713547 63.0546875,89.6523438 Z M62.7714844,88.6074219 L62.7714844,85.8632812 L62.1269531,85.84375 C61.0722604,85.84375 60.2194043,86.0439433 59.5683594,86.4443359 C58.9173145,86.8447286 58.5917969,87.3704395 58.5917969,88.0214844 C58.5917969,88.4837263 58.7545557,88.8743474 59.0800781,89.1933594 C59.4056006,89.5123714 59.802732,89.671875 60.2714844,89.671875 C61.0722696,89.671875 61.9055946,89.3170608 62.7714844,88.6074219 Z M68.6308594,91 L68.6308594,75.5800781 L70.5546875,75.5800781 L70.5546875,91 L68.6308594,91 Z M77.2246094,91.2441406 C76.3456987,91.2441406 75.2780011,91.0390646 74.0214844,90.6289062 L74.0214844,88.8613281 C75.2780011,89.4863313 76.3717401,89.7988281 77.3027344,89.7988281 C77.8561226,89.7988281 78.3151023,89.64909 78.6796875,89.3496094 C79.0442727,89.0501287 79.2265625,88.6757835 79.2265625,88.2265625 C79.2265625,87.5690071 78.7154999,87.0253928 77.6933594,86.5957031 L76.5703125,86.1171875 C74.9101479,85.4270799 74.0800781,84.4342513 74.0800781,83.1386719 C74.0800781,82.2141881 74.4072233,81.4866563 75.0615234,80.9560547 C75.7158236,80.4254531 76.6126245,80.1601562 77.7519531,80.1601562 C78.344404,80.1601562 79.0768186,80.2415356 79.9492188,80.4042969 L80.3496094,80.4824219 L80.3496094,82.0839844 C79.2753853,81.7649724 78.4225292,81.6054688 77.7910156,81.6054688 C76.5540303,81.6054688 75.9355469,82.054683 75.9355469,82.953125 C75.9355469,83.532555 76.4042922,84.0208313 77.3417969,84.4179688 L78.2695312,84.8085938 C79.3177136,85.2513043 80.0598937,85.718422 80.4960938,86.2099609 C80.9322938,86.7014999 81.1503906,87.3151005 81.1503906,88.0507812 C81.1503906,88.9817755 80.7825558,89.7467418 80.046875,90.3457031 C79.3111942,90.9446645 78.3704484,91.2441406 77.2246094,91.2441406 Z M82.6835938,94.3691406 L82.6835938,92.9238281 L92.6835938,92.9238281 L92.6835938,94.3691406 L82.6835938,94.3691406 Z M94.6074219,91 L94.6074219,80.3945312 L96.53125,80.3945312 L96.53125,82.3867188 C97.5468801,80.9023363 98.7903572,80.1601562 100.261719,80.1601562 C101.179692,80.1601562 101.912107,80.4514945 102.458984,81.0341797 C103.005862,81.6168649 103.279297,82.3997347 103.279297,83.3828125 L103.279297,91 L101.355469,91 L101.355469,84.0078125 C101.355469,83.2200481 101.23991,82.6585303 101.008789,82.3232422 C100.777668,81.9879541 100.395185,81.8203125 99.8613281,81.8203125 C98.6829368,81.8203125 97.5729219,82.5917892 96.53125,84.1347656 L96.53125,91 L94.6074219,91 Z M111.169922,91.2441406 C109.652987,91.2441406 108.442062,90.741216 107.537109,89.7353516 C106.632157,88.7294872 106.179688,87.383472 106.179688,85.6972656 C106.179688,83.9915279 106.633785,82.6422576 107.541992,81.6494141 C108.4502,80.6565706 109.682284,80.1601562 111.238281,80.1601562 C112.794279,80.1601562 114.026363,80.6565706 114.93457,81.6494141 C115.842778,82.6422576 116.296875,83.9850176 116.296875,85.6777344 C116.296875,87.4095139 115.84115,88.7701773 114.929688,89.7597656 C114.018225,90.7493539 112.764982,91.2441406 111.169922,91.2441406 Z M111.199219,89.7988281 C113.236989,89.7988281 114.255859,88.4251439 114.255859,85.6777344 C114.255859,82.9628771 113.25001,81.6054688 111.238281,81.6054688 C109.233063,81.6054688 108.230469,82.9693874 108.230469,85.6972656 C108.230469,88.4316543 109.220042,89.7988281 111.199219,89.7988281 Z M122.488281,91.2441406 C121.511714,91.2441406 120.750003,90.9641955 120.203125,90.4042969 C119.656247,89.8443982 119.382813,89.0664112 119.382813,88.0703125 L119.382813,81.8398438 L118.054688,81.8398438 L118.054688,80.3945312 L119.382813,80.3945312 L119.382813,78.4707031 L121.306641,78.2851562 L121.306641,80.3945312 L124.080078,80.3945312 L124.080078,81.8398438 L121.306641,81.8398438 L121.306641,87.71875 C121.306641,89.1054757 121.905593,89.7988281 123.103516,89.7988281 C123.357423,89.7988281 123.666665,89.7565108 124.03125,89.671875 L124.03125,91 C123.438799,91.1627612 122.924481,91.2441406 122.488281,91.2441406 Z M124.861328,94.3691406 L124.861328,92.9238281 L134.861328,92.9238281 L134.861328,94.3691406 L124.861328,94.3691406 Z M136.785156,91 L136.785156,80.3945312 L138.708984,80.3945312 L138.708984,91 L136.785156,91 Z M136.785156,78.4707031 L136.785156,76.546875 L138.708984,76.546875 L138.708984,78.4707031 L136.785156,78.4707031 Z M142.566406,91 L142.566406,80.3945312 L144.490234,80.3945312 L144.490234,82.3867188 C145.505864,80.9023363 146.749342,80.1601562 148.220703,80.1601562 C149.138676,80.1601562 149.871091,80.4514945 150.417969,81.0341797 C150.964846,81.6168649 151.238281,82.3997347 151.238281,83.3828125 L151.238281,91 L149.314453,91 L149.314453,84.0078125 C149.314453,83.2200481 149.198894,82.6585303 148.967773,82.3232422 C148.736652,81.9879541 148.354169,81.8203125 147.820312,81.8203125 C146.641921,81.8203125 145.531906,82.5917892 144.490234,84.1347656 L144.490234,91 L142.566406,91 Z M153.054688,94.3691406 L153.054688,92.9238281 L163.054688,92.9238281 L163.054688,94.3691406 L153.054688,94.3691406 Z M167.791016,91.2441406 C166.912105,91.2441406 165.844407,91.0390646 164.587891,90.6289062 L164.587891,88.8613281 C165.844407,89.4863313 166.938146,89.7988281 167.869141,89.7988281 C168.422529,89.7988281 168.881509,89.64909 169.246094,89.3496094 C169.610679,89.0501287 169.792969,88.6757835 169.792969,88.2265625 C169.792969,87.5690071 169.281906,87.0253928 168.259766,86.5957031 L167.136719,86.1171875 C165.476554,85.4270799 164.646484,84.4342513 164.646484,83.1386719 C164.646484,82.2141881 164.97363,81.4866563 165.62793,80.9560547 C166.28223,80.4254531 167.179031,80.1601562 168.318359,80.1601562 C168.91081,80.1601562 169.643225,80.2415356 170.515625,80.4042969 L170.916016,80.4824219 L170.916016,82.0839844 C169.841792,81.7649724 168.988935,81.6054688 168.357422,81.6054688 C167.120437,81.6054688 166.501953,82.054683 166.501953,82.953125 C166.501953,83.532555 166.970698,84.0208313 167.908203,84.4179688 L168.835938,84.8085938 C169.88412,85.2513043 170.6263,85.718422 171.0625,86.2099609 C171.4987,86.7014999 171.716797,87.3151005 171.716797,88.0507812 C171.716797,88.9817755 171.348962,89.7467418 170.613281,90.3457031 C169.8776,90.9446645 168.936855,91.2441406 167.791016,91.2441406 Z M182.947266,90.6582031 C181.658197,91.0488301 180.554692,91.2441406 179.636719,91.2441406 C178.074211,91.2441406 176.79981,90.7249401 175.813477,89.6865234 C174.827144,88.6481068 174.333984,87.3020916 174.333984,85.6484375 C174.333984,84.0403565 174.76855,82.7220104 175.637695,81.6933594 C176.50684,80.6647084 177.618483,80.1503906 178.972656,80.1503906 C180.255215,80.1503906 181.246416,80.6061152 181.946289,81.5175781 C182.646162,82.429041 182.996094,83.724601 182.996094,85.4042969 L182.986328,86 L176.296875,86 C176.576824,88.5195438 177.810536,89.7792969 179.998047,89.7792969 C180.798832,89.7792969 181.781895,89.5644553 182.947266,89.1347656 L182.947266,90.6582031 Z M176.384766,84.5546875 L181.0625,84.5546875 C181.0625,82.5820214 180.32683,81.5957031 178.855469,81.5957031 C177.377597,81.5957031 176.554037,82.5820214 176.384766,84.5546875 Z M189.5,91.2441406 C188.523433,91.2441406 187.761721,90.9641955 187.214844,90.4042969 C186.667966,89.8443982 186.394531,89.0664112 186.394531,88.0703125 L186.394531,81.8398438 L185.066406,81.8398438 L185.066406,80.3945312 L186.394531,80.3945312 L186.394531,78.4707031 L188.318359,78.2851562 L188.318359,80.3945312 L191.091797,80.3945312 L191.091797,81.8398438 L188.318359,81.8398438 L188.318359,87.71875 C188.318359,89.1054757 188.917312,89.7988281 190.115234,89.7988281 C190.369142,89.7988281 190.678384,89.7565108 191.042969,89.671875 L191.042969,91 C190.450518,91.1627612 189.9362,91.2441406 189.5,91.2441406 Z" id="col_vals_not_in_set" fill="#868686"></path>
            <g id="set" transform="translate(10.000000, 20.000000)" fill-rule="nonzero" fill="#8D8C8E">
                <path d="M38.5,22 C40.444841,22 42,23.555159 42,25.5 C42,27.444841 40.444841,29 38.5,29 C36.555159,29 35,27.444841 35,25.5 C35,23.555159 36.555159,22 38.5,22 Z M11.5,0 C8.4742784,0 6,2.474279 6,5.5 C6,8.525721 8.4742784,11 11.5,11 C14.525721,11 17,8.525721 17,5.5 C17,2.474279 14.525721,0 11.5,0 Z M25,0 C21.974279,0 19.5,2.474279 19.5,5.5 C19.5,8.525721 21.974279,11 25,11 C28.025721,11 30.5,8.525721 30.5,5.5 C30.5,2.474279 28.025721,0 25,0 Z M38.5,0 C35.474279,0 33,2.474279 33,5.5 C33,8.525721 35.474279,11 38.5,11 C41.525721,11 44,8.525721 44,5.5 C44,2.474279 41.525721,0 38.5,0 Z M11.5,2 C13.444841,2 15,3.555159 15,5.5 C15,7.444841 13.444841,9 11.5,9 C9.5551588,9 8,7.444841 8,5.5 C8,3.555159 9.5551588,2 11.5,2 Z M25,2 C26.944841,2 28.5,3.555159 28.5,5.5 C28.5,7.444841 26.944841,9 25,9 C23.055159,9 21.5,7.444841 21.5,5.5 C21.5,3.555159 23.055159,2 25,2 Z M38.5,2 C40.444841,2 42,3.555159 42,5.5 C42,7.444841 40.444841,9 38.5,9 C36.555159,9 35,7.444841 35,5.5 C35,3.555159 36.555159,2 38.5,2 Z M25,22 C26.944841,22 28.5,23.555159 28.5,25.5 C28.5,27.444841 26.944841,29 25,29 C23.055159,29 21.5,27.444841 21.5,25.5 C21.5,23.555159 23.055159,22 25,22 Z M11.5,22 C13.444841,22 15,23.555159 15,25.5 C15,27.444841 13.444841,29 11.5,29 C9.5551588,29 8,27.444841 8,25.5 C8,23.555159 9.5551588,22 11.5,22 Z M38.5,20 C35.474279,20 33,22.474279 33,25.5 C33,28.525721 35.474279,31 38.5,31 C41.525721,31 44,28.525721 44,25.5 C44,22.474279 41.525721,20 38.5,20 Z M25,20 C21.974279,20 19.5,22.474279 19.5,25.5 C19.5,28.525721 21.974279,31 25,31 C28.025721,31 30.5,28.525721 30.5,25.5 C30.5,22.474279 28.025721,20 25,20 Z M11.5,20 C8.4742784,20 6,22.474279 6,25.5 C6,28.525721 8.4742784,31 11.5,31 C14.525721,31 17,28.525721 17,25.5 C17,22.474279 14.525721,20 11.5,20 Z M44.5,12 C46.444841,12 48,13.555159 48,15.5 C48,17.444841 46.444841,19 44.5,19 C42.555159,19 41,17.444841 41,15.5 C41,13.555159 42.555159,12 44.5,12 Z M31.5,12 C33.444841,12 35,13.555159 35,15.5 C35,17.444841 33.444841,19 31.5,19 C29.555159,19 28,17.444841 28,15.5 C28,13.555159 29.555159,12 31.5,12 Z M18.5,12 C20.444841,12 22,13.555159 22,15.5 C22,17.444841 20.444841,19 18.5,19 C16.555159,19 15,17.444841 15,15.5 C15,13.555159 16.555159,12 18.5,12 Z M5.5,12 C7.4448412,12 9,13.555159 9,15.5 C9,17.444841 7.4448412,19 5.5,19 C3.5551588,19 2,17.444841 2,15.5 C2,13.555159 3.5551588,12 5.5,12 Z M44.5,10 C41.474279,10 39,12.474279 39,15.5 C39,18.525721 41.474279,21 44.5,21 C47.525721,21 50,18.525721 50,15.5 C50,12.474279 47.525721,10 44.5,10 Z M31.5,10 C28.474279,10 26,12.474279 26,15.5 C26,18.525721 28.474279,21 31.5,21 C34.525721,21 37,18.525721 37,15.5 C37,12.474279 34.525721,10 31.5,10 Z M18.5,10 C15.474279,10 13,12.474279 13,15.5 C13,18.525721 15.474279,21 18.5,21 C21.525721,21 24,18.525721 24,15.5 C24,12.474279 21.525721,10 18.5,10 Z M5.3537375,10 C3.26028409,10 1.43080972,11.1844517 0.50217601,12.9164928 C0.467725608,14.6631379 0.853737499,14.567732 0.853737499,15.5 C0.853737499,16.5252799 0.64025474,17.303193 0.631232208,18.3110716 C1.59389745,19.9184603 3.35329596,21 5.3537375,21 C8.3794591,21 10.8537375,18.525721 10.8537375,15.5 C10.8537375,12.474279 8.3794591,10 5.3537375,10 Z" id="Shape"></path>
            </g>
            <g id="col_vals_not_in_set_icon" transform="translate(10.000000, 11.000000)">
                <path d="M25.0853738,0.155407481 C18.6996654,0.155407481 12.3132712,2.57770795 7.45209421,7.42282635 C-2.09969032,16.9453803 -2.25812091,32.3292807 6.96080031,42.0574125 L1.08613028,47.9133905 L2.79175439,49.6135876 L49.77521,2.77962478 L48.0695859,1.07942766 L42.1995503,6.93078539 C37.4076436,2.41786139 31.2482855,0.155407481 25.0853738,0.155407481 Z M25.0853738,2.55554992 C30.6301483,2.55554992 36.1607392,4.5996693 40.4823398,8.64253298 L8.67569411,40.3479745 C0.399299241,31.5582168 0.544515899,17.7065198 9.15540104,9.12071357 C13.5467157,4.74455366 19.3165081,2.55554992 25.0853738,2.55554992 Z M45.3350249,10.5460145 L43.6154972,12.2623822 C49.6667549,21.0064221 48.8120325,33.1039154 41.0130292,40.8792864 C33.2128393,48.6534747 21.0779177,49.5054775 12.3047805,43.4734738 L10.5829343,45.1898403 C14.9042442,48.2756253 19.9869483,49.844592 25.0830565,49.844592 C31.4689131,49.844592 37.8540282,47.4205734 42.7140187,42.5748638 C51.4539333,33.8615753 52.3093961,20.250444 45.3350249,10.5460145 Z" id="Shape" fill="#858585" fill-rule="nonzero"></path>
                <path d="M9.35192141,44.474458 L46.2023071,7.72382714" id="Line" stroke="#FFFFFF" stroke-width="2" stroke-linecap="square"></path>
                <path d="M5.14727515,42.4625846 L42,5.75165972" id="Line-Copy" stroke="#FFFFFF" stroke-width="2" stroke-linecap="square"></path>
            </g>
            <g id="Group" transform="translate(78.000000, 5.000000)" fill="#868686" font-weight="normal">
                <text id="XXXX" font-family="Monaco" font-size="16">
                    <tspan x="0" y="16">XXXX</tspan>
                </text>
                <text id="P:" font-family="LucidaGrande, Lucida Grande" font-size="16">
                    <tspan x="0" y="36">P:</tspan>
                </text>
                <text id="PPPPPPPPPPPP" font-family="Monaco" font-size="15">
                    <tspan x="34.9824219" y="36">PPPPPPPPPPPP</tspan>
                </text>
                <text id="F:" font-family="LucidaGrande, Lucida Grande" font-size="16">
                    <tspan x="0" y="56">F:</tspan>
                </text>
                <text id="FFFFFFFFFFFF" font-family="Monaco" font-size="15">
                    <tspan x="34.9824219" y="56">FFFFFFFFFFFF</tspan>
                </text>
            </g>
        </g>
    </g>
</svg>