<?xml version="1.0" encoding="UTF-8"?>
<svg width="233px" height="114px" viewBox="0 0 233 114" version="1.1" xmlns="http://www.w3.org/2000/svg" xmlns:xlink="http://www.w3.org/1999/xlink">
    <!-- Generator: Sketch 43.1 (39012) - http://www.bohemiancoding.com/sketch -->
    <title>focus_on</title>
    <desc>Created with Sketch.</desc>
    <defs></defs>
    <g id="Function-Icons" stroke="none" stroke-width="1" fill="none" fill-rule="evenodd">
        <g id="focus_on" transform="translate(0.000000, 7.000000)">
            <path d="M70,7 L70,63.508474" id="Line" stroke="#979797" stroke-width="2" stroke-linecap="square"></path>
            <g id="focus_on_icon" transform="translate(9.000000, 10.000000)" fill-rule="nonzero" fill="#858585">
                <path d="M25.90625,0.96875 C25.8639549,0.976469003 25.8222016,0.986907327 25.78125,1 C25.3156215,1.10427826 24.9885139,1.52297597 25,2 L25,11.03125 C22.807207,11.174499 20.656506,11.799298 18.71875,12.875 C18.158886,13.185762 17.751646,13.545784 17.375,13.8125 C17.0790304,14.0190015 16.9157384,14.3677366 16.9466538,14.727299 C16.9775693,15.0868613 17.1979936,15.4026043 17.524869,15.5555531 C17.8517443,15.7085019 18.235392,15.6754112 18.53125,15.46875 C18.990604,15.143466 19.339364,14.818238 19.6875,14.625 C21.329219,13.713636 23.148454,13.171004 25,13.03125 L25,25 L13.03125,25 C13.098231,24.144567 13.258297,23.284639 13.5,22.4375 C13.90652,21.016055 14.585524,19.70351 15.4375,18.5 C15.6758181,18.1815599 15.7027848,17.7521668 15.5061795,17.4064126 C15.3095742,17.0606585 14.9267717,16.8642714 14.53125,16.90625 C14.2389897,16.9392985 13.9760944,17.0993218 13.8125,17.34375 C12.856476,18.69424 12.07323,20.198445 11.59375,21.875 C11.299083,22.90777 11.132967,23.950855 11.0625,25 L2,25 C1.96876718,24.9985345 1.93748282,24.9985345 1.90625,25 C1.35396525,25.0258883 0.927236652,25.4945903 0.953125,26.046875 C0.979013348,26.5991597 1.44771525,27.0258883 2,27 L11.0625,27 C11.208101,29.18078 11.817743,31.319057 12.90625,33.28125 C13.189187,33.791208 13.477514,34.260019 13.78125,34.6875 C13.9877515,34.9834696 14.3364866,35.1467616 14.696049,35.1158462 C15.0556113,35.0849307 15.3713543,34.8645064 15.5243031,34.537631 C15.6772519,34.2107557 15.6441612,33.827108 15.4375,33.53125 C15.147236,33.122731 14.879313,32.714542 14.65625,32.3125 C13.729795,30.642429 13.20828,28.84013 13.0625,27 L25,27 L25,38.96875 C22.631441,38.776184 20.399475,37.911355 18.5,36.5625 C18.204142,36.3558388 17.8204943,36.3227481 17.493619,36.4756969 C17.1667436,36.6286457 16.9463193,36.9443887 16.9154038,37.303951 C16.8844884,37.6635134 17.0477804,38.0122485 17.34375,38.21875 C19.566167,39.796933 22.204161,40.74444 25,40.9375 L25,50 C24.9948997,50.3606359 25.1843753,50.6960814 25.4958728,50.8778877 C25.8073704,51.0596941 26.1926296,51.0596941 26.5041272,50.8778877 C26.8156247,50.6960814 27.0051003,50.3606359 27,50 L27,40.96875 C29.192793,40.825501 31.343494,40.200702 33.28125,39.125 C33.838991,38.814188 34.247487,38.45483 34.625,38.1875 C35.0184436,37.9417003 35.191202,37.4576024 35.0422677,37.0182461 C34.8933334,36.5788898 34.4618106,36.299633 34,36.34375 C33.8086081,36.3540518 33.6242076,36.4191343 33.46875,36.53125 C33.010263,36.85592 32.662759,37.179812 32.3125,37.375 C30.670781,38.286364 28.851546,38.828996 27,38.96875 L27,27 L38.96875,27 C38.901769,27.855433 38.741703,28.715361 38.5,29.5625 C38.09348,30.983945 37.414476,32.29649 36.5625,33.5 C36.3220779,33.7884983 36.2635429,34.1873688 36.4109374,34.53278 C36.5583319,34.8781912 36.8868088,35.1119152 37.2614501,35.1379525 C37.6360914,35.1639898 37.9937416,34.9779513 38.1875,34.65625 C39.143524,33.30576 39.92677,31.801555 40.40625,30.125 C40.700917,29.09223 40.867033,28.049145 40.9375,27 L50,27 C50.3606359,27.0051003 50.6960814,26.8156247 50.8778877,26.5041272 C51.0596941,26.1926296 51.0596941,25.8073704 50.8778877,25.4958728 C50.6960814,25.1843753 50.3606359,24.9948997 50,25 L40.9375,25 C40.791899,22.81922 40.182257,20.680943 39.09375,18.71875 C38.810813,18.208792 38.522486,17.739981 38.21875,17.3125 C37.9835777,16.969242 37.5604425,16.8074551 37.15625,16.90625 C36.8275287,16.9791703 36.5575664,17.2126095 36.4379603,17.5273624 C36.3183541,17.8421153 36.3651612,18.1959269 36.5625,18.46875 C36.852764,18.877269 37.120687,19.285458 37.34375,19.6875 C38.270205,21.357571 38.79172,23.15987 38.9375,25 L27,25 L27,13.03125 C29.368559,13.223816 31.600525,14.088645 33.5,15.4375 C33.795858,15.6441612 34.1795057,15.6772519 34.506381,15.5243031 C34.8332564,15.3713543 35.0536807,15.0556113 35.0845962,14.696049 C35.1155116,14.3364866 34.9522196,13.9877515 34.65625,13.78125 C32.433833,12.203067 29.795839,11.25556 27,11.0625 L27,2 C27.0102476,1.71233423 26.8960508,1.43420122 26.6866154,1.23673363 C26.4771801,1.03926603 26.1928162,0.94161324 25.90625,0.96875 L25.90625,0.96875 Z" id="Shape"></path>
            </g>
            <g id="function" stroke="#979797" stroke-width="2">
                <path d="M2,70 L231.008733,70" id="Line" stroke-linecap="square"></path>
                <rect id="Rectangle" x="1" y="1" width="230" height="98" rx="8"></rect>
            </g>
            <path d="M11.21875,81.8398438 L11.21875,91 L9.28515625,91 L9.28515625,81.8398438 L7.78125,81.8398438 L7.78125,80.3945312 L9.28515625,80.3945312 L9.28515625,79.125 C9.28515625,76.5989457 10.4374885,75.3359375 12.7421875,75.3359375 C13.386722,75.3359375 14.1191365,75.4433583 14.9394531,75.6582031 L14.9394531,77.1816406 C14.0735634,76.9147122 13.3802109,76.78125 12.859375,76.78125 C12.2278614,76.78125 11.7965506,76.9326157 11.5654297,77.2353516 C11.3343087,77.5380875 11.21875,78.0996053 11.21875,78.9199219 L11.21875,80.3945312 L13.8652344,80.3945312 L13.8652344,81.8398438 L11.21875,81.8398438 Z M20.4277344,91.2441406 C18.9107997,91.2441406 17.6998743,90.741216 16.7949219,89.7353516 C15.8899694,88.7294872 15.4375,87.383472 15.4375,85.6972656 C15.4375,83.9915279 15.891597,82.6422576 16.7998047,81.6494141 C17.7080124,80.6565706 18.9400964,80.1601562 20.4960938,80.1601562 C22.0520911,80.1601562 23.2841751,80.6565706 24.1923828,81.6494141 C25.1005905,82.6422576 25.5546875,83.9850176 25.5546875,85.6777344 C25.5546875,87.4095139 25.0989629,88.7701773 24.1875,89.7597656 C23.2760371,90.7493539 22.0227944,91.2441406 20.4277344,91.2441406 Z M20.4570312,89.7988281 C22.4948019,89.7988281 23.5136719,88.4251439 23.5136719,85.6777344 C23.5136719,82.9628771 22.5078226,81.6054688 20.4960938,81.6054688 C18.4908754,81.6054688 17.4882812,82.9693874 17.4882812,85.6972656 C17.4882812,88.4316543 18.4778547,89.7988281 20.4570312,89.7988281 Z M32.703125,91.2441406 C31.2708262,91.2441406 30.082687,90.713547 29.1386719,89.6523438 C28.1946567,88.5911405 27.7226562,87.2532633 27.7226562,85.6386719 C27.7226562,83.9134028 28.189774,82.5690152 29.1240234,81.6054688 C30.0582729,80.6419223 31.3619708,80.1601562 33.0351562,80.1601562 C33.8619833,80.1601562 34.7864532,80.2740874 35.8085938,80.5019531 L35.8085938,82.1132812 C34.7213487,81.7942692 33.8359409,81.6347656 33.1523438,81.6347656 C32.1692659,81.6347656 31.3798858,82.0042281 30.7841797,82.7431641 C30.1884736,83.4821 29.890625,84.4667907 29.890625,85.6972656 C29.890625,86.8886778 30.1966115,87.8522099 30.8085938,88.5878906 C31.420576,89.3235714 32.2213492,89.6914062 33.2109375,89.6914062 C34.0898481,89.6914062 34.994787,89.4667991 35.9257812,89.0175781 L35.9257812,90.6777344 C34.6822854,91.0553404 33.6080774,91.2441406 32.703125,91.2441406 Z M45.4375,91 L45.4375,89.0078125 C44.4153595,90.4987054 43.1751375,91.2441406 41.7167969,91.2441406 C40.7923131,91.2441406 40.0566434,90.9528024 39.5097656,90.3701172 C38.9628879,89.787432 38.6894531,89.001307 38.6894531,88.0117188 L38.6894531,80.3945312 L40.6132812,80.3945312 L40.6132812,87.3867188 C40.6132812,88.1809936 40.72884,88.7457666 40.9599609,89.0810547 C41.1910819,89.4163428 41.5768202,89.5839844 42.1171875,89.5839844 C43.2890684,89.5839844 44.3958281,88.8125077 45.4375,87.2695312 L45.4375,80.3945312 L47.3613281,80.3945312 L47.3613281,91 L45.4375,91 Z M54.03125,91.2441406 C53.1523394,91.2441406 52.0846417,91.0390646 50.828125,90.6289062 L50.828125,88.8613281 C52.0846417,89.4863313 53.1783808,89.7988281 54.109375,89.7988281 C54.6627632,89.7988281 55.121743,89.64909 55.4863281,89.3496094 C55.8509133,89.0501287 56.0332031,88.6757835 56.0332031,88.2265625 C56.0332031,87.5690071 55.5221405,87.0253928 54.5,86.5957031 L53.3769531,86.1171875 C51.7167886,85.4270799 50.8867188,84.4342513 50.8867188,83.1386719 C50.8867188,82.2141881 51.2138639,81.4866563 51.8681641,80.9560547 C52.5224642,80.4254531 53.4192651,80.1601562 54.5585938,80.1601562 C55.1510446,80.1601562 55.8834592,80.2415356 56.7558594,80.4042969 L57.15625,80.4824219 L57.15625,82.0839844 C56.0820259,81.7649724 55.2291698,81.6054688 54.5976562,81.6054688 C53.3606709,81.6054688 52.7421875,82.054683 52.7421875,82.953125 C52.7421875,83.532555 53.2109328,84.0208313 54.1484375,84.4179688 L55.0761719,84.8085938 C56.1243542,85.2513043 56.8665343,85.718422 57.3027344,86.2099609 C57.7389345,86.7014999 57.9570312,87.3151005 57.9570312,88.0507812 C57.9570312,88.9817755 57.5891964,89.7467418 56.8535156,90.3457031 C56.1178349,90.9446645 55.1770891,91.2441406 54.03125,91.2441406 Z M59.4902344,94.3691406 L59.4902344,92.9238281 L69.4902344,92.9238281 L69.4902344,94.3691406 L59.4902344,94.3691406 Z M75.5644531,91.2441406 C74.0475185,91.2441406 72.8365931,90.741216 71.9316406,89.7353516 C71.0266882,88.7294872 70.5742188,87.383472 70.5742188,85.6972656 C70.5742188,83.9915279 71.0283158,82.6422576 71.9365234,81.6494141 C72.8447311,80.6565706 74.0768151,80.1601562 75.6328125,80.1601562 C77.1888099,80.1601562 78.4208939,80.6565706 79.3291016,81.6494141 C80.2373092,82.6422576 80.6914062,83.9850176 80.6914062,85.6777344 C80.6914062,87.4095139 80.2356816,88.7701773 79.3242188,89.7597656 C78.4127559,90.7493539 77.1595132,91.2441406 75.5644531,91.2441406 Z M75.59375,89.7988281 C77.6315206,89.7988281 78.6503906,88.4251439 78.6503906,85.6777344 C78.6503906,82.9628771 77.6445413,81.6054688 75.6328125,81.6054688 C73.6275941,81.6054688 72.625,82.9693874 72.625,85.6972656 C72.625,88.4316543 73.6145734,89.7988281 75.59375,89.7988281 Z M83.6992188,91 L83.6992188,80.3945312 L85.6230469,80.3945312 L85.6230469,82.3867188 C86.638677,80.9023363 87.8821541,80.1601562 89.3535156,80.1601562 C90.271489,80.1601562 91.0039035,80.4514945 91.5507812,81.0341797 C92.097659,81.6168649 92.3710938,82.3997347 92.3710938,83.3828125 L92.3710938,91 L90.4472656,91 L90.4472656,84.0078125 C90.4472656,83.2200481 90.3317069,82.6585303 90.1005859,82.3232422 C89.869465,81.9879541 89.4869818,81.8203125 88.953125,81.8203125 C87.7747337,81.8203125 86.6647187,82.5917892 85.6230469,84.1347656 L85.6230469,91 L83.6992188,91 Z" fill="#868686"></path>
        </g>
    </g>
</svg>