<?xml version="1.0" encoding="UTF-8"?>
<svg width="252px" height="114px" viewBox="0 0 252 114" version="1.1" xmlns="http://www.w3.org/2000/svg" xmlns:xlink="http://www.w3.org/1999/xlink">
    <!-- Generator: Sketch 43.1 (39012) - http://www.bohemiancoding.com/sketch -->
    <title>rows_not_duplicated_</title>
    <desc>Created with Sketch.</desc>
    <defs></defs>
    <g id="Function-Icons" stroke="none" stroke-width="1" fill="none" fill-rule="evenodd">
        <g id="rows_not_duplicated_" transform="translate(0.000000, 7.000000)">
            <path d="M70,7 L70,63.508474" id="Line" stroke="#979797" stroke-width="2" stroke-linecap="square"></path>
            <g id="function_right" stroke="#979797" stroke-width="2">
                <path d="M1.5,70 L237.008492,70" id="Line" stroke-linecap="square"></path>
                <path d="M250.812734,50 L223.473391,92.7177238 C221.275802,96.1514574 216.073131,99 212.007468,99 L7.992532,99 C4.13425363,99 1,95.8627721 1,92.0066458 L1,7.99335421 C1,4.13514755 4.13790239,1 7.992532,1 L212.007468,1 C216.082112,1 221.272011,3.84261995 223.473391,7.28227617 L250.812734,50 Z" id="Rectangle"></path>
            </g>
            <path d="M8.92382812,91 L8.92382812,80.3945312 L10.8476562,80.3945312 L10.8476562,82.3867188 C11.6093788,80.9023363 12.7161386,80.1601562 14.1679688,80.1601562 C14.3632822,80.1601562 14.5683583,80.1764321 14.7832031,80.2089844 L14.7832031,82.0058594 C14.4511702,81.8951817 14.1582044,81.8398438 13.9042969,81.8398438 C12.6868429,81.8398438 11.6679729,82.5624928 10.8476562,84.0078125 L10.8476562,91 L8.92382812,91 Z M21.2578125,91.2441406 C19.7408778,91.2441406 18.5299524,90.741216 17.625,89.7353516 C16.7200476,88.7294872 16.2675781,87.383472 16.2675781,85.6972656 C16.2675781,83.9915279 16.7216751,82.6422576 17.6298828,81.6494141 C18.5380905,80.6565706 19.7701745,80.1601562 21.3261719,80.1601562 C22.8821692,80.1601562 24.1142533,80.6565706 25.0224609,81.6494141 C25.9306686,82.6422576 26.3847656,83.9850176 26.3847656,85.6777344 C26.3847656,87.4095139 25.929041,88.7701773 25.0175781,89.7597656 C24.1061152,90.7493539 22.8528726,91.2441406 21.2578125,91.2441406 Z M21.2871094,89.7988281 C23.32488,89.7988281 24.34375,88.4251439 24.34375,85.6777344 C24.34375,82.9628771 23.3379007,81.6054688 21.3261719,81.6054688 C19.3209535,81.6054688 18.3183594,82.9693874 18.3183594,85.6972656 C18.3183594,88.4316543 19.3079328,89.7988281 21.2871094,89.7988281 Z M30.6230469,91 L27.5859375,80.3945312 L29.4707031,80.3945312 L31.7949219,88.6074219 L34.3046875,80.3945312 L36.2285156,80.3945312 L38.4257812,88.6074219 L41.0917969,80.3945312 L42.7421875,80.3945312 L39.2851562,91 L37.3515625,91 L35.1054688,82.7871094 L32.5664062,91 L30.6230469,91 Z M47.6152344,91.2441406 C46.7363237,91.2441406 45.6686261,91.0390646 44.4121094,90.6289062 L44.4121094,88.8613281 C45.6686261,89.4863313 46.7623651,89.7988281 47.6933594,89.7988281 C48.2467476,89.7988281 48.7057273,89.64909 49.0703125,89.3496094 C49.4348977,89.0501287 49.6171875,88.6757835 49.6171875,88.2265625 C49.6171875,87.5690071 49.1061249,87.0253928 48.0839844,86.5957031 L46.9609375,86.1171875 C45.3007729,85.4270799 44.4707031,84.4342513 44.4707031,83.1386719 C44.4707031,82.2141881 44.7978483,81.4866563 45.4521484,80.9560547 C46.1064486,80.4254531 47.0032495,80.1601562 48.1425781,80.1601562 C48.735029,80.1601562 49.4674436,80.2415356 50.3398438,80.4042969 L50.7402344,80.4824219 L50.7402344,82.0839844 C49.6660103,81.7649724 48.8131542,81.6054688 48.1816406,81.6054688 C46.9446553,81.6054688 46.3261719,82.054683 46.3261719,82.953125 C46.3261719,83.532555 46.7949172,84.0208313 47.7324219,84.4179688 L48.6601562,84.8085938 C49.7083386,85.2513043 50.4505187,85.718422 50.8867188,86.2099609 C51.3229188,86.7014999 51.5410156,87.3151005 51.5410156,88.0507812 C51.5410156,88.9817755 51.1731808,89.7467418 50.4375,90.3457031 C49.7018192,90.9446645 48.7610734,91.2441406 47.6152344,91.2441406 Z M53.0742188,94.3691406 L53.0742188,92.9238281 L63.0742188,92.9238281 L63.0742188,94.3691406 L53.0742188,94.3691406 Z M64.9980469,91 L64.9980469,80.3945312 L66.921875,80.3945312 L66.921875,82.3867188 C67.9375051,80.9023363 69.1809822,80.1601562 70.6523438,80.1601562 C71.5703171,80.1601562 72.3027316,80.4514945 72.8496094,81.0341797 C73.3964871,81.6168649 73.6699219,82.3997347 73.6699219,83.3828125 L73.6699219,91 L71.7460938,91 L71.7460938,84.0078125 C71.7460938,83.2200481 71.630535,82.6585303 71.3994141,82.3232422 C71.1682931,81.9879541 70.78581,81.8203125 70.2519531,81.8203125 C69.0735618,81.8203125 67.9635469,82.5917892 66.921875,84.1347656 L66.921875,91 L64.9980469,91 Z M81.5605469,91.2441406 C80.0436122,91.2441406 78.8326868,90.741216 77.9277344,89.7353516 C77.0227819,88.7294872 76.5703125,87.383472 76.5703125,85.6972656 C76.5703125,83.9915279 77.0244095,82.6422576 77.9326172,81.6494141 C78.8408249,80.6565706 80.0729089,80.1601562 81.6289062,80.1601562 C83.1849036,80.1601562 84.4169876,80.6565706 85.3251953,81.6494141 C86.233403,82.6422576 86.6875,83.9850176 86.6875,85.6777344 C86.6875,87.4095139 86.2317754,88.7701773 85.3203125,89.7597656 C84.4088496,90.7493539 83.1556069,91.2441406 81.5605469,91.2441406 Z M81.5898438,89.7988281 C83.6276144,89.7988281 84.6464844,88.4251439 84.6464844,85.6777344 C84.6464844,82.9628771 83.6406351,81.6054688 81.6289062,81.6054688 C79.6236879,81.6054688 78.6210938,82.9693874 78.6210938,85.6972656 C78.6210938,88.4316543 79.6106672,89.7988281 81.5898438,89.7988281 Z M92.8789062,91.2441406 C91.9023389,91.2441406 91.1406277,90.9641955 90.59375,90.4042969 C90.0468723,89.8443982 89.7734375,89.0664112 89.7734375,88.0703125 L89.7734375,81.8398438 L88.4453125,81.8398438 L88.4453125,80.3945312 L89.7734375,80.3945312 L89.7734375,78.4707031 L91.6972656,78.2851562 L91.6972656,80.3945312 L94.4707031,80.3945312 L94.4707031,81.8398438 L91.6972656,81.8398438 L91.6972656,87.71875 C91.6972656,89.1054757 92.296218,89.7988281 93.4941406,89.7988281 C93.7480481,89.7988281 94.0572898,89.7565108 94.421875,89.671875 L94.421875,91 C93.8294241,91.1627612 93.3151063,91.2441406 92.8789062,91.2441406 Z M95.2519531,94.3691406 L95.2519531,92.9238281 L105.251953,92.9238281 L105.251953,94.3691406 L95.2519531,94.3691406 Z M113.982422,91 L113.982422,89.0078125 C113.201168,90.4987054 112.022794,91.2441406 110.447266,91.2441406 C109.171218,91.2441406 108.166996,90.7786505 107.43457,89.8476562 C106.702145,88.916662 106.335938,87.6438883 106.335938,86.0292969 C106.335938,84.2649651 106.750972,82.8457085 107.581055,81.7714844 C108.411137,80.6972603 109.503248,80.1601562 110.857422,80.1601562 C112.113939,80.1601562 113.155595,80.6419223 113.982422,81.6054688 L113.982422,75.5800781 L115.916016,75.5800781 L115.916016,91 L113.982422,91 Z M113.982422,82.9238281 C112.986323,82.0449175 112.042322,81.6054688 111.150391,81.6054688 C109.307933,81.6054688 108.386719,83.0149599 108.386719,85.8339844 C108.386719,88.3144655 109.207023,89.5546875 110.847656,89.5546875 C111.91537,89.5546875 112.960281,88.972011 113.982422,87.8066406 L113.982422,82.9238281 Z M126.394531,91 L126.394531,89.0078125 C125.372391,90.4987054 124.132169,91.2441406 122.673828,91.2441406 C121.749344,91.2441406 121.013675,90.9528024 120.466797,90.3701172 C119.919919,89.787432 119.646484,89.001307 119.646484,88.0117188 L119.646484,80.3945312 L121.570312,80.3945312 L121.570312,87.3867188 C121.570312,88.1809936 121.685871,88.7457666 121.916992,89.0810547 C122.148113,89.4163428 122.533851,89.5839844 123.074219,89.5839844 C124.2461,89.5839844 125.352859,88.8125077 126.394531,87.2695312 L126.394531,80.3945312 L128.318359,80.3945312 L128.318359,91 L126.394531,91 Z M132.175781,94.8574219 L132.175781,80.3945312 L134.099609,80.3945312 L134.099609,82.3867188 C134.887374,80.9023363 136.069003,80.1601562 137.644531,80.1601562 C138.920579,80.1601562 139.924801,80.6256464 140.657227,81.5566406 C141.389652,82.4876349 141.755859,83.7604086 141.755859,85.375 C141.755859,87.1328213 141.340824,88.5504503 140.510742,89.6279297 C139.68066,90.705409 138.588548,91.2441406 137.234375,91.2441406 C135.977858,91.2441406 134.932947,90.7623746 134.099609,89.7988281 L134.099609,94.8574219 L132.175781,94.8574219 Z M134.099609,88.4707031 C135.089198,89.3561242 136.033199,89.7988281 136.931641,89.7988281 C138.780608,89.7988281 139.705078,88.389337 139.705078,85.5703125 C139.705078,83.0833209 138.884774,81.8398438 137.244141,81.8398438 C136.169917,81.8398438 135.12175,82.4225202 134.099609,83.5878906 L134.099609,88.4707031 Z M144.763672,91 L144.763672,75.5800781 L146.6875,75.5800781 L146.6875,91 L144.763672,91 Z M150.544922,91 L150.544922,80.3945312 L152.46875,80.3945312 L152.46875,91 L150.544922,91 Z M150.544922,78.4707031 L150.544922,76.546875 L152.46875,76.546875 L152.46875,78.4707031 L150.544922,78.4707031 Z M160.466797,91.2441406 C159.034498,91.2441406 157.846359,90.713547 156.902344,89.6523438 C155.958329,88.5911405 155.486328,87.2532633 155.486328,85.6386719 C155.486328,83.9134028 155.953446,82.5690152 156.887695,81.6054688 C157.821945,80.6419223 159.125643,80.1601562 160.798828,80.1601562 C161.625655,80.1601562 162.550125,80.2740874 163.572266,80.5019531 L163.572266,82.1132812 C162.485021,81.7942692 161.599613,81.6347656 160.916016,81.6347656 C159.932938,81.6347656 159.143558,82.0042281 158.547852,82.7431641 C157.952145,83.4821 157.654297,84.4667907 157.654297,85.6972656 C157.654297,86.8886778 157.960283,87.8522099 158.572266,88.5878906 C159.184248,89.3235714 159.985021,89.6914062 160.974609,89.6914062 C161.85352,89.6914062 162.758459,89.4667991 163.689453,89.0175781 L163.689453,90.6777344 C162.445957,91.0553404 161.371749,91.2441406 160.466797,91.2441406 Z M172.039062,89.6523438 C170.886713,90.713547 169.776698,91.2441406 168.708984,91.2441406 C167.830074,91.2441406 167.100914,90.9690783 166.521484,90.4189453 C165.942054,89.8688124 165.652344,89.1738323 165.652344,88.3339844 C165.652344,87.1751244 166.138993,86.2848338 167.112305,85.6630859 C168.085617,85.041338 169.48046,84.7304688 171.296875,84.7304688 L171.755859,84.7304688 L171.755859,83.4511719 C171.755859,82.220697 171.124355,81.6054688 169.861328,81.6054688 C168.845698,81.6054688 167.748704,81.9179656 166.570312,82.5429688 L166.570312,80.9511719 C167.865892,80.4238255 169.080072,80.1601562 170.212891,80.1601562 C171.397792,80.1601562 172.271807,80.4270807 172.834961,80.9609375 C173.398115,81.4947943 173.679688,82.3248642 173.679688,83.4511719 L173.679688,88.2558594 C173.679688,89.3561253 174.018226,89.90625 174.695312,89.90625 C174.779948,89.90625 174.903645,89.8932293 175.066406,89.8671875 L175.203125,90.9316406 C174.766925,91.139975 174.285159,91.2441406 173.757812,91.2441406 C172.859371,91.2441406 172.28646,90.713547 172.039062,89.6523438 Z M171.755859,88.6074219 L171.755859,85.8632812 L171.111328,85.84375 C170.056635,85.84375 169.203779,86.0439433 168.552734,86.4443359 C167.901689,86.8447286 167.576172,87.3704395 167.576172,88.0214844 C167.576172,88.4837263 167.738931,88.8743474 168.064453,89.1933594 C168.389976,89.5123714 168.787107,89.671875 169.255859,89.671875 C170.056645,89.671875 170.88997,89.3170608 171.755859,88.6074219 Z M180.798828,91.2441406 C179.822261,91.2441406 179.06055,90.9641955 178.513672,90.4042969 C177.966794,89.8443982 177.693359,89.0664112 177.693359,88.0703125 L177.693359,81.8398438 L176.365234,81.8398438 L176.365234,80.3945312 L177.693359,80.3945312 L177.693359,78.4707031 L179.617188,78.2851562 L179.617188,80.3945312 L182.390625,80.3945312 L182.390625,81.8398438 L179.617188,81.8398438 L179.617188,87.71875 C179.617188,89.1054757 180.21614,89.7988281 181.414062,89.7988281 C181.66797,89.7988281 181.977212,89.7565108 182.341797,89.671875 L182.341797,91 C181.749346,91.1627612 181.235028,91.2441406 180.798828,91.2441406 Z M192.869141,90.6582031 C191.580072,91.0488301 190.476567,91.2441406 189.558594,91.2441406 C187.996086,91.2441406 186.721685,90.7249401 185.735352,89.6865234 C184.749019,88.6481068 184.255859,87.3020916 184.255859,85.6484375 C184.255859,84.0403565 184.690425,82.7220104 185.55957,81.6933594 C186.428715,80.6647084 187.540358,80.1503906 188.894531,80.1503906 C190.17709,80.1503906 191.168291,80.6061152 191.868164,81.5175781 C192.568037,82.429041 192.917969,83.724601 192.917969,85.4042969 L192.908203,86 L186.21875,86 C186.498699,88.5195438 187.732411,89.7792969 189.919922,89.7792969 C190.720707,89.7792969 191.70377,89.5644553 192.869141,89.1347656 L192.869141,90.6582031 Z M186.306641,84.5546875 L190.984375,84.5546875 C190.984375,82.5820214 190.248705,81.5957031 188.777344,81.5957031 C187.299472,81.5957031 186.475912,82.5820214 186.306641,84.5546875 Z M203.044922,91 L203.044922,89.0078125 C202.263668,90.4987054 201.085294,91.2441406 199.509766,91.2441406 C198.233718,91.2441406 197.229496,90.7786505 196.49707,89.8476562 C195.764645,88.916662 195.398438,87.6438883 195.398438,86.0292969 C195.398438,84.2649651 195.813472,82.8457085 196.643555,81.7714844 C197.473637,80.6972603 198.565748,80.1601562 199.919922,80.1601562 C201.176439,80.1601562 202.218095,80.6419223 203.044922,81.6054688 L203.044922,75.5800781 L204.978516,75.5800781 L204.978516,91 L203.044922,91 Z M203.044922,82.9238281 C202.048823,82.0449175 201.104822,81.6054688 200.212891,81.6054688 C198.370433,81.6054688 197.449219,83.0149599 197.449219,85.8339844 C197.449219,88.3144655 198.269523,89.5546875 199.910156,89.5546875 C200.97787,89.5546875 202.022781,88.972011 203.044922,87.8066406 L203.044922,82.9238281 Z" id="rows_not_duplicated" fill="#868686"></path>
            <g id="rows_not_duplicated_icon" transform="translate(14.000000, 16.500000)" fill-rule="nonzero" fill="#8D8C8E">
                <path d="M14.9090909,-1.0658141e-13 C11.832354,-1.0658141e-13 9.31818182,2.50541219 9.31818182,5.57142857 C9.31818182,8.63744514 11.832354,11.1428571 14.9090909,11.1428571 C17.9858278,11.1428571 20.5,8.63744514 20.5,5.57142857 C20.5,2.50541219 17.9858278,-1.0658141e-13 14.9090909,-1.0658141e-13 Z M3.72727273,1.85714286 C1.67979385,1.85714286 2.48689958e-14,3.53108377 2.48689958e-14,5.57142857 C2.48689958e-14,7.611773 1.67979385,9.28571429 3.72727273,9.28571429 C5.77475123,9.28571429 7.45454545,7.611773 7.45454545,5.57142857 C7.45454545,3.53108377 5.77475123,1.85714286 3.72727273,1.85714286 Z M14.9090909,1.85714286 C16.9786442,1.85714286 18.6363636,3.50908666 18.6363636,5.57142857 C18.6363636,7.63377086 16.9786442,9.28571429 14.9090909,9.28571429 C12.8395376,9.28571429 11.1818182,7.63377086 11.1818182,5.57142857 C11.1818182,3.50908666 12.8395376,1.85714286 14.9090909,1.85714286 Z M26.0909091,1.85714286 C24.0434306,1.85714286 22.3636364,3.53108377 22.3636364,5.57142857 C22.3636364,7.611773 24.0434306,9.28571429 26.0909091,9.28571429 C28.1383876,9.28571429 29.8181818,7.611773 29.8181818,5.57142857 C29.8181818,3.53108377 28.1383876,1.85714286 26.0909091,1.85714286 Z M37.2727273,1.85714286 C35.2252488,1.85714286 33.5454545,3.53108377 33.5454545,5.57142857 C33.5454545,7.611773 35.2252488,9.28571429 37.2727273,9.28571429 C39.3202058,9.28571429 41,7.611773 41,5.57142857 C41,3.53108377 39.3202058,1.85714286 37.2727273,1.85714286 Z M3.72727273,3.71428571 C4.76756759,3.71428571 5.59090909,4.53475843 5.59090909,5.57142857 C5.59090909,6.60809871 4.76756759,7.42857143 3.72727273,7.42857143 C2.68697786,7.42857143 1.86363636,6.60809871 1.86363636,5.57142857 C1.86363636,4.53475843 2.68697786,3.71428571 3.72727273,3.71428571 Z M26.0909091,3.71428571 C27.131204,3.71428571 27.9545455,4.53475843 27.9545455,5.57142857 C27.9545455,6.60809871 27.131204,7.42857143 26.0909091,7.42857143 C25.0506142,7.42857143 24.2272727,6.60809871 24.2272727,5.57142857 C24.2272727,4.53475843 25.0506142,3.71428571 26.0909091,3.71428571 Z M37.2727273,3.71428571 C38.3130221,3.71428571 39.1363636,4.53475843 39.1363636,5.57142857 C39.1363636,6.60809871 38.3130221,7.42857143 37.2727273,7.42857143 C36.2324324,7.42857143 35.4090909,6.60809871 35.4090909,5.57142857 C35.4090909,4.53475843 36.2324324,3.71428571 37.2727273,3.71428571 Z M14.9090909,13.9285714 C11.832354,13.9285714 9.31818182,16.4339836 9.31818182,19.5 C9.31818182,22.5660166 11.832354,25.0714286 14.9090909,25.0714286 C17.9858278,25.0714286 20.5,22.5660166 20.5,19.5 C20.5,16.4339836 17.9858278,13.9285714 14.9090909,13.9285714 Z M3.72727273,15.7857143 C1.67979385,15.7857143 2.48689958e-14,17.4596552 2.48689958e-14,19.5 C2.48689958e-14,21.5403444 1.67979385,23.2142857 3.72727273,23.2142857 C5.77475123,23.2142857 7.45454545,21.5403444 7.45454545,19.5 C7.45454545,17.4596552 5.77475123,15.7857143 3.72727273,15.7857143 Z M14.9090909,15.7857143 C16.9786442,15.7857143 18.6363636,17.4376581 18.6363636,19.5 C18.6363636,21.5623423 16.9786442,23.2142857 14.9090909,23.2142857 C12.8395376,23.2142857 11.1818182,21.5623423 11.1818182,19.5 C11.1818182,17.4376581 12.8395376,15.7857143 14.9090909,15.7857143 Z M26.0909091,15.7857143 C24.0434306,15.7857143 22.3636364,17.4596552 22.3636364,19.5 C22.3636364,21.5403444 24.0434306,23.2142857 26.0909091,23.2142857 C28.1383876,23.2142857 29.8181818,21.5403444 29.8181818,19.5 C29.8181818,17.4596552 28.1383876,15.7857143 26.0909091,15.7857143 Z M37.2727273,15.7857143 C35.2252488,15.7857143 33.5454545,17.4596552 33.5454545,19.5 C33.5454545,21.5403444 35.2252488,23.2142857 37.2727273,23.2142857 C39.3202058,23.2142857 41,21.5403444 41,19.5 C41,17.4596552 39.3202058,15.7857143 37.2727273,15.7857143 Z M3.72727273,17.6428571 C4.76756759,17.6428571 5.59090909,18.4633299 5.59090909,19.5 C5.59090909,20.5366701 4.76756759,21.3571429 3.72727273,21.3571429 C2.68697786,21.3571429 1.86363636,20.5366701 1.86363636,19.5 C1.86363636,18.4633299 2.68697786,17.6428571 3.72727273,17.6428571 Z M26.0909091,17.6428571 C27.131204,17.6428571 27.9545455,18.4633299 27.9545455,19.5 C27.9545455,20.5366701 27.131204,21.3571429 26.0909091,21.3571429 C25.0506142,21.3571429 24.2272727,20.5366701 24.2272727,19.5 C24.2272727,18.4633299 25.0506142,17.6428571 26.0909091,17.6428571 Z M37.2727273,17.6428571 C38.3130221,17.6428571 39.1363636,18.4633299 39.1363636,19.5 C39.1363636,20.5366701 38.3130221,21.3571429 37.2727273,21.3571429 C36.2324324,21.3571429 35.4090909,20.5366701 35.4090909,19.5 C35.4090909,18.4633299 36.2324324,17.6428571 37.2727273,17.6428571 Z M3.72727273,29.7142857 C1.67979385,29.7142857 2.48689958e-14,31.388227 2.48689958e-14,33.4285714 C2.48689958e-14,35.4689159 1.67979385,37.1428571 3.72727273,37.1428571 C5.77475123,37.1428571 7.45454545,35.4689159 7.45454545,33.4285714 C7.45454545,31.388227 5.77475123,29.7142857 3.72727273,29.7142857 Z M37.2909213,27.8571429 C34.2141844,27.8571429 31.7000122,30.3625549 31.7000122,33.4285714 C31.7000122,36.494588 34.2141844,39 37.2909213,39 C40.3676582,39 42.8818304,36.494588 42.8818304,33.4285714 C42.8818304,30.3625549 40.3676582,27.8571429 37.2909213,27.8571429 Z M37.2772605,29.7142857 C39.3468138,29.7142857 41.0045332,31.3662291 41.0045332,33.4285714 C41.0045332,35.4909137 39.3468138,37.1428571 37.2772605,37.1428571 C35.2077072,37.1428571 33.5499878,35.4909137 33.5499878,33.4285714 C33.5499878,31.3662291 35.2077072,29.7142857 37.2772605,29.7142857 Z M26.0909091,29.7142857 C24.0434306,29.7142857 22.3636364,31.388227 22.3636364,33.4285714 C22.3636364,35.4689159 24.0434306,37.1428571 26.0909091,37.1428571 C28.1383876,37.1428571 29.8181818,35.4689159 29.8181818,33.4285714 C29.8181818,31.388227 28.1383876,29.7142857 26.0909091,29.7142857 Z M3.72727273,31.5714286 C4.76756759,31.5714286 5.59090909,32.3919013 5.59090909,33.4285714 C5.59090909,34.4652416 4.76756759,35.2857143 3.72727273,35.2857143 C2.68697786,35.2857143 1.86363636,34.4652416 1.86363636,33.4285714 C1.86363636,32.3919013 2.68697786,31.5714286 3.72727273,31.5714286 Z M14.9072654,29.7142857 C12.8597865,29.7142857 11.1799927,31.388227 11.1799927,33.4285714 C11.1799927,35.4689159 12.8597865,37.1428571 14.9072654,37.1428571 C16.9547439,37.1428571 18.6345381,35.4689159 18.6345381,33.4285714 C18.6345381,31.388227 16.9547439,29.7142857 14.9072654,29.7142857 Z M14.8936351,31.5714286 C15.93393,31.5714286 16.7572715,32.3919013 16.7572715,33.4285714 C16.7572715,34.4652416 15.93393,35.2857143 14.8936351,35.2857143 C13.8533403,35.2857143 13.0299988,34.4652416 13.0299988,33.4285714 C13.0299988,32.3919013 13.8533403,31.5714286 14.8936351,31.5714286 Z M26.0909091,31.5714286 C27.131204,31.5714286 27.9545455,32.3919013 27.9545455,33.4285714 C27.9545455,34.4652416 27.131204,35.2857143 26.0909091,35.2857143 C25.0506142,35.2857143 24.2272727,34.4652416 24.2272727,33.4285714 C24.2272727,32.3919013 25.0506142,31.5714286 26.0909091,31.5714286 Z" id="Shape"></path>
            </g>
            <path d="M14,56 L55.9607318,15.9392682" id="Line" stroke="#858585" stroke-width="2" stroke-linecap="square"></path>
            <path d="M13,55 L54.9607318,14.9392682" id="Line-Copy-3" stroke="#FFFFFF" stroke-linecap="square"></path>
            <path d="M15,57 L56.9607318,16.9392682" id="Line-Copy-2" stroke="#FFFFFF" stroke-linecap="square"></path>
        </g>
    </g>
</svg>