<?xml version="1.0" encoding="UTF-8"?>
<svg width="233px" height="114px" viewBox="0 0 233 114" version="1.1" xmlns="http://www.w3.org/2000/svg" xmlns:xlink="http://www.w3.org/1999/xlink">
    <!-- Generator: Sketch 43.1 (39012) - http://www.bohemiancoding.com/sketch -->
    <title>all_passed</title>
    <desc>Created with Sketch.</desc>
    <defs></defs>
    <g id="Function-Icons" stroke="none" stroke-width="1" fill="none" fill-rule="evenodd">
        <g id="all_passed" transform="translate(0.000000, 7.000000)">
            <path d="M70,7 L70,63.508474" id="Line" stroke="#979797" stroke-width="2" stroke-linecap="square"></path>
            <g id="function" stroke="#979797" stroke-width="2">
                <path d="M2,70 L231.008733,70" id="Line" stroke-linecap="square"></path>
                <rect id="Rectangle" x="1" y="1" width="230" height="98" rx="8"></rect>
            </g>
            <path d="M14.3925781,89.6523438 C13.2402286,90.713547 12.1302137,91.2441406 11.0625,91.2441406 C10.1835894,91.2441406 9.45442998,90.9690783 8.875,90.4189453 C8.29557002,89.8688124 8.00585938,89.1738323 8.00585938,88.3339844 C8.00585938,87.1751244 8.49250815,86.2848338 9.46582031,85.6630859 C10.4391325,85.041338 11.8339753,84.7304688 13.6503906,84.7304688 L14.109375,84.7304688 L14.109375,83.4511719 C14.109375,82.220697 13.4778709,81.6054688 12.2148438,81.6054688 C11.1992137,81.6054688 10.1022194,81.9179656 8.92382812,82.5429688 L8.92382812,80.9511719 C10.2194075,80.4238255 11.4335881,80.1601562 12.5664062,80.1601562 C13.751308,80.1601562 14.6253227,80.4270807 15.1884766,80.9609375 C15.7516304,81.4947943 16.0332031,82.3248642 16.0332031,83.4511719 L16.0332031,88.2558594 C16.0332031,89.3561253 16.3717414,89.90625 17.0488281,89.90625 C17.133464,89.90625 17.2571606,89.8932293 17.4199219,89.8671875 L17.5566406,90.9316406 C17.1204405,91.139975 16.6386745,91.2441406 16.1113281,91.2441406 C15.2128861,91.2441406 14.6399752,90.713547 14.3925781,89.6523438 Z M14.109375,88.6074219 L14.109375,85.8632812 L13.4648438,85.84375 C12.410151,85.84375 11.5572949,86.0439433 10.90625,86.4443359 C10.2552051,86.8447286 9.9296875,87.3704395 9.9296875,88.0214844 C9.9296875,88.4837263 10.0924463,88.8743474 10.4179688,89.1933594 C10.7434912,89.5123714 11.1406227,89.671875 11.609375,89.671875 C12.4101603,89.671875 13.2434853,89.3170608 14.109375,88.6074219 Z M19.96875,91 L19.96875,75.5800781 L21.8925781,75.5800781 L21.8925781,91 L19.96875,91 Z M25.75,91 L25.75,75.5800781 L27.6738281,75.5800781 L27.6738281,91 L25.75,91 Z M29.6074219,94.3691406 L29.6074219,92.9238281 L39.6074219,92.9238281 L39.6074219,94.3691406 L29.6074219,94.3691406 Z M41.53125,94.8574219 L41.53125,80.3945312 L43.4550781,80.3945312 L43.4550781,82.3867188 C44.2428425,80.9023363 45.4244713,80.1601562 47,80.1601562 C48.276048,80.1601562 49.2802698,80.6256464 50.0126953,81.5566406 C50.7451208,82.4876349 51.1113281,83.7604086 51.1113281,85.375 C51.1113281,87.1328213 50.6962932,88.5504503 49.8662109,89.6279297 C49.0361287,90.705409 47.9440172,91.2441406 46.5898438,91.2441406 C45.3333271,91.2441406 44.2884156,90.7623746 43.4550781,89.7988281 L43.4550781,94.8574219 L41.53125,94.8574219 Z M43.4550781,88.4707031 C44.4446664,89.3561242 45.3886674,89.7988281 46.2871094,89.7988281 C48.136077,89.7988281 49.0605469,88.389337 49.0605469,85.5703125 C49.0605469,83.0833209 48.2402426,81.8398438 46.5996094,81.8398438 C45.5253853,81.8398438 44.4772187,82.4225202 43.4550781,83.5878906 L43.4550781,88.4707031 Z M59.5878906,89.6523438 C58.4355411,90.713547 57.3255262,91.2441406 56.2578125,91.2441406 C55.3789019,91.2441406 54.6497425,90.9690783 54.0703125,90.4189453 C53.4908825,89.8688124 53.2011719,89.1738323 53.2011719,88.3339844 C53.2011719,87.1751244 53.6878207,86.2848338 54.6611328,85.6630859 C55.634445,85.041338 57.0292878,84.7304688 58.8457031,84.7304688 L59.3046875,84.7304688 L59.3046875,83.4511719 C59.3046875,82.220697 58.6731834,81.6054688 57.4101562,81.6054688 C56.3945262,81.6054688 55.2975319,81.9179656 54.1191406,82.5429688 L54.1191406,80.9511719 C55.41472,80.4238255 56.6289006,80.1601562 57.7617188,80.1601562 C58.9466205,80.1601562 59.8206352,80.4270807 60.3837891,80.9609375 C60.9469429,81.4947943 61.2285156,82.3248642 61.2285156,83.4511719 L61.2285156,88.2558594 C61.2285156,89.3561253 61.5670539,89.90625 62.2441406,89.90625 C62.3287765,89.90625 62.4524731,89.8932293 62.6152344,89.8671875 L62.7519531,90.9316406 C62.315753,91.139975 61.833987,91.2441406 61.3066406,91.2441406 C60.4081986,91.2441406 59.8352877,90.713547 59.5878906,89.6523438 Z M59.3046875,88.6074219 L59.3046875,85.8632812 L58.6601562,85.84375 C57.6054635,85.84375 56.7526074,86.0439433 56.1015625,86.4443359 C55.4505176,86.8447286 55.125,87.3704395 55.125,88.0214844 C55.125,88.4837263 55.2877588,88.8743474 55.6132812,89.1933594 C55.9388037,89.5123714 56.3359352,89.671875 56.8046875,89.671875 C57.6054728,89.671875 58.4387978,89.3170608 59.3046875,88.6074219 Z M67.9765625,91.2441406 C67.0976519,91.2441406 66.0299542,91.0390646 64.7734375,90.6289062 L64.7734375,88.8613281 C66.0299542,89.4863313 67.1236933,89.7988281 68.0546875,89.7988281 C68.6080757,89.7988281 69.0670555,89.64909 69.4316406,89.3496094 C69.7962258,89.0501287 69.9785156,88.6757835 69.9785156,88.2265625 C69.9785156,87.5690071 69.467453,87.0253928 68.4453125,86.5957031 L67.3222656,86.1171875 C65.6621011,85.4270799 64.8320312,84.4342513 64.8320312,83.1386719 C64.8320312,82.2141881 65.1591764,81.4866563 65.8134766,80.9560547 C66.4677767,80.4254531 67.3645776,80.1601562 68.5039062,80.1601562 C69.0963571,80.1601562 69.8287717,80.2415356 70.7011719,80.4042969 L71.1015625,80.4824219 L71.1015625,82.0839844 C70.0273384,81.7649724 69.1744823,81.6054688 68.5429688,81.6054688 C67.3059834,81.6054688 66.6875,82.054683 66.6875,82.953125 C66.6875,83.532555 67.1562453,84.0208313 68.09375,84.4179688 L69.0214844,84.8085938 C70.0696667,85.2513043 70.8118468,85.718422 71.2480469,86.2099609 C71.684247,86.7014999 71.9023438,87.3151005 71.9023438,88.0507812 C71.9023438,88.9817755 71.5345089,89.7467418 70.7988281,90.3457031 C70.0631474,90.9446645 69.1224016,91.2441406 67.9765625,91.2441406 Z M78.171875,91.2441406 C77.2929644,91.2441406 76.2252667,91.0390646 74.96875,90.6289062 L74.96875,88.8613281 C76.2252667,89.4863313 77.3190058,89.7988281 78.25,89.7988281 C78.8033882,89.7988281 79.262368,89.64909 79.6269531,89.3496094 C79.9915383,89.0501287 80.1738281,88.6757835 80.1738281,88.2265625 C80.1738281,87.5690071 79.6627655,87.0253928 78.640625,86.5957031 L77.5175781,86.1171875 C75.8574136,85.4270799 75.0273438,84.4342513 75.0273438,83.1386719 C75.0273438,82.2141881 75.3544889,81.4866563 76.0087891,80.9560547 C76.6630892,80.4254531 77.5598901,80.1601562 78.6992188,80.1601562 C79.2916696,80.1601562 80.0240842,80.2415356 80.8964844,80.4042969 L81.296875,80.4824219 L81.296875,82.0839844 C80.2226509,81.7649724 79.3697948,81.6054688 78.7382812,81.6054688 C77.5012959,81.6054688 76.8828125,82.054683 76.8828125,82.953125 C76.8828125,83.532555 77.3515578,84.0208313 78.2890625,84.4179688 L79.2167969,84.8085938 C80.2649792,85.2513043 81.0071593,85.718422 81.4433594,86.2099609 C81.8795595,86.7014999 82.0976562,87.3151005 82.0976562,88.0507812 C82.0976562,88.9817755 81.7298214,89.7467418 80.9941406,90.3457031 C80.2584599,90.9446645 79.3177141,91.2441406 78.171875,91.2441406 Z M93.328125,90.6582031 C92.0390561,91.0488301 90.9355515,91.2441406 90.0175781,91.2441406 C88.4550703,91.2441406 87.180669,90.7249401 86.1943359,89.6865234 C85.2080029,88.6481068 84.7148438,87.3020916 84.7148438,85.6484375 C84.7148438,84.0403565 85.1494097,82.7220104 86.0185547,81.6933594 C86.8876997,80.6647084 87.9993422,80.1503906 89.3535156,80.1503906 C90.6360741,80.1503906 91.6272751,80.6061152 92.3271484,81.5175781 C93.0270217,82.429041 93.3769531,83.724601 93.3769531,85.4042969 L93.3671875,86 L86.6777344,86 C86.9576837,88.5195438 88.1913953,89.7792969 90.3789062,89.7792969 C91.1796915,89.7792969 92.1627546,89.5644553 93.328125,89.1347656 L93.328125,90.6582031 Z M86.765625,84.5546875 L91.4433594,84.5546875 C91.4433594,82.5820214 90.7076896,81.5957031 89.2363281,81.5957031 C87.7584562,81.5957031 86.9348967,82.5820214 86.765625,84.5546875 Z M103.503906,91 L103.503906,89.0078125 C102.722652,90.4987054 101.544279,91.2441406 99.96875,91.2441406 C98.692702,91.2441406 97.6884802,90.7786505 96.9560547,89.8476562 C96.2236292,88.916662 95.8574219,87.6438883 95.8574219,86.0292969 C95.8574219,84.2649651 96.2724568,82.8457085 97.1025391,81.7714844 C97.9326213,80.6972603 99.0247328,80.1601562 100.378906,80.1601562 C101.635423,80.1601562 102.677079,80.6419223 103.503906,81.6054688 L103.503906,75.5800781 L105.4375,75.5800781 L105.4375,91 L103.503906,91 Z M103.503906,82.9238281 C102.507808,82.0449175 101.563807,81.6054688 100.671875,81.6054688 C98.8294179,81.6054688 97.9082031,83.0149599 97.9082031,85.8339844 C97.9082031,88.3144655 98.7285074,89.5546875 100.369141,89.5546875 C101.436854,89.5546875 102.481766,88.972011 103.503906,87.8066406 L103.503906,82.9238281 Z" fill="#868686"></path>
            <g id="all_passed_icon" transform="translate(10.000000, 11.000000)" fill-rule="nonzero">
                <path d="M25,0 C11.204726,0 0,11.204726 0,25 C0,38.795274 11.204726,50 25,50 C38.795274,50 50,38.795274 50,25 C50,11.204726 38.795274,0 25,0 Z M25,2 C37.714394,2 48,12.285606 48,25 C48,37.714394 37.714394,48 25,48 C12.285606,48 2,37.714394 2,25 C2,12.285606 12.285606,2 25,2 Z" id="Shape" fill="#8D8C8E"></path>
                <path d="M38.6431452,12.2648418 C38.617352,12.2720449 38.5919307,12.2805187 38.5669744,12.2902321 C38.3530706,12.3430845 38.1698006,12.480537 38.0591692,12.671086 L21.4539406,38.4168074 L10.0283246,28.1083627 C9.82769803,27.853447 9.49467506,27.7422843 9.18115447,27.8255784 C8.86763388,27.9088724 8.63369435,28.1706619 8.58604062,28.4915391 C8.53838689,28.8124163 8.68615066,29.1308928 8.96193375,29.3017049 L21.0730867,40.2702962 C21.2517091,40.4254528 21.4890865,40.4950499 21.7232099,40.4609069 C21.9573333,40.4267639 22.1649478,40.2922722 22.2918191,40.0925644 L39.4302432,13.5343547 C39.6166806,13.2680989 39.6265104,12.9163561 39.4552339,12.6401037 C39.2839573,12.3638512 38.9645321,12.2162465 38.6431452,12.2648418 L38.6431452,12.2648418 Z" id="Shape" fill="#858585"></path>
            </g>
        </g>
    </g>
</svg>