<?xml version="1.0" encoding="UTF-8"?>
<svg width="252px" height="114px" viewBox="0 0 252 114" version="1.1" xmlns="http://www.w3.org/2000/svg" xmlns:xlink="http://www.w3.org/1999/xlink">
    <!-- Generator: Sketch 43.1 (39012) - http://www.bohemiancoding.com/sketch -->
    <title>col_vals_between_</title>
    <desc>Created with Sketch.</desc>
    <defs></defs>
    <g id="Function-Icons" stroke="none" stroke-width="1" fill="none" fill-rule="evenodd">
        <g id="col_vals_between_" transform="translate(0.000000, 7.000000)">
            <path d="M70,7 L70,63.508474" id="Line" stroke="#979797" stroke-width="2" stroke-linecap="square"></path>
            <g id="function_right" stroke="#979797" stroke-width="2">
                <path d="M1.5,70 L237.008492,70" id="Line" stroke-linecap="square"></path>
                <path d="M250.812734,50 L223.473391,92.7177238 C221.275802,96.1514574 216.073131,99 212.007468,99 L7.992532,99 C4.13425363,99 1,95.8627721 1,92.0066458 L1,7.99335421 C1,4.13514755 4.13790239,1 7.992532,1 L212.007468,1 C216.082112,1 221.272011,3.84261995 223.473391,7.28227617 L250.812734,50 Z" id="Rectangle"></path>
            </g>
            <path d="M13.0644531,91.2441406 C11.6321543,91.2441406 10.4440151,90.713547 9.5,89.6523438 C8.55598486,88.5911405 8.08398438,87.2532633 8.08398438,85.6386719 C8.08398438,83.9134028 8.5511021,82.5690152 9.48535156,81.6054688 C10.419601,80.6419223 11.7232989,80.1601562 13.3964844,80.1601562 C14.2233114,80.1601562 15.1477813,80.2740874 16.1699219,80.5019531 L16.1699219,82.1132812 C15.0826769,81.7942692 14.197269,81.6347656 13.5136719,81.6347656 C12.530594,81.6347656 11.7412139,82.0042281 11.1455078,82.7431641 C10.5498017,83.4821 10.2519531,84.4667907 10.2519531,85.6972656 C10.2519531,86.8886778 10.5579396,87.8522099 11.1699219,88.5878906 C11.7819041,89.3235714 12.5826773,89.6914062 13.5722656,89.6914062 C14.4511763,89.6914062 15.3561151,89.4667991 16.2871094,89.0175781 L16.2871094,90.6777344 C15.0436136,91.0553404 13.9694056,91.2441406 13.0644531,91.2441406 Z M23.3183594,91.2441406 C21.8014247,91.2441406 20.5904993,90.741216 19.6855469,89.7353516 C18.7805944,88.7294872 18.328125,87.383472 18.328125,85.6972656 C18.328125,83.9915279 18.782222,82.6422576 19.6904297,81.6494141 C20.5986374,80.6565706 21.8307214,80.1601562 23.3867188,80.1601562 C24.9427161,80.1601562 26.1748001,80.6565706 27.0830078,81.6494141 C27.9912155,82.6422576 28.4453125,83.9850176 28.4453125,85.6777344 C28.4453125,87.4095139 27.9895879,88.7701773 27.078125,89.7597656 C26.1666621,90.7493539 24.9134194,91.2441406 23.3183594,91.2441406 Z M23.3476562,89.7988281 C25.3854269,89.7988281 26.4042969,88.4251439 26.4042969,85.6777344 C26.4042969,82.9628771 25.3984476,81.6054688 23.3867188,81.6054688 C21.3815004,81.6054688 20.3789062,82.9693874 20.3789062,85.6972656 C20.3789062,88.4316543 21.3684797,89.7988281 23.3476562,89.7988281 Z M31.453125,91 L31.453125,75.5800781 L33.3769531,75.5800781 L33.3769531,91 L31.453125,91 Z M35.3105469,94.3691406 L35.3105469,92.9238281 L45.3105469,92.9238281 L45.3105469,94.3691406 L35.3105469,94.3691406 Z M49.4316406,91 L45.4863281,80.3945312 L47.4101562,80.3945312 L50.4960938,88.6464844 L53.7480469,80.3945312 L55.5449219,80.3945312 L51.3554688,91 L49.4316406,91 Z M63.0546875,89.6523438 C61.902338,90.713547 60.792323,91.2441406 59.7246094,91.2441406 C58.8456987,91.2441406 58.1165394,90.9690783 57.5371094,90.4189453 C56.9576794,89.8688124 56.6679688,89.1738323 56.6679688,88.3339844 C56.6679688,87.1751244 57.1546175,86.2848338 58.1279297,85.6630859 C59.1012418,85.041338 60.4960847,84.7304688 62.3125,84.7304688 L62.7714844,84.7304688 L62.7714844,83.4511719 C62.7714844,82.220697 62.1399803,81.6054688 60.8769531,81.6054688 C59.861323,81.6054688 58.7643288,81.9179656 57.5859375,82.5429688 L57.5859375,80.9511719 C58.8815169,80.4238255 60.0956975,80.1601562 61.2285156,80.1601562 C62.4134174,80.1601562 63.2874321,80.4270807 63.8505859,80.9609375 C64.4137398,81.4947943 64.6953125,82.3248642 64.6953125,83.4511719 L64.6953125,88.2558594 C64.6953125,89.3561253 65.0338508,89.90625 65.7109375,89.90625 C65.7955733,89.90625 65.91927,89.8932293 66.0820312,89.8671875 L66.21875,90.9316406 C65.7825499,91.139975 65.3007839,91.2441406 64.7734375,91.2441406 C63.8749955,91.2441406 63.3020846,90.713547 63.0546875,89.6523438 Z M62.7714844,88.6074219 L62.7714844,85.8632812 L62.1269531,85.84375 C61.0722604,85.84375 60.2194043,86.0439433 59.5683594,86.4443359 C58.9173145,86.8447286 58.5917969,87.3704395 58.5917969,88.0214844 C58.5917969,88.4837263 58.7545557,88.8743474 59.0800781,89.1933594 C59.4056006,89.5123714 59.802732,89.671875 60.2714844,89.671875 C61.0722696,89.671875 61.9055946,89.3170608 62.7714844,88.6074219 Z M68.6308594,91 L68.6308594,75.5800781 L70.5546875,75.5800781 L70.5546875,91 L68.6308594,91 Z M77.2246094,91.2441406 C76.3456987,91.2441406 75.2780011,91.0390646 74.0214844,90.6289062 L74.0214844,88.8613281 C75.2780011,89.4863313 76.3717401,89.7988281 77.3027344,89.7988281 C77.8561226,89.7988281 78.3151023,89.64909 78.6796875,89.3496094 C79.0442727,89.0501287 79.2265625,88.6757835 79.2265625,88.2265625 C79.2265625,87.5690071 78.7154999,87.0253928 77.6933594,86.5957031 L76.5703125,86.1171875 C74.9101479,85.4270799 74.0800781,84.4342513 74.0800781,83.1386719 C74.0800781,82.2141881 74.4072233,81.4866563 75.0615234,80.9560547 C75.7158236,80.4254531 76.6126245,80.1601562 77.7519531,80.1601562 C78.344404,80.1601562 79.0768186,80.2415356 79.9492188,80.4042969 L80.3496094,80.4824219 L80.3496094,82.0839844 C79.2753853,81.7649724 78.4225292,81.6054688 77.7910156,81.6054688 C76.5540303,81.6054688 75.9355469,82.054683 75.9355469,82.953125 C75.9355469,83.532555 76.4042922,84.0208313 77.3417969,84.4179688 L78.2695312,84.8085938 C79.3177136,85.2513043 80.0598937,85.718422 80.4960938,86.2099609 C80.9322938,86.7014999 81.1503906,87.3151005 81.1503906,88.0507812 C81.1503906,88.9817755 80.7825558,89.7467418 80.046875,90.3457031 C79.3111942,90.9446645 78.3704484,91.2441406 77.2246094,91.2441406 Z M82.6835938,94.3691406 L82.6835938,92.9238281 L92.6835938,92.9238281 L92.6835938,94.3691406 L82.6835938,94.3691406 Z M94.6074219,91.1171875 L94.6074219,75.5800781 L96.53125,75.5800781 L96.53125,82.3867188 C97.3190144,80.9023363 98.5006432,80.1601562 100.076172,80.1601562 C101.35222,80.1601562 102.356442,80.6256464 103.088867,81.5566406 C103.821293,82.4876349 104.1875,83.7604086 104.1875,85.375 C104.1875,87.1328213 103.772465,88.5504503 102.942383,89.6279297 C102.112301,90.705409 101.020189,91.2441406 99.6660156,91.2441406 C98.4094989,91.2441406 97.3645875,90.7623746 96.53125,89.7988281 L96.296875,91.1171875 L94.6074219,91.1171875 Z M96.53125,88.4707031 C97.5208383,89.3561242 98.4648393,89.7988281 99.3632812,89.7988281 C101.212249,89.7988281 102.136719,88.389337 102.136719,85.5703125 C102.136719,83.0833209 101.316414,81.8398438 99.6757812,81.8398438 C98.6015571,81.8398438 97.5533905,82.4225202 96.53125,83.5878906 L96.53125,88.4707031 Z M114.96875,90.6582031 C113.679681,91.0488301 112.576176,91.2441406 111.658203,91.2441406 C110.095695,91.2441406 108.821294,90.7249401 107.834961,89.6865234 C106.848628,88.6481068 106.355469,87.3020916 106.355469,85.6484375 C106.355469,84.0403565 106.790035,82.7220104 107.65918,81.6933594 C108.528325,80.6647084 109.639967,80.1503906 110.994141,80.1503906 C112.276699,80.1503906 113.2679,80.6061152 113.967773,81.5175781 C114.667647,82.429041 115.017578,83.724601 115.017578,85.4042969 L115.007812,86 L108.318359,86 C108.598309,88.5195438 109.83202,89.7792969 112.019531,89.7792969 C112.820317,89.7792969 113.80338,89.5644553 114.96875,89.1347656 L114.96875,90.6582031 Z M108.40625,84.5546875 L113.083984,84.5546875 C113.083984,82.5820214 112.348315,81.5957031 110.876953,81.5957031 C109.399081,81.5957031 108.575522,82.5820214 108.40625,84.5546875 Z M121.521484,91.2441406 C120.544917,91.2441406 119.783206,90.9641955 119.236328,90.4042969 C118.68945,89.8443982 118.416016,89.0664112 118.416016,88.0703125 L118.416016,81.8398438 L117.087891,81.8398438 L117.087891,80.3945312 L118.416016,80.3945312 L118.416016,78.4707031 L120.339844,78.2851562 L120.339844,80.3945312 L123.113281,80.3945312 L123.113281,81.8398438 L120.339844,81.8398438 L120.339844,87.71875 C120.339844,89.1054757 120.938796,89.7988281 122.136719,89.7988281 C122.390626,89.7988281 122.699868,89.7565108 123.064453,89.671875 L123.064453,91 C122.472002,91.1627612 121.957684,91.2441406 121.521484,91.2441406 Z M127.048828,91 L124.011719,80.3945312 L125.896484,80.3945312 L128.220703,88.6074219 L130.730469,80.3945312 L132.654297,80.3945312 L134.851562,88.6074219 L137.517578,80.3945312 L139.167969,80.3945312 L135.710938,91 L133.777344,91 L131.53125,82.7871094 L128.992188,91 L127.048828,91 Z M149.001953,90.6582031 C147.712884,91.0488301 146.60938,91.2441406 145.691406,91.2441406 C144.128898,91.2441406 142.854497,90.7249401 141.868164,89.6865234 C140.881831,88.6481068 140.388672,87.3020916 140.388672,85.6484375 C140.388672,84.0403565 140.823238,82.7220104 141.692383,81.6933594 C142.561528,80.6647084 143.67317,80.1503906 145.027344,80.1503906 C146.309902,80.1503906 147.301103,80.6061152 148.000977,81.5175781 C148.70085,82.429041 149.050781,83.724601 149.050781,85.4042969 L149.041016,86 L142.351562,86 C142.631512,88.5195438 143.865223,89.7792969 146.052734,89.7792969 C146.85352,89.7792969 147.836583,89.5644553 149.001953,89.1347656 L149.001953,90.6582031 Z M142.439453,84.5546875 L147.117188,84.5546875 C147.117188,82.5820214 146.381518,81.5957031 144.910156,81.5957031 C143.432284,81.5957031 142.608725,82.5820214 142.439453,84.5546875 Z M160.144531,90.6582031 C158.855462,91.0488301 157.751958,91.2441406 156.833984,91.2441406 C155.271477,91.2441406 153.997075,90.7249401 153.010742,89.6865234 C152.024409,88.6481068 151.53125,87.3020916 151.53125,85.6484375 C151.53125,84.0403565 151.965816,82.7220104 152.834961,81.6933594 C153.704106,80.6647084 154.815748,80.1503906 156.169922,80.1503906 C157.45248,80.1503906 158.443681,80.6061152 159.143555,81.5175781 C159.843428,82.429041 160.193359,83.724601 160.193359,85.4042969 L160.183594,86 L153.494141,86 C153.77409,88.5195438 155.007802,89.7792969 157.195312,89.7792969 C157.996098,89.7792969 158.979161,89.5644553 160.144531,89.1347656 L160.144531,90.6582031 Z M153.582031,84.5546875 L158.259766,84.5546875 C158.259766,82.5820214 157.524096,81.5957031 156.052734,81.5957031 C154.574862,81.5957031 153.751303,82.5820214 153.582031,84.5546875 Z M163.513672,91 L163.513672,80.3945312 L165.4375,80.3945312 L165.4375,82.3867188 C166.45313,80.9023363 167.696607,80.1601562 169.167969,80.1601562 C170.085942,80.1601562 170.818357,80.4514945 171.365234,81.0341797 C171.912112,81.6168649 172.185547,82.3997347 172.185547,83.3828125 L172.185547,91 L170.261719,91 L170.261719,84.0078125 C170.261719,83.2200481 170.14616,82.6585303 169.915039,82.3232422 C169.683918,81.9879541 169.301435,81.8203125 168.767578,81.8203125 C167.589187,81.8203125 166.479172,82.5917892 165.4375,84.1347656 L165.4375,91 L163.513672,91 Z" id="col_vals_between" fill="#868686"></path>
            <g id="col_vals_between_icon" transform="translate(13.000000, 14.000000)" fill-rule="nonzero" fill="#858585">
                <path d="M3,0 C1.3545455,0 0,1.3545455 0,3 L0,41 C0,42.645455 1.3545455,44 3,44 L41,44 C42.645455,44 44,42.645455 44,41 L44,3 C44,1.3545455 42.645455,0 41,0 L3,0 Z M3,2 L41,2 C41.554545,2 42,2.4454545 42,3 L42,41 C42,41.554545 41.554545,42 41,42 L3,42 C2.4454545,42 2,41.554545 2,41 L2,3 C2,2.4454545 2.4454545,2 3,2 Z M38,9 L36,9 L36,35 L38,35 L38,9 Z M8,9 L6,9 L6,35 L8,35 L8,9 Z M13,19 C11.343146,19 10,20.343146 10,22 C10,23.656854 11.343146,25 13,25 C14.656854,25 16,23.656854 16,22 C16,20.343146 14.656854,19 13,19 Z M22,19 C20.343146,19 19,20.343146 19,22 C19,23.656854 20.343146,25 22,25 C23.656854,25 25,23.656854 25,22 C25,20.343146 23.656854,19 22,19 Z M31,19 C29.343146,19 28,20.343146 28,22 C28,23.656854 29.343146,25 31,25 C32.656854,25 34,23.656854 34,22 C34,20.343146 32.656854,19 31,19 Z" id="Shape"></path>
            </g>
        </g>
    </g>
</svg>