<?xml version="1.0" encoding="UTF-8"?>
<svg width="233px" height="114px" viewBox="0 0 233 114" version="1.1" xmlns="http://www.w3.org/2000/svg" xmlns:xlink="http://www.w3.org/1999/xlink">
    <!-- Generator: Sketch 43.1 (39012) - http://www.bohemiancoding.com/sketch -->
    <title>get_summary</title>
    <desc>Created with Sketch.</desc>
    <defs></defs>
    <g id="Function-Icons" stroke="none" stroke-width="1" fill="none" fill-rule="evenodd">
        <g id="get_summary" transform="translate(0.000000, 7.000000)">
            <path d="M70,7 L70,63.508474" id="Line" stroke="#979797" stroke-width="2" stroke-linecap="square"></path>
            <g id="function" stroke="#979797" stroke-width="2">
                <path d="M2,70 L231.008733,70" id="Line" stroke-linecap="square"></path>
                <rect id="Rectangle" x="1" y="1" width="230" height="98" rx="8"></rect>
            </g>
            <path d="M8.96289062,94.5253906 L9.1875,92.8554688 C10.3007868,93.3828151 11.3977811,93.6464844 12.4785156,93.6464844 C14.6464952,93.6464844 15.7304688,92.4974073 15.7304688,90.1992188 L15.7304688,88.5292969 C15.0208298,90.0136793 13.8554769,90.7558594 12.234375,90.7558594 C10.9648374,90.7558594 9.95573291,90.2936244 9.20703125,89.3691406 C8.45832959,88.4446568 8.08398438,87.1979245 8.08398438,85.6289062 C8.08398438,84.0143148 8.5104124,82.6992238 9.36328125,81.6835938 C10.2161501,80.6679637 11.3196547,80.1601562 12.6738281,80.1601562 C13.8587299,80.1601562 14.8775999,80.6419223 15.7304688,81.6054688 L15.7304688,80.3945312 L17.6640625,80.3945312 L17.6640625,88.109375 C17.6640625,89.7695396 17.5778003,90.9983684 17.4052734,91.7958984 C17.2327465,92.5934285 16.9088565,93.2460912 16.4335938,93.7539062 C15.5937458,94.6458378 14.2884203,95.0917969 12.5175781,95.0917969 C11.2805928,95.0917969 10.0957088,94.9029967 8.96289062,94.5253906 Z M15.7304688,87.328125 L15.7304688,82.9238281 C14.8841104,82.0449175 13.9628956,81.6054688 12.9667969,81.6054688 C12.0813758,81.6054688 11.3880233,81.9602829 10.8867188,82.6699219 C10.3854142,83.3795608 10.1347656,84.3528584 10.1347656,85.5898438 C10.1347656,87.9140741 10.9518147,89.0761719 12.5859375,89.0761719 C13.6992243,89.0761719 14.7473909,88.4934954 15.7304688,87.328125 Z M29.1679688,90.6582031 C27.8788998,91.0488301 26.7753952,91.2441406 25.8574219,91.2441406 C24.2949141,91.2441406 23.0205127,90.7249401 22.0341797,89.6865234 C21.0478466,88.6481068 20.5546875,87.3020916 20.5546875,85.6484375 C20.5546875,84.0403565 20.9892535,82.7220104 21.8583984,81.6933594 C22.7275434,80.6647084 23.8391859,80.1503906 25.1933594,80.1503906 C26.4759179,80.1503906 27.4671189,80.6061152 28.1669922,81.5175781 C28.8668655,82.429041 29.2167969,83.724601 29.2167969,85.4042969 L29.2070312,86 L22.5175781,86 C22.7975274,88.5195438 24.0312391,89.7792969 26.21875,89.7792969 C27.0195353,89.7792969 28.0025983,89.5644553 29.1679688,89.1347656 L29.1679688,90.6582031 Z M22.6054688,84.5546875 L27.2832031,84.5546875 C27.2832031,82.5820214 26.5475334,81.5957031 25.0761719,81.5957031 C23.5982999,81.5957031 22.7747404,82.5820214 22.6054688,84.5546875 Z M35.7207031,91.2441406 C34.7441357,91.2441406 33.9824246,90.9641955 33.4355469,90.4042969 C32.8886691,89.8443982 32.6152344,89.0664112 32.6152344,88.0703125 L32.6152344,81.8398438 L31.2871094,81.8398438 L31.2871094,80.3945312 L32.6152344,80.3945312 L32.6152344,78.4707031 L34.5390625,78.2851562 L34.5390625,80.3945312 L37.3125,80.3945312 L37.3125,81.8398438 L34.5390625,81.8398438 L34.5390625,87.71875 C34.5390625,89.1054757 35.1380148,89.7988281 36.3359375,89.7988281 C36.589845,89.7988281 36.8990867,89.7565108 37.2636719,89.671875 L37.2636719,91 C36.671221,91.1627612 36.1569032,91.2441406 35.7207031,91.2441406 Z M38.09375,94.3691406 L38.09375,92.9238281 L48.09375,92.9238281 L48.09375,94.3691406 L38.09375,94.3691406 Z M52.8300781,91.2441406 C51.9511675,91.2441406 50.8834698,91.0390646 49.6269531,90.6289062 L49.6269531,88.8613281 C50.8834698,89.4863313 51.9772089,89.7988281 52.9082031,89.7988281 C53.4615913,89.7988281 53.9205711,89.64909 54.2851562,89.3496094 C54.6497414,89.0501287 54.8320312,88.6757835 54.8320312,88.2265625 C54.8320312,87.5690071 54.3209687,87.0253928 53.2988281,86.5957031 L52.1757812,86.1171875 C50.5156167,85.4270799 49.6855469,84.4342513 49.6855469,83.1386719 C49.6855469,82.2141881 50.012692,81.4866563 50.6669922,80.9560547 C51.3212923,80.4254531 52.2180933,80.1601562 53.3574219,80.1601562 C53.9498728,80.1601562 54.6822873,80.2415356 55.5546875,80.4042969 L55.9550781,80.4824219 L55.9550781,82.0839844 C54.880854,81.7649724 54.0279979,81.6054688 53.3964844,81.6054688 C52.159499,81.6054688 51.5410156,82.054683 51.5410156,82.953125 C51.5410156,83.532555 52.0097609,84.0208313 52.9472656,84.4179688 L53.875,84.8085938 C54.9231823,85.2513043 55.6653624,85.718422 56.1015625,86.2099609 C56.5377626,86.7014999 56.7558594,87.3151005 56.7558594,88.0507812 C56.7558594,88.9817755 56.3880245,89.7467418 55.6523438,90.3457031 C54.916663,90.9446645 53.9759172,91.2441406 52.8300781,91.2441406 Z M66.84375,91 L66.84375,89.0078125 C65.8216095,90.4987054 64.5813875,91.2441406 63.1230469,91.2441406 C62.1985631,91.2441406 61.4628934,90.9528024 60.9160156,90.3701172 C60.3691379,89.787432 60.0957031,89.001307 60.0957031,88.0117188 L60.0957031,80.3945312 L62.0195312,80.3945312 L62.0195312,87.3867188 C62.0195312,88.1809936 62.13509,88.7457666 62.3662109,89.0810547 C62.5973319,89.4163428 62.9830702,89.5839844 63.5234375,89.5839844 C64.6953184,89.5839844 65.8020781,88.8125077 66.84375,87.2695312 L66.84375,80.3945312 L68.7675781,80.3945312 L68.7675781,91 L66.84375,91 Z M72.625,91 L72.625,80.3945312 L74.5488281,80.3945312 L74.5488281,82.3867188 C75.4863328,80.9023363 76.6907479,80.1601562 78.1621094,80.1601562 C79.5813873,80.1601562 80.5481745,80.9023363 81.0625,82.3867188 C81.9739629,80.8958259 83.1588469,80.1503906 84.6171875,80.1503906 C85.5546922,80.1503906 86.2805964,80.425453 86.7949219,80.9755859 C87.3092474,81.5257189 87.5664062,82.295568 87.5664062,83.2851562 L87.5664062,91 L85.6328125,91 L85.6328125,83.5878906 C85.6328125,82.3769471 85.1543017,81.7714844 84.1972656,81.7714844 C83.2011669,81.7714844 82.1562555,82.4778575 81.0625,83.890625 L81.0625,91 L79.1289062,91 L79.1289062,83.5878906 C79.1289062,82.3704366 78.6406299,81.7617188 77.6640625,81.7617188 C76.6940056,81.7617188 75.6556045,82.4713471 74.5488281,83.890625 L74.5488281,91 L72.625,91 Z M91.296875,91 L91.296875,80.3945312 L93.2207031,80.3945312 L93.2207031,82.3867188 C94.1582078,80.9023363 95.3626229,80.1601562 96.8339844,80.1601562 C98.2532623,80.1601562 99.2200495,80.9023363 99.734375,82.3867188 C100.645838,80.8958259 101.830722,80.1503906 103.289062,80.1503906 C104.226567,80.1503906 104.952471,80.425453 105.466797,80.9755859 C105.981122,81.5257189 106.238281,82.295568 106.238281,83.2851562 L106.238281,91 L104.304688,91 L104.304688,83.5878906 C104.304688,82.3769471 103.826177,81.7714844 102.869141,81.7714844 C101.873042,81.7714844 100.82813,82.4778575 99.734375,83.890625 L99.734375,91 L97.8007812,91 L97.8007812,83.5878906 C97.8007812,82.3704366 97.3125049,81.7617188 96.3359375,81.7617188 C95.3658806,81.7617188 94.3274795,82.4713471 93.2207031,83.890625 L93.2207031,91 L91.296875,91 Z M115.4375,89.6523438 C114.28515,90.713547 113.175136,91.2441406 112.107422,91.2441406 C111.228511,91.2441406 110.499352,90.9690783 109.919922,90.4189453 C109.340492,89.8688124 109.050781,89.1738323 109.050781,88.3339844 C109.050781,87.1751244 109.53743,86.2848338 110.510742,85.6630859 C111.484054,85.041338 112.878897,84.7304688 114.695312,84.7304688 L115.154297,84.7304688 L115.154297,83.4511719 C115.154297,82.220697 114.522793,81.6054688 113.259766,81.6054688 C112.244136,81.6054688 111.147141,81.9179656 109.96875,82.5429688 L109.96875,80.9511719 C111.264329,80.4238255 112.47851,80.1601562 113.611328,80.1601562 C114.79623,80.1601562 115.670245,80.4270807 116.233398,80.9609375 C116.796552,81.4947943 117.078125,82.3248642 117.078125,83.4511719 L117.078125,88.2558594 C117.078125,89.3561253 117.416663,89.90625 118.09375,89.90625 C118.178386,89.90625 118.302083,89.8932293 118.464844,89.8671875 L118.601562,90.9316406 C118.165362,91.139975 117.683596,91.2441406 117.15625,91.2441406 C116.257808,91.2441406 115.684897,90.713547 115.4375,89.6523438 Z M115.154297,88.6074219 L115.154297,85.8632812 L114.509766,85.84375 C113.455073,85.84375 112.602217,86.0439433 111.951172,86.4443359 C111.300127,86.8447286 110.974609,87.3704395 110.974609,88.0214844 C110.974609,88.4837263 111.137368,88.8743474 111.462891,89.1933594 C111.788413,89.5123714 112.185545,89.671875 112.654297,89.671875 C113.455082,89.671875 114.288407,89.3170608 115.154297,88.6074219 Z M121.013672,91 L121.013672,80.3945312 L122.9375,80.3945312 L122.9375,82.3867188 C123.699223,80.9023363 124.805982,80.1601562 126.257812,80.1601562 C126.453126,80.1601562 126.658202,80.1764321 126.873047,80.2089844 L126.873047,82.0058594 C126.541014,81.8951817 126.248048,81.8398438 125.994141,81.8398438 C124.776687,81.8398438 123.757817,82.5624928 122.9375,84.0078125 L122.9375,91 L121.013672,91 Z M129.8125,94.8574219 L131.53125,91 L127.429688,80.3945312 L129.509766,80.3945312 L132.546875,88.3828125 L135.789062,80.3945312 L137.605469,80.3945312 L131.814453,94.8574219 L129.8125,94.8574219 Z" fill="#868686"></path>
            <g id="get_summary_icon" transform="translate(11.000000, 14.000000)" fill-rule="nonzero" fill="#8D8C8E">
                <path d="M0.780151016,0.00109912694 C0.321192312,0.0923206703 -0.00808232941,0.514467647 0.000151015633,1.00109913 L0.000151015633,41.0010991 C0.000204024822,41.553361 0.429979614,42.0010439 0.960151016,42.0010991 L47.040151,42.0010991 C47.5703224,42.0010439 48.000098,41.553361 48.000151,41.0010991 L48.000151,1.00109913 C48.000098,0.448837251 47.5703224,0.00115434485 47.040151,0.00109912694 L0.960151016,0.00109912694 C0.93016751,-0.000366375647 0.900134521,-0.000366375647 0.870151016,0.00109912694 C0.84016751,-0.000366375647 0.810134521,-0.000366375647 0.780151016,0.00109912694 L0.780151016,0.00109912694 Z M1.92015102,2.00109913 L46.080151,2.00109913 L46.080151,40.0010991 L1.92015102,40.0010991 L1.92015102,2.00109913 Z M39.360151,8.18859913 C39.0795812,8.22164766 38.8272016,8.38167091 38.670151,8.62609913 L36.540151,11.7510991 L34.860151,10.4073491 C34.4376532,10.0708006 33.8332376,10.1547472 33.510151,10.5948491 C33.1870644,11.034951 33.2676532,11.6645506 33.690151,12.0010991 L36.180151,14.0010991 C36.3883403,14.1704032 36.6542912,14.242891 36.9154053,14.2015006 C37.1765194,14.1601103 37.4097322,14.0084978 37.560151,13.7823491 L40.230151,9.78234913 C40.4589364,9.46390901 40.4848244,9.03451595 40.2960833,8.68876177 C40.1073422,8.34300759 39.7398518,8.14662057 39.360151,8.18859913 Z M8.64015102,10.0010991 L8.64015102,12.0010991 L27.840151,12.0010991 L27.840151,10.0010991 L8.64015102,10.0010991 Z M39.360151,18.1885991 C39.0795812,18.2216477 38.8272016,18.3816709 38.670151,18.6260991 L36.540151,21.7510991 L34.860151,20.4073491 C34.4376532,20.0708006 33.8332376,20.1547472 33.510151,20.5948491 C33.1870644,21.034951 33.2676532,21.6645506 33.690151,22.0010991 L36.180151,24.0010991 C36.3883403,24.1704032 36.6542912,24.242891 36.9154053,24.2015006 C37.1765194,24.1601103 37.4097322,24.0084978 37.560151,23.7823491 L40.230151,19.7823491 C40.4589364,19.463909 40.4848244,19.034516 40.2960833,18.6887618 C40.1073422,18.3430076 39.7398518,18.1466206 39.360151,18.1885991 L39.360151,18.1885991 Z M8.64015102,20.0010991 L8.64015102,22.0010991 L27.840151,22.0010991 L27.840151,20.0010991 L8.64015102,20.0010991 Z M39.360151,28.1885991 C39.0795812,28.2216477 38.8272016,28.3816709 38.670151,28.6260991 L36.540151,31.7510991 L34.860151,30.4073491 C34.4376532,30.0708006 33.8332376,30.1547472 33.510151,30.5948491 C33.1870644,31.034951 33.2676532,31.6645506 33.690151,32.0010991 L36.180151,34.0010991 C36.3883403,34.1704032 36.6542912,34.242891 36.9154053,34.2015006 C37.1765194,34.1601103 37.4097322,34.0084978 37.560151,33.7823491 L40.230151,29.7823491 C40.4589364,29.463909 40.4848244,29.034516 40.2960833,28.6887618 C40.1073422,28.3430076 39.7398518,28.1466206 39.360151,28.1885991 Z M8.64015102,30.0010991 L8.64015102,32.0010991 L27.840151,32.0010991 L27.840151,30.0010991 L8.64015102,30.0010991 Z" id="Shape"></path>
            </g>
        </g>
    </g>
</svg>