<?xml version="1.0" encoding="UTF-8"?>
<svg width="233px" height="114px" viewBox="0 0 233 114" version="1.1" xmlns="http://www.w3.org/2000/svg" xmlns:xlink="http://www.w3.org/1999/xlink">
    <!-- Generator: Sketch 43.1 (39012) - http://www.bohemiancoding.com/sketch -->
    <title>interrogate</title>
    <desc>Created with Sketch.</desc>
    <defs></defs>
    <g id="Function-Icons" stroke="none" stroke-width="1" fill="none" fill-rule="evenodd">
        <g id="interrogate" transform="translate(0.000000, 7.000000)">
            <path d="M70,7 L70,63.508474" id="Line" stroke="#979797" stroke-width="2" stroke-linecap="square"></path>
            <g id="function" stroke="#979797" stroke-width="2">
                <path d="M2,70 L231.008733,70" id="Line" stroke-linecap="square"></path>
                <rect id="Rectangle" x="1" y="1" width="230" height="98" rx="8"></rect>
            </g>
            <path d="M8.92382812,91 L8.92382812,80.3945312 L10.8476562,80.3945312 L10.8476562,91 L8.92382812,91 Z M8.92382812,78.4707031 L8.92382812,76.546875 L10.8476562,76.546875 L10.8476562,78.4707031 L8.92382812,78.4707031 Z M14.7050781,91 L14.7050781,80.3945312 L16.6289062,80.3945312 L16.6289062,82.3867188 C17.6445363,80.9023363 18.8880135,80.1601562 20.359375,80.1601562 C21.2773483,80.1601562 22.0097629,80.4514945 22.5566406,81.0341797 C23.1035184,81.6168649 23.3769531,82.3997347 23.3769531,83.3828125 L23.3769531,91 L21.453125,91 L21.453125,84.0078125 C21.453125,83.2200481 21.3375663,82.6585303 21.1064453,82.3232422 C20.8753244,81.9879541 20.4928412,81.8203125 19.9589844,81.8203125 C18.7805931,81.8203125 17.6705781,82.5917892 16.6289062,84.1347656 L16.6289062,91 L14.7050781,91 Z M30.3007812,91.2441406 C29.3242139,91.2441406 28.5625027,90.9641955 28.015625,90.4042969 C27.4687473,89.8443982 27.1953125,89.0664112 27.1953125,88.0703125 L27.1953125,81.8398438 L25.8671875,81.8398438 L25.8671875,80.3945312 L27.1953125,80.3945312 L27.1953125,78.4707031 L29.1191406,78.2851562 L29.1191406,80.3945312 L31.8925781,80.3945312 L31.8925781,81.8398438 L29.1191406,81.8398438 L29.1191406,87.71875 C29.1191406,89.1054757 29.718093,89.7988281 30.9160156,89.7988281 C31.1699231,89.7988281 31.4791648,89.7565108 31.84375,89.671875 L31.84375,91 C31.2512991,91.1627612 30.7369813,91.2441406 30.3007812,91.2441406 Z M42.3710938,90.6582031 C41.0820248,91.0488301 39.9785202,91.2441406 39.0605469,91.2441406 C37.4980391,91.2441406 36.2236377,90.7249401 35.2373047,89.6865234 C34.2509716,88.6481068 33.7578125,87.3020916 33.7578125,85.6484375 C33.7578125,84.0403565 34.1923785,82.7220104 35.0615234,81.6933594 C35.9306684,80.6647084 37.0423109,80.1503906 38.3964844,80.1503906 C39.6790429,80.1503906 40.6702439,80.6061152 41.3701172,81.5175781 C42.0699905,82.429041 42.4199219,83.724601 42.4199219,85.4042969 L42.4101562,86 L35.7207031,86 C36.0006524,88.5195438 37.2343641,89.7792969 39.421875,89.7792969 C40.2226603,89.7792969 41.2057233,89.5644553 42.3710938,89.1347656 L42.3710938,90.6582031 Z M35.8085938,84.5546875 L40.4863281,84.5546875 C40.4863281,82.5820214 39.7506584,81.5957031 38.2792969,81.5957031 C36.8014249,81.5957031 35.9778654,82.5820214 35.8085938,84.5546875 Z M45.7402344,91 L45.7402344,80.3945312 L47.6640625,80.3945312 L47.6640625,82.3867188 C48.4257851,80.9023363 49.5325448,80.1601562 50.984375,80.1601562 C51.1796885,80.1601562 51.3847646,80.1764321 51.5996094,80.2089844 L51.5996094,82.0058594 C51.2675765,81.8951817 50.9746106,81.8398438 50.7207031,81.8398438 C49.5032491,81.8398438 48.4843791,82.5624928 47.6640625,84.0078125 L47.6640625,91 L45.7402344,91 Z M53.9238281,91 L53.9238281,80.3945312 L55.8476562,80.3945312 L55.8476562,82.3867188 C56.6093788,80.9023363 57.7161386,80.1601562 59.1679688,80.1601562 C59.3632822,80.1601562 59.5683583,80.1764321 59.7832031,80.2089844 L59.7832031,82.0058594 C59.4511702,81.8951817 59.1582044,81.8398438 58.9042969,81.8398438 C57.6868429,81.8398438 56.6679729,82.5624928 55.8476562,84.0078125 L55.8476562,91 L53.9238281,91 Z M66.2578125,91.2441406 C64.7408778,91.2441406 63.5299524,90.741216 62.625,89.7353516 C61.7200476,88.7294872 61.2675781,87.383472 61.2675781,85.6972656 C61.2675781,83.9915279 61.7216751,82.6422576 62.6298828,81.6494141 C63.5380905,80.6565706 64.7701745,80.1601562 66.3261719,80.1601562 C67.8821692,80.1601562 69.1142533,80.6565706 70.0224609,81.6494141 C70.9306686,82.6422576 71.3847656,83.9850176 71.3847656,85.6777344 C71.3847656,87.4095139 70.929041,88.7701773 70.0175781,89.7597656 C69.1061152,90.7493539 67.8528726,91.2441406 66.2578125,91.2441406 Z M66.2871094,89.7988281 C68.32488,89.7988281 69.34375,88.4251439 69.34375,85.6777344 C69.34375,82.9628771 68.3379007,81.6054688 66.3261719,81.6054688 C64.3209535,81.6054688 63.3183594,82.9693874 63.3183594,85.6972656 C63.3183594,88.4316543 64.3079328,89.7988281 66.2871094,89.7988281 Z M74.4316406,94.5253906 L74.65625,92.8554688 C75.7695368,93.3828151 76.8665311,93.6464844 77.9472656,93.6464844 C80.1152452,93.6464844 81.1992188,92.4974073 81.1992188,90.1992188 L81.1992188,88.5292969 C80.4895798,90.0136793 79.3242269,90.7558594 77.703125,90.7558594 C76.4335874,90.7558594 75.4244829,90.2936244 74.6757812,89.3691406 C73.9270796,88.4446568 73.5527344,87.1979245 73.5527344,85.6289062 C73.5527344,84.0143148 73.9791624,82.6992238 74.8320312,81.6835938 C75.6849001,80.6679637 76.7884047,80.1601562 78.1425781,80.1601562 C79.3274799,80.1601562 80.3463499,80.6419223 81.1992188,81.6054688 L81.1992188,80.3945312 L83.1328125,80.3945312 L83.1328125,88.109375 C83.1328125,89.7695396 83.0465503,90.9983684 82.8740234,91.7958984 C82.7014965,92.5934285 82.3776065,93.2460912 81.9023438,93.7539062 C81.0624958,94.6458378 79.7571703,95.0917969 77.9863281,95.0917969 C76.7493428,95.0917969 75.5644588,94.9029967 74.4316406,94.5253906 Z M81.1992188,87.328125 L81.1992188,82.9238281 C80.3528604,82.0449175 79.4316456,81.6054688 78.4355469,81.6054688 C77.5501258,81.6054688 76.8567733,81.9602829 76.3554688,82.6699219 C75.8541642,83.3795608 75.6035156,84.3528584 75.6035156,85.5898438 C75.6035156,87.9140741 76.4205647,89.0761719 78.0546875,89.0761719 C79.1679743,89.0761719 80.2161409,88.4934954 81.1992188,87.328125 Z M92.3320312,89.6523438 C91.1796817,90.713547 90.0696668,91.2441406 89.0019531,91.2441406 C88.1230425,91.2441406 87.3938831,90.9690783 86.8144531,90.4189453 C86.2350231,89.8688124 85.9453125,89.1738323 85.9453125,88.3339844 C85.9453125,87.1751244 86.4319613,86.2848338 87.4052734,85.6630859 C88.3785856,85.041338 89.7734284,84.7304688 91.5898438,84.7304688 L92.0488281,84.7304688 L92.0488281,83.4511719 C92.0488281,82.220697 91.417324,81.6054688 90.1542969,81.6054688 C89.1386668,81.6054688 88.0416726,81.9179656 86.8632812,82.5429688 L86.8632812,80.9511719 C88.1588606,80.4238255 89.3730412,80.1601562 90.5058594,80.1601562 C91.6907611,80.1601562 92.5647758,80.4270807 93.1279297,80.9609375 C93.6910835,81.4947943 93.9726562,82.3248642 93.9726562,83.4511719 L93.9726562,88.2558594 C93.9726562,89.3561253 94.3111945,89.90625 94.9882812,89.90625 C95.0729171,89.90625 95.1966138,89.8932293 95.359375,89.8671875 L95.4960938,90.9316406 C95.0598937,91.139975 94.5781276,91.2441406 94.0507812,91.2441406 C93.1523393,91.2441406 92.5794283,90.713547 92.3320312,89.6523438 Z M92.0488281,88.6074219 L92.0488281,85.8632812 L91.4042969,85.84375 C90.3496041,85.84375 89.496748,86.0439433 88.8457031,86.4443359 C88.1946582,86.8447286 87.8691406,87.3704395 87.8691406,88.0214844 C87.8691406,88.4837263 88.0318994,88.8743474 88.3574219,89.1933594 C88.6829443,89.5123714 89.0800758,89.671875 89.5488281,89.671875 C90.3496134,89.671875 91.1829384,89.3170608 92.0488281,88.6074219 Z M101.091797,91.2441406 C100.115229,91.2441406 99.3535184,90.9641955 98.8066406,90.4042969 C98.2597629,89.8443982 97.9863281,89.0664112 97.9863281,88.0703125 L97.9863281,81.8398438 L96.6582031,81.8398438 L96.6582031,80.3945312 L97.9863281,80.3945312 L97.9863281,78.4707031 L99.9101562,78.2851562 L99.9101562,80.3945312 L102.683594,80.3945312 L102.683594,81.8398438 L99.9101562,81.8398438 L99.9101562,87.71875 C99.9101562,89.1054757 100.509109,89.7988281 101.707031,89.7988281 C101.960939,89.7988281 102.27018,89.7565108 102.634766,89.671875 L102.634766,91 C102.042315,91.1627612 101.527997,91.2441406 101.091797,91.2441406 Z M113.162109,90.6582031 C111.87304,91.0488301 110.769536,91.2441406 109.851562,91.2441406 C108.289055,91.2441406 107.014653,90.7249401 106.02832,89.6865234 C105.041987,88.6481068 104.548828,87.3020916 104.548828,85.6484375 C104.548828,84.0403565 104.983394,82.7220104 105.852539,81.6933594 C106.721684,80.6647084 107.833327,80.1503906 109.1875,80.1503906 C110.470058,80.1503906 111.46126,80.6061152 112.161133,81.5175781 C112.861006,82.429041 113.210938,83.724601 113.210938,85.4042969 L113.201172,86 L106.511719,86 C106.791668,88.5195438 108.02538,89.7792969 110.212891,89.7792969 C111.013676,89.7792969 111.996739,89.5644553 113.162109,89.1347656 L113.162109,90.6582031 Z M106.599609,84.5546875 L111.277344,84.5546875 C111.277344,82.5820214 110.541674,81.5957031 109.070312,81.5957031 C107.592441,81.5957031 106.768881,82.5820214 106.599609,84.5546875 Z" fill="#868686"></path>
            <g id="interrogate_icon" transform="translate(11.000000, 13.000000)" fill-rule="nonzero" fill="#858585">
                <path d="M40.1875,0.40625 L29.1875,15.40625 L30.8125,16.59375 L41.8125,1.59375 L40.1875,0.40625 Z M19.9375,3.6875 L18.0625,4.3125 L20.0625,10.3125 L21.9375,9.6875 L19.9375,3.6875 Z M9.75,4.34375 L8.25,5.65625 L17.25,15.65625 L18.75,14.34375 L9.75,4.34375 Z M27,6 L18,25 L23,25 L21,40 L30,22 L25,22 L27,6 Z M6,15 L6,16 L6,19 L1,19 L0,19 L0,20 L0,26 L0,27 L1,27 L6,27 L6,30 L6,31 L7,31 L8,31 L8.40625,31 L8.71875,30.71875 L15.71875,23.71875 L16.40625,23 L15.71875,22.28125 L8.71875,15.28125 L8.40625,15 L8,15 L7,15 L6,15 Z M39.59375,15 L39.28125,15.28125 L32.28125,22.28125 L31.59375,23 L32.28125,23.71875 L39.28125,30.71875 L39.59375,31 L40,31 L41,31 L42,31 L42,30 L42,27 L47,27 L48,27 L48,26 L48,20 L48,19 L47,19 L42,19 L42,16 L42,15 L41,15 L40,15 L39.59375,15 Z M8,17.4375 L13.5625,23 L8,28.5625 L8,26 L8,25 L7,25 L2,25 L2,21 L7,21 L8,21 L8,20 L8,17.4375 Z M40,17.4375 L40,20 L40,21 L41,21 L46,21 L46,25 L41,25 L40,25 L40,26 L40,28.5625 L34.4375,23 L40,17.4375 Z M16.4375,30.75 L6.1875,44.40625 L7.8125,45.59375 L18.03125,31.9375 L16.4375,30.75 Z M28.875,32.5 L27.125,33.5 L34.125,45.5 L35.875,44.5 L28.875,32.5 Z M38.625,35.21875 L37.375,36.78125 L43.375,41.78125 L44.625,40.21875 L38.625,35.21875 Z" id="Shape"></path>
            </g>
        </g>
    </g>
</svg>