<?xml version="1.0" encoding="UTF-8"?>
<svg width="252px" height="114px" viewBox="0 0 252 114" version="1.1" xmlns="http://www.w3.org/2000/svg" xmlns:xlink="http://www.w3.org/1999/xlink">
    <!-- Generator: Sketch 43.1 (39012) - http://www.bohemiancoding.com/sketch -->
    <title>col_vals_in_set_</title>
    <desc>Created with Sketch.</desc>
    <defs></defs>
    <g id="Function-Icons" stroke="none" stroke-width="1" fill="none" fill-rule="evenodd">
        <g id="col_vals_in_set_" transform="translate(0.000000, 7.000000)">
            <path d="M70,7 L70,63.508474" id="Line" stroke="#979797" stroke-width="2" stroke-linecap="square"></path>
            <g id="function_right" stroke="#979797" stroke-width="2">
                <path d="M1.5,70 L237.008492,70" id="Line" stroke-linecap="square"></path>
                <path d="M250.812734,50 L223.473391,92.7177238 C221.275802,96.1514574 216.073131,99 212.007468,99 L7.992532,99 C4.13425363,99 1,95.8627721 1,92.0066458 L1,7.99335421 C1,4.13514755 4.13790239,1 7.992532,1 L212.007468,1 C216.082112,1 221.272011,3.84261995 223.473391,7.28227617 L250.812734,50 Z" id="Rectangle"></path>
            </g>
            <path d="M13.0644531,91.2441406 C11.6321543,91.2441406 10.4440151,90.713547 9.5,89.6523438 C8.55598486,88.5911405 8.08398438,87.2532633 8.08398438,85.6386719 C8.08398438,83.9134028 8.5511021,82.5690152 9.48535156,81.6054688 C10.419601,80.6419223 11.7232989,80.1601562 13.3964844,80.1601562 C14.2233114,80.1601562 15.1477813,80.2740874 16.1699219,80.5019531 L16.1699219,82.1132812 C15.0826769,81.7942692 14.197269,81.6347656 13.5136719,81.6347656 C12.530594,81.6347656 11.7412139,82.0042281 11.1455078,82.7431641 C10.5498017,83.4821 10.2519531,84.4667907 10.2519531,85.6972656 C10.2519531,86.8886778 10.5579396,87.8522099 11.1699219,88.5878906 C11.7819041,89.3235714 12.5826773,89.6914062 13.5722656,89.6914062 C14.4511763,89.6914062 15.3561151,89.4667991 16.2871094,89.0175781 L16.2871094,90.6777344 C15.0436136,91.0553404 13.9694056,91.2441406 13.0644531,91.2441406 Z M23.3183594,91.2441406 C21.8014247,91.2441406 20.5904993,90.741216 19.6855469,89.7353516 C18.7805944,88.7294872 18.328125,87.383472 18.328125,85.6972656 C18.328125,83.9915279 18.782222,82.6422576 19.6904297,81.6494141 C20.5986374,80.6565706 21.8307214,80.1601562 23.3867188,80.1601562 C24.9427161,80.1601562 26.1748001,80.6565706 27.0830078,81.6494141 C27.9912155,82.6422576 28.4453125,83.9850176 28.4453125,85.6777344 C28.4453125,87.4095139 27.9895879,88.7701773 27.078125,89.7597656 C26.1666621,90.7493539 24.9134194,91.2441406 23.3183594,91.2441406 Z M23.3476562,89.7988281 C25.3854269,89.7988281 26.4042969,88.4251439 26.4042969,85.6777344 C26.4042969,82.9628771 25.3984476,81.6054688 23.3867188,81.6054688 C21.3815004,81.6054688 20.3789062,82.9693874 20.3789062,85.6972656 C20.3789062,88.4316543 21.3684797,89.7988281 23.3476562,89.7988281 Z M31.453125,91 L31.453125,75.5800781 L33.3769531,75.5800781 L33.3769531,91 L31.453125,91 Z M35.3105469,94.3691406 L35.3105469,92.9238281 L45.3105469,92.9238281 L45.3105469,94.3691406 L35.3105469,94.3691406 Z M49.4316406,91 L45.4863281,80.3945312 L47.4101562,80.3945312 L50.4960938,88.6464844 L53.7480469,80.3945312 L55.5449219,80.3945312 L51.3554688,91 L49.4316406,91 Z M63.0546875,89.6523438 C61.902338,90.713547 60.792323,91.2441406 59.7246094,91.2441406 C58.8456987,91.2441406 58.1165394,90.9690783 57.5371094,90.4189453 C56.9576794,89.8688124 56.6679688,89.1738323 56.6679688,88.3339844 C56.6679688,87.1751244 57.1546175,86.2848338 58.1279297,85.6630859 C59.1012418,85.041338 60.4960847,84.7304688 62.3125,84.7304688 L62.7714844,84.7304688 L62.7714844,83.4511719 C62.7714844,82.220697 62.1399803,81.6054688 60.8769531,81.6054688 C59.861323,81.6054688 58.7643288,81.9179656 57.5859375,82.5429688 L57.5859375,80.9511719 C58.8815169,80.4238255 60.0956975,80.1601562 61.2285156,80.1601562 C62.4134174,80.1601562 63.2874321,80.4270807 63.8505859,80.9609375 C64.4137398,81.4947943 64.6953125,82.3248642 64.6953125,83.4511719 L64.6953125,88.2558594 C64.6953125,89.3561253 65.0338508,89.90625 65.7109375,89.90625 C65.7955733,89.90625 65.91927,89.8932293 66.0820312,89.8671875 L66.21875,90.9316406 C65.7825499,91.139975 65.3007839,91.2441406 64.7734375,91.2441406 C63.8749955,91.2441406 63.3020846,90.713547 63.0546875,89.6523438 Z M62.7714844,88.6074219 L62.7714844,85.8632812 L62.1269531,85.84375 C61.0722604,85.84375 60.2194043,86.0439433 59.5683594,86.4443359 C58.9173145,86.8447286 58.5917969,87.3704395 58.5917969,88.0214844 C58.5917969,88.4837263 58.7545557,88.8743474 59.0800781,89.1933594 C59.4056006,89.5123714 59.802732,89.671875 60.2714844,89.671875 C61.0722696,89.671875 61.9055946,89.3170608 62.7714844,88.6074219 Z M68.6308594,91 L68.6308594,75.5800781 L70.5546875,75.5800781 L70.5546875,91 L68.6308594,91 Z M77.2246094,91.2441406 C76.3456987,91.2441406 75.2780011,91.0390646 74.0214844,90.6289062 L74.0214844,88.8613281 C75.2780011,89.4863313 76.3717401,89.7988281 77.3027344,89.7988281 C77.8561226,89.7988281 78.3151023,89.64909 78.6796875,89.3496094 C79.0442727,89.0501287 79.2265625,88.6757835 79.2265625,88.2265625 C79.2265625,87.5690071 78.7154999,87.0253928 77.6933594,86.5957031 L76.5703125,86.1171875 C74.9101479,85.4270799 74.0800781,84.4342513 74.0800781,83.1386719 C74.0800781,82.2141881 74.4072233,81.4866563 75.0615234,80.9560547 C75.7158236,80.4254531 76.6126245,80.1601562 77.7519531,80.1601562 C78.344404,80.1601562 79.0768186,80.2415356 79.9492188,80.4042969 L80.3496094,80.4824219 L80.3496094,82.0839844 C79.2753853,81.7649724 78.4225292,81.6054688 77.7910156,81.6054688 C76.5540303,81.6054688 75.9355469,82.054683 75.9355469,82.953125 C75.9355469,83.532555 76.4042922,84.0208313 77.3417969,84.4179688 L78.2695312,84.8085938 C79.3177136,85.2513043 80.0598937,85.718422 80.4960938,86.2099609 C80.9322938,86.7014999 81.1503906,87.3151005 81.1503906,88.0507812 C81.1503906,88.9817755 80.7825558,89.7467418 80.046875,90.3457031 C79.3111942,90.9446645 78.3704484,91.2441406 77.2246094,91.2441406 Z M82.6835938,94.3691406 L82.6835938,92.9238281 L92.6835938,92.9238281 L92.6835938,94.3691406 L82.6835938,94.3691406 Z M94.6074219,91 L94.6074219,80.3945312 L96.53125,80.3945312 L96.53125,91 L94.6074219,91 Z M94.6074219,78.4707031 L94.6074219,76.546875 L96.53125,76.546875 L96.53125,78.4707031 L94.6074219,78.4707031 Z M100.388672,91 L100.388672,80.3945312 L102.3125,80.3945312 L102.3125,82.3867188 C103.32813,80.9023363 104.571607,80.1601562 106.042969,80.1601562 C106.960942,80.1601562 107.693357,80.4514945 108.240234,81.0341797 C108.787112,81.6168649 109.060547,82.3997347 109.060547,83.3828125 L109.060547,91 L107.136719,91 L107.136719,84.0078125 C107.136719,83.2200481 107.02116,82.6585303 106.790039,82.3232422 C106.558918,81.9879541 106.176435,81.8203125 105.642578,81.8203125 C104.464187,81.8203125 103.354172,82.5917892 102.3125,84.1347656 L102.3125,91 L100.388672,91 Z M110.876953,94.3691406 L110.876953,92.9238281 L120.876953,92.9238281 L120.876953,94.3691406 L110.876953,94.3691406 Z M125.613281,91.2441406 C124.734371,91.2441406 123.666673,91.0390646 122.410156,90.6289062 L122.410156,88.8613281 C123.666673,89.4863313 124.760412,89.7988281 125.691406,89.7988281 C126.244794,89.7988281 126.703774,89.64909 127.068359,89.3496094 C127.432945,89.0501287 127.615234,88.6757835 127.615234,88.2265625 C127.615234,87.5690071 127.104172,87.0253928 126.082031,86.5957031 L124.958984,86.1171875 C123.29882,85.4270799 122.46875,84.4342513 122.46875,83.1386719 C122.46875,82.2141881 122.795895,81.4866563 123.450195,80.9560547 C124.104495,80.4254531 125.001296,80.1601562 126.140625,80.1601562 C126.733076,80.1601562 127.46549,80.2415356 128.337891,80.4042969 L128.738281,80.4824219 L128.738281,82.0839844 C127.664057,81.7649724 126.811201,81.6054688 126.179688,81.6054688 C124.942702,81.6054688 124.324219,82.054683 124.324219,82.953125 C124.324219,83.532555 124.792964,84.0208313 125.730469,84.4179688 L126.658203,84.8085938 C127.706385,85.2513043 128.448566,85.718422 128.884766,86.2099609 C129.320966,86.7014999 129.539062,87.3151005 129.539062,88.0507812 C129.539062,88.9817755 129.171228,89.7467418 128.435547,90.3457031 C127.699866,90.9446645 126.75912,91.2441406 125.613281,91.2441406 Z M140.769531,90.6582031 C139.480462,91.0488301 138.376958,91.2441406 137.458984,91.2441406 C135.896477,91.2441406 134.622075,90.7249401 133.635742,89.6865234 C132.649409,88.6481068 132.15625,87.3020916 132.15625,85.6484375 C132.15625,84.0403565 132.590816,82.7220104 133.459961,81.6933594 C134.329106,80.6647084 135.440748,80.1503906 136.794922,80.1503906 C138.07748,80.1503906 139.068681,80.6061152 139.768555,81.5175781 C140.468428,82.429041 140.818359,83.724601 140.818359,85.4042969 L140.808594,86 L134.119141,86 C134.39909,88.5195438 135.632802,89.7792969 137.820312,89.7792969 C138.621098,89.7792969 139.604161,89.5644553 140.769531,89.1347656 L140.769531,90.6582031 Z M134.207031,84.5546875 L138.884766,84.5546875 C138.884766,82.5820214 138.149096,81.5957031 136.677734,81.5957031 C135.199862,81.5957031 134.376303,82.5820214 134.207031,84.5546875 Z M147.322266,91.2441406 C146.345698,91.2441406 145.583987,90.9641955 145.037109,90.4042969 C144.490232,89.8443982 144.216797,89.0664112 144.216797,88.0703125 L144.216797,81.8398438 L142.888672,81.8398438 L142.888672,80.3945312 L144.216797,80.3945312 L144.216797,78.4707031 L146.140625,78.2851562 L146.140625,80.3945312 L148.914062,80.3945312 L148.914062,81.8398438 L146.140625,81.8398438 L146.140625,87.71875 C146.140625,89.1054757 146.739577,89.7988281 147.9375,89.7988281 C148.191408,89.7988281 148.500649,89.7565108 148.865234,89.671875 L148.865234,91 C148.272783,91.1627612 147.758466,91.2441406 147.322266,91.2441406 Z" id="col_vals_in_set" fill="#868686"></path>
            <g id="col_vals_in_set_icon" transform="translate(10.000000, 20.000000)" fill-rule="nonzero" fill="#8D8C8E">
                <path d="M38.5,22 C40.444841,22 42,23.555159 42,25.5 C42,27.444841 40.444841,29 38.5,29 C36.555159,29 35,27.444841 35,25.5 C35,23.555159 36.555159,22 38.5,22 Z M11.5,0 C8.4742784,0 6,2.474279 6,5.5 C6,8.525721 8.4742784,11 11.5,11 C14.525721,11 17,8.525721 17,5.5 C17,2.474279 14.525721,0 11.5,0 Z M25,0 C21.974279,0 19.5,2.474279 19.5,5.5 C19.5,8.525721 21.974279,11 25,11 C28.025721,11 30.5,8.525721 30.5,5.5 C30.5,2.474279 28.025721,0 25,0 Z M38.5,0 C35.474279,0 33,2.474279 33,5.5 C33,8.525721 35.474279,11 38.5,11 C41.525721,11 44,8.525721 44,5.5 C44,2.474279 41.525721,0 38.5,0 Z M11.5,2 C13.444841,2 15,3.555159 15,5.5 C15,7.444841 13.444841,9 11.5,9 C9.5551588,9 8,7.444841 8,5.5 C8,3.555159 9.5551588,2 11.5,2 Z M25,2 C26.944841,2 28.5,3.555159 28.5,5.5 C28.5,7.444841 26.944841,9 25,9 C23.055159,9 21.5,7.444841 21.5,5.5 C21.5,3.555159 23.055159,2 25,2 Z M38.5,2 C40.444841,2 42,3.555159 42,5.5 C42,7.444841 40.444841,9 38.5,9 C36.555159,9 35,7.444841 35,5.5 C35,3.555159 36.555159,2 38.5,2 Z M25,22 C26.944841,22 28.5,23.555159 28.5,25.5 C28.5,27.444841 26.944841,29 25,29 C23.055159,29 21.5,27.444841 21.5,25.5 C21.5,23.555159 23.055159,22 25,22 Z M11.5,22 C13.444841,22 15,23.555159 15,25.5 C15,27.444841 13.444841,29 11.5,29 C9.5551588,29 8,27.444841 8,25.5 C8,23.555159 9.5551588,22 11.5,22 Z M38.5,20 C35.474279,20 33,22.474279 33,25.5 C33,28.525721 35.474279,31 38.5,31 C41.525721,31 44,28.525721 44,25.5 C44,22.474279 41.525721,20 38.5,20 Z M25,20 C21.974279,20 19.5,22.474279 19.5,25.5 C19.5,28.525721 21.974279,31 25,31 C28.025721,31 30.5,28.525721 30.5,25.5 C30.5,22.474279 28.025721,20 25,20 Z M11.5,20 C8.4742784,20 6,22.474279 6,25.5 C6,28.525721 8.4742784,31 11.5,31 C14.525721,31 17,28.525721 17,25.5 C17,22.474279 14.525721,20 11.5,20 Z M44.5,12 C46.444841,12 48,13.555159 48,15.5 C48,17.444841 46.444841,19 44.5,19 C42.555159,19 41,17.444841 41,15.5 C41,13.555159 42.555159,12 44.5,12 Z M31.5,12 C33.444841,12 35,13.555159 35,15.5 C35,17.444841 33.444841,19 31.5,19 C29.555159,19 28,17.444841 28,15.5 C28,13.555159 29.555159,12 31.5,12 Z M18.5,12 C20.444841,12 22,13.555159 22,15.5 C22,17.444841 20.444841,19 18.5,19 C16.555159,19 15,17.444841 15,15.5 C15,13.555159 16.555159,12 18.5,12 Z M5.5,12 C7.4448412,12 9,13.555159 9,15.5 C9,17.444841 7.4448412,19 5.5,19 C3.5551588,19 2,17.444841 2,15.5 C2,13.555159 3.5551588,12 5.5,12 Z M44.5,10 C41.474279,10 39,12.474279 39,15.5 C39,18.525721 41.474279,21 44.5,21 C47.525721,21 50,18.525721 50,15.5 C50,12.474279 47.525721,10 44.5,10 Z M31.5,10 C28.474279,10 26,12.474279 26,15.5 C26,18.525721 28.474279,21 31.5,21 C34.525721,21 37,18.525721 37,15.5 C37,12.474279 34.525721,10 31.5,10 Z M18.5,10 C15.474279,10 13,12.474279 13,15.5 C13,18.525721 15.474279,21 18.5,21 C21.525721,21 24,18.525721 24,15.5 C24,12.474279 21.525721,10 18.5,10 Z M5.5,10 C2.4742784,10 0,12.474279 0,15.5 C0,18.525721 2.4742784,21 5.5,21 C8.5257216,21 11,18.525721 11,15.5 C11,12.474279 8.5257216,10 5.5,10 Z" id="Shape"></path>
            </g>
        </g>
    </g>
</svg>