<?xml version="1.0" encoding="UTF-8"?>
<svg width="233px" height="100px" viewBox="0 0 233 100" version="1.1" xmlns="http://www.w3.org/2000/svg" xmlns:xlink="http://www.w3.org/1999/xlink">
    <!-- Generator: Sketch 43.1 (39012) - http://www.bohemiancoding.com/sketch -->
    <title>col_vals_regex_text</title>
    <desc>Created with Sketch.</desc>
    <defs></defs>
    <g id="Function-Icons" stroke="none" stroke-width="1" fill="none" fill-rule="evenodd">
        <g id="col_vals_regex_text">
            <path d="M70,7 L70,63.508474" id="Line" stroke="#979797" stroke-width="2" stroke-linecap="square"></path>
            <g id="function" stroke="#979797" stroke-width="2">
                <path d="M2,70 L231.008733,70" id="Line" stroke-linecap="square"></path>
                <rect id="Rectangle" x="1" y="1" width="230" height="98" rx="8"></rect>
            </g>
            <path d="M13.0644531,91.2441406 C11.6321543,91.2441406 10.4440151,90.713547 9.5,89.6523438 C8.55598486,88.5911405 8.08398438,87.2532633 8.08398438,85.6386719 C8.08398438,83.9134028 8.5511021,82.5690152 9.48535156,81.6054688 C10.419601,80.6419223 11.7232989,80.1601562 13.3964844,80.1601562 C14.2233114,80.1601562 15.1477813,80.2740874 16.1699219,80.5019531 L16.1699219,82.1132812 C15.0826769,81.7942692 14.197269,81.6347656 13.5136719,81.6347656 C12.530594,81.6347656 11.7412139,82.0042281 11.1455078,82.7431641 C10.5498017,83.4821 10.2519531,84.4667907 10.2519531,85.6972656 C10.2519531,86.8886778 10.5579396,87.8522099 11.1699219,88.5878906 C11.7819041,89.3235714 12.5826773,89.6914062 13.5722656,89.6914062 C14.4511763,89.6914062 15.3561151,89.4667991 16.2871094,89.0175781 L16.2871094,90.6777344 C15.0436136,91.0553404 13.9694056,91.2441406 13.0644531,91.2441406 Z M23.3183594,91.2441406 C21.8014247,91.2441406 20.5904993,90.741216 19.6855469,89.7353516 C18.7805944,88.7294872 18.328125,87.383472 18.328125,85.6972656 C18.328125,83.9915279 18.782222,82.6422576 19.6904297,81.6494141 C20.5986374,80.6565706 21.8307214,80.1601562 23.3867188,80.1601562 C24.9427161,80.1601562 26.1748001,80.6565706 27.0830078,81.6494141 C27.9912155,82.6422576 28.4453125,83.9850176 28.4453125,85.6777344 C28.4453125,87.4095139 27.9895879,88.7701773 27.078125,89.7597656 C26.1666621,90.7493539 24.9134194,91.2441406 23.3183594,91.2441406 Z M23.3476562,89.7988281 C25.3854269,89.7988281 26.4042969,88.4251439 26.4042969,85.6777344 C26.4042969,82.9628771 25.3984476,81.6054688 23.3867188,81.6054688 C21.3815004,81.6054688 20.3789062,82.9693874 20.3789062,85.6972656 C20.3789062,88.4316543 21.3684797,89.7988281 23.3476562,89.7988281 Z M31.453125,91 L31.453125,75.5800781 L33.3769531,75.5800781 L33.3769531,91 L31.453125,91 Z M35.3105469,94.3691406 L35.3105469,92.9238281 L45.3105469,92.9238281 L45.3105469,94.3691406 L35.3105469,94.3691406 Z M49.4316406,91 L45.4863281,80.3945312 L47.4101562,80.3945312 L50.4960938,88.6464844 L53.7480469,80.3945312 L55.5449219,80.3945312 L51.3554688,91 L49.4316406,91 Z M63.0546875,89.6523438 C61.902338,90.713547 60.792323,91.2441406 59.7246094,91.2441406 C58.8456987,91.2441406 58.1165394,90.9690783 57.5371094,90.4189453 C56.9576794,89.8688124 56.6679688,89.1738323 56.6679688,88.3339844 C56.6679688,87.1751244 57.1546175,86.2848338 58.1279297,85.6630859 C59.1012418,85.041338 60.4960847,84.7304688 62.3125,84.7304688 L62.7714844,84.7304688 L62.7714844,83.4511719 C62.7714844,82.220697 62.1399803,81.6054688 60.8769531,81.6054688 C59.861323,81.6054688 58.7643288,81.9179656 57.5859375,82.5429688 L57.5859375,80.9511719 C58.8815169,80.4238255 60.0956975,80.1601562 61.2285156,80.1601562 C62.4134174,80.1601562 63.2874321,80.4270807 63.8505859,80.9609375 C64.4137398,81.4947943 64.6953125,82.3248642 64.6953125,83.4511719 L64.6953125,88.2558594 C64.6953125,89.3561253 65.0338508,89.90625 65.7109375,89.90625 C65.7955733,89.90625 65.91927,89.8932293 66.0820312,89.8671875 L66.21875,90.9316406 C65.7825499,91.139975 65.3007839,91.2441406 64.7734375,91.2441406 C63.8749955,91.2441406 63.3020846,90.713547 63.0546875,89.6523438 Z M62.7714844,88.6074219 L62.7714844,85.8632812 L62.1269531,85.84375 C61.0722604,85.84375 60.2194043,86.0439433 59.5683594,86.4443359 C58.9173145,86.8447286 58.5917969,87.3704395 58.5917969,88.0214844 C58.5917969,88.4837263 58.7545557,88.8743474 59.0800781,89.1933594 C59.4056006,89.5123714 59.802732,89.671875 60.2714844,89.671875 C61.0722696,89.671875 61.9055946,89.3170608 62.7714844,88.6074219 Z M68.6308594,91 L68.6308594,75.5800781 L70.5546875,75.5800781 L70.5546875,91 L68.6308594,91 Z M77.2246094,91.2441406 C76.3456987,91.2441406 75.2780011,91.0390646 74.0214844,90.6289062 L74.0214844,88.8613281 C75.2780011,89.4863313 76.3717401,89.7988281 77.3027344,89.7988281 C77.8561226,89.7988281 78.3151023,89.64909 78.6796875,89.3496094 C79.0442727,89.0501287 79.2265625,88.6757835 79.2265625,88.2265625 C79.2265625,87.5690071 78.7154999,87.0253928 77.6933594,86.5957031 L76.5703125,86.1171875 C74.9101479,85.4270799 74.0800781,84.4342513 74.0800781,83.1386719 C74.0800781,82.2141881 74.4072233,81.4866563 75.0615234,80.9560547 C75.7158236,80.4254531 76.6126245,80.1601562 77.7519531,80.1601562 C78.344404,80.1601562 79.0768186,80.2415356 79.9492188,80.4042969 L80.3496094,80.4824219 L80.3496094,82.0839844 C79.2753853,81.7649724 78.4225292,81.6054688 77.7910156,81.6054688 C76.5540303,81.6054688 75.9355469,82.054683 75.9355469,82.953125 C75.9355469,83.532555 76.4042922,84.0208313 77.3417969,84.4179688 L78.2695312,84.8085938 C79.3177136,85.2513043 80.0598937,85.718422 80.4960938,86.2099609 C80.9322938,86.7014999 81.1503906,87.3151005 81.1503906,88.0507812 C81.1503906,88.9817755 80.7825558,89.7467418 80.046875,90.3457031 C79.3111942,90.9446645 78.3704484,91.2441406 77.2246094,91.2441406 Z M82.6835938,94.3691406 L82.6835938,92.9238281 L92.6835938,92.9238281 L92.6835938,94.3691406 L82.6835938,94.3691406 Z M94.6074219,91 L94.6074219,80.3945312 L96.53125,80.3945312 L96.53125,82.3867188 C97.2929726,80.9023363 98.3997323,80.1601562 99.8515625,80.1601562 C100.046876,80.1601562 100.251952,80.1764321 100.466797,80.2089844 L100.466797,82.0058594 C100.134764,81.8951817 99.8417981,81.8398438 99.5878906,81.8398438 C98.3704366,81.8398438 97.3515666,82.5624928 96.53125,84.0078125 L96.53125,91 L94.6074219,91 Z M110.564453,90.6582031 C109.275384,91.0488301 108.17188,91.2441406 107.253906,91.2441406 C105.691398,91.2441406 104.416997,90.7249401 103.430664,89.6865234 C102.444331,88.6481068 101.951172,87.3020916 101.951172,85.6484375 C101.951172,84.0403565 102.385738,82.7220104 103.254883,81.6933594 C104.124028,80.6647084 105.23567,80.1503906 106.589844,80.1503906 C107.872402,80.1503906 108.863603,80.6061152 109.563477,81.5175781 C110.26335,82.429041 110.613281,83.724601 110.613281,85.4042969 L110.603516,86 L103.914062,86 C104.194012,88.5195438 105.427723,89.7792969 107.615234,89.7792969 C108.41602,89.7792969 109.399083,89.5644553 110.564453,89.1347656 L110.564453,90.6582031 Z M104.001953,84.5546875 L108.679688,84.5546875 C108.679688,82.5820214 107.944018,81.5957031 106.472656,81.5957031 C104.994784,81.5957031 104.171225,82.5820214 104.001953,84.5546875 Z M113.972656,94.5253906 L114.197266,92.8554688 C115.310552,93.3828151 116.407547,93.6464844 117.488281,93.6464844 C119.656261,93.6464844 120.740234,92.4974073 120.740234,90.1992188 L120.740234,88.5292969 C120.030595,90.0136793 118.865242,90.7558594 117.244141,90.7558594 C115.974603,90.7558594 114.965499,90.2936244 114.216797,89.3691406 C113.468095,88.4446568 113.09375,87.1979245 113.09375,85.6289062 C113.09375,84.0143148 113.520178,82.6992238 114.373047,81.6835938 C115.225916,80.6679637 116.32942,80.1601562 117.683594,80.1601562 C118.868496,80.1601562 119.887366,80.6419223 120.740234,81.6054688 L120.740234,80.3945312 L122.673828,80.3945312 L122.673828,88.109375 C122.673828,89.7695396 122.587566,90.9983684 122.415039,91.7958984 C122.242512,92.5934285 121.918622,93.2460912 121.443359,93.7539062 C120.603511,94.6458378 119.298186,95.0917969 117.527344,95.0917969 C116.290358,95.0917969 115.105474,94.9029967 113.972656,94.5253906 Z M120.740234,87.328125 L120.740234,82.9238281 C119.893876,82.0449175 118.972661,81.6054688 117.976562,81.6054688 C117.091141,81.6054688 116.397789,81.9602829 115.896484,82.6699219 C115.39518,83.3795608 115.144531,84.3528584 115.144531,85.5898438 C115.144531,87.9140741 115.96158,89.0761719 117.595703,89.0761719 C118.70899,89.0761719 119.757157,88.4934954 120.740234,87.328125 Z M134.177734,90.6582031 C132.888665,91.0488301 131.785161,91.2441406 130.867188,91.2441406 C129.30468,91.2441406 128.030278,90.7249401 127.043945,89.6865234 C126.057612,88.6481068 125.564453,87.3020916 125.564453,85.6484375 C125.564453,84.0403565 125.999019,82.7220104 126.868164,81.6933594 C127.737309,80.6647084 128.848952,80.1503906 130.203125,80.1503906 C131.485683,80.1503906 132.476885,80.6061152 133.176758,81.5175781 C133.876631,82.429041 134.226562,83.724601 134.226562,85.4042969 L134.216797,86 L127.527344,86 C127.807293,88.5195438 129.041005,89.7792969 131.228516,89.7792969 C132.029301,89.7792969 133.012364,89.5644553 134.177734,89.1347656 L134.177734,90.6582031 Z M127.615234,84.5546875 L132.292969,84.5546875 C132.292969,82.5820214 131.557299,81.5957031 130.085938,81.5957031 C128.608066,81.5957031 127.784506,82.5820214 127.615234,84.5546875 Z M136.482422,91 L140.515625,85.5214844 L136.599609,80.3945312 L138.884766,80.3945312 L141.980469,84.4765625 L144.783203,80.3945312 L146.658203,80.3945312 L142.986328,85.7753906 L146.980469,91 L144.695312,91 L141.501953,86.8007812 L138.416016,91 L136.482422,91 Z" id="col_vals_regex" fill="#868686"></path>
            <g id="col_vals_regex_icon" transform="translate(11.000000, 12.000000)" fill-rule="nonzero">
                <path d="M24,0 C10.759318,0 0,10.759318 0,24 C0,37.240682 10.759318,48 24,48 C37.240682,48 48,37.240682 48,24 C48,10.759318 37.240682,0 24,0 Z M24,2 C36.159318,2 46,11.840682 46,24 C46,36.159318 36.159318,46 24,46 C11.840682,46 2,36.159318 2,24 C2,11.840682 11.840682,2 24,2 Z M14,32 C12.343146,32 11,33.343146 11,35 C11,36.656854 12.343146,38 14,38 C15.656854,38 17,36.656854 17,35 C17,33.343146 15.656854,32 14,32 Z" id="Shape" fill="#858585"></path>
                <g id="Asterisk_8d8c8e" transform="translate(20.000000, 8.000000)" fill="#8D8C8E">
                    <path d="M10.5555556,20 L8.44444444,20 C8.15311111,20 7.91666667,19.7647368 7.91666667,19.4736842 L7.91666667,12.7494737 L2.05622222,16.0889474 C1.80552778,16.2326316 1.48569444,16.1468421 1.3395,15.8989474 L0.283944444,14.1094737 C0.212694444,13.9889474 0.192638889,13.8442105 0.228527778,13.7089474 C0.264416667,13.5731579 0.352555556,13.4573684 0.474472222,13.3873684 L6.33597222,10 L0.473944444,6.61315789 C0.352555556,6.54315789 0.263888889,6.42684211 0.228,6.29157895 C0.192638889,6.15578947 0.212166667,6.01157895 0.283416667,5.89105263 L1.33897222,4.10157895 C1.48516667,3.85315789 1.805,3.76842105 2.05569444,3.91157895 L7.91666667,7.25105263 L7.91666667,0.526315789 C7.91666667,0.235789474 8.15311111,0 8.44444444,0 L10.5555556,0 C10.8474167,0 11.0833333,0.235789474 11.0833333,0.526315789 L11.0833333,7.25105263 L16.9437778,3.91157895 C17.195,3.76894737 17.5137778,3.85315789 17.6605,4.10157895 L18.7160556,5.89105263 C18.7873056,6.01157895 18.8073611,6.15578947 18.7709444,6.29157895 C18.7355833,6.42684211 18.6469167,6.54315789 18.525,6.61315789 L12.6640278,10 L18.525,13.3868421 C18.6463889,13.4573684 18.7350556,13.5731579 18.7709444,13.7084211 C18.8068333,13.8436842 18.7867778,13.9878947 18.7160556,14.1089474 L17.6605,15.8984211 C17.5137778,16.1468421 17.1944722,16.2326316 16.9437778,16.0884211 L11.0833333,12.7494737 L11.0833333,19.4736842 C11.0833333,19.7647368 10.8474167,20 10.5555556,20 Z" id="Shape"></path>
                </g>
            </g>
            <g id="Group" transform="translate(78.000000, 5.000000)" fill="#868686" font-weight="normal">
                <text id="XXXX" font-family="Monaco" font-size="16">
                    <tspan x="0" y="16">XXXX</tspan>
                </text>
                <text id="P:" font-family="LucidaGrande, Lucida Grande" font-size="16">
                    <tspan x="0" y="36">P:</tspan>
                </text>
                <text id="PPPPPPPPPPPP" font-family="Monaco" font-size="15">
                    <tspan x="34.9824219" y="36">PPPPPPPPPPPP</tspan>
                </text>
                <text id="F:" font-family="LucidaGrande, Lucida Grande" font-size="16">
                    <tspan x="0" y="56">F:</tspan>
                </text>
                <text id="FFFFFFFFFFFF" font-family="Monaco" font-size="15">
                    <tspan x="34.9824219" y="56">FFFFFFFFFFFF</tspan>
                </text>
            </g>
        </g>
    </g>
</svg>