<?xml version="1.0" encoding="UTF-8"?>
<svg width="233px" height="114px" viewBox="0 0 233 114" version="1.1" xmlns="http://www.w3.org/2000/svg" xmlns:xlink="http://www.w3.org/1999/xlink">
    <!-- Generator: Sketch 43.1 (39012) - http://www.bohemiancoding.com/sketch -->
    <title>col_is_integer</title>
    <desc>Created with Sketch.</desc>
    <defs></defs>
    <g id="Function-Icons" stroke="none" stroke-width="1" fill="none" fill-rule="evenodd">
        <g id="col_is_integer" transform="translate(0.000000, 7.000000)">
            <path d="M70,7 L70,63.508474" id="Line" stroke="#979797" stroke-width="2" stroke-linecap="square"></path>
            <g id="function" stroke="#979797" stroke-width="2">
                <path d="M2,70 L231.008733,70" id="Line" stroke-linecap="square"></path>
                <rect id="Rectangle" x="1" y="1" width="230" height="98" rx="8"></rect>
            </g>
            <path d="M13.0644531,91.2441406 C11.6321543,91.2441406 10.4440151,90.713547 9.5,89.6523438 C8.55598486,88.5911405 8.08398438,87.2532633 8.08398438,85.6386719 C8.08398438,83.9134028 8.5511021,82.5690152 9.48535156,81.6054688 C10.419601,80.6419223 11.7232989,80.1601562 13.3964844,80.1601562 C14.2233114,80.1601562 15.1477813,80.2740874 16.1699219,80.5019531 L16.1699219,82.1132812 C15.0826769,81.7942692 14.197269,81.6347656 13.5136719,81.6347656 C12.530594,81.6347656 11.7412139,82.0042281 11.1455078,82.7431641 C10.5498017,83.4821 10.2519531,84.4667907 10.2519531,85.6972656 C10.2519531,86.8886778 10.5579396,87.8522099 11.1699219,88.5878906 C11.7819041,89.3235714 12.5826773,89.6914062 13.5722656,89.6914062 C14.4511763,89.6914062 15.3561151,89.4667991 16.2871094,89.0175781 L16.2871094,90.6777344 C15.0436136,91.0553404 13.9694056,91.2441406 13.0644531,91.2441406 Z M23.3183594,91.2441406 C21.8014247,91.2441406 20.5904993,90.741216 19.6855469,89.7353516 C18.7805944,88.7294872 18.328125,87.383472 18.328125,85.6972656 C18.328125,83.9915279 18.782222,82.6422576 19.6904297,81.6494141 C20.5986374,80.6565706 21.8307214,80.1601562 23.3867188,80.1601562 C24.9427161,80.1601562 26.1748001,80.6565706 27.0830078,81.6494141 C27.9912155,82.6422576 28.4453125,83.9850176 28.4453125,85.6777344 C28.4453125,87.4095139 27.9895879,88.7701773 27.078125,89.7597656 C26.1666621,90.7493539 24.9134194,91.2441406 23.3183594,91.2441406 Z M23.3476562,89.7988281 C25.3854269,89.7988281 26.4042969,88.4251439 26.4042969,85.6777344 C26.4042969,82.9628771 25.3984476,81.6054688 23.3867188,81.6054688 C21.3815004,81.6054688 20.3789062,82.9693874 20.3789062,85.6972656 C20.3789062,88.4316543 21.3684797,89.7988281 23.3476562,89.7988281 Z M31.453125,91 L31.453125,75.5800781 L33.3769531,75.5800781 L33.3769531,91 L31.453125,91 Z M35.3105469,94.3691406 L35.3105469,92.9238281 L45.3105469,92.9238281 L45.3105469,94.3691406 L35.3105469,94.3691406 Z M47.234375,91 L47.234375,80.3945312 L49.1582031,80.3945312 L49.1582031,91 L47.234375,91 Z M47.234375,78.4707031 L47.234375,76.546875 L49.1582031,76.546875 L49.1582031,78.4707031 L47.234375,78.4707031 Z M55.828125,91.2441406 C54.9492144,91.2441406 53.8815167,91.0390646 52.625,90.6289062 L52.625,88.8613281 C53.8815167,89.4863313 54.9752558,89.7988281 55.90625,89.7988281 C56.4596382,89.7988281 56.918618,89.64909 57.2832031,89.3496094 C57.6477883,89.0501287 57.8300781,88.6757835 57.8300781,88.2265625 C57.8300781,87.5690071 57.3190155,87.0253928 56.296875,86.5957031 L55.1738281,86.1171875 C53.5136636,85.4270799 52.6835938,84.4342513 52.6835938,83.1386719 C52.6835938,82.2141881 53.0107389,81.4866563 53.6650391,80.9560547 C54.3193392,80.4254531 55.2161401,80.1601562 56.3554688,80.1601562 C56.9479196,80.1601562 57.6803342,80.2415356 58.5527344,80.4042969 L58.953125,80.4824219 L58.953125,82.0839844 C57.8789009,81.7649724 57.0260448,81.6054688 56.3945312,81.6054688 C55.1575459,81.6054688 54.5390625,82.054683 54.5390625,82.953125 C54.5390625,83.532555 55.0078078,84.0208313 55.9453125,84.4179688 L56.8730469,84.8085938 C57.9212292,85.2513043 58.6634093,85.718422 59.0996094,86.2099609 C59.5358095,86.7014999 59.7539062,87.3151005 59.7539062,88.0507812 C59.7539062,88.9817755 59.3860714,89.7467418 58.6503906,90.3457031 C57.9147099,90.9446645 56.9739641,91.2441406 55.828125,91.2441406 Z M61.2871094,94.3691406 L61.2871094,92.9238281 L71.2871094,92.9238281 L71.2871094,94.3691406 L61.2871094,94.3691406 Z M73.2109375,91 L73.2109375,80.3945312 L75.1347656,80.3945312 L75.1347656,91 L73.2109375,91 Z M73.2109375,78.4707031 L73.2109375,76.546875 L75.1347656,76.546875 L75.1347656,78.4707031 L73.2109375,78.4707031 Z M78.9921875,91 L78.9921875,80.3945312 L80.9160156,80.3945312 L80.9160156,82.3867188 C81.9316457,80.9023363 83.1751229,80.1601562 84.6464844,80.1601562 C85.5644577,80.1601562 86.2968723,80.4514945 86.84375,81.0341797 C87.3906277,81.6168649 87.6640625,82.3997347 87.6640625,83.3828125 L87.6640625,91 L85.7402344,91 L85.7402344,84.0078125 C85.7402344,83.2200481 85.6246756,82.6585303 85.3935547,82.3232422 C85.1624337,81.9879541 84.7799506,81.8203125 84.2460938,81.8203125 C83.0677024,81.8203125 81.9576875,82.5917892 80.9160156,84.1347656 L80.9160156,91 L78.9921875,91 Z M94.5878906,91.2441406 C93.6113232,91.2441406 92.8496121,90.9641955 92.3027344,90.4042969 C91.7558566,89.8443982 91.4824219,89.0664112 91.4824219,88.0703125 L91.4824219,81.8398438 L90.1542969,81.8398438 L90.1542969,80.3945312 L91.4824219,80.3945312 L91.4824219,78.4707031 L93.40625,78.2851562 L93.40625,80.3945312 L96.1796875,80.3945312 L96.1796875,81.8398438 L93.40625,81.8398438 L93.40625,87.71875 C93.40625,89.1054757 94.0052023,89.7988281 95.203125,89.7988281 C95.4570325,89.7988281 95.7662742,89.7565108 96.1308594,89.671875 L96.1308594,91 C95.5384085,91.1627612 95.0240907,91.2441406 94.5878906,91.2441406 Z M106.658203,90.6582031 C105.369134,91.0488301 104.26563,91.2441406 103.347656,91.2441406 C101.785148,91.2441406 100.510747,90.7249401 99.5244141,89.6865234 C98.538081,88.6481068 98.0449219,87.3020916 98.0449219,85.6484375 C98.0449219,84.0403565 98.4794878,82.7220104 99.3486328,81.6933594 C100.217778,80.6647084 101.32942,80.1503906 102.683594,80.1503906 C103.966152,80.1503906 104.957353,80.6061152 105.657227,81.5175781 C106.3571,82.429041 106.707031,83.724601 106.707031,85.4042969 L106.697266,86 L100.007812,86 C100.287762,88.5195438 101.521473,89.7792969 103.708984,89.7792969 C104.50977,89.7792969 105.492833,89.5644553 106.658203,89.1347656 L106.658203,90.6582031 Z M100.095703,84.5546875 L104.773438,84.5546875 C104.773438,82.5820214 104.037768,81.5957031 102.566406,81.5957031 C101.088534,81.5957031 100.264975,82.5820214 100.095703,84.5546875 Z M110.066406,94.5253906 L110.291016,92.8554688 C111.404302,93.3828151 112.501297,93.6464844 113.582031,93.6464844 C115.750011,93.6464844 116.833984,92.4974073 116.833984,90.1992188 L116.833984,88.5292969 C116.124345,90.0136793 114.958992,90.7558594 113.337891,90.7558594 C112.068353,90.7558594 111.059249,90.2936244 110.310547,89.3691406 C109.561845,88.4446568 109.1875,87.1979245 109.1875,85.6289062 C109.1875,84.0143148 109.613928,82.6992238 110.466797,81.6835938 C111.319666,80.6679637 112.42317,80.1601562 113.777344,80.1601562 C114.962246,80.1601562 115.981116,80.6419223 116.833984,81.6054688 L116.833984,80.3945312 L118.767578,80.3945312 L118.767578,88.109375 C118.767578,89.7695396 118.681316,90.9983684 118.508789,91.7958984 C118.336262,92.5934285 118.012372,93.2460912 117.537109,93.7539062 C116.697261,94.6458378 115.391936,95.0917969 113.621094,95.0917969 C112.384108,95.0917969 111.199224,94.9029967 110.066406,94.5253906 Z M116.833984,87.328125 L116.833984,82.9238281 C115.987626,82.0449175 115.066411,81.6054688 114.070312,81.6054688 C113.184891,81.6054688 112.491539,81.9602829 111.990234,82.6699219 C111.48893,83.3795608 111.238281,84.3528584 111.238281,85.5898438 C111.238281,87.9140741 112.05533,89.0761719 113.689453,89.0761719 C114.80274,89.0761719 115.850907,88.4934954 116.833984,87.328125 Z M130.271484,90.6582031 C128.982415,91.0488301 127.878911,91.2441406 126.960938,91.2441406 C125.39843,91.2441406 124.124028,90.7249401 123.137695,89.6865234 C122.151362,88.6481068 121.658203,87.3020916 121.658203,85.6484375 C121.658203,84.0403565 122.092769,82.7220104 122.961914,81.6933594 C123.831059,80.6647084 124.942702,80.1503906 126.296875,80.1503906 C127.579433,80.1503906 128.570635,80.6061152 129.270508,81.5175781 C129.970381,82.429041 130.320312,83.724601 130.320312,85.4042969 L130.310547,86 L123.621094,86 C123.901043,88.5195438 125.134755,89.7792969 127.322266,89.7792969 C128.123051,89.7792969 129.106114,89.5644553 130.271484,89.1347656 L130.271484,90.6582031 Z M123.708984,84.5546875 L128.386719,84.5546875 C128.386719,82.5820214 127.651049,81.5957031 126.179688,81.5957031 C124.701816,81.5957031 123.878256,82.5820214 123.708984,84.5546875 Z M133.640625,91 L133.640625,80.3945312 L135.564453,80.3945312 L135.564453,82.3867188 C136.326176,80.9023363 137.432935,80.1601562 138.884766,80.1601562 C139.080079,80.1601562 139.285155,80.1764321 139.5,80.2089844 L139.5,82.0058594 C139.167967,81.8951817 138.875001,81.8398438 138.621094,81.8398438 C137.40364,81.8398438 136.38477,82.5624928 135.564453,84.0078125 L135.564453,91 L133.640625,91 Z" fill="#868686"></path>
            <g id="col_is_integer_icon" transform="translate(10.000000, 11.000000)">
                <path d="M25,0 C11.204726,0 0,11.204726 0,25 C0,38.795274 11.204726,50 25,50 C38.795274,50 50,38.795274 50,25 C50,11.204726 38.795274,0 25,0 Z M25,2 C37.714394,2 48,12.285606 48,25 C48,37.714394 37.714394,48 25,48 C12.285606,48 2,37.714394 2,25 C2,12.285606 12.285606,2 25,2 Z" id="Shape" fill="#8D8C8E" fill-rule="nonzero"></path>
                <text id="I" font-family="LucidaGrande, Lucida Grande" font-size="19.5" font-weight="normal" fill="#868686">
                    <tspan x="22.1911621" y="33">I</tspan>
                </text>
            </g>
        </g>
    </g>
</svg>