<?xml version="1.0" encoding="UTF-8"?>
<svg width="245px" height="114px" viewBox="0 0 245 114" version="1.1" xmlns="http://www.w3.org/2000/svg" xmlns:xlink="http://www.w3.org/1999/xlink">
    <!-- Generator: Sketch 43.1 (39012) - http://www.bohemiancoding.com/sketch -->
    <title>col_vals_gte_text</title>
    <desc>Created with Sketch.</desc>
    <defs></defs>
    <g id="Function-Icons" stroke="none" stroke-width="1" fill="none" fill-rule="evenodd">
        <g id="col_vals_gte_text" transform="translate(6.000000, 7.000000)">
            <path d="M70,7 L70,63.508474" id="Line" stroke="#979797" stroke-width="2" stroke-linecap="square"></path>
            <g id="function" stroke="#979797" stroke-width="2">
                <path d="M2,70 L231.008733,70" id="Line" stroke-linecap="square"></path>
                <rect id="Rectangle" x="1" y="1" width="230" height="98" rx="8"></rect>
            </g>
            <path d="M13.0644531,91.2441406 C11.6321543,91.2441406 10.4440151,90.713547 9.5,89.6523438 C8.55598486,88.5911405 8.08398438,87.2532633 8.08398438,85.6386719 C8.08398438,83.9134028 8.5511021,82.5690152 9.48535156,81.6054688 C10.419601,80.6419223 11.7232989,80.1601562 13.3964844,80.1601562 C14.2233114,80.1601562 15.1477813,80.2740874 16.1699219,80.5019531 L16.1699219,82.1132812 C15.0826769,81.7942692 14.197269,81.6347656 13.5136719,81.6347656 C12.530594,81.6347656 11.7412139,82.0042281 11.1455078,82.7431641 C10.5498017,83.4821 10.2519531,84.4667907 10.2519531,85.6972656 C10.2519531,86.8886778 10.5579396,87.8522099 11.1699219,88.5878906 C11.7819041,89.3235714 12.5826773,89.6914062 13.5722656,89.6914062 C14.4511763,89.6914062 15.3561151,89.4667991 16.2871094,89.0175781 L16.2871094,90.6777344 C15.0436136,91.0553404 13.9694056,91.2441406 13.0644531,91.2441406 Z M23.3183594,91.2441406 C21.8014247,91.2441406 20.5904993,90.741216 19.6855469,89.7353516 C18.7805944,88.7294872 18.328125,87.383472 18.328125,85.6972656 C18.328125,83.9915279 18.782222,82.6422576 19.6904297,81.6494141 C20.5986374,80.6565706 21.8307214,80.1601562 23.3867188,80.1601562 C24.9427161,80.1601562 26.1748001,80.6565706 27.0830078,81.6494141 C27.9912155,82.6422576 28.4453125,83.9850176 28.4453125,85.6777344 C28.4453125,87.4095139 27.9895879,88.7701773 27.078125,89.7597656 C26.1666621,90.7493539 24.9134194,91.2441406 23.3183594,91.2441406 Z M23.3476562,89.7988281 C25.3854269,89.7988281 26.4042969,88.4251439 26.4042969,85.6777344 C26.4042969,82.9628771 25.3984476,81.6054688 23.3867188,81.6054688 C21.3815004,81.6054688 20.3789062,82.9693874 20.3789062,85.6972656 C20.3789062,88.4316543 21.3684797,89.7988281 23.3476562,89.7988281 Z M31.453125,91 L31.453125,75.5800781 L33.3769531,75.5800781 L33.3769531,91 L31.453125,91 Z M35.3105469,94.3691406 L35.3105469,92.9238281 L45.3105469,92.9238281 L45.3105469,94.3691406 L35.3105469,94.3691406 Z M49.4316406,91 L45.4863281,80.3945312 L47.4101563,80.3945312 L50.4960938,88.6464844 L53.7480469,80.3945312 L55.5449219,80.3945312 L51.3554688,91 L49.4316406,91 Z M63.0546875,89.6523438 C61.902338,90.713547 60.792323,91.2441406 59.7246094,91.2441406 C58.8456987,91.2441406 58.1165394,90.9690783 57.5371094,90.4189453 C56.9576794,89.8688124 56.6679688,89.1738323 56.6679688,88.3339844 C56.6679688,87.1751244 57.1546175,86.2848338 58.1279297,85.6630859 C59.1012418,85.041338 60.4960847,84.7304688 62.3125,84.7304688 L62.7714844,84.7304688 L62.7714844,83.4511719 C62.7714844,82.220697 62.1399803,81.6054688 60.8769531,81.6054688 C59.861323,81.6054688 58.7643288,81.9179656 57.5859375,82.5429688 L57.5859375,80.9511719 C58.8815169,80.4238255 60.0956975,80.1601562 61.2285156,80.1601562 C62.4134174,80.1601562 63.2874321,80.4270807 63.8505859,80.9609375 C64.4137398,81.4947943 64.6953125,82.3248642 64.6953125,83.4511719 L64.6953125,88.2558594 C64.6953125,89.3561253 65.0338508,89.90625 65.7109375,89.90625 C65.7955733,89.90625 65.91927,89.8932293 66.0820312,89.8671875 L66.21875,90.9316406 C65.7825499,91.139975 65.3007839,91.2441406 64.7734375,91.2441406 C63.8749955,91.2441406 63.3020846,90.713547 63.0546875,89.6523438 Z M62.7714844,88.6074219 L62.7714844,85.8632812 L62.1269531,85.84375 C61.0722604,85.84375 60.2194043,86.0439433 59.5683594,86.4443359 C58.9173145,86.8447286 58.5917969,87.3704395 58.5917969,88.0214844 C58.5917969,88.4837263 58.7545557,88.8743474 59.0800781,89.1933594 C59.4056006,89.5123714 59.802732,89.671875 60.2714844,89.671875 C61.0722696,89.671875 61.9055946,89.3170608 62.7714844,88.6074219 Z M68.6308594,91 L68.6308594,75.5800781 L70.5546875,75.5800781 L70.5546875,91 L68.6308594,91 Z M77.2246094,91.2441406 C76.3456987,91.2441406 75.2780011,91.0390646 74.0214844,90.6289062 L74.0214844,88.8613281 C75.2780011,89.4863313 76.3717401,89.7988281 77.3027344,89.7988281 C77.8561226,89.7988281 78.3151023,89.64909 78.6796875,89.3496094 C79.0442727,89.0501287 79.2265625,88.6757835 79.2265625,88.2265625 C79.2265625,87.5690071 78.7154999,87.0253928 77.6933594,86.5957031 L76.5703125,86.1171875 C74.9101479,85.4270799 74.0800781,84.4342513 74.0800781,83.1386719 C74.0800781,82.2141881 74.4072233,81.4866563 75.0615234,80.9560547 C75.7158236,80.4254531 76.6126245,80.1601562 77.7519531,80.1601562 C78.344404,80.1601562 79.0768186,80.2415356 79.9492188,80.4042969 L80.3496094,80.4824219 L80.3496094,82.0839844 C79.2753853,81.7649724 78.4225292,81.6054688 77.7910156,81.6054688 C76.5540303,81.6054688 75.9355469,82.054683 75.9355469,82.953125 C75.9355469,83.532555 76.4042922,84.0208313 77.3417969,84.4179688 L78.2695312,84.8085938 C79.3177136,85.2513043 80.0598937,85.718422 80.4960938,86.2099609 C80.9322938,86.7014999 81.1503906,87.3151005 81.1503906,88.0507812 C81.1503906,88.9817755 80.7825558,89.7467418 80.046875,90.3457031 C79.3111942,90.9446645 78.3704484,91.2441406 77.2246094,91.2441406 Z M82.6835938,94.3691406 L82.6835938,92.9238281 L92.6835938,92.9238281 L92.6835938,94.3691406 L82.6835938,94.3691406 Z M94.6464844,94.5253906 L94.8710938,92.8554688 C95.9843806,93.3828151 97.0813748,93.6464844 98.1621094,93.6464844 C100.330089,93.6464844 101.414063,92.4974073 101.414063,90.1992188 L101.414063,88.5292969 C100.704424,90.0136793 99.5390706,90.7558594 97.9179688,90.7558594 C96.6484312,90.7558594 95.6393267,90.2936244 94.890625,89.3691406 C94.1419233,88.4446568 93.7675781,87.1979245 93.7675781,85.6289062 C93.7675781,84.0143148 94.1940062,82.6992238 95.046875,81.6835938 C95.8997438,80.6679637 97.0032484,80.1601562 98.3574219,80.1601562 C99.5423236,80.1601562 100.561194,80.6419223 101.414063,81.6054688 L101.414063,80.3945312 L103.347656,80.3945312 L103.347656,88.109375 C103.347656,89.7695396 103.261394,90.9983684 103.088867,91.7958984 C102.91634,92.5934285 102.59245,93.2460912 102.117188,93.7539062 C101.27734,94.6458378 99.9720141,95.0917969 98.2011719,95.0917969 C96.9641865,95.0917969 95.7793025,94.9029967 94.6464844,94.5253906 Z M101.414063,87.328125 L101.414063,82.9238281 C100.567704,82.0449175 99.6464894,81.6054688 98.6503906,81.6054688 C97.7649695,81.6054688 97.0716171,81.9602829 96.5703125,82.6699219 C96.0690079,83.3795608 95.8183594,84.3528584 95.8183594,85.5898438 C95.8183594,87.9140741 96.6354085,89.0761719 98.2695313,89.0761719 C99.3828181,89.0761719 100.430985,88.4934954 101.414063,87.328125 Z M110.261719,91.2441406 C109.285151,91.2441406 108.52344,90.9641955 107.976563,90.4042969 C107.429685,89.8443982 107.15625,89.0664112 107.15625,88.0703125 L107.15625,81.8398438 L105.828125,81.8398438 L105.828125,80.3945312 L107.15625,80.3945312 L107.15625,78.4707031 L109.080078,78.2851562 L109.080078,80.3945312 L111.853516,80.3945312 L111.853516,81.8398438 L109.080078,81.8398438 L109.080078,87.71875 C109.080078,89.1054757 109.67903,89.7988281 110.876953,89.7988281 C111.130861,89.7988281 111.440102,89.7565108 111.804688,89.671875 L111.804688,91 C111.212237,91.1627612 110.697919,91.2441406 110.261719,91.2441406 Z M122.332031,90.6582031 C121.042962,91.0488301 119.939458,91.2441406 119.021484,91.2441406 C117.458977,91.2441406 116.184575,90.7249401 115.198242,89.6865234 C114.211909,88.6481068 113.71875,87.3020916 113.71875,85.6484375 C113.71875,84.0403565 114.153316,82.7220104 115.022461,81.6933594 C115.891606,80.6647084 117.003248,80.1503906 118.357422,80.1503906 C119.63998,80.1503906 120.631181,80.6061152 121.331055,81.5175781 C122.030928,82.429041 122.380859,83.724601 122.380859,85.4042969 L122.371094,86 L115.681641,86 C115.96159,88.5195438 117.195302,89.7792969 119.382813,89.7792969 C120.183598,89.7792969 121.166661,89.5644553 122.332031,89.1347656 L122.332031,90.6582031 Z M115.769531,84.5546875 L120.447266,84.5546875 C120.447266,82.5820214 119.711596,81.5957031 118.240234,81.5957031 C116.762362,81.5957031 115.938803,82.5820214 115.769531,84.5546875 Z" id="col_vals_gte" fill="#868686"></path>
            <g id="col_vals_gte_icon" transform="translate(13.000000, 14.000000)" fill="#858585">
                <path d="M3,0 C1.3545455,0 0,1.3545455 0,3 L0,41 C0,42.645455 1.3545455,44 3,44 L41,44 C42.645455,44 44,42.645455 44,41 L44,3 C44,1.3545455 42.645455,0 41,0 L3,0 Z M3,2 L41,2 C41.554545,2 42,2.4454545 42,3 L42,41 C42,41.554545 41.554545,42 41,42 L3,42 C2.4454545,42 2,41.554545 2,41 L2,3 C2,2.4454545 2.4454545,2 3,2 Z" id="Shape" fill-rule="nonzero"></path>
                <polygon id="Path" points="10 35 10 37.047619 33.047619 37.047619 33.047619 35"></polygon>
                <polygon id="Path" points="13.018973 8 12 9.79166667 29.207961 19.1339286 12 28.4761905 13.018973 30.2678571 33.5232516 19.1339286"></polygon>
            </g>
            <g id="Group" transform="translate(78.000000, 5.000000)" fill="#868686" font-weight="normal">
                <text id="XXXX" font-family="Monaco" font-size="16">
                    <tspan x="0" y="16">XXXX</tspan>
                </text>
                <text id="P:" font-family="LucidaGrande, Lucida Grande" font-size="16">
                    <tspan x="0" y="36">P:</tspan>
                </text>
                <text id="PPPPPPPPPPPP" font-family="Monaco" font-size="15">
                    <tspan x="34.9824219" y="36">PPPPPPPPPPPP</tspan>
                </text>
                <text id="F:" font-family="LucidaGrande, Lucida Grande" font-size="16">
                    <tspan x="0" y="56">F:</tspan>
                </text>
                <text id="FFFFFFFFFFFF" font-family="Monaco" font-size="15">
                    <tspan x="34.9824219" y="56">FFFFFFFFFFFF</tspan>
                </text>
            </g>
        </g>
    </g>
</svg>