<?xml version="1.0" encoding="UTF-8"?>
<svg width="233px" height="114px" viewBox="0 0 233 114" version="1.1" xmlns="http://www.w3.org/2000/svg" xmlns:xlink="http://www.w3.org/1999/xlink">
    <!-- Generator: Sketch 43.1 (39012) - http://www.bohemiancoding.com/sketch -->
    <title>col_exists_text</title>
    <desc>Created with Sketch.</desc>
    <defs></defs>
    <g id="Function-Icons" stroke="none" stroke-width="1" fill="none" fill-rule="evenodd">
        <g id="col_exists_text" transform="translate(0.000000, 7.000000)">
            <path d="M70,7 L70,63.508474" id="Line" stroke="#979797" stroke-width="2" stroke-linecap="square"></path>
            <g id="function" stroke="#979797" stroke-width="2">
                <path d="M2,70 L231.008733,70" id="Line" stroke-linecap="square"></path>
                <rect id="Rectangle" x="1" y="1" width="230" height="98" rx="8"></rect>
            </g>
            <path d="M13.0644531,91.2441406 C11.6321543,91.2441406 10.4440151,90.713547 9.5,89.6523438 C8.55598486,88.5911405 8.08398438,87.2532633 8.08398438,85.6386719 C8.08398438,83.9134028 8.5511021,82.5690152 9.48535156,81.6054688 C10.419601,80.6419223 11.7232989,80.1601562 13.3964844,80.1601562 C14.2233114,80.1601562 15.1477813,80.2740874 16.1699219,80.5019531 L16.1699219,82.1132812 C15.0826769,81.7942692 14.197269,81.6347656 13.5136719,81.6347656 C12.530594,81.6347656 11.7412139,82.0042281 11.1455078,82.7431641 C10.5498017,83.4821 10.2519531,84.4667907 10.2519531,85.6972656 C10.2519531,86.8886778 10.5579396,87.8522099 11.1699219,88.5878906 C11.7819041,89.3235714 12.5826773,89.6914062 13.5722656,89.6914062 C14.4511763,89.6914062 15.3561151,89.4667991 16.2871094,89.0175781 L16.2871094,90.6777344 C15.0436136,91.0553404 13.9694056,91.2441406 13.0644531,91.2441406 Z M23.3183594,91.2441406 C21.8014247,91.2441406 20.5904993,90.741216 19.6855469,89.7353516 C18.7805944,88.7294872 18.328125,87.383472 18.328125,85.6972656 C18.328125,83.9915279 18.782222,82.6422576 19.6904297,81.6494141 C20.5986374,80.6565706 21.8307214,80.1601562 23.3867188,80.1601562 C24.9427161,80.1601562 26.1748001,80.6565706 27.0830078,81.6494141 C27.9912155,82.6422576 28.4453125,83.9850176 28.4453125,85.6777344 C28.4453125,87.4095139 27.9895879,88.7701773 27.078125,89.7597656 C26.1666621,90.7493539 24.9134194,91.2441406 23.3183594,91.2441406 Z M23.3476562,89.7988281 C25.3854269,89.7988281 26.4042969,88.4251439 26.4042969,85.6777344 C26.4042969,82.9628771 25.3984476,81.6054688 23.3867188,81.6054688 C21.3815004,81.6054688 20.3789062,82.9693874 20.3789062,85.6972656 C20.3789062,88.4316543 21.3684797,89.7988281 23.3476562,89.7988281 Z M31.453125,91 L31.453125,75.5800781 L33.3769531,75.5800781 L33.3769531,91 L31.453125,91 Z M35.3105469,94.3691406 L35.3105469,92.9238281 L45.3105469,92.9238281 L45.3105469,94.3691406 L35.3105469,94.3691406 Z M55.0078125,90.6582031 C53.7187436,91.0488301 52.615239,91.2441406 51.6972656,91.2441406 C50.1347578,91.2441406 48.8603565,90.7249401 47.8740234,89.6865234 C46.8876904,88.6481068 46.3945312,87.3020916 46.3945312,85.6484375 C46.3945312,84.0403565 46.8290972,82.7220104 47.6982422,81.6933594 C48.5673872,80.6647084 49.6790297,80.1503906 51.0332031,80.1503906 C52.3157616,80.1503906 53.3069626,80.6061152 54.0068359,81.5175781 C54.7067092,82.429041 55.0566406,83.724601 55.0566406,85.4042969 L55.046875,86 L48.3574219,86 C48.6373712,88.5195438 49.8710828,89.7792969 52.0585938,89.7792969 C52.859379,89.7792969 53.8424421,89.5644553 55.0078125,89.1347656 L55.0078125,90.6582031 Z M48.4453125,84.5546875 L53.1230469,84.5546875 C53.1230469,82.5820214 52.3873771,81.5957031 50.9160156,81.5957031 C49.4381437,81.5957031 48.6145842,82.5820214 48.4453125,84.5546875 Z M57.3125,91 L61.3457031,85.5214844 L57.4296875,80.3945312 L59.7148438,80.3945312 L62.8105469,84.4765625 L65.6132812,80.3945312 L67.4882812,80.3945312 L63.8164062,85.7753906 L67.8105469,91 L65.5253906,91 L62.3320312,86.8007812 L59.2460938,91 L57.3125,91 Z M70.6425781,91 L70.6425781,80.3945312 L72.5664062,80.3945312 L72.5664062,91 L70.6425781,91 Z M70.6425781,78.4707031 L70.6425781,76.546875 L72.5664062,76.546875 L72.5664062,78.4707031 L70.6425781,78.4707031 Z M79.2363281,91.2441406 C78.3574175,91.2441406 77.2897198,91.0390646 76.0332031,90.6289062 L76.0332031,88.8613281 C77.2897198,89.4863313 78.3834589,89.7988281 79.3144531,89.7988281 C79.8678413,89.7988281 80.3268211,89.64909 80.6914062,89.3496094 C81.0559914,89.0501287 81.2382812,88.6757835 81.2382812,88.2265625 C81.2382812,87.5690071 80.7272187,87.0253928 79.7050781,86.5957031 L78.5820312,86.1171875 C76.9218667,85.4270799 76.0917969,84.4342513 76.0917969,83.1386719 C76.0917969,82.2141881 76.418942,81.4866563 77.0732422,80.9560547 C77.7275423,80.4254531 78.6243433,80.1601562 79.7636719,80.1601562 C80.3561228,80.1601562 81.0885373,80.2415356 81.9609375,80.4042969 L82.3613281,80.4824219 L82.3613281,82.0839844 C81.287104,81.7649724 80.4342479,81.6054688 79.8027344,81.6054688 C78.565749,81.6054688 77.9472656,82.054683 77.9472656,82.953125 C77.9472656,83.532555 78.4160109,84.0208313 79.3535156,84.4179688 L80.28125,84.8085938 C81.3294323,85.2513043 82.0716124,85.718422 82.5078125,86.2099609 C82.9440126,86.7014999 83.1621094,87.3151005 83.1621094,88.0507812 C83.1621094,88.9817755 82.7942745,89.7467418 82.0585938,90.3457031 C81.322913,90.9446645 80.3821672,91.2441406 79.2363281,91.2441406 Z M89.8027344,91.2441406 C88.826167,91.2441406 88.0644559,90.9641955 87.5175781,90.4042969 C86.9707004,89.8443982 86.6972656,89.0664112 86.6972656,88.0703125 L86.6972656,81.8398438 L85.3691406,81.8398438 L85.3691406,80.3945312 L86.6972656,80.3945312 L86.6972656,78.4707031 L88.6210938,78.2851562 L88.6210938,80.3945312 L91.3945312,80.3945312 L91.3945312,81.8398438 L88.6210938,81.8398438 L88.6210938,87.71875 C88.6210938,89.1054757 89.2200461,89.7988281 90.4179688,89.7988281 C90.6718763,89.7988281 90.981118,89.7565108 91.3457031,89.671875 L91.3457031,91 C90.7532522,91.1627612 90.2389345,91.2441406 89.8027344,91.2441406 Z M96.9121094,91.2441406 C96.0331987,91.2441406 94.9655011,91.0390646 93.7089844,90.6289062 L93.7089844,88.8613281 C94.9655011,89.4863313 96.0592401,89.7988281 96.9902344,89.7988281 C97.5436226,89.7988281 98.0026023,89.64909 98.3671875,89.3496094 C98.7317727,89.0501287 98.9140625,88.6757835 98.9140625,88.2265625 C98.9140625,87.5690071 98.4029999,87.0253928 97.3808594,86.5957031 L96.2578125,86.1171875 C94.5976479,85.4270799 93.7675781,84.4342513 93.7675781,83.1386719 C93.7675781,82.2141881 94.0947233,81.4866563 94.7490234,80.9560547 C95.4033236,80.4254531 96.3001245,80.1601562 97.4394531,80.1601562 C98.031904,80.1601562 98.7643186,80.2415356 99.6367188,80.4042969 L100.037109,80.4824219 L100.037109,82.0839844 C98.9628853,81.7649724 98.1100292,81.6054688 97.4785156,81.6054688 C96.2415303,81.6054688 95.6230469,82.054683 95.6230469,82.953125 C95.6230469,83.532555 96.0917922,84.0208313 97.0292969,84.4179688 L97.9570312,84.8085938 C99.0052136,85.2513043 99.7473937,85.718422 100.183594,86.2099609 C100.619794,86.7014999 100.837891,87.3151005 100.837891,88.0507812 C100.837891,88.9817755 100.470056,89.7467418 99.734375,90.3457031 C98.9986942,90.9446645 98.0579484,91.2441406 96.9121094,91.2441406 Z" id="col_exists" fill="#868686"></path>
            <g id="col_exists_icon" transform="translate(10.000000, 11.000000)" fill-rule="nonzero" fill="#8D8C8E">
                <path d="M25,0 C11.204726,0 0,11.204726 0,25 C0,38.795274 11.204726,50 25,50 C38.795274,50 50,38.795274 50,25 C50,11.204726 38.795274,0 25,0 Z M25,2 C37.714394,2 48,12.285606 48,25 C48,37.714394 37.714394,48 25,48 C12.285606,48 2,37.714394 2,25 C2,12.285606 12.285606,2 25,2 Z M25.28125,12.5 C21.55125,12.5 19.07025,14.77575 18.53125,18.21875 C18.49625,18.43475 18.62775,18.55775 18.84375,18.59375 L21.09375,19 C21.30975,19.036 21.464,18.93375 21.5,18.71875 C21.93,16.53075 23.21075,15.3125 25.21875,15.3125 C27.26375,15.3125 28.6875,16.61225 28.6875,18.65625 C28.6875,19.87625 28.254,20.68525 27,22.40625 L24.59375,25.71875 C23.84075,26.75975 23.53125,27.5015 23.53125,28.9375 L23.53125,30.40625 C23.53125,30.62125 23.69125,30.754 23.90625,30.75 L26.25,30.75 C26.465,30.75 26.625,30.62125 26.625,30.40625 L26.625,29.25 C26.625,28.031 26.8455,27.5305 27.5625,26.5625 L29.9375,23.28125 C31.1575,21.59525 31.78125,20.31575 31.78125,18.59375 C31.78125,15.04275 29.15325,12.5 25.28125,12.5 Z M23.71875,33.5 C23.50275,33.5 23.34375,33.62875 23.34375,33.84375 L23.34375,36.9375 C23.34375,37.1525 23.50175,37.28125 23.71875,37.28125 L26.4375,37.28125 C26.6515,37.28125 26.8125,37.1535 26.8125,36.9375 L26.8125,33.84375 C26.8125,33.62975 26.6525,33.5 26.4375,33.5 L23.71875,33.5 Z" id="Shape"></path>
            </g>
            <g id="Group" transform="translate(78.000000, 5.000000)" fill="#868686" font-weight="normal">
                <text id="XXXX" font-family="Monaco" font-size="16">
                    <tspan x="0" y="16">XXXX</tspan>
                </text>
                <text id="P:" font-family="LucidaGrande, Lucida Grande" font-size="16">
                    <tspan x="0" y="36">P:</tspan>
                </text>
                <text id="PPPPPPPPPPPP" font-family="Monaco" font-size="15">
                    <tspan x="34.9824219" y="36">PPPPPPPPPPPP</tspan>
                </text>
                <text id="F:" font-family="LucidaGrande, Lucida Grande" font-size="16">
                    <tspan x="0" y="56">F:</tspan>
                </text>
                <text id="FFFFFFFFFFFF" font-family="Monaco" font-size="15">
                    <tspan x="34.9824219" y="56">FFFFFFFFFFFF</tspan>
                </text>
            </g>
        </g>
    </g>
</svg>