<?xml version="1.0" encoding="UTF-8"?>
<svg width="233px" height="114px" viewBox="0 0 233 114" version="1.1" xmlns="http://www.w3.org/2000/svg" xmlns:xlink="http://www.w3.org/1999/xlink">
    <!-- Generator: Sketch 43.1 (39012) - http://www.bohemiancoding.com/sketch -->
    <title>col_is_posix_text</title>
    <desc>Created with Sketch.</desc>
    <defs></defs>
    <g id="Function-Icons" stroke="none" stroke-width="1" fill="none" fill-rule="evenodd">
        <g id="col_is_posix_text" transform="translate(0.000000, 7.000000)">
            <path d="M70,7 L70,63.508474" id="Line" stroke="#979797" stroke-width="2" stroke-linecap="square"></path>
            <g id="function" stroke="#979797" stroke-width="2">
                <path d="M2,70 L231.008733,70" id="Line" stroke-linecap="square"></path>
                <rect id="Rectangle" x="1" y="1" width="230" height="98" rx="8"></rect>
            </g>
            <path d="M13.0644531,91.2441406 C11.6321543,91.2441406 10.4440151,90.713547 9.5,89.6523438 C8.55598486,88.5911405 8.08398438,87.2532633 8.08398438,85.6386719 C8.08398438,83.9134028 8.5511021,82.5690152 9.48535156,81.6054688 C10.419601,80.6419223 11.7232989,80.1601562 13.3964844,80.1601562 C14.2233114,80.1601562 15.1477813,80.2740874 16.1699219,80.5019531 L16.1699219,82.1132812 C15.0826769,81.7942692 14.197269,81.6347656 13.5136719,81.6347656 C12.530594,81.6347656 11.7412139,82.0042281 11.1455078,82.7431641 C10.5498017,83.4821 10.2519531,84.4667907 10.2519531,85.6972656 C10.2519531,86.8886778 10.5579396,87.8522099 11.1699219,88.5878906 C11.7819041,89.3235714 12.5826773,89.6914062 13.5722656,89.6914062 C14.4511763,89.6914062 15.3561151,89.4667991 16.2871094,89.0175781 L16.2871094,90.6777344 C15.0436136,91.0553404 13.9694056,91.2441406 13.0644531,91.2441406 Z M23.3183594,91.2441406 C21.8014247,91.2441406 20.5904993,90.741216 19.6855469,89.7353516 C18.7805944,88.7294872 18.328125,87.383472 18.328125,85.6972656 C18.328125,83.9915279 18.782222,82.6422576 19.6904297,81.6494141 C20.5986374,80.6565706 21.8307214,80.1601562 23.3867188,80.1601562 C24.9427161,80.1601562 26.1748001,80.6565706 27.0830078,81.6494141 C27.9912155,82.6422576 28.4453125,83.9850176 28.4453125,85.6777344 C28.4453125,87.4095139 27.9895879,88.7701773 27.078125,89.7597656 C26.1666621,90.7493539 24.9134194,91.2441406 23.3183594,91.2441406 Z M23.3476562,89.7988281 C25.3854269,89.7988281 26.4042969,88.4251439 26.4042969,85.6777344 C26.4042969,82.9628771 25.3984476,81.6054688 23.3867188,81.6054688 C21.3815004,81.6054688 20.3789062,82.9693874 20.3789062,85.6972656 C20.3789062,88.4316543 21.3684797,89.7988281 23.3476562,89.7988281 Z M31.453125,91 L31.453125,75.5800781 L33.3769531,75.5800781 L33.3769531,91 L31.453125,91 Z M35.3105469,94.3691406 L35.3105469,92.9238281 L45.3105469,92.9238281 L45.3105469,94.3691406 L35.3105469,94.3691406 Z M47.234375,91 L47.234375,80.3945312 L49.1582031,80.3945312 L49.1582031,91 L47.234375,91 Z M47.234375,78.4707031 L47.234375,76.546875 L49.1582031,76.546875 L49.1582031,78.4707031 L47.234375,78.4707031 Z M55.828125,91.2441406 C54.9492144,91.2441406 53.8815167,91.0390646 52.625,90.6289062 L52.625,88.8613281 C53.8815167,89.4863313 54.9752558,89.7988281 55.90625,89.7988281 C56.4596382,89.7988281 56.918618,89.64909 57.2832031,89.3496094 C57.6477883,89.0501287 57.8300781,88.6757835 57.8300781,88.2265625 C57.8300781,87.5690071 57.3190155,87.0253928 56.296875,86.5957031 L55.1738281,86.1171875 C53.5136636,85.4270799 52.6835938,84.4342513 52.6835938,83.1386719 C52.6835938,82.2141881 53.0107389,81.4866563 53.6650391,80.9560547 C54.3193392,80.4254531 55.2161401,80.1601562 56.3554688,80.1601562 C56.9479196,80.1601562 57.6803342,80.2415356 58.5527344,80.4042969 L58.953125,80.4824219 L58.953125,82.0839844 C57.8789009,81.7649724 57.0260448,81.6054688 56.3945313,81.6054688 C55.1575459,81.6054688 54.5390625,82.054683 54.5390625,82.953125 C54.5390625,83.532555 55.0078078,84.0208313 55.9453125,84.4179688 L56.8730469,84.8085938 C57.9212292,85.2513043 58.6634093,85.718422 59.0996094,86.2099609 C59.5358095,86.7014999 59.7539063,87.3151005 59.7539063,88.0507812 C59.7539063,88.9817755 59.3860714,89.7467418 58.6503906,90.3457031 C57.9147099,90.9446645 56.9739641,91.2441406 55.828125,91.2441406 Z M61.2871094,94.3691406 L61.2871094,92.9238281 L71.2871094,92.9238281 L71.2871094,94.3691406 L61.2871094,94.3691406 Z M73.2109375,94.8574219 L73.2109375,80.3945312 L75.1347656,80.3945312 L75.1347656,82.3867188 C75.92253,80.9023363 77.1041588,80.1601562 78.6796875,80.1601562 C79.9557355,80.1601562 80.9599573,80.6256464 81.6923828,81.5566406 C82.4248083,82.4876349 82.7910156,83.7604086 82.7910156,85.375 C82.7910156,87.1328213 82.3759807,88.5504503 81.5458984,89.6279297 C80.7158162,90.705409 79.6237047,91.2441406 78.2695312,91.2441406 C77.0130146,91.2441406 75.9681031,90.7623746 75.1347656,89.7988281 L75.1347656,94.8574219 L73.2109375,94.8574219 Z M75.1347656,88.4707031 C76.1243539,89.3561242 77.0683549,89.7988281 77.9667969,89.7988281 C79.8157645,89.7988281 80.7402344,88.389337 80.7402344,85.5703125 C80.7402344,83.0833209 79.9199301,81.8398438 78.2792969,81.8398438 C77.2050728,81.8398438 76.1569062,82.4225202 75.1347656,83.5878906 L75.1347656,88.4707031 Z M89.9492188,91.2441406 C88.4322841,91.2441406 87.2213587,90.741216 86.3164062,89.7353516 C85.4114538,88.7294872 84.9589844,87.383472 84.9589844,85.6972656 C84.9589844,83.9915279 85.4130814,82.6422576 86.3212891,81.6494141 C87.2294967,80.6565706 88.4615808,80.1601562 90.0175781,80.1601562 C91.5735755,80.1601562 92.8056595,80.6565706 93.7138672,81.6494141 C94.6220749,82.6422576 95.0761719,83.9850176 95.0761719,85.6777344 C95.0761719,87.4095139 94.6204473,88.7701773 93.7089844,89.7597656 C92.7975215,90.7493539 91.5442788,91.2441406 89.9492188,91.2441406 Z M89.9785156,89.7988281 C92.0162862,89.7988281 93.0351562,88.4251439 93.0351562,85.6777344 C93.0351562,82.9628771 92.0293069,81.6054688 90.0175781,81.6054688 C88.0123598,81.6054688 87.0097656,82.9693874 87.0097656,85.6972656 C87.0097656,88.4316543 87.9993391,89.7988281 89.9785156,89.7988281 Z M100.896484,91.2441406 C100.017574,91.2441406 98.9498761,91.0390646 97.6933594,90.6289062 L97.6933594,88.8613281 C98.9498761,89.4863313 100.043615,89.7988281 100.974609,89.7988281 C101.527998,89.7988281 101.986977,89.64909 102.351563,89.3496094 C102.716148,89.0501287 102.898438,88.6757835 102.898438,88.2265625 C102.898438,87.5690071 102.387375,87.0253928 101.365234,86.5957031 L100.242188,86.1171875 C98.5820229,85.4270799 97.7519531,84.4342513 97.7519531,83.1386719 C97.7519531,82.2141881 98.0790983,81.4866563 98.7333984,80.9560547 C99.3876986,80.4254531 100.2845,80.1601562 101.423828,80.1601562 C102.016279,80.1601562 102.748694,80.2415356 103.621094,80.4042969 L104.021484,80.4824219 L104.021484,82.0839844 C102.94726,81.7649724 102.094404,81.6054688 101.462891,81.6054688 C100.225905,81.6054688 99.6074219,82.054683 99.6074219,82.953125 C99.6074219,83.532555 100.076167,84.0208313 101.013672,84.4179688 L101.941406,84.8085938 C102.989589,85.2513043 103.731769,85.718422 104.167969,86.2099609 C104.604169,86.7014999 104.822266,87.3151005 104.822266,88.0507812 C104.822266,88.9817755 104.454431,89.7467418 103.71875,90.3457031 C102.983069,90.9446645 102.042323,91.2441406 100.896484,91.2441406 Z M108.279297,91 L108.279297,80.3945312 L110.203125,80.3945312 L110.203125,91 L108.279297,91 Z M108.279297,78.4707031 L108.279297,76.546875 L110.203125,76.546875 L110.203125,78.4707031 L108.279297,78.4707031 Z M112.996094,91 L117.029297,85.5214844 L113.113281,80.3945312 L115.398438,80.3945312 L118.494141,84.4765625 L121.296875,80.3945312 L123.171875,80.3945312 L119.5,85.7753906 L123.494141,91 L121.208984,91 L118.015625,86.8007812 L114.929688,91 L112.996094,91 Z" id="col_is_posix" fill="#868686"></path>
            <g id="col_is_posix_icon" transform="translate(10.000000, 11.000000)">
                <path d="M25,0 C11.204726,0 0,11.204726 0,25 C0,38.795274 11.204726,50 25,50 C38.795274,50 50,38.795274 50,25 C50,11.204726 38.795274,0 25,0 Z M25,2 C37.714394,2 48,12.285606 48,25 C48,37.714394 37.714394,48 25,48 C12.285606,48 2,37.714394 2,25 C2,12.285606 12.285606,2 25,2 Z" id="Shape" fill="#8D8C8E" fill-rule="nonzero"></path>
                <text id="P" font-family="LucidaGrande, Lucida Grande" font-size="19.5" font-weight="normal" fill="#868686">
                    <tspan x="19.6108398" y="33">P</tspan>
                </text>
            </g>
            <g id="Group" transform="translate(78.000000, 5.000000)" fill="#868686" font-weight="normal">
                <text id="XXXX" font-family="Monaco" font-size="16">
                    <tspan x="0" y="16">XXXX</tspan>
                </text>
                <text id="P:" font-family="LucidaGrande, Lucida Grande" font-size="16">
                    <tspan x="0" y="36">P:</tspan>
                </text>
                <text id="PPPPPPPPPPPP" font-family="Monaco" font-size="15">
                    <tspan x="34.9824219" y="36">PPPPPPPPPPPP</tspan>
                </text>
                <text id="F:" font-family="LucidaGrande, Lucida Grande" font-size="16">
                    <tspan x="0" y="56">F:</tspan>
                </text>
                <text id="FFFFFFFFFFFF" font-family="Monaco" font-size="15">
                    <tspan x="34.9824219" y="56">FFFFFFFFFFFF</tspan>
                </text>
            </g>
        </g>
    </g>
</svg>