<?xml version="1.0" encoding="UTF-8"?>
<svg width="252px" height="114px" viewBox="0 0 252 114" version="1.1" xmlns="http://www.w3.org/2000/svg" xmlns:xlink="http://www.w3.org/1999/xlink">
    <!-- Generator: Sketch 43.1 (39012) - http://www.bohemiancoding.com/sketch -->
    <title>create_creds_file_</title>
    <desc>Created with Sketch.</desc>
    <defs></defs>
    <g id="Function-Icons" stroke="none" stroke-width="1" fill="none" fill-rule="evenodd">
        <g id="create_creds_file_" transform="translate(0.000000, 7.000000)">
            <path d="M70,7 L70,63.508474" id="Line" stroke="#979797" stroke-width="2" stroke-linecap="square"></path>
            <g id="function_right" stroke="#979797" stroke-width="2">
                <path d="M1.5,70 L237,70" id="Line" stroke-linecap="square"></path>
                <path d="M250.812734,50 L223.473391,92.7177238 C221.275802,96.1514574 216.073131,99 212.007468,99 L7.992532,99 C4.13425363,99 1,95.8627721 1,92.0066458 L1,7.99335421 C1,4.13514755 4.13790239,1 7.992532,1 L212.007468,1 C216.082112,1 221.272011,3.84261995 223.473391,7.28227617 L250.812734,50 Z" id="Rectangle"></path>
            </g>
            <path d="M13.0644531,91.2441406 C11.6321543,91.2441406 10.4440151,90.713547 9.5,89.6523438 C8.55598486,88.5911405 8.08398438,87.2532633 8.08398438,85.6386719 C8.08398438,83.9134028 8.5511021,82.5690152 9.48535156,81.6054688 C10.419601,80.6419223 11.7232989,80.1601562 13.3964844,80.1601562 C14.2233114,80.1601562 15.1477813,80.2740874 16.1699219,80.5019531 L16.1699219,82.1132812 C15.0826769,81.7942692 14.197269,81.6347656 13.5136719,81.6347656 C12.530594,81.6347656 11.7412139,82.0042281 11.1455078,82.7431641 C10.5498017,83.4821 10.2519531,84.4667907 10.2519531,85.6972656 C10.2519531,86.8886778 10.5579396,87.8522099 11.1699219,88.5878906 C11.7819041,89.3235714 12.5826773,89.6914062 13.5722656,89.6914062 C14.4511763,89.6914062 15.3561151,89.4667991 16.2871094,89.0175781 L16.2871094,90.6777344 C15.0436136,91.0553404 13.9694056,91.2441406 13.0644531,91.2441406 Z M19.1679688,91 L19.1679688,80.3945312 L21.0917969,80.3945312 L21.0917969,82.3867188 C21.8535194,80.9023363 22.9602792,80.1601562 24.4121094,80.1601562 C24.6074229,80.1601562 24.8124989,80.1764321 25.0273438,80.2089844 L25.0273438,82.0058594 C24.6953108,81.8951817 24.402345,81.8398438 24.1484375,81.8398438 C22.9309835,81.8398438 21.9121135,82.5624928 21.0917969,84.0078125 L21.0917969,91 L19.1679688,91 Z M35.125,90.6582031 C33.8359311,91.0488301 32.7324265,91.2441406 31.8144531,91.2441406 C30.2519453,91.2441406 28.977544,90.7249401 27.9912109,89.6865234 C27.0048779,88.6481068 26.5117188,87.3020916 26.5117188,85.6484375 C26.5117188,84.0403565 26.9462847,82.7220104 27.8154297,81.6933594 C28.6845747,80.6647084 29.7962172,80.1503906 31.1503906,80.1503906 C32.4329491,80.1503906 33.4241501,80.6061152 34.1240234,81.5175781 C34.8238967,82.429041 35.1738281,83.724601 35.1738281,85.4042969 L35.1640625,86 L28.4746094,86 C28.7545587,88.5195438 29.9882703,89.7792969 32.1757812,89.7792969 C32.9765665,89.7792969 33.9596296,89.5644553 35.125,89.1347656 L35.125,90.6582031 Z M28.5625,84.5546875 L33.2402344,84.5546875 C33.2402344,82.5820214 32.5045646,81.5957031 31.0332031,81.5957031 C29.5553312,81.5957031 28.7317717,82.5820214 28.5625,84.5546875 Z M43.9628906,89.6523438 C42.8105411,90.713547 41.7005262,91.2441406 40.6328125,91.2441406 C39.7539019,91.2441406 39.0247425,90.9690783 38.4453125,90.4189453 C37.8658825,89.8688124 37.5761719,89.1738323 37.5761719,88.3339844 C37.5761719,87.1751244 38.0628207,86.2848338 39.0361328,85.6630859 C40.009445,85.041338 41.4042878,84.7304688 43.2207031,84.7304688 L43.6796875,84.7304688 L43.6796875,83.4511719 C43.6796875,82.220697 43.0481834,81.6054688 41.7851562,81.6054688 C40.7695262,81.6054688 39.6725319,81.9179656 38.4941406,82.5429688 L38.4941406,80.9511719 C39.78972,80.4238255 41.0039006,80.1601562 42.1367188,80.1601562 C43.3216205,80.1601562 44.1956352,80.4270807 44.7587891,80.9609375 C45.3219429,81.4947943 45.6035156,82.3248642 45.6035156,83.4511719 L45.6035156,88.2558594 C45.6035156,89.3561253 45.9420539,89.90625 46.6191406,89.90625 C46.7037765,89.90625 46.8274731,89.8932293 46.9902344,89.8671875 L47.1269531,90.9316406 C46.690753,91.139975 46.208987,91.2441406 45.6816406,91.2441406 C44.7831986,91.2441406 44.2102877,90.713547 43.9628906,89.6523438 Z M43.6796875,88.6074219 L43.6796875,85.8632812 L43.0351562,85.84375 C41.9804635,85.84375 41.1276074,86.0439433 40.4765625,86.4443359 C39.8255176,86.8447286 39.5,87.3704395 39.5,88.0214844 C39.5,88.4837263 39.6627588,88.8743474 39.9882812,89.1933594 C40.3138037,89.5123714 40.7109352,89.671875 41.1796875,89.671875 C41.9804728,89.671875 42.8137978,89.3170608 43.6796875,88.6074219 Z M52.7226562,91.2441406 C51.7460889,91.2441406 50.9843777,90.9641955 50.4375,90.4042969 C49.8906223,89.8443982 49.6171875,89.0664112 49.6171875,88.0703125 L49.6171875,81.8398438 L48.2890625,81.8398438 L48.2890625,80.3945312 L49.6171875,80.3945312 L49.6171875,78.4707031 L51.5410156,78.2851562 L51.5410156,80.3945312 L54.3144531,80.3945312 L54.3144531,81.8398438 L51.5410156,81.8398438 L51.5410156,87.71875 C51.5410156,89.1054757 52.139968,89.7988281 53.3378906,89.7988281 C53.5917981,89.7988281 53.9010398,89.7565108 54.265625,89.671875 L54.265625,91 C53.6731741,91.1627612 53.1588563,91.2441406 52.7226562,91.2441406 Z M64.7929688,90.6582031 C63.5038998,91.0488301 62.4003952,91.2441406 61.4824219,91.2441406 C59.9199141,91.2441406 58.6455127,90.7249401 57.6591797,89.6865234 C56.6728466,88.6481068 56.1796875,87.3020916 56.1796875,85.6484375 C56.1796875,84.0403565 56.6142535,82.7220104 57.4833984,81.6933594 C58.3525434,80.6647084 59.4641859,80.1503906 60.8183594,80.1503906 C62.1009179,80.1503906 63.0921189,80.6061152 63.7919922,81.5175781 C64.4918655,82.429041 64.8417969,83.724601 64.8417969,85.4042969 L64.8320312,86 L58.1425781,86 C58.4225274,88.5195438 59.6562391,89.7792969 61.84375,89.7792969 C62.6445353,89.7792969 63.6275983,89.5644553 64.7929688,89.1347656 L64.7929688,90.6582031 Z M58.2304688,84.5546875 L62.9082031,84.5546875 C62.9082031,82.5820214 62.1725334,81.5957031 60.7011719,81.5957031 C59.2232999,81.5957031 58.3997404,82.5820214 58.2304688,84.5546875 Z M66.2382812,94.3691406 L66.2382812,92.9238281 L76.2382812,92.9238281 L76.2382812,94.3691406 L66.2382812,94.3691406 Z M82.3027344,91.2441406 C80.8704355,91.2441406 79.6822964,90.713547 78.7382812,89.6523438 C77.7942661,88.5911405 77.3222656,87.2532633 77.3222656,85.6386719 C77.3222656,83.9134028 77.7893833,82.5690152 78.7236328,81.6054688 C79.6578823,80.6419223 80.9615802,80.1601562 82.6347656,80.1601562 C83.4615927,80.1601562 84.3860626,80.2740874 85.4082031,80.5019531 L85.4082031,82.1132812 C84.3209581,81.7942692 83.4355503,81.6347656 82.7519531,81.6347656 C81.7688753,81.6347656 80.9794952,82.0042281 80.3837891,82.7431641 C79.788083,83.4821 79.4902344,84.4667907 79.4902344,85.6972656 C79.4902344,86.8886778 79.7962209,87.8522099 80.4082031,88.5878906 C81.0201854,89.3235714 81.8209586,89.6914062 82.8105469,89.6914062 C83.6894575,89.6914062 84.5943964,89.4667991 85.5253906,89.0175781 L85.5253906,90.6777344 C84.2818948,91.0553404 83.2076868,91.2441406 82.3027344,91.2441406 Z M88.40625,91 L88.40625,80.3945312 L90.3300781,80.3945312 L90.3300781,82.3867188 C91.0918007,80.9023363 92.1985604,80.1601562 93.6503906,80.1601562 C93.8457041,80.1601562 94.0507802,80.1764321 94.265625,80.2089844 L94.265625,82.0058594 C93.9335921,81.8951817 93.6406263,81.8398438 93.3867188,81.8398438 C92.1692647,81.8398438 91.1503947,82.5624928 90.3300781,84.0078125 L90.3300781,91 L88.40625,91 Z M104.363281,90.6582031 C103.074212,91.0488301 101.970708,91.2441406 101.052734,91.2441406 C99.4902266,91.2441406 98.2158252,90.7249401 97.2294922,89.6865234 C96.2431591,88.6481068 95.75,87.3020916 95.75,85.6484375 C95.75,84.0403565 96.184566,82.7220104 97.0537109,81.6933594 C97.9228559,80.6647084 99.0344984,80.1503906 100.388672,80.1503906 C101.67123,80.1503906 102.662431,80.6061152 103.362305,81.5175781 C104.062178,82.429041 104.412109,83.724601 104.412109,85.4042969 L104.402344,86 L97.7128906,86 C97.9928399,88.5195438 99.2265516,89.7792969 101.414062,89.7792969 C102.214848,89.7792969 103.197911,89.5644553 104.363281,89.1347656 L104.363281,90.6582031 Z M97.8007812,84.5546875 L102.478516,84.5546875 C102.478516,82.5820214 101.742846,81.5957031 100.271484,81.5957031 C98.7936124,81.5957031 97.9700529,82.5820214 97.8007812,84.5546875 Z M114.539062,91 L114.539062,89.0078125 C113.757809,90.4987054 112.579435,91.2441406 111.003906,91.2441406 C109.727858,91.2441406 108.723636,90.7786505 107.991211,89.8476562 C107.258785,88.916662 106.892578,87.6438883 106.892578,86.0292969 C106.892578,84.2649651 107.307613,82.8457085 108.137695,81.7714844 C108.967778,80.6972603 110.059889,80.1601562 111.414062,80.1601562 C112.670579,80.1601562 113.712235,80.6419223 114.539062,81.6054688 L114.539062,75.5800781 L116.472656,75.5800781 L116.472656,91 L114.539062,91 Z M114.539062,82.9238281 C113.542964,82.0449175 112.598963,81.6054688 111.707031,81.6054688 C109.864574,81.6054688 108.943359,83.0149599 108.943359,85.8339844 C108.943359,88.3144655 109.763664,89.5546875 111.404297,89.5546875 C112.472011,89.5546875 113.516922,88.972011 114.539062,87.8066406 L114.539062,82.9238281 Z M123.132812,91.2441406 C122.253902,91.2441406 121.186204,91.0390646 119.929688,90.6289062 L119.929688,88.8613281 C121.186204,89.4863313 122.279943,89.7988281 123.210938,89.7988281 C123.764326,89.7988281 124.223305,89.64909 124.587891,89.3496094 C124.952476,89.0501287 125.134766,88.6757835 125.134766,88.2265625 C125.134766,87.5690071 124.623703,87.0253928 123.601562,86.5957031 L122.478516,86.1171875 C120.818351,85.4270799 119.988281,84.4342513 119.988281,83.1386719 C119.988281,82.2141881 120.315426,81.4866563 120.969727,80.9560547 C121.624027,80.4254531 122.520828,80.1601562 123.660156,80.1601562 C124.252607,80.1601562 124.985022,80.2415356 125.857422,80.4042969 L126.257812,80.4824219 L126.257812,82.0839844 C125.183588,81.7649724 124.330732,81.6054688 123.699219,81.6054688 C122.462233,81.6054688 121.84375,82.054683 121.84375,82.953125 C121.84375,83.532555 122.312495,84.0208313 123.25,84.4179688 L124.177734,84.8085938 C125.225917,85.2513043 125.968097,85.718422 126.404297,86.2099609 C126.840497,86.7014999 127.058594,87.3151005 127.058594,88.0507812 C127.058594,88.9817755 126.690759,89.7467418 125.955078,90.3457031 C125.219397,90.9446645 124.278652,91.2441406 123.132812,91.2441406 Z M128.591797,94.3691406 L128.591797,92.9238281 L138.591797,92.9238281 L138.591797,94.3691406 L128.591797,94.3691406 Z M140.876953,91 L140.876953,81.8398438 L139.373047,81.8398438 L139.373047,80.3945312 L140.876953,80.3945312 L140.876953,79.125 C140.876953,76.5989457 142.029285,75.3359375 144.333984,75.3359375 C144.978519,75.3359375 145.710933,75.4433583 146.53125,75.6582031 L146.53125,77.1816406 C145.66536,76.9147122 144.972008,76.78125 144.451172,76.78125 C143.819658,76.78125 143.388348,76.9326157 143.157227,77.2353516 C142.926106,77.5380875 142.810547,78.0996053 142.810547,78.9199219 L142.810547,80.3945312 L149.548828,80.3945312 L149.548828,91 L147.625,91 L147.625,81.8398438 L142.810547,81.8398438 L142.810547,91 L140.876953,91 Z M147.625,78.4707031 L147.625,76.546875 L149.548828,76.546875 L149.548828,78.4707031 L147.625,78.4707031 Z M153.40625,91 L153.40625,75.5800781 L155.330078,75.5800781 L155.330078,91 L153.40625,91 Z M166.960938,90.6582031 C165.671869,91.0488301 164.568364,91.2441406 163.650391,91.2441406 C162.087883,91.2441406 160.813481,90.7249401 159.827148,89.6865234 C158.840815,88.6481068 158.347656,87.3020916 158.347656,85.6484375 C158.347656,84.0403565 158.782222,82.7220104 159.651367,81.6933594 C160.520512,80.6647084 161.632155,80.1503906 162.986328,80.1503906 C164.268887,80.1503906 165.260088,80.6061152 165.959961,81.5175781 C166.659834,82.429041 167.009766,83.724601 167.009766,85.4042969 L167,86 L160.310547,86 C160.590496,88.5195438 161.824208,89.7792969 164.011719,89.7792969 C164.812504,89.7792969 165.795567,89.5644553 166.960938,89.1347656 L166.960938,90.6582031 Z M160.398438,84.5546875 L165.076172,84.5546875 C165.076172,82.5820214 164.340502,81.5957031 162.869141,81.5957031 C161.391269,81.5957031 160.567709,82.5820214 160.398438,84.5546875 Z" id="create_creds_file" fill="#868686"></path>
            <g id="create_creds_file_icon" transform="translate(17.000000, 12.000000)" fill-rule="nonzero" fill="#8D8C8E">
                <g id="File_8d8c8e">
                    <path d="M0,0 L0,1 L0,45 L0,46 L1,46 L35,46 L36,46 L36,45 L36,13 L36,12.59375 L35.71875,12.28125 L23.71875,0.28125 L23.40625,0 L23,0 L1,0 L0,0 Z M2,2 L22,2 L22,13 L22,14 L23,14 L34,14 L34,44 L2,44 L2,2 Z M24,3.4375 L32.5625,12 L24,12 L24,3.4375 Z" id="Shape"></path>
                </g>
                <g id="User-Credentials_8d8c8e" transform="translate(11.000000, 15.000000)">
                    <path d="M7,0 C3.14206627,0 0,3.11712917 0,6.94444444 C0,9.20227361 1.11241417,11.1889257 2.8,12.4565972 L2.8,12.5 C2.8,13.3972132 3.39098473,14.1626896 4.2,14.453125 L4.2,22.9166667 C4.19566082,23.1024755 4.26657302,23.2822573 4.396875,23.4157986 L5.796875,24.8046875 C5.93148463,24.9339553 6.1127047,25.0043047 6.3,25 L7.7,25 C7.8872953,25.0043047 8.06851537,24.9339553 8.203125,24.8046875 L9.603125,23.4157986 C9.73342698,23.2822573 9.80433918,23.1024755 9.8,22.9166667 L9.8,14.453125 C10.6090152,14.1626896 11.2,13.3972132 11.2,12.5 L11.2,12.4565972 C12.8875859,11.1889257 14,9.20227361 14,6.94444444 C14,3.11712917 10.8579338,0 7,0 Z M7,1.38888889 C10.1014662,1.38888889 12.6,3.86759306 12.6,6.94444444 C12.6,8.87532639 11.6068792,10.5702444 10.10625,11.5668403 C9.91757514,11.6941639 9.80329036,11.9047226 9.8,12.1310764 L9.8,12.5 C9.8,12.8923819 9.495521,13.1944444 9.1,13.1944444 L4.9,13.1944444 C4.50447886,13.1944444 4.2,12.8923819 4.2,12.5 L4.2,12.1310764 C4.19670964,11.9047226 4.08242486,11.6941639 3.89375,11.5668403 C2.39312108,10.5702444 1.4,8.87532639 1.4,6.94444444 C1.4,3.86759306 3.89853373,1.38888889 7,1.38888889 Z M7,2.77777778 C4.68886222,2.77777778 2.8,4.65164931 2.8,6.94444444 C2.80003865,7.32795964 3.11341669,7.63885054 3.5,7.63888889 L10.5,7.63888889 C10.8865833,7.63885054 11.1999613,7.32795964 11.2,6.94444444 C11.2,4.65164931 9.3111375,2.77777778 7,2.77777778 Z M7,4.16666667 C8.3061783,4.16666667 9.3546138,5.05620833 9.66875,6.25 L4.33125,6.25 C4.64538606,5.05620833 5.69382191,4.16666667 7,4.16666667 Z M5.6,14.5833333 L8.4,14.5833333 L8.4,16.6666667 L7.7,16.6666667 L7.7,18.0555556 L8.4,18.0555556 L8.4,20.1388889 L7.7,20.1388889 L7.7,21.5277778 L8.4,21.5277778 L8.4,22.6128472 L7.39375,23.6111111 L6.60625,23.6111111 L5.6,22.6128472 L5.6,14.5833333 Z" id="Shape"></path>
                </g>
            </g>
        </g>
    </g>
</svg>