<svg width="67px" height="67px" viewBox="0 0 67 67" version="1.1" xmlns="http://www.w3.org/2000/svg" xmlns:xlink="http://www.w3.org/1999/xlink">
    <defs>
        <path d="M10.712234,0 L56.712234,0 C62.2350815,-1.01453063e-15 66.712234,4.4771525 66.712234,10 L66.712234,66 L10.712234,66 C5.18938647,66 0.712233968,61.5228475 0.712233968,56 L0.712233968,10 C0.712233968,4.4771525 5.18938647,1.01453063e-15 10.712234,0 Z" id="path-1"></path>
    </defs>
    <g id="pointblank" stroke="none" stroke-width="1" fill="none" fill-rule="evenodd">
        <g id="col_vals_not_null" transform="translate(-0.487938, 0.685124)">
            <g id="rectangle">
                <use fill="#FFFFFF" fill-rule="evenodd" xlink:href="#path-1"></use>
                <path stroke="#000000" stroke-width="2" d="M65.712234,65 L65.712234,10 C65.712234,5.02943725 61.6827967,1 56.712234,1 L10.712234,1 C5.74167122,1 1.71223397,5.02943725 1.71223397,10 L1.71223397,56 C1.71223397,60.9705627 5.74167122,65 10.712234,65 L65.712234,65 Z"></path>
            </g>
            <path d="M40.6120805,47.037834 C37.4692348,47.037834 35.0126139,45.9348613 33.712234,44.0140597 C32.4118541,45.9348613 29.9552331,47.037834 26.8123883,47.037834 C22.6574397,47.037834 16.0646712,43.4437723 16.0646712,33.8021619 C16.0646712,29.3401361 17.4715879,18.962166 30.5035862,18.962166 C30.9454018,18.962166 31.3057481,19.3225124 31.3057481,19.7643279 L31.3057481,21.3686518 C31.3057481,21.8104674 30.9454018,22.1708138 30.5035862,22.1708138 C26.6400486,22.1708138 22.4819668,25.8118774 22.4819668,33.8021619 C22.4819668,37.5090277 23.7635456,43.0270243 27.2949384,43.0270243 C29.795428,43.0270243 31.224279,40.4231312 32.0985095,38.2861221 C30.5067194,35.6101596 29.7014243,33.1034035 29.7014243,30.8347892 C29.7014243,25.6238707 31.8603677,23.7751377 33.712234,23.7751377 C35.5641002,23.7751377 37.7230437,25.6238707 37.7230437,30.8347892 C37.7230437,33.1347383 36.9396828,35.5788255 35.3290916,38.2861221 C36.6294715,41.4321009 38.243196,43.0270243 40.1295295,43.0270243 C43.6609223,43.0270243 44.9425012,37.5090277 44.9425012,33.8021619 C44.9425012,25.8118774 40.7844193,22.1708138 36.9208817,22.1708138 C36.4759329,22.1708138 36.1187198,21.8104674 36.1187198,21.3686518 L36.1187198,19.7643279 C36.1187198,19.3225124 36.4759329,18.962166 36.9208817,18.962166 C49.9528801,18.962166 51.3597967,29.3401361 51.3597967,33.8021619 C51.3597967,43.4437723 44.7670282,47.037834 40.6120805,47.037834 Z" id="omega" fill="#000000" fill-rule="nonzero"></path>
            <rect id="line_black" fill="#000000" transform="translate(33.000000, 33.000000) rotate(-320.000000) translate(-33.000000, -33.000000) " x="32.5" y="7.93597705" width="1" height="50.1280459" rx="0.5"></rect>
            <rect id="line_white" fill="#FFFFFF" transform="translate(34.899496, 32.153303) rotate(-320.000000) translate(-34.899496, -32.153303) " x="34.3994962" y="8.54160469" width="1" height="47.2233972"></rect>
        </g>
    </g>
</svg>
