<svg width="67px" height="66px" viewBox="0 0 67 66" version="1.1" xmlns="http://www.w3.org/2000/svg" xmlns:xlink="http://www.w3.org/1999/xlink">
    <defs>
        <path d="M10.712234,0 L56.712234,0 C62.2350815,-1.01453063e-15 66.712234,4.4771525 66.712234,10 L66.712234,66 L10.712234,66 C5.18938647,66 0.712233968,61.5228475 0.712233968,56 L0.712233968,10 C0.712233968,4.4771525 5.18938647,1.01453063e-15 10.712234,0 Z" id="path-1"></path>
    </defs>
    <g id="pointblank" stroke="none" stroke-width="1" fill="none" fill-rule="evenodd">
        <g id="col_vals_null" transform="translate(-0.487938, -0.002188)">
            <g id="rectangle">
                <use fill="#FFFFFF" fill-rule="evenodd" xlink:href="#path-1"></use>
                <path stroke="#000000" stroke-width="2" d="M65.712234,65 L65.712234,10 C65.712234,5.02943725 61.6827967,1 56.712234,1 L10.712234,1 C5.74167122,1 1.71223397,5.02943725 1.71223397,10 L1.71223397,56 C1.71223397,60.9705627 5.74167122,65 10.712234,65 L65.712234,65 Z"></path>
            </g>
            <path d="M40.6120891,47.0378516 C37.4692395,47.0378516 35.0126155,45.9348776 33.712234,44.0140735 C32.4118524,45.9348776 29.9552284,47.0378516 26.8123796,47.0378516 C22.6574258,47.0378516 16.0646491,43.4437854 16.0646491,33.802163 C16.0646491,29.3401315 17.4715675,18.9621484 30.5035822,18.9621484 C30.9453983,18.9621484 31.3057451,19.3224952 31.3057451,19.7643113 L31.3057451,21.3686372 C31.3057451,21.8104533 30.9453983,22.1708002 30.5035822,22.1708002 C26.6400397,22.1708002 22.4819527,25.8118683 22.4819527,33.802163 C22.4819527,37.5090333 23.7635331,43.0270369 27.2949304,43.0270369 C29.7954231,43.0270369 31.2242758,40.4231405 32.0985075,38.2861287 C30.5067154,35.6101628 29.7014192,33.1034036 29.7014192,30.8347865 C29.7014192,25.6238614 31.8603654,23.7751261 33.712234,23.7751261 C35.5641025,23.7751261 37.7230487,25.6238614 37.7230487,30.8347865 C37.7230487,33.1347385 36.9396869,35.5788287 35.3290937,38.2861287 C36.6294752,41.4321115 38.2432017,43.0270369 40.1295376,43.0270369 C43.6609348,43.0270369 44.9425153,37.5090333 44.9425153,33.802163 C44.9425153,25.8118683 40.7844282,22.1708002 36.9208858,22.1708002 C36.4759364,22.1708002 36.1187228,21.8104533 36.1187228,21.3686372 L36.1187228,19.7643113 C36.1187228,19.3224952 36.4759364,18.9621484 36.9208858,18.9621484 C49.9529005,18.9621484 51.3598189,29.3401315 51.3598189,33.802163 C51.3598189,43.4437854 44.7670421,47.0378516 40.6120891,47.0378516 Z" id="omega" fill="#000000" fill-rule="nonzero"></path>
        </g>
    </g>
</svg>
