<svg width="67px" height="67px" viewBox="0 0 67 67" version="1.1" xmlns="http://www.w3.org/2000/svg" xmlns:xlink="http://www.w3.org/1999/xlink">
    <defs>
        <path d="M10.712234,0 L56.712234,0 C62.2350815,-1.01453063e-15 66.712234,4.4771525 66.712234,10 L66.712234,66 L10.712234,66 C5.18938647,66 0.712233968,61.5228475 0.712233968,56 L0.712233968,10 C0.712233968,4.4771525 5.18938647,1.01453063e-15 10.712234,0 Z" id="path-1"></path>
    </defs>
    <g id="pointblank" stroke="none" stroke-width="1" fill="none" fill-rule="evenodd">
        <g id="col_vals_equal" transform="translate(-0.242129, 0.859210)">
            <g id="rectangle">
                <use fill="#FFFFFF" fill-rule="evenodd" xlink:href="#path-1"></use>
                <path stroke="#000000" stroke-width="2" d="M65.712234,65 L65.712234,10 C65.712234,5.02943725 61.6827967,1 56.712234,1 L10.712234,1 C5.74167122,1 1.71223397,5.02943725 1.71223397,10 L1.71223397,56 C1.71223397,60.9705627 5.74167122,65 10.712234,65 L65.712234,65 Z"></path>
            </g>
            <path d="M52.712234,11 L14.712234,11 C13.05989,11 11.712234,12.347656 11.712234,14 L11.712234,52 C11.712234,53.652344 13.05989,55 14.712234,55 L52.712234,55 C54.364578,55 55.712234,53.652344 55.712234,52 L55.712234,14 C55.712234,12.347656 54.364578,11 52.712234,11 Z M46.712234,38 L20.712234,38 L20.712234,36 L46.712234,36 L46.712234,38 Z M46.712234,30 L20.712234,30 L20.712234,28 L46.712234,28 L46.712234,30 Z" id="equals" fill="#000000" fill-rule="nonzero"></path>
        </g>
    </g>
</svg>
