<svg width="67px" height="66px" viewBox="0 0 67 66" version="1.1" xmlns="http://www.w3.org/2000/svg" xmlns:xlink="http://www.w3.org/1999/xlink">
    <defs>
        <path d="M10.712234,0 L56.712234,0 C62.2350815,-1.01453063e-15 66.712234,4.4771525 66.712234,10 L66.712234,66 L10.712234,66 C5.18938647,66 0.712233968,61.5228475 0.712233968,56 L0.712233968,10 C0.712233968,4.4771525 5.18938647,1.01453063e-15 10.712234,0 Z" id="path-1"></path>
    </defs>
    <g id="pointblank" stroke="none" stroke-width="1" fill="none" fill-rule="evenodd">
        <g id="col_vals_gte" transform="translate(-0.029895, -0.002188)">
            <g id="rectangle">
                <use fill="#FFFFFF" fill-rule="evenodd" xlink:href="#path-1"></use>
                <path stroke="#000000" stroke-width="2" d="M65.712234,65 L65.712234,10 C65.712234,5.02943725 61.6827967,1 56.712234,1 L10.712234,1 C5.74167122,1 1.71223397,5.02943725 1.71223397,10 L1.71223397,56 C1.71223397,60.9705627 5.74167122,65 10.712234,65 L65.712234,65 Z"></path>
            </g>
            <path d="M49.712234,12 L17.712234,12 C14.952234,12 12.712234,14.24 12.712234,17 L12.712234,49 C12.712234,51.76 14.952234,54 17.712234,54 L49.712234,54 C52.472234,54 54.712234,51.76 54.712234,49 L54.712234,17 C54.712234,14.24 52.472234,12 49.712234,12 Z M44.712234,47 L22.712234,47 L22.712234,45 L44.712234,45 L44.712234,47 Z M24.182234,40.88 L23.242234,39.12 L40.562234,30 L23.242234,20.88 L24.182234,19.12 L44.862234,30 L24.182234,40.88 Z" id="greater_than_equal" fill="#000000" fill-rule="nonzero"></path>
        </g>
    </g>
</svg>
