<svg width="67px" height="67px" viewBox="0 0 67 67" version="1.1" xmlns="http://www.w3.org/2000/svg" xmlns:xlink="http://www.w3.org/1999/xlink">
    <defs>
        <path d="M10.712234,0.014669353 L56.712234,0.014669353 C62.2350815,0.014669353 66.712234,4.49182185 66.712234,10.0146694 L66.712234,66.0146694 L10.712234,66.0146694 C5.18938647,66.0146694 0.712233968,61.5375169 0.712233968,56.0146694 L0.712233968,10.0146694 C0.712233968,4.49182185 5.18938647,0.014669353 10.712234,0.014669353 Z" id="path-1"></path>
    </defs>
    <g id="pointblank" stroke="none" stroke-width="1" fill="none" fill-rule="evenodd">
        <g id="col_is_logical" transform="translate(0.116964, 0.359210)">
            <g id="rectangle">
                <use fill="#FFFFFF" fill-rule="evenodd" xlink:href="#path-1"></use>
                <path stroke="#000000" stroke-width="2" d="M65.712234,65.0146694 L65.712234,10.0146694 C65.712234,5.0441066 61.6827967,1.01466935 56.712234,1.01466935 L10.712234,1.01466935 C5.74167122,1.01466935 1.71223397,5.0441066 1.71223397,10.0146694 L1.71223397,56.0146694 C1.71223397,60.9852321 5.74167122,65.0146694 10.712234,65.0146694 L65.712234,65.0146694 Z"></path>
            </g>
            <rect id="column" fill="#000000" x="12.2117153" y="12.0146694" width="20" height="42" rx="1"></rect>
            <text id="L" font-family="LucidaGrande, Lucida Grande" font-size="26" font-weight="normal" fill="#000000">
                <tspan x="39.6966177" y="43.0146694">L</tspan>
            </text>
        </g>
    </g>
</svg>
