<svg width="67px" height="67px" viewBox="0 0 67 67" version="1.1" xmlns="http://www.w3.org/2000/svg" xmlns:xlink="http://www.w3.org/1999/xlink">
    <defs>
        <path d="M10.712234,0.014669353 L56.712234,0.014669353 C62.2350815,0.014669353 66.712234,4.49182185 66.712234,10.0146694 L66.712234,66.0146694 L10.712234,66.0146694 C5.18938647,66.0146694 0.712233968,61.5375169 0.712233968,56.0146694 L0.712233968,10.0146694 C0.712233968,4.49182185 5.18938647,0.014669353 10.712234,0.014669353 Z" id="path-1"></path>
    </defs>
    <g id="pointblank" stroke="none" stroke-width="1" fill="none" fill-rule="evenodd">
        <g id="col_schema_match" transform="translate(-0.500000, -0.002188)">
            <g id="Path">
                <use fill="#FFFFFF" fill-rule="evenodd" xlink:href="#path-1"></use>
                <path stroke="#000000" stroke-width="2" d="M65.712234,65.0146694 L65.712234,10.0146694 C65.712234,5.0441066 61.6827967,1.01466935 56.712234,1.01466935 L10.712234,1.01466935 C5.74167122,1.01466935 1.71223397,5.0441066 1.71223397,10.0146694 L1.71223397,56.0146694 C1.71223397,60.9852321 5.74167122,65.0146694 10.712234,65.0146694 L65.712234,65.0146694 Z"></path>
            </g>
            <path d="M42.212234,39.7885268 L42.212234,56.7885268 L53.712234,56.7885268 C53.9860916,56.7885268 54.212234,56.5623844 54.212234,56.2885268 L54.212234,40.2885268 C54.212234,40.0146692 53.9860916,39.7885268 53.712234,39.7885268 L42.212234,39.7885268 Z M27.712234,39.7885268 C27.712234,40.280384 27.712234,40.9908737 27.712234,43.7885268 C27.712234,48.9302586 27.712234,49.0362941 27.712234,56.7885268 L39.712234,56.7885268 L39.712234,39.7885268 C34.2507583,39.7885268 34.1447471,39.7885268 30.462234,39.7885268 C28.6871911,39.7885268 28.0755121,39.7885268 27.712234,39.7885268 Z M25.212234,56.7885268 L25.212234,39.7885268 L13.712234,39.7885268 C13.4383763,39.7885268 13.212234,40.0146692 13.212234,40.2885268 L13.212234,56.2885268 C13.212234,56.5623844 13.4383763,56.7885268 13.712234,56.7885268 L25.212234,56.7885268 Z" id="columns_schema" stroke="#000000" fill-rule="nonzero"></path>
            <g id="vertical_equal" transform="translate(30.000000, 29.000000)" stroke="#000000" stroke-linecap="square">
                <path d="M2.21223397,0.514669353 L2.21223397,7.58573716" id="Line"></path>
                <path d="M5.21223397,0.514669353 L5.21223397,7.58573716" id="Line-Copy"></path>
            </g>
            <path d="M41.712234,9.01466935 L41.712234,27.0146694 L53.712234,27.0146694 C54.262234,27.0146694 54.712234,26.5646694 54.712234,26.0146694 L54.712234,10.0146694 C54.712234,9.46466935 54.262234,9.01466935 53.712234,9.01466935 L41.712234,9.01466935 Z M27.212234,9.01466935 C27.212234,9.01466935 27.212234,15.0146694 27.212234,27.0146694 L40.212234,27.0146694 L40.212234,9.01466935 C31.5455673,9.01466935 27.212234,9.01466935 27.212234,9.01466935 Z M13.712234,9.01466935 C13.162234,9.01466935 12.712234,9.46466935 12.712234,10.0146694 L12.712234,26.0146694 C12.712234,26.5646694 13.162234,27.0146694 13.712234,27.0146694 L25.712234,27.0146694 L25.712234,9.01466935 L13.712234,9.01466935 Z" id="columns_real" fill="#000000" fill-rule="nonzero"></path>
        </g>
    </g>
</svg>
