<?xml version="1.0" encoding="UTF-8"?>
<svg width="67px" height="67px" viewBox="0 0 67 67" version="1.1" xmlns="http://www.w3.org/2000/svg" xmlns:xlink="http://www.w3.org/1999/xlink">
    <title>col_anomaly_check()</title>
    <defs>
        <rect id="path-1" x="0" y="0" width="20" height="20"></rect>
    </defs>
    <g id="Function-Icons---original" stroke="none" stroke-width="1" fill="none" fill-rule="evenodd">
        <g id="col_anomaly_check()" transform="translate(-0.025844, 0.702042)">
            <path d="M56.712234,1 C59.1975153,1 61.4475153,2.00735931 63.076195,3.63603897 C64.7048747,5.26471863 65.712234,7.51471863 65.712234,10 L65.712234,10 L65.712234,65 L10.712234,65 C8.22695259,65 5.97695259,63.9926407 4.34827294,62.363961 C2.71959328,60.7352814 1.71223397,58.4852814 1.71223397,56 L1.71223397,56 L1.71223397,10 C1.71223397,7.51471863 2.71959328,5.26471863 4.34827294,3.63603897 C5.97695259,2.00735931 8.22695259,1 10.712234,1 L10.712234,1 Z" id="rectangle" stroke="#000000" stroke-width="2" fill="#FFFFFF"></path>
            <polygon id="l_bound_5" fill="#000000" transform="translate(55.683984, 45.885685) rotate(-299.000000) translate(-55.683984, -45.885685) " points="54.8839836 41.0856849 54.8839836 50.6856849 56.4839836 50.6856849 56.4839836 41.0856849"></polygon>
            <polygon id="l_bound_4" fill="#000000" transform="translate(44.781783, 48.112467) rotate(-270.000000) translate(-44.781783, -48.112467) " points="43.9817831 43.3124669 43.9817831 52.9124669 45.5817831 52.9124669 45.5817831 43.3124669"></polygon>
            <polygon id="l_bound_3" fill="#000000" transform="translate(33.310597, 48.112467) rotate(-270.000000) translate(-33.310597, -48.112467) " points="32.5105968 43.3124669 32.5105968 52.9124669 34.1105968 52.9124669 34.1105968 43.3124669"></polygon>
            <polygon id="l_bound_2" fill="#000000" transform="translate(22.565830, 50.339249) rotate(-299.000000) translate(-22.565830, -50.339249) " points="21.7658296 45.5392488 21.7658296 55.1392488 23.3658296 55.1392488 23.3658296 45.5392488"></polygon>
            <polygon id="l_bound_1" fill="#000000" transform="translate(12.291585, 56.120915) rotate(-299.000000) translate(-12.291585, -56.120915) " points="11.4915846 51.3209149 11.4915846 60.9209149 13.0915846 60.9209149 13.0915846 51.3209149"></polygon>
            <polygon id="u_bound_5" fill="#000000" transform="translate(55.683984, 20.558276) rotate(-299.000000) translate(-55.683984, -20.558276) " points="54.8839836 15.7582763 54.8839836 25.3582763 56.4839836 25.3582763 56.4839836 15.7582763"></polygon>
            <polygon id="u_bound_4" fill="#000000" transform="translate(44.781783, 23.741792) rotate(-270.000000) translate(-44.781783, -23.741792) " points="43.9817831 18.941792 43.9817831 28.541792 45.5817831 28.541792 45.5817831 18.941792"></polygon>
            <polygon id="u_bound_3" fill="#000000" transform="translate(33.310597, 23.741792) rotate(-270.000000) translate(-33.310597, -23.741792) " points="32.5105968 18.941792 32.5105968 28.541792 34.1105968 28.541792 34.1105968 18.941792"></polygon>
            <polygon id="u_bound_2" fill="#000000" transform="translate(22.014729, 26.388457) rotate(-299.000000) translate(-22.014729, -26.388457) " points="21.2147294 21.5884568 21.2147294 31.1884568 22.8147294 31.1884568 22.8147294 21.5884568"></polygon>
            <polygon id="u_bound_1" fill="#000000" transform="translate(11.740484, 32.170123) rotate(-299.000000) translate(-11.740484, -32.170123) " points="10.9404844 27.3701229 10.9404844 36.9701229 12.5404844 36.9701229 12.5404844 27.3701229"></polygon>
            <path d="M57.7700059,31.7005321 C56.3916576,31.7005321 55.2700059,32.8221839 55.2700059,34.2005321 C55.2700059,35.5788803 56.3916576,36.7005321 57.7700059,36.7005321 C59.1483541,36.7005321 60.2700059,35.5788803 60.2700059,34.2005321 C60.2700059,32.8221839 59.1483541,31.7005321 57.7700059,31.7005321 Z" id="data_point_solid_13" fill="#000000" fill-rule="nonzero"></path>
            <path d="M54.6839836,23.7005321 C53.3056354,23.7005321 52.1839836,24.8221839 52.1839836,26.2005321 C52.1839836,27.5788803 53.3056354,28.7005321 54.6839836,28.7005321 C56.0623318,28.7005321 57.1839836,27.5788803 57.1839836,26.2005321 C57.1839836,24.8221839 56.0623318,23.7005321 54.6839836,23.7005321 Z" id="data_point_solid_12" fill="#000000" fill-rule="nonzero"></path>
            <path d="M52.6839836,39.2005321 C51.3056354,39.2005321 50.1839836,40.3221839 50.1839836,41.7005321 C50.1839836,43.0788803 51.3056354,44.2005321 52.6839836,44.2005321 C54.0623318,44.2005321 55.1839836,43.0788803 55.1839836,41.7005321 C55.1839836,40.3221839 54.0623318,39.2005321 52.6839836,39.2005321 Z" id="data_point_solid_11" fill="#000000" fill-rule="nonzero"></path>
            <path d="M47.6839836,33.2124669 C46.3056354,33.2124669 45.1839836,34.3341186 45.1839836,35.7124669 C45.1839836,37.0908151 46.3056354,38.2124669 47.6839836,38.2124669 C49.0623318,38.2124669 50.1839836,37.0908151 50.1839836,35.7124669 C50.1839836,34.3341186 49.0623318,33.2124669 47.6839836,33.2124669 Z" id="data_point_solid_10" fill="#000000" fill-rule="nonzero"></path>
            <path d="M42.6839836,27.7005321 C41.3056354,27.7005321 40.1839836,28.8221839 40.1839836,30.2005321 C40.1839836,31.5788803 41.3056354,32.7005321 42.6839836,32.7005321 C44.0623318,32.7005321 45.1839836,31.5788803 45.1839836,30.2005321 C45.1839836,28.8221839 44.0623318,27.7005321 42.6839836,27.7005321 Z" id="data_point_solid_09" fill="#000000" fill-rule="nonzero"></path>
            <path d="M39.8839836,39.3005321 C38.5056354,39.3005321 37.3839836,40.4221839 37.3839836,41.8005321 C37.3839836,43.1788803 38.5056354,44.3005321 39.8839836,44.3005321 C41.2623318,44.3005321 42.3839836,43.1788803 42.3839836,41.8005321 C42.3839836,40.4221839 41.2623318,39.3005321 39.8839836,39.3005321 Z" id="data_point_solid_08" fill="#000000" fill-rule="nonzero"></path>
            <path d="M35.9839836,30.0850582 C34.6056354,30.0850582 33.4839836,31.20671 33.4839836,32.5850582 C33.4839836,33.9634064 34.6056354,35.0850582 35.9839836,35.0850582 C37.3623318,35.0850582 38.4839836,33.9634064 38.4839836,32.5850582 C38.4839836,31.20671 37.3623318,30.0850582 35.9839836,30.0850582 Z" id="data_point_solid_07" fill="#000000" fill-rule="nonzero"></path>
            <path d="M30.9839836,36.8005321 C29.6056354,36.8005321 28.4839836,37.9221839 28.4839836,39.3005321 C28.4839836,40.6788803 29.6056354,41.8005321 30.9839836,41.8005321 C32.3623318,41.8005321 33.4839836,40.6788803 33.4839836,39.3005321 C33.4839836,37.9221839 32.3623318,36.8005321 30.9839836,36.8005321 Z" id="data_point_solid_06" fill="#000000" fill-rule="nonzero"></path>
            <path d="M27.0839836,27.7005321 C25.7056354,27.7005321 24.5839836,28.8221839 24.5839836,30.2005321 C24.5839836,31.5788803 25.7056354,32.7005321 27.0839836,32.7005321 C28.4623318,32.7005321 29.5839836,31.5788803 29.5839836,30.2005321 C29.5839836,28.8221839 28.4623318,27.7005321 27.0839836,27.7005321 Z" id="data_point_solid_05" fill="#000000" fill-rule="nonzero"></path>
            <path d="M23.3839836,35.7124669 C22.0056354,35.7124669 20.8839836,36.8341186 20.8839836,38.2124669 C20.8839836,39.5908151 22.0056354,40.7124669 23.3839836,40.7124669 C24.7623318,40.7124669 25.8839836,39.5908151 25.8839836,38.2124669 C25.8839836,36.8341186 24.7623318,35.7124669 23.3839836,35.7124669 Z" id="data_point_solid_04" fill="#000000" fill-rule="nonzero"></path>
            <path d="M17.9700059,39.3005321 C16.5916576,39.3005321 15.4700059,40.4221839 15.4700059,41.8005321 C15.4700059,43.1788803 16.5916576,44.3005321 17.9700059,44.3005321 C19.3483541,44.3005321 20.4700059,43.1788803 20.4700059,41.8005321 C20.4700059,40.4221839 19.3483541,39.3005321 17.9700059,39.3005321 Z" id="data_point_solid_03" fill="#000000" fill-rule="nonzero"></path>
            <path d="M12.9700059,35.2005321 C11.5916576,35.2005321 10.4700059,36.3221839 10.4700059,37.7005321 C10.4700059,39.0788803 11.5916576,40.2005321 12.9700059,40.2005321 C14.3483541,40.2005321 15.4700059,39.0788803 15.4700059,37.7005321 C15.4700059,36.3221839 14.3483541,35.2005321 12.9700059,35.2005321 Z" id="data_point_solid_02" fill="#000000" fill-rule="nonzero"></path>
            <path d="M10.2055623,46.7005321 C8.82721408,46.7005321 7.7055623,47.8221839 7.7055623,49.2005321 C7.7055623,50.5788803 8.82721408,51.7005321 10.2055623,51.7005321 C11.5839105,51.7005321 12.7055623,50.5788803 12.7055623,49.2005321 C12.7055623,47.8221839 11.5839105,46.7005321 10.2055623,46.7005321 Z" id="data_point_solid_01" fill="#000000" fill-rule="nonzero"></path>
            <path d="M33.712234,9.90417906 C32.3338858,9.90417906 31.212234,11.0258308 31.212234,12.4041791 C31.212234,13.7825273 32.3338858,14.9041791 33.712234,14.9041791 C35.0905822,14.9041791 36.212234,13.7825273 36.212234,12.4041791 C36.212234,11.0258308 35.0905822,9.90417906 33.712234,9.90417906 Z" id="data_point_anomaly" stroke="#000000" fill="#FFFFFF" fill-rule="nonzero"></path>
            <g id="warning_sign" transform="translate(29.582638, 1.109050)">
                <mask id="mask-2" fill="white">
                    <use xlink:href="#path-1"></use>
                </mask>
                <g id="Rectangle"></g>
                <g id="Group" mask="url(#mask-2)">
                    <g transform="translate(8.833333, 5.666667)">
                        <g transform="translate(1.293667, 5.850846) rotate(0.430848) translate(-1.293667, -5.850846) translate(0.293667, 0.850846)">
                            <g transform="translate(0.000000, 0.430653)" fill="#000000" fill-rule="nonzero" id="Shape">
                                <path d="M1.72261062,8.18240044 C1.72261062,8.18240044 0,8.18240044 0,8.18240044 C0,8.18240044 0,6.45978982 0,6.45978982 C0,6.45978982 1.72261062,6.45978982 1.72261062,6.45978982 C1.72261062,6.45978982 1.72261062,8.18240044 1.72261062,8.18240044 Z M1.72261062,4.7371792 C1.72261062,4.7371792 0,4.7371792 0,4.7371792 C0,4.7371792 0,0.430652655 0,0.430652655 C0,0.430652655 1.72261062,0.430652655 1.72261062,0.430652655 C1.72261062,0.430652655 1.72261062,4.7371792 1.72261062,4.7371792 Z"></path>
                            </g>
                        </g>
                    </g>
                </g>
            </g>
        </g>
    </g>
</svg>