<svg width="67px" height="67px" viewBox="0 0 67 67" version="1.1" xmlns="http://www.w3.org/2000/svg" xmlns:xlink="http://www.w3.org/1999/xlink">
    <defs>
        <path d="M10.712234,0 L56.712234,0 C62.2350815,-1.01453063e-15 66.712234,4.4771525 66.712234,10 L66.712234,66 L10.712234,66 C5.18938647,66 0.712233968,61.5228475 0.712233968,56 L0.712233968,10 C0.712233968,4.4771525 5.18938647,1.01453063e-15 10.712234,0 Z" id="path-1"></path>
    </defs>
    <g id="pointblank" stroke="none" stroke-width="1" fill="none" fill-rule="evenodd">
        <g id="col_vals_not_in_set" transform="translate(-0.487938, 0.285474)">
            <g id="rectangle">
                <use fill="#FFFFFF" fill-rule="evenodd" xlink:href="#path-1"></use>
                <path stroke="#000000" stroke-width="2" d="M65.712234,65 L65.712234,10 C65.712234,5.02943725 61.6827967,1 56.712234,1 L10.712234,1 C5.74167122,1 1.71223397,5.02943725 1.71223397,10 L1.71223397,56 C1.71223397,60.9705627 5.74167122,65 10.712234,65 L65.712234,65 Z"></path>
            </g>
            <path d="M44.127969,41.1538382 L31.0814568,41.1538382 C29.9510748,41.1536429 28.8827052,40.9256134 27.9079888,40.5136953 C26.4467442,39.8960136 25.19849,38.8599685 24.3189894,37.5577099 C23.8792391,36.906727 23.5314818,36.1899233 23.2936866,35.4252675 C23.2130217,35.16589 23.1460289,34.9005554 23.0913409,34.6307286 L44.1278714,34.6307286 C45.028466,34.6306309 45.7586488,33.9004481 45.7586488,32.9998535 C45.7586488,32.0992589 45.028466,31.3690761 44.1278714,31.3690761 L23.0905596,31.3690761 C23.1990567,30.8337194 23.3597028,30.3180894 23.5675173,29.8264831 C24.185199,28.3652386 25.2212442,27.1169844 26.5236004,26.2374838 C27.1745833,25.7977334 27.891387,25.4499762 28.6560428,25.2122786 C29.4208939,24.9744833 30.2334994,24.8459665 31.0813591,24.8459665 L44.1277737,24.8459665 C45.0283683,24.8459665 45.7585511,24.1157837 45.7585511,23.2151891 C45.7585511,22.3145945 45.0283683,21.5844117 44.1277737,21.5844117 L31.0813591,21.5844117 C29.5096643,21.5844117 28.0039858,21.9038483 26.6373711,22.4820765 C24.5866678,23.3498583 22.8469049,24.7950871 21.6163267,26.616296 C20.3856508,28.4362354 19.665136,30.6413347 19.6658196,33.0000488 C19.6656243,34.5717436 19.9852563,36.0774222 20.5635822,37.4440369 C21.4312663,39.4947402 22.8765927,41.2345031 24.697704,42.4650813 C26.5176434,43.6957572 28.7227427,44.4155883 31.0814568,44.4155883 L44.1278714,44.4155883 C45.028466,44.4155883 45.7586488,43.6854055 45.7586488,42.7848109 C45.7586488,41.8842163 45.0285636,41.1538382 44.127969,41.1538382 Z" id="set_of" fill="#000000" fill-rule="nonzero"></path>
            <rect id="line_black" fill="#000000" transform="translate(32.762486, 32.521549) rotate(-320.000000) translate(-32.762486, -32.521549) " x="32.2624859" y="7.45752636" width="1" height="50.1280459" rx="0.5"></rect>
            <rect id="line_white" fill="#FFFFFF" transform="translate(34.661982, 31.674853) rotate(-320.000000) translate(-34.661982, -31.674853) " x="34.1619821" y="8.063154" width="1" height="47.2233972"></rect>
        </g>
    </g>
</svg>
