<svg width="67px" height="67px" viewBox="0 0 67 67" version="1.1" xmlns="http://www.w3.org/2000/svg" xmlns:xlink="http://www.w3.org/1999/xlink">
    <defs>
        <path d="M10.712234,0 L56.712234,0 C62.2350815,-1.01453063e-15 66.712234,4.4771525 66.712234,10 L66.712234,66 L10.712234,66 C5.18938647,66 0.712233968,61.5228475 0.712233968,56 L0.712233968,10 C0.712233968,4.4771525 5.18938647,1.01453063e-15 10.712234,0 Z" id="path-1"></path>
    </defs>
    <g id="pointblank" stroke="none" stroke-width="1" fill="none" fill-rule="evenodd">
        <g id="col_vals_expr" transform="translate(-0.500000, 0.859210)">
            <g id="rectangle">
                <use fill="#FFFFFF" fill-rule="evenodd" xlink:href="#path-1"></use>
                <path stroke="#000000" stroke-width="2" d="M65.712234,65 L65.712234,10 C65.712234,5.02943725 61.6827967,1 56.712234,1 L10.712234,1 C5.74167122,1 1.71223397,5.02943725 1.71223397,10 L1.71223397,56 C1.71223397,60.9705627 5.74167122,65 10.712234,65 L65.712234,65 Z"></path>
            </g>
            <path d="M22.1682701,14.6021863 L22.1682701,17.9472433 L25.5133271,17.9472433 C26.8395904,17.9472433 28.0482531,18.7508414 28.544785,19.9856375 L31.2103774,26.623485 L20.4957415,51.3978137 L24.1543977,51.3978137 L32.9351724,31.0138724 L39.4684869,47.2687589 C40.4680837,49.7644859 42.8984767,51.3978137 45.5836693,51.3978137 L48.9287264,51.3978137 L48.9287264,48.0527567 L45.5836693,48.0527567 C44.2508732,48.0527567 43.0487433,47.2491586 42.5522114,46.0143625 L31.6285095,18.7312411 C30.6289128,16.2355157 28.1985198,14.6021863 25.5133271,14.6021863 L22.1682701,14.6021863 Z" id="lambda" fill="#000000" fill-rule="nonzero"></path>
        </g>
    </g>
</svg>
