<svg width="67px" height="67px" viewBox="0 0 67 67" version="1.1" xmlns="http://www.w3.org/2000/svg" xmlns:xlink="http://www.w3.org/1999/xlink">
    <defs>
        <path d="M10.712234,0 L56.712234,0 C62.2350815,-1.01453063e-15 66.712234,4.4771525 66.712234,10 L66.712234,66 L10.712234,66 C5.18938647,66 0.712233968,61.5228475 0.712233968,56 L0.712233968,10 C0.712233968,4.4771525 5.18938647,1.01453063e-15 10.712234,0 Z" id="path-1"></path>
    </defs>
    <g id="pointblank" stroke="none" stroke-width="1" fill="none" fill-rule="evenodd">
        <g id="col_vals_not_between" transform="translate(-0.487938, 0.859210)">
            <g id="rectangle">
                <use fill="#FFFFFF" fill-rule="evenodd" xlink:href="#path-1"></use>
                <path stroke="#000000" stroke-width="2" d="M65.712234,65 L65.712234,10 C65.712234,5.02943725 61.6827967,1 56.712234,1 L10.712234,1 C5.74167122,1 1.71223397,5.02943725 1.71223397,10 L1.71223397,56 C1.71223397,60.9705627 5.74167122,65 10.712234,65 L65.712234,65 Z"></path>
            </g>
            <g id="outside_range" transform="translate(11.000000, 21.000000)" fill="#000000">
                <path d="M12.993484,0.96875 C11.962234,1.082031 11.188797,1.964844 11.212234,3 L11.212234,21 C11.200515,21.722656 11.579422,22.390625 12.204422,22.753906 C12.825515,23.121094 13.598953,23.121094 14.220047,22.753906 C14.845047,22.390625 15.223953,21.722656 15.212234,21 L15.212234,3 C15.220047,2.457031 15.009109,1.9375 14.626297,1.554688 C14.243484,1.171875 13.723953,0.960938 13.180984,0.96875 C13.118484,0.964844 13.055984,0.964844 12.993484,0.96875 Z M32.993484,0.96875 C31.962234,1.082031 31.188797,1.964844 31.212234,3 L31.212234,21 C31.200515,21.722656 31.579422,22.390625 32.204422,22.753906 C32.825515,23.121094 33.598953,23.121094 34.220047,22.753906 C34.845047,22.390625 35.223953,21.722656 35.212234,21 L35.212234,3 C35.220047,2.457031 35.009109,1.9375 34.626297,1.554688 C34.243484,1.171875 33.723953,0.960938 33.180984,0.96875 C33.118484,0.964844 33.055984,0.964844 32.993484,0.96875 Z M17.212234,1 C16.661453,1 16.212234,1.449219 16.212234,2 C16.212234,2.550781 16.661453,3 17.212234,3 C17.763015,3 18.212234,2.550781 18.212234,2 C18.212234,1.449219 17.763015,1 17.212234,1 Z M21.212234,1 C20.661453,1 20.212234,1.449219 20.212234,2 C20.212234,2.550781 20.661453,3 21.212234,3 C21.763015,3 22.212234,2.550781 22.212234,2 C22.212234,1.449219 21.763015,1 21.212234,1 Z M25.212234,1 C24.661453,1 24.212234,1.449219 24.212234,2 C24.212234,2.550781 24.661453,3 25.212234,3 C25.763015,3 26.212234,2.550781 26.212234,2 C26.212234,1.449219 25.763015,1 25.212234,1 Z M29.212234,1 C28.661453,1 28.212234,1.449219 28.212234,2 C28.212234,2.550781 28.661453,3 29.212234,3 C29.763015,3 30.212234,2.550781 30.212234,2 C30.212234,1.449219 29.763015,1 29.212234,1 Z M17.212234,21 C16.661453,21 16.212234,21.449219 16.212234,22 C16.212234,22.550781 16.661453,23 17.212234,23 C17.763015,23 18.212234,22.550781 18.212234,22 C18.212234,21.449219 17.763015,21 17.212234,21 Z M21.212234,21 C20.661453,21 20.212234,21.449219 20.212234,22 C20.212234,22.550781 20.661453,23 21.212234,23 C21.763015,23 22.212234,22.550781 22.212234,22 C22.212234,21.449219 21.763015,21 21.212234,21 Z M25.212234,21 C24.661453,21 24.212234,21.449219 24.212234,22 C24.212234,22.550781 24.661453,23 25.212234,23 C25.763015,23 26.212234,22.550781 26.212234,22 C26.212234,21.449219 25.763015,21 25.212234,21 Z M29.212234,21 C28.661453,21 28.212234,21.449219 28.212234,22 C28.212234,22.550781 28.661453,23 29.212234,23 C29.763015,23 30.212234,22.550781 30.212234,22 C30.212234,21.449219 29.763015,21 29.212234,21 Z" id="small_range" fill-rule="nonzero"></path>
                <path d="M10.2117153,11.0098293 L10.2117153,13.0098293 L4.6185059,13.0098293 L7.5247559,15.1973293 C7.9739749,15.5332673 8.0638189,16.1699853 7.7278809,16.6192043 C7.3919439,17.0684233 6.7552249,17.1582673 6.3060059,16.8223293 L1.0247559,12.8223293 C0.763036896,12.6348293 0.606786896,12.3301423 0.606786896,12.0098293 C0.606786896,11.6895173 0.763036896,11.3848293 1.0247559,11.1973293 L6.3060059,7.19732933 C6.4349119,7.09967333 6.5833499,7.03717333 6.7435059,7.00982933 C6.7825689,6.99811033 6.8255369,6.98639233 6.8685059,6.97857933 C7.3372559,6.91607933 7.7864749,7.18951733 7.9427249,7.63482933 C8.1028809,8.08014233 7.9270999,8.57623533 7.5247559,8.82232933 L4.6185059,11.0098293 L10.2117153,11.0098293 Z" id="arrow_left"></path>
                <path d="M45.712234,11.0122706 L45.712234,13.0122706 L40.1190246,13.0122706 L43.0252746,15.1997706 C43.4744936,15.5357086 43.5643376,16.1724266 43.2283996,16.6216456 C42.8924626,17.0708646 42.2557436,17.1607086 41.8065246,16.8247706 L36.5252746,12.8247706 C36.2635556,12.6372706 36.1073056,12.3325836 36.1073056,12.0122706 C36.1073056,11.6919586 36.2635556,11.3872706 36.5252746,11.1997706 L41.8065246,7.19977058 C41.9354306,7.10211458 42.0838686,7.03961458 42.2440246,7.01227058 C42.2830876,7.00055158 42.3260556,6.98883358 42.3690246,6.98102058 C42.8377746,6.91852058 43.2869936,7.19195858 43.4432436,7.63727058 C43.6033996,8.08258358 43.4276186,8.57867658 43.0252746,8.82477058 L40.1190246,11.0122706 L45.712234,11.0122706 Z" id="arrow_right" transform="translate(40.909770, 12.000000) rotate(-180.000000) translate(-40.909770, -12.000000) "></path>
            </g>
        </g>
    </g>
</svg>
