<svg width="67px" height="67px" viewBox="0 0 67 67" version="1.1" xmlns="http://www.w3.org/2000/svg" xmlns:xlink="http://www.w3.org/1999/xlink">
    <defs>
        <path d="M10.712234,0 L56.712234,0 C62.2350815,-1.01453063e-15 66.712234,4.4771525 66.712234,10 L66.712234,66 L10.712234,66 C5.18938647,66 0.712233968,61.5228475 0.712233968,56 L0.712233968,10 C0.712233968,4.4771525 5.18938647,1.01453063e-15 10.712234,0 Z" id="path-1"></path>
    </defs>
    <g id="pointblank" stroke="none" stroke-width="1" fill="none" fill-rule="evenodd">
        <g id="col_vals_lte" transform="translate(-0.242129, 0.859210)">
            <g id="rectangle">
                <use fill="#FFFFFF" fill-rule="evenodd" xlink:href="#path-1"></use>
                <path stroke="#000000" stroke-width="2" d="M65.712234,65 L65.712234,10 C65.712234,5.02943725 61.6827967,1 56.712234,1 L10.712234,1 C5.74167122,1 1.71223397,5.02943725 1.71223397,10 L1.71223397,56 C1.71223397,60.9705627 5.74167122,65 10.712234,65 L65.712234,65 Z"></path>
            </g>
            <path d="M53.712234,12 L13.712234,12 C13.157547,12 12.712234,12.449219 12.712234,13 L12.712234,53 C12.712234,53.550781 13.157547,54 13.712234,54 L53.712234,54 C54.266922,54 54.712234,53.550781 54.712234,53 L54.712234,13 C54.712234,12.449219 54.266922,12 53.712234,12 Z M42.227859,19.125 L43.196609,20.875 L26.770828,30 L43.196609,39.125 L42.227859,40.875 L22.65364,30 L42.227859,19.125 Z M44.712234,47 L22.712234,47 L22.712234,45 L44.712234,45 L44.712234,47 Z" id="less_than_equal" fill="#000000" fill-rule="nonzero"></path>
        </g>
    </g>
</svg>
