<svg width="67px" height="67px" viewBox="0 0 67 67" version="1.1" xmlns="http://www.w3.org/2000/svg" xmlns:xlink="http://www.w3.org/1999/xlink">
    <defs>
        <path d="M10.712234,0 L56.712234,0 C62.2350815,-1.01453063e-15 66.712234,4.4771525 66.712234,10 L66.712234,66 L10.712234,66 C5.18938647,66 0.712233968,61.5228475 0.712233968,56 L0.712233968,10 C0.712233968,4.4771525 5.18938647,1.01453063e-15 10.712234,0 Z" id="path-1"></path>
    </defs>
    <g id="pointblank" stroke="none" stroke-width="1" fill="none" fill-rule="evenodd">
        <g id="col_vals_gt" transform="translate(-0.242129, 0.685124)">
            <g id="rectangle">
                <use fill="#FFFFFF" fill-rule="evenodd" xlink:href="#path-1"></use>
                <path stroke="#000000" stroke-width="2" d="M65.712234,65 L65.712234,10 C65.712234,5.02943725 61.6827967,1 56.712234,1 L10.712234,1 C5.74167122,1 1.71223397,5.02943725 1.71223397,10 L1.71223397,56 C1.71223397,60.9705627 5.74167122,65 10.712234,65 L65.712234,65 Z"></path>
            </g>
            <path d="M49.7099609,12 L17.7099609,12 C14.9499609,12 12.7099609,14.24 12.7099609,17 L12.7099609,49 C12.7099609,51.76 14.9499609,54 17.7099609,54 L49.7099609,54 C52.4699609,54 54.7099609,51.76 54.7099609,49 L54.7099609,17 C54.7099609,14.24 52.4699609,12 49.7099609,12 Z M27.2799609,44.82 L26.1399609,43.18 L40.9499609,33 L26.1399609,22.82 L27.2799609,21.18 L44.4799609,33 L27.2799609,44.82 Z" id="greater_than" fill="#000000" fill-rule="nonzero"></path>
        </g>
    </g>
</svg>
