<svg width="67px" height="67px" viewBox="0 0 67 67" version="1.1" xmlns="http://www.w3.org/2000/svg" xmlns:xlink="http://www.w3.org/1999/xlink">
    <defs>
        <path d="M10.712234,0 L56.712234,0 C62.2350815,-1.01453063e-15 66.712234,4.4771525 66.712234,10 L66.712234,66 L10.712234,66 C5.18938647,66 0.712233968,61.5228475 0.712233968,56 L0.712233968,10 C0.712233968,4.4771525 5.18938647,1.01453063e-15 10.712234,0 Z" id="path-1"></path>
    </defs>
    <g id="pointblank" stroke="none" stroke-width="1" fill="none" fill-rule="evenodd">
        <g id="conjointly" transform="translate(-0.500000, 0.226017)">
            <g id="rectangle">
                <use fill="#FFFFFF" fill-rule="evenodd" xlink:href="#path-1"></use>
                <path stroke="#000000" stroke-width="2" d="M65.712234,65 L65.712234,10 C65.712234,5.02943725 61.6827967,1 56.712234,1 L10.712234,1 C5.74167122,1 1.71223397,5.02943725 1.71223397,10 L1.71223397,56 C1.71223397,60.9705627 5.74167122,65 10.712234,65 L65.712234,65 Z"></path>
            </g>
            <path d="M51.8485976,12 L15.5758703,12 C13.9986329,12 12.712234,13.2863989 12.712234,14.8636364 L12.712234,51.1363636 C12.712234,52.7136011 13.9986329,54 15.5758703,54 L51.8485976,54 C53.4258351,54 54.712234,52.7136011 54.712234,51.1363636 L54.712234,14.8636364 C54.712234,13.2863989 53.4258351,12 51.8485976,12 Z M37.072234,44 L20.272234,44 L20.272234,42 L37.072234,42 L37.072234,44 Z M37.072234,34 L20.272234,34 L20.272234,32 L37.072234,32 L37.072234,34 Z M37.072234,24 L20.272234,24 L20.272234,22 L37.072234,22 L37.072234,24 Z M47.9233279,41.773438 L45.5706719,45.773438 C45.4427029,45.996094 45.239265,46.148438 45.0095779,46.1875 C44.9702029,46.195313 44.9275469,46.199219 44.88489,46.199219 C44.70114,46.199219 44.5206719,46.128906 44.373015,45.992188 L42.1877029,43.992188 C41.8202029,43.65625 41.7512969,43.027344 42.033484,42.589844 C42.3156719,42.152344 42.8439529,42.070313 43.2114529,42.40625 L44.697859,43.769531 L46.548484,40.625 C46.814265,40.171875 47.335984,40.0625 47.716609,40.378906 C48.097234,40.695313 48.189109,41.320313 47.9233279,41.773438 Z M47.9233279,31.773438 L45.5706719,35.773438 C45.4427029,35.996094 45.239265,36.148438 45.0095779,36.1875 C44.9702029,36.195313 44.9275469,36.199219 44.88489,36.199219 C44.70114,36.199219 44.5206719,36.128906 44.373015,35.992188 L42.1877029,33.992188 C41.8202029,33.65625 41.7512969,33.027344 42.033484,32.589844 C42.3156719,32.152344 42.8439529,32.070313 43.2114529,32.40625 L44.697859,33.769531 L46.548484,30.628906 C46.814265,30.175781 47.335984,30.0625 47.716609,30.382813 C48.097234,30.699219 48.189109,31.320313 47.9233279,31.773438 Z M47.9233279,21.773438 L45.5706719,25.773438 C45.4427029,25.996094 45.239265,26.148438 45.0095779,26.1875 C44.9702029,26.195313 44.9275469,26.199219 44.88489,26.199219 C44.70114,26.199219 44.5206719,26.128906 44.373015,25.992188 L42.1877029,23.992188 C41.8202029,23.65625 41.7512969,23.027344 42.033484,22.589844 C42.3156719,22.152344 42.8439529,22.070313 43.2114529,22.40625 L44.697859,23.769531 L46.548484,20.625 C46.814265,20.171875 47.335984,20.0625 47.716609,20.378906 C48.097234,20.699219 48.189109,21.320313 47.9233279,21.773438 Z" id="conjoint" fill="#000000" fill-rule="nonzero"></path>
        </g>
    </g>
</svg>
