<?xml version="1.0" encoding="UTF-8"?>
<svg width="68px" height="67px" viewBox="0 0 68 67" version="1.1" xmlns="http://www.w3.org/2000/svg" xmlns:xlink="http://www.w3.org/1999/xlink">
    <title>gauntlet()</title>
    <g id="Function-Icons---original" stroke="none" stroke-width="1" fill="none" fill-rule="evenodd">
        <g id="gauntlet()" transform="translate(0.869995, 0.057472)">
            <path d="M56.712234,1 C59.1975153,1 61.4475153,2.00735931 63.076195,3.63603897 C64.7048747,5.26471863 65.712234,7.51471863 65.712234,10 L65.712234,10 L65.712234,65 L10.712234,65 C8.22695259,65 5.97695259,63.9926407 4.34827294,62.363961 C2.71959328,60.7352814 1.71223397,58.4852814 1.71223397,56 L1.71223397,56 L1.71223397,10 C1.71223397,7.51471863 2.71959328,5.26471863 4.34827294,3.63603897 C5.97695259,2.00735931 8.22695259,1 10.712234,1 L10.712234,1 Z" id="rectangle" stroke="#000000" stroke-width="2" fill="#FFFFFF"></path>
            <g id="gauntlet" transform="translate(15.045567, 18.000000)" fill="#000000">
                <path d="M2.68229173,3.32291667 C1.94629173,3.32291667 1.3489584,3.91891667 1.3489584,4.65625 C1.3489584,5.39358333 1.94629173,5.98958333 2.68229173,5.98958333 L28.0156253,5.98958333 C28.134292,5.98958333 28.2396253,5.95120827 28.3489584,5.92187493 C28.458292,5.9512084 28.5636253,5.98958333 28.682292,5.98958333 C31.2556253,5.98958333 33.3489584,8.08291667 33.3489584,10.65625 C33.3489584,13.2295827 31.2556253,15.3229167 28.682292,15.3229167 L26.682292,15.3229167 L17.3489584,15.3229167 L17.3489584,12.6562507 C17.3489584,12.122916 17.030104,11.629688 16.5234373,11.429688 C16.030104,11.2163541 15.4569787,11.337604 15.070312,11.7109373 L11.190104,15.6041667 C10.9234373,15.8041667 10.7356253,16.1093747 10.682292,16.442708 L10.682292,16.882812 C10.7356253,17.2161453 10.9234373,17.5109373 11.190104,17.7109373 L15.070312,21.6041667 C15.4569787,21.9775 16.030104,22.0961453 16.5234373,21.882812 C17.030104,21.682812 17.3489584,21.1895827 17.3489584,20.6562507 L17.3489584,17.989584 L26.682292,17.989584 L26.7239587,17.989584 L29.3489584,17.989584 C29.5329587,17.989584 29.7085213,17.9534173 29.867188,17.885416 C33.347188,17.316084 36.0156253,14.2935827 36.0156253,10.65625 C36.0156253,6.61358333 32.7249587,3.32291667 28.682292,3.32291667 C28.5636253,3.32291667 28.458292,3.36262493 28.3489584,3.39062507 C28.2396253,3.36262507 28.134292,3.32291667 28.0156253,3.32291667 L2.68229173,3.32291667 Z M7.3489584,15.3229173 C5.97562493,15.3229173 4.63656253,15.7070213 3.47656253,16.429688 C2.8512292,16.8190213 2.66014587,17.640292 3.0494792,18.2656253 C3.3014792,18.6709587 3.73956253,18.8958333 4.18489587,18.8958333 C4.4262292,18.8958333 4.6680208,18.828708 4.8880208,18.692708 C5.62535413,18.232708 6.47689587,17.992188 7.35156253,17.992188 C8.0862292,17.9908547 8.68229173,17.3935827 8.68229173,16.6562507 C8.68229173,15.918916 8.08495827,15.3229173 7.3489584,15.3229173 Z M1.4557292,20.9114587 C0.709062533,20.8714587 0.0819792,21.417708 0.0286458667,22.1510413 C0.0153125333,22.3110413 0.0156244399,22.4829173 0.0156244399,22.6562507 C0.0156244399,24.8162507 0.963854133,26.8711453 2.61718747,28.257812 C2.8705208,28.4711453 3.17510413,28.5781253 3.4817708,28.5781253 C3.85510413,28.5781253 4.22812507,28.4163547 4.49479173,28.0963547 C4.97479173,27.5363547 4.9092708,26.6984373 4.33593747,26.2317707 C3.28260413,25.3384373 2.68229173,24.0295827 2.68229173,22.6562507 C2.68229173,22.549584 2.6819792,22.445208 2.69531253,22.3385413 C2.74864587,21.605208 2.18906253,20.964792 1.4557292,20.9114587 Z M8.78906253,27.3229173 C8.04239587,27.3229173 7.4557292,27.9229173 7.4557292,28.6562507 C7.4557292,29.389584 8.04239587,29.989584 8.78906253,29.989584 L14.429688,29.989584 C15.1630213,29.989584 15.7630213,29.3895827 15.7630213,28.6562507 C15.7630213,27.922916 15.1630213,27.3229173 14.429688,27.3229173 L8.78906253,27.3229173 Z M20.070312,27.3229173 C19.3369787,27.3229173 18.7369787,27.9229173 18.7369787,28.6562507 C18.7369787,29.389584 19.3369787,29.989584 20.070312,29.989584 L25.7083333,29.989584 C26.4416667,29.989584 27.0416667,29.3895827 27.0416667,28.6562507 C27.0416667,27.922916 26.4416667,27.3229173 25.7083333,27.3229173 L20.070312,27.3229173 Z M31.3489587,27.3229173 C30.6129587,27.3229173 30.0156253,27.9189173 30.0156253,28.6562507 C30.0156253,29.393584 30.6129587,29.989584 31.3489587,29.989584 L34.682292,29.989584 C35.418292,29.989584 36.0156253,29.3935827 36.0156253,28.6562507 C36.0156253,27.918916 35.418292,27.3229173 34.682292,27.3229173 L31.3489587,27.3229173 Z" id="Shape" fill-rule="nonzero"></path>
                <circle id="Oval" cx="24.9858417" cy="16.6562503" r="3.85655265"></circle>
                <circle id="Oval" cx="12.2293626" cy="4.70982005" r="3.85655265"></circle>
                <circle id="Oval" cx="24.9858417" cy="4.70982005" r="3.85655265"></circle>
            </g>
        </g>
    </g>
</svg>