<?xml version="1.0" encoding="UTF-8"?>
<svg width="68px" height="68px" viewBox="0 0 68 68" version="1.1" xmlns="http://www.w3.org/2000/svg" xmlns:xlink="http://www.w3.org/1999/xlink">
    <title>row_count_match()</title>
    <g id="Function-Icons---outlines" stroke="none" stroke-width="1" fill="none" fill-rule="evenodd">
        <g id="row_count_match()" transform="translate(0.116476, 0.144793)">
            <path d="M56.712234,1.01466935 C59.1975153,1.01466935 61.4475153,2.02202867 63.076195,3.65070832 C64.7048747,5.27938798 65.712234,7.52938798 65.712234,10.0146694 L65.712234,10.0146694 L65.712234,65.0146694 L10.712234,65.0146694 C8.22695259,65.0146694 5.97695259,64.00731 4.34827294,62.3786304 C2.71959328,60.7499507 1.71223397,58.4999507 1.71223397,56.0146694 L1.71223397,56.0146694 L1.71223397,10.0146694 C1.71223397,7.52938798 2.71959328,5.27938798 4.34827294,3.65070832 C5.97695259,2.02202867 8.22695259,1.01466935 10.712234,1.01466935 L10.712234,1.01466935 Z" id="rectangle" stroke="#000000" stroke-width="2" fill="#FFFFFF"></path>
            <path d="M40.3594247,28.485751 C40.4780662,28.4887835 40.794314,28.5041143 41.0132803,28.7208519 C41.1385277,28.8448244 41.212234,29.039678 41.212234,29.318664 L41.212234,29.318664 L41.212234,68.6519973 C41.212234,68.9348269 41.1362198,69.1311718 41.0080971,69.2548765 C40.7683173,69.486388 40.4184638,69.4853306 40.3312816,69.4853306 L37.259853,69.4853306 L37.259853,28.485389 Z M35.6884244,28.4853306 L35.6884244,69.4853306 L31.7360435,69.4853306 L31.7360435,28.4853306 L35.6884244,28.4853306 Z M30.1646149,28.4853306 L30.1646149,69.4853306 L27.0549084,69.4850493 C26.9296179,69.4826944 26.6295085,69.4606645 26.4163708,69.2548765 C26.2882481,69.1311718 26.212234,68.9348269 26.212234,68.6519973 L26.212234,68.6519973 L26.212234,29.318664 C26.212234,29.0358344 26.2882481,28.8394895 26.4163708,28.7157848 C26.6561507,28.4842733 27.0060041,28.4853306 27.0931863,28.4853306 L30.1646149,28.4853306 Z" id="columns_schema" stroke="#000000" fill-rule="nonzero" transform="translate(33.712234, 48.985331) rotate(-90.000000) translate(-33.712234, -48.985331) "></path>
            <g id="vertical_equal" transform="translate(30.000000, 29.000000)" stroke="#000000" stroke-linecap="square">
                <line x1="2.21223397" y1="0.514669353" x2="2.21223397" y2="7.58573716" id="Line"></line>
                <line x1="5.21223397" y1="0.514669353" x2="5.21223397" y2="7.58573716" id="Line-Copy"></line>
            </g>
            <path d="M36.759853,-2.98533065 L36.759853,39.0146694 L40.3312816,39.0146694 C40.5408054,39.0146694 41.712234,38.9646694 41.712234,37.681336 L41.712234,-1.65199731 C41.712234,-2.93533065 40.5408054,-2.98533065 40.3312816,-2.98533065 L36.759853,-2.98533065 Z M31.2360435,-2.98533065 C31.2360435,-2.98533065 31.2360435,11.0146694 31.2360435,39.0146694 L36.1884244,39.0146694 L36.1884244,-2.98533065 C32.8868371,-2.98533065 31.2360435,-2.98533065 31.2360435,-2.98533065 Z M27.0931863,-2.98533065 C26.8836625,-2.98533065 25.712234,-2.93533065 25.712234,-1.65199731 L25.712234,37.681336 C25.712234,38.9646694 26.8836625,39.0146694 27.0931863,39.0146694 L30.6646149,39.0146694 L30.6646149,-2.98533065 L27.0931863,-2.98533065 Z" id="columns_real" fill="#000000" fill-rule="nonzero" transform="translate(33.712234, 18.014669) rotate(-90.000000) translate(-33.712234, -18.014669) "></path>
        </g>
    </g>
</svg>
