<svg width="67px" height="67px" viewBox="0 0 67 67" version="1.1" xmlns="http://www.w3.org/2000/svg" xmlns:xlink="http://www.w3.org/1999/xlink">
    <defs>
        <path d="M10.712234,0 L56.712234,0 C62.2350815,-1.01453063e-15 66.712234,4.4771525 66.712234,10 L66.712234,66 L10.712234,66 C5.18938647,66 0.712233968,61.5228475 0.712233968,56 L0.712233968,10 C0.712233968,4.4771525 5.18938647,1.01453063e-15 10.712234,0 Z" id="path-1"></path>
    </defs>
    <g id="pointblank" stroke="none" stroke-width="1" fill="none" fill-rule="evenodd">
        <g id="rows_distinct" transform="translate(-0.500000, 0.285474)">
            <g id="rectangle">
                <use fill="#FFFFFF" fill-rule="evenodd" xlink:href="#path-1"></use>
                <path stroke="#000000" stroke-width="2" d="M65.712234,65 L65.712234,10 C65.712234,5.02943725 61.6827967,1 56.712234,1 L10.712234,1 C5.74167122,1 1.71223397,5.02943725 1.71223397,10 L1.71223397,56 C1.71223397,60.9705627 5.74167122,65 10.712234,65 L65.712234,65 Z"></path>
            </g>
            <g id="no_gemini" transform="translate(17.000000, 13.000000)">
                <path d="M3.66705619,6.62107508 C3.12510104,6.64066386 2.67455974,7.04767444 2.60273432,7.58527682 C2.52873228,8.1228792 2.85303526,8.6343627 3.37104848,8.79760239 C4.40489909,9.15455286 6.70113553,9.87063021 9.86580595,10.364702 L9.86580595,30.7369976 C6.65978137,31.2332458 4.37225104,31.964559 3.37104848,32.3215095 C2.78991555,32.5282797 2.48520173,33.1681784 2.69197196,33.7493114 C2.8987422,34.3304443 3.53864094,34.6351581 4.11977387,34.4283879 C5.54975217,33.9190808 10.2031678,32.4608072 16.5172734,32.4608072 C22.7943781,32.4608072 27.5500901,33.8907855 29.0540706,34.4109757 C29.6352036,34.6133926 30.2707495,34.304326 30.4731664,33.7231931 C30.6755833,33.1420601 30.3665167,32.5065142 29.7853838,32.3040973 C28.7493568,31.9449704 26.4313554,31.2441283 23.2383897,30.7544098 L23.2383897,10.3821143 C26.4444143,9.88804243 28.745004,9.16108259 29.7679716,8.79760239 C30.3491045,8.59083215 30.6538184,7.95093341 30.4470481,7.36980048 C30.2402779,6.78866755 29.6003791,6.48395373 29.0192462,6.69072396 C27.5587963,7.20873774 22.9162637,8.65830464 16.6391589,8.65830464 C10.3707603,8.65830464 5.61287188,7.21309051 4.10236166,6.69072396 C3.96306391,6.6384873 3.81506005,6.61454548 3.66705619,6.62107508 Z M12.0945699,10.6432975 C13.4940771,10.789125 15.0198226,10.8870686 16.6391589,10.8870686 C18.1997289,10.8870686 19.6623552,10.7978311 21.0096257,10.6607098 L21.0096257,30.4584021 C19.623178,30.316928 18.1191975,30.2320433 16.5172734,30.2320433 C14.9327615,30.2320433 13.4570763,30.3191044 12.0945699,30.4584021 L12.0945699,10.6432975 Z" id="gemini" stroke="#000000" stroke-width="2" fill="#000000" fill-rule="nonzero"></path>
                <rect id="line_black" fill="#000000" transform="translate(16.660535, 20.004728) rotate(-320.000000) translate(-16.660535, -20.004728) " x="16.1605354" y="-5.05929499" width="1" height="50.1280459" rx="0.5"></rect>
                <rect id="line_white" fill="#FFFFFF" transform="translate(18.560032, 19.158031) rotate(-320.000000) translate(-18.560032, -19.158031) " x="18.0600316" y="-4.45366735" width="1" height="47.2233972"></rect>
            </g>
        </g>
    </g>
</svg>
