<?xml version="1.0" encoding="UTF-8"?>
<svg width="67px" height="66px" viewBox="0 0 67 66" version="1.1" xmlns="http://www.w3.org/2000/svg" xmlns:xlink="http://www.w3.org/1999/xlink">
    <title>rows_complete()</title>
    <g id="Package-Graphics" stroke="none" stroke-width="1" fill="none" fill-rule="evenodd">
        <g id="rows_complete()">
            <path d="M56.712234,1 C59.1975153,1 61.4475153,2.00735931 63.076195,3.63603897 C64.7048747,5.26471863 65.712234,7.51471863 65.712234,10 L65.712234,10 L65.712234,65 L10.712234,65 C8.22695259,65 5.97695259,63.9926407 4.34827294,62.363961 C2.71959328,60.7352814 1.71223397,58.4852814 1.71223397,56 L1.71223397,56 L1.71223397,10 C1.71223397,7.51471863 2.71959328,5.26471863 4.34827294,3.63603897 C5.97695259,2.00735931 8.22695259,1 10.712234,1 L10.712234,1 Z" id="rectangle" stroke="#000000" stroke-width="2" fill="#FFFFFF"></path>
            <g id="complete_me" transform="translate(12.500000, 9.500000)" fill="#000000">
                <path d="M8,0 L8,10 L16,10 L16,18 L26,18 L26,10 L34,10 L34,0 L8,0 Z M10,2 L16,2 L16,8 L10,8 L10,2 Z M18,2 L24,2 L24,8 L18,8 L18,2 Z M26,2 L32,2 L32,8 L26,8 L26,2 Z M18,10 L24,10 L24,16 L18,16 L18,10 Z M0,21 L0,47 L42,47 L42,21 L32,21 L32,29 L24,29 L24,37 L18,37 L18,29 L10,29 L10,21 L0,21 Z M2,23 L8,23 L8,29 L2,29 L2,23 Z M34,23 L40,23 L40,29 L34,29 L34,23 Z M2,31 L8,31 L8,37 L2,37 L2,31 Z M10,31 L16,31 L16,37 L10,37 L10,31 Z M26,31 L32,31 L32,37 L26,37 L26,31 Z M34,31 L40,31 L40,37 L34,37 L34,31 Z M2,39 L8,39 L8,45 L2,45 L2,39 Z M10,39 L16,39 L16,45 L10,45 L10,39 Z M18,39 L24,39 L24,45 L18,45 L18,39 Z M26,39 L32,39 L32,45 L26,45 L26,39 Z M34,39 L40,39 L40,45 L34,45 L34,39 Z" id="Shape" fill-rule="nonzero"></path>
                <path d="M22.4571118,18.3586341 C22.9258618,18.2961341 23.3750808,18.5695721 23.5313308,19.0148841 C23.6914868,19.4601971 23.5157058,19.9562901 23.1133618,20.2023841 L23.1133618,20.2023841 L20.2071118,22.3898841 L25.7993928,22.3897764 L25.7993928,24.3897764 L20.2071118,24.3898841 L23.1133618,26.5773841 C23.5625808,26.9133221 23.6524248,27.5500401 23.3164868,27.9992591 C22.9805498,28.4484781 22.3438308,28.5383221 21.8946118,28.2023841 L21.8946118,28.2023841 L16.6133618,24.2023841 C16.3516428,24.0148841 16.1953928,23.7101971 16.1953928,23.3898841 C16.1953928,23.0695721 16.3516428,22.7648841 16.6133618,22.5773841 L16.6133618,22.5773841 L21.8946118,18.5773841 C22.0235178,18.4797281 22.1719558,18.4172281 22.3321118,18.3898841 C22.3711748,18.3781651 22.4141428,18.3664471 22.4571118,18.3586341 Z" id="arrow_right" transform="translate(20.997393, 23.377614) rotate(-90.000000) translate(-20.997393, -23.377614) "></path>
            </g>
        </g>
    </g>
</svg>