<svg width="24px" height="25px" viewBox="0 0 24 25" version="1.1" xmlns="http://www.w3.org/2000/svg" xmlns:xlink="http://www.w3.org/1999/xlink" style="vertical-align: middle;">
    <g id="modified" stroke="none" stroke-width="1" fill="none" fill-rule="evenodd">
        <g id="modified" transform="translate(0.000000, 0.570147)">
            <rect id="Rectangle" x="0.125132506" y="0" width="23.749735" height="23.7894737"></rect>
            <rect id="Rectangle" fill="#000000" x="15.2215626" y="14.8025885" width="6.34089821" height="6.34089821"></rect>
            <rect id="Rectangle" fill="#9A7CB4" x="16.1264309" y="15.7074568" width="4.53116158" height="4.53116158"></rect>
            <path d="M4.40094816,14.3498527 C2.36911602,14.3498527 0.715948163,16.0028586 0.715948163,18.0348527 C0.715948163,20.0668467 2.36911602,21.7198527 4.40094816,21.7198527 C6.43278031,21.7198527 8.08594816,20.0668467 8.08594816,18.0348527 C8.08594816,16.0028586 6.43272633,14.3498527 4.40094816,14.3498527 Z M4.40094816,20.9828203 C2.77541767,20.9828203 1.45298055,19.6603831 1.45298055,18.0348527 C1.45298055,16.4093222 2.77541767,15.086885 4.40094816,15.086885 C6.02647865,15.086885 7.34891578,16.4093222 7.34891578,18.0348527 C7.34891578,19.6603831 6.02647865,20.9828203 4.40094816,20.9828203 Z" id="Shape" fill="#000000" fill-rule="nonzero"></path>
            <path d="M18.4333601,-0.640287588 L18.4333601,14.5882952 L9.52131131,14.5882952 L11.3716151,15.980997 C11.6576165,16.1948765 11.7148169,16.6002518 11.5009374,16.8862532 C11.2870585,17.1722546 10.8816827,17.229455 10.5956813,17.0155755 L10.5956813,17.0155755 L7.23330126,14.4689208 C7.06667429,14.3495464 6.96719559,14.1555632 6.96719559,13.9516316 C6.96719559,13.7477006 7.06667429,13.5537168 7.23330126,13.4343424 L7.23330126,13.4343424 L10.5956813,10.8876877 C10.677751,10.8255137 10.7722561,10.7857222 10.8742216,10.7683132 C10.8990916,10.7608522 10.9264478,10.7533918 10.9538046,10.7484175 C11.2522407,10.708626 11.5382421,10.8827141 11.6377208,11.166228 C11.7396863,11.4497426 11.6277729,11.765587 11.3716151,11.9222661 L11.3716151,11.9222661 L9.52131131,13.3149679 L17.1593533,13.3147124 L17.1594577,0.633614828 L6.9283533,0.633614828 L6.9283533,-0.640287588 L18.4333601,-0.640287588 Z" id="arrow" fill="#000000" transform="translate(12.680857, 8.252286) rotate(-90.000000) translate(-12.680857, -8.252286) "></path>
        </g>
    </g>
</svg>
