<svg width="25px" height="25px" viewBox="0 0 25 25" version="1.1" xmlns="http://www.w3.org/2000/svg" xmlns:xlink="http://www.w3.org/1999/xlink" style="vertical-align: middle;">
    <g id="unchanged" stroke="none" stroke-width="1" fill="none" fill-rule="evenodd">
        <g id="unchanged" transform="translate(0.500000, 0.570147)">
            <rect id="Rectangle" x="0.125132506" y="0" width="23.749735" height="23.7894737"></rect>
            <path d="M5.80375046,8.18194736 C3.77191832,8.18194736 2.11875046,9.83495328 2.11875046,11.8669474 C2.11875046,13.8989414 3.77191832,15.5519474 5.80375046,15.5519474 C7.8355826,15.5519474 9.48875046,13.8989414 9.48875046,11.8669474 C9.48875046,9.83495328 7.83552863,8.18194736 5.80375046,8.18194736 Z M5.80375046,14.814915 C4.17821997,14.814915 2.85578285,13.4924778 2.85578285,11.8669474 C2.85578285,10.2414169 4.17821997,8.91897975 5.80375046,8.91897975 C7.42928095,8.91897975 8.75171807,10.2414169 8.75171807,11.8669474 C8.75171807,13.4924778 7.42928095,14.814915 5.80375046,14.814915 Z" id="Shape" fill="#000000" fill-rule="nonzero"></path>
            <path d="M13.9638189,8.699335 C13.9364621,8.70430925 13.9091059,8.71176968 13.8842359,8.71923074 C13.7822704,8.73663967 13.6877654,8.77643115 13.6056956,8.83860518 L10.2433156,11.3852598 C10.0766886,11.5046343 9.97720993,11.6986181 9.97720993,11.9025491 C9.97720993,12.1064807 10.0766886,12.3004639 10.2433156,12.4198383 L13.6056956,14.966493 C13.891697,15.1803725 14.2970729,15.1231721 14.5109517,14.8371707 C14.7248313,14.5511692 14.6676309,14.145794 14.3816294,13.9319145 L12.5313257,12.5392127 L21.8812495,12.5392127 L21.8812495,11.2658854 L12.5313257,11.2658854 L14.3816294,9.87318364 C14.6377872,9.71650453 14.7497006,9.40066014 14.6477351,9.11714553 C14.5482564,8.83363156 14.262255,8.65954352 13.9638189,8.699335 Z" id="arrow" fill="#000000" transform="translate(15.929230, 11.894737) rotate(-180.000000) translate(-15.929230, -11.894737) "></path>
        </g>
    </g>
</svg>
